<?xml version="1.0" encoding="utf-8"?>
<!-- Generator: Adobe Illustrator 24.0.1, SVG Export Plug-In . SVG Version: 6.00 Build 0)  -->
<svg version="1.1" id="Layer_1" xmlns="http://www.w3.org/2000/svg" xmlns:xlink="http://www.w3.org/1999/xlink" x="0px" y="0px"
	 viewBox="0 0 786.8 572.3" style="enable-background:new 0 0 786.8 572.3;" xml:space="preserve">
<style type="text/css">
	.st0{fill:#F2F2F2;}
	.st1{fill:#3F3D56;}
	.st2{fill:#FFFFFF;}
	.st3{fill:#2F2E41;}
	.st4{fill:#FFB6B6;}
	.st5{opacity:0.2;enable-background:new    ;}
</style>
<circle class="st0" cx="458.3" cy="74.2" r="26.7"/>
<path class="st0" d="M665.4,497.2c39.7-30.2,58.6-81,46.8-129.5c-0.3-1.2-0.6-2.4-0.9-3.6c-7.9-28.8-27.3-56.1-55.7-65.3
	c-23.8-7.7-49.8-1.8-74.7-4.9c-48.8-6-86.6-45.5-113.2-86.8s-47.1-87.6-82.4-121.7C327,29.1,231.9,17,159.7,53.6
	C87.4,90.3,41.4,171.5,43.3,252.5c2,81,50,158.4,119.9,199.5c25.7,15.1,55.3,25.8,84.8,22c25.6-3.2,48.9-17,74.4-21.1
	c40.1-6.4,79.9,11.7,114.6,32.8c34.7,21.1,68.2,46.2,107.6,56C582.9,551.3,630.3,523.9,665.4,497.2z"/>
<path class="st1" d="M608.4,55.3c-0.9-0.6-1.8-1.1-2.6-1.7c-25.1-16.1-52.1-29.2-80.3-38.9l-6.5,90.2h-41.5V1.5
	c-2.6-0.5-5.2-1.1-7.9-1.5v104.9h-49.3C363.8,104.9,318,59.1,318,2.6l0,0c-2.6,0.6-5.3,1.2-7.9,1.8v100.4H270l-6.2-86
	c-29,11.1-56.5,25.7-81.9,43.5c-0.4,0.3-0.9,0.6-1.3,0.9c-2.2,1.6-4.4,3.1-6.6,4.7v344.2h118.3l-2.1-29l-11.5-159h231.6l-11.5,159
	l-2.1,29h117V58.8C611.9,57.6,610.2,56.5,608.4,55.3z M310.2,198.1h-33.4l-6.2-85.3h39.6V198.1z M469.6,198.1h-56.1v-1.7
	c0-3.4-2.8-6.2-6.2-6.2l0,0H383c-3.4,0-6.2,2.8-6.2,6.2l0,0v1.7h-58.7v-85.3h151.5L469.6,198.1z M477.5,198.1v-85.3h40.9l-6.2,85.3
	H477.5z"/>
<path class="st1" d="M627.1,434.2h-3.2c-0.3,0-0.5-0.2-0.5-0.5v-1.5c0-0.3,0.2-0.5,0.5-0.5h3.2c0.3,0,0.5,0.2,0.5,0.5v1.5
	C627.6,434,627.4,434.2,627.1,434.2z"/>
<path class="st2" d="M76.1,443.7h2.8c0.9,0,1.6,0.7,1.6,1.6l0,0c0,0.9-0.7,1.6-1.6,1.6h-2.8c-0.9,0-1.6-0.7-1.6-1.6l0,0
	C74.5,444.4,75.2,443.7,76.1,443.7z"/>
<path class="st2" d="M108.6,443.7h2.8c0.9,0,1.6,0.7,1.6,1.6l0,0c0,0.9-0.7,1.6-1.6,1.6h-2.8c-0.9,0-1.6-0.7-1.6-1.6l0,0
	C107.1,444.4,107.8,443.7,108.6,443.7z"/>
<path class="st2" d="M117.8,443.7h2.8c0.9,0,1.6,0.7,1.6,1.6l0,0c0,0.9-0.7,1.6-1.6,1.6h-2.8c-0.9,0-1.6-0.7-1.6-1.6l0,0
	C116.3,444.4,117,443.7,117.8,443.7z"/>
<path class="st2" d="M84.9,443.5h17.7c0.9,0,1.6,0.7,1.6,1.6l0,0c0,0.9-0.7,1.6-1.6,1.6H84.9c-0.9,0-1.6-0.7-1.6-1.6l0,0
	C83.4,444.2,84.1,443.5,84.9,443.5z"/>
<path class="st2" d="M84.8,450.8h2.8c0.9,0,1.6,0.7,1.6,1.6l0,0c0,0.9-0.7,1.6-1.6,1.6h-2.8c-0.9,0-1.6-0.7-1.6-1.6l0,0
	C83.2,451.5,83.9,450.8,84.8,450.8z"/>
<path class="st2" d="M117.3,450.8h2.8c0.9,0,1.6,0.7,1.6,1.6l0,0c0,0.9-0.7,1.6-1.6,1.6h-2.8c-0.9,0-1.6-0.7-1.6-1.6l0,0
	C115.7,451.5,116.4,450.8,117.3,450.8z"/>
<path class="st2" d="M126.5,450.8h2.8c0.9,0,1.6,0.7,1.6,1.6l0,0c0,0.9-0.7,1.6-1.6,1.6h-2.8c-0.9,0-1.6-0.7-1.6-1.6l0,0
	C124.9,451.5,125.6,450.8,126.5,450.8z"/>
<path class="st2" d="M93.6,450.5h17.7c0.9,0,1.6,0.7,1.6,1.6l0,0c0,0.9-0.7,1.6-1.6,1.6H93.6c-0.9,0-1.6-0.7-1.6-1.6l0,0
	C92.1,451.2,92.7,450.5,93.6,450.5z"/>
<path class="st2" d="M93.4,457.8h2.8c0.9,0,1.6,0.7,1.6,1.6l0,0c0,0.9-0.7,1.6-1.6,1.6h-2.8c-0.9,0-1.6-0.7-1.6-1.6l0,0
	C91.9,458.5,92.6,457.8,93.4,457.8z"/>
<path class="st2" d="M102.1,464.9h2.8c0.9,0,1.6,0.7,1.6,1.6l0,0c0,0.9-0.7,1.6-1.6,1.6h-2.8c-0.9,0-1.6-0.7-1.6-1.6l0,0
	C100.5,465.6,101.2,464.9,102.1,464.9z"/>
<path class="st2" d="M134.6,464.9h2.8c0.9,0,1.6,0.7,1.6,1.6l0,0c0,0.9-0.7,1.6-1.6,1.6h-2.8c-0.9,0-1.6-0.7-1.6-1.6l0,0
	C133.1,465.6,133.8,464.9,134.6,464.9z"/>
<path class="st2" d="M143.8,464.9h2.8c0.9,0,1.6,0.7,1.6,1.6l0,0c0,0.9-0.7,1.6-1.6,1.6h-2.8c-0.9,0-1.6-0.7-1.6-1.6l0,0
	C142.3,465.6,143,464.9,143.8,464.9z"/>
<path class="st2" d="M111,464.6h17.7c0.9,0,1.6,0.7,1.6,1.6l0,0c0,0.9-0.7,1.6-1.6,1.6H111c-0.9,0-1.6-0.7-1.6-1.6l0,0
	C109.4,465.3,110.1,464.6,111,464.6z"/>
<path class="st1" d="M191.5,436.8v9.9c0,1.1,0.9,1.9,1.9,1.9h68.4c1.1,0,1.9-0.9,1.9-1.9v-9.9H191.5z"/>
<path class="st1" d="M691.4,380.8c0.9,5,10.6,8.5,22.4,7.8c10.8-0.5,19.6-4.3,21.2-8.8c-0.6-0.2-1.2-0.3-1.8-0.2l-40.8,1.1
	C692.1,380.7,691.7,380.7,691.4,380.8z"/>
<g>
	<path class="st3" d="M693.6,441.1c0.9,2.6,3.4,4.4,6.2,4.3l26.5-0.7c2.8-0.1,5.2-2,6-4.7l3.7-40c1.3,0.6,2.8,0.9,4.2,0.9
		c5.3-0.1,9.5-4.6,9.4-9.9s-4.6-9.5-9.9-9.4c-0.6,0-1.2,0.1-1.7,0.2c-1.3-1.4-3-2.1-4.9-2.1l-40.8,1.1c-0.3,0-0.7,0.1-1,0.1
		c-3.5,0.6-5.7,4-5.1,7.4c0.1,0.3,0.1,0.6,0.2,0.8L693.6,441.1z M736.8,397.3l2.7-9.6c0.3-1.1,0.3-2.3,0-3.4c0.1,0,0.2-0.1,0.4-0.1
		c3.8-0.1,7,3,7.1,6.8s-2.9,7-6.7,7.1C739,398.1,737.8,397.9,736.8,397.3z"/>
	<path d="M715.9,419.1c0.1,0,0.1,0,0.2-0.1l5.8-3.8c0.2-0.2,0.3-0.5,0.1-0.7c0-0.1-0.1-0.1-0.1-0.1l-6-3.9c-0.2-0.2-0.5-0.1-0.7,0.1
		s-0.1,0.5,0.1,0.7l5.3,3.5l-5.1,3.3c-0.2,0.2-0.3,0.5-0.1,0.7C715.5,419,715.7,419.1,715.9,419.1L715.9,419.1z"/>
	<path d="M706.8,419.5c0.3-0.1,0.4-0.3,0.4-0.6c0-0.1-0.1-0.2-0.2-0.3l-5.3-3l5.1-3.8c0.2-0.2,0.3-0.5,0.1-0.7s-0.5-0.3-0.7-0.1
		l-5.7,4.3c-0.2,0.2-0.3,0.5-0.1,0.7c0,0.1,0.1,0.1,0.2,0.1l6,3.4C706.6,419.5,706.7,419.5,706.8,419.5z"/>
	<path d="M719.8,426.1c0,0,0.2,0,0.2-0.2c0.3-0.2,0.5-0.8,0.3-1.1l0,0l-12.4-20.2c-0.2-0.3-0.8-0.5-1.1-0.3s-0.5,0.8-0.3,1.1
		l12.4,20.2C719.2,425.9,719.5,426.1,719.8,426.1z"/>
</g>
<g>
	<path class="st3" d="M536.1,333v102.5H608V333c0-1.5-1-2.9-2.4-3.3c-0.3-0.1-0.7-0.2-1-0.2h-64.9
		C537.6,329.5,536.1,331.1,536.1,333L536.1,333z M564.1,368.2c0-4.2,3.5-7.6,7.7-7.6s7.6,3.4,7.6,7.6v11.9c0,4.2-3.5,7.7-7.7,7.6
		c-4.2,0-7.6-3.4-7.6-7.6V368.2z"/>
	<path class="st1" d="M423.1,178.5v187.3c0,5,4,9,9,9h277.5c5,0,9-4,9-9V178.5c0-5-4-9-9-9H432.1
		C427.1,169.5,423.1,173.5,423.1,178.5z"/>
	<path class="st2" d="M429.6,180.8v182.6c0,2.7,2.2,4.8,4.8,4.8h272.9c2.7,0,4.8-2.2,4.8-4.8V180.8c0-2.7-2.2-4.8-4.8-4.8H434.4
		C431.7,176,429.6,178.1,429.6,180.8z"/>
	<path class="st3" d="M480.2,443.4c0.6,0.7,1.4,1.1,2.3,1.1h162.3c1.6,0,3-1.3,3-3c0-0.2,0-0.4-0.1-0.6l-2.5-12
		c-0.2-1-0.9-1.8-1.9-2.2c-0.3-0.1-0.7-0.2-1.1-0.2H485c-0.4,0-0.7,0.1-1.1,0.2c-0.9,0.4-1.6,1.2-1.9,2.2l-2.5,12
		C479.4,441.8,479.6,442.7,480.2,443.4z"/>
</g>
<path class="st1" d="M4,439.7c8.7,10.3,18.1,20,28.1,29l730.6,1c10-9,19.4-18.7,28.1-29L4,439.7z"/>
<g>
	<path class="st1" d="M146.8,347.8v85.7c0,2.3,1.8,4.1,4.1,4.1h127c2.3,0,4.1-1.8,4.1-4.1v-85.7c0-2.3-1.8-4.1-4.1-4.1h-127
		C148.7,343.7,146.8,345.5,146.8,347.8z"/>
	<path d="M149.8,348.9v83.6c0,1.2,1,2.2,2.2,2.2h124.9c1.2,0,2.2-1,2.2-2.2v-83.6c0-1.2-1-2.2-2.2-2.2H152
		C150.8,346.7,149.8,347.6,149.8,348.9z"/>
	<path class="st3" d="M144.2,450.2c0.5,0.6,1.2,0.9,1.9,0.9h136c1.4,0,2.5-1.1,2.5-2.5c0-0.2,0-0.3-0.1-0.5l-2.1-10
		c-0.2-0.8-0.8-1.5-1.6-1.8c-0.3-0.1-0.6-0.2-0.9-0.2H148.2c-0.3,0-0.6,0.1-0.9,0.2c-0.8,0.3-1.4,1-1.6,1.8l-2.1,10
		C143.5,448.9,143.7,449.6,144.2,450.2z"/>
	<path class="st1" d="M270.2,440.4H267c-0.3,0-0.5-0.2-0.5-0.5v-1.5c0-0.3,0.2-0.5,0.5-0.5h3.2c0.3,0,0.5,0.2,0.5,0.5v1.5
		C270.7,440.2,270.4,440.4,270.2,440.4z"/>
	<path class="st1" d="M261.8,440.4h-3.2c-0.3,0-0.5-0.2-0.5-0.5v-1.5c0-0.3,0.2-0.5,0.5-0.5h3.2c0.3,0,0.5,0.2,0.5,0.5v1.5
		C262.3,440.2,262.1,440.4,261.8,440.4z"/>
	<path class="st1" d="M253.4,440.4h-3.2c-0.3,0-0.5-0.2-0.5-0.5v-1.5c0-0.3,0.2-0.5,0.5-0.5h3.2c0.3,0,0.5,0.2,0.5,0.5v1.5
		C253.9,440.2,253.7,440.4,253.4,440.4z"/>
	<path class="st1" d="M245,440.4h-3.2c-0.3,0-0.5-0.2-0.5-0.5v-1.5c0-0.3,0.2-0.5,0.5-0.5h3.2c0.3,0,0.5,0.2,0.5,0.5v1.5
		C245.5,440.2,245.3,440.4,245,440.4z"/>
	<path class="st1" d="M236.7,440.4h-3.3c-0.3,0-0.5-0.2-0.5-0.5v-1.5c0-0.3,0.2-0.5,0.5-0.5h3.2c0.3,0,0.5,0.2,0.5,0.5v1.5
		C237.1,440.2,236.9,440.4,236.7,440.4z"/>
	<path class="st1" d="M228.3,440.4h-3.2c-0.3,0-0.5-0.2-0.5-0.5v-1.5c0-0.3,0.2-0.5,0.5-0.5h3.2c0.3,0,0.5,0.2,0.5,0.5v1.5
		C228.8,440.2,228.6,440.4,228.3,440.4z"/>
	<path class="st1" d="M219.9,440.4h-3.2c-0.3,0-0.5-0.2-0.5-0.5v-1.5c0-0.3,0.2-0.5,0.5-0.5h3.2c0.3,0,0.5,0.2,0.5,0.5v1.5
		C220.4,440.2,220.2,440.4,219.9,440.4z"/>
	<path class="st1" d="M211.5,440.4h-3.2c-0.3,0-0.5-0.2-0.5-0.5v-1.5c0-0.3,0.2-0.5,0.5-0.5h3.2c0.3,0,0.5,0.2,0.5,0.5v1.5
		C212,440.2,211.8,440.4,211.5,440.4z"/>
	<path class="st1" d="M203.2,440.4H200c-0.3,0-0.5-0.2-0.5-0.5v-1.5c0-0.3,0.2-0.5,0.5-0.5h3.2c0.3,0,0.5,0.2,0.5,0.5v1.5
		C203.6,440.2,203.4,440.4,203.2,440.4z"/>
	<path class="st1" d="M194.8,440.4h-3.2c-0.3,0-0.5-0.2-0.5-0.5v-1.5c0-0.3,0.2-0.5,0.5-0.5h3.2c0.3,0,0.5,0.2,0.5,0.5v1.5
		C195.3,440.2,195,440.4,194.8,440.4z"/>
	<path class="st1" d="M186.4,440.4h-3.2c-0.3,0-0.5-0.2-0.5-0.5v-1.5c0-0.3,0.2-0.5,0.5-0.5h3.2c0.3,0,0.5,0.2,0.5,0.5v1.5
		C186.9,440.2,186.7,440.4,186.4,440.4z"/>
	<path class="st1" d="M178,440.4h-3.2c-0.3,0-0.5-0.2-0.5-0.5v-1.5c0-0.3,0.2-0.5,0.5-0.5h3.2c0.3,0,0.5,0.2,0.5,0.5v1.5
		C178.5,440.2,178.3,440.4,178,440.4z"/>
	<path class="st1" d="M169.6,440.4h-3.2c-0.3,0-0.5-0.2-0.5-0.5v-1.5c0-0.3,0.2-0.5,0.5-0.5h3.2c0.3,0,0.5,0.2,0.5,0.5v1.5
		C170.1,440.2,169.9,440.4,169.6,440.4z"/>
	<path class="st1" d="M161.3,440.4h-3.2c-0.3,0-0.5-0.2-0.5-0.5v-1.5c0-0.3,0.2-0.5,0.5-0.5h3.2c0.3,0,0.5,0.2,0.5,0.5v1.5
		C161.8,440.2,161.5,440.4,161.3,440.4z"/>
	<path class="st1" d="M152.9,440.4h-3.2c-0.3,0-0.5-0.2-0.5-0.5v-1.5c0-0.3,0.2-0.5,0.5-0.5h3.2c0.3,0,0.5,0.2,0.5,0.5v1.5
		C153.4,440.2,153.2,440.4,152.9,440.4z"/>
	<path class="st1" d="M278.6,444.6h-3.2c-0.3,0-0.5-0.2-0.5-0.5v-1.5c0-0.3,0.2-0.5,0.5-0.5h3.2c0.3,0,0.5,0.2,0.5,0.5v1.5
		C279.1,444.4,278.9,444.6,278.6,444.6z"/>
	<path class="st1" d="M270.3,444.6h-3.2c-0.3,0-0.5-0.2-0.5-0.5v-1.5c0-0.3,0.2-0.5,0.5-0.5h3.2c0.3,0,0.5,0.2,0.5,0.5v1.5
		C270.8,444.4,270.5,444.6,270.3,444.6z"/>
	<path class="st1" d="M261.9,444.6h-3.2c-0.3,0-0.5-0.2-0.5-0.5v-1.5c0-0.3,0.2-0.5,0.5-0.5h3.2c0.3,0,0.5,0.2,0.5,0.5v1.5
		C262.4,444.4,262.2,444.6,261.9,444.6z"/>
	<path class="st1" d="M253.5,444.6h-3.2c-0.3,0-0.5-0.2-0.5-0.5v-1.5c0-0.3,0.2-0.5,0.5-0.5h3.2c0.3,0,0.5,0.2,0.5,0.5v1.5
		C254,444.4,253.8,444.6,253.5,444.6z"/>
	<path class="st1" d="M245.1,444.6h-3.2c-0.3,0-0.5-0.2-0.5-0.5v-1.5c0-0.3,0.2-0.5,0.5-0.5h3.2c0.3,0,0.5,0.2,0.5,0.5v1.5
		C245.6,444.4,245.4,444.6,245.1,444.6z"/>
	<path class="st1" d="M236.8,444.6h-3.2c-0.3,0-0.5-0.2-0.5-0.5v-1.5c0-0.3,0.2-0.5,0.5-0.5h3.2c0.3,0,0.5,0.2,0.5,0.5v1.5
		C237.2,444.4,237,444.6,236.8,444.6z"/>
	<path class="st1" d="M228.4,444.6h-3.2c-0.3,0-0.5-0.2-0.5-0.5v-1.5c0-0.3,0.2-0.5,0.5-0.5h3.2c0.3,0,0.5,0.2,0.5,0.5v1.5
		C228.9,444.4,228.7,444.6,228.4,444.6z"/>
	<path class="st1" d="M220,444.6h-3.2c-0.3,0-0.5-0.2-0.5-0.5v-1.5c0-0.3,0.2-0.5,0.5-0.5h3.2c0.3,0,0.5,0.2,0.5,0.5v1.5
		C220.5,444.4,220.3,444.6,220,444.6z"/>
	<path class="st1" d="M211.6,444.6h-3.2c-0.3,0-0.5-0.2-0.5-0.5v-1.5c0-0.3,0.2-0.5,0.5-0.5h3.2c0.3,0,0.5,0.2,0.5,0.5v1.5
		C212.1,444.4,211.9,444.6,211.6,444.6z"/>
	<path class="st1" d="M203.3,444.6h-3.2c-0.3,0-0.5-0.2-0.5-0.5v-1.5c0-0.3,0.2-0.5,0.5-0.5h3.2c0.3,0,0.5,0.2,0.5,0.5v1.5
		C203.7,444.4,203.5,444.6,203.3,444.6z"/>
	<path class="st1" d="M194.9,444.6h-3.2c-0.3,0-0.5-0.2-0.5-0.5v-1.5c0-0.3,0.2-0.5,0.5-0.5h3.2c0.3,0,0.5,0.2,0.5,0.5v1.5
		C195.4,444.4,195.1,444.6,194.9,444.6z"/>
	<path class="st1" d="M186.5,444.6h-3.2c-0.3,0-0.5-0.2-0.5-0.5v-1.5c0-0.3,0.2-0.5,0.5-0.5h3.2c0.3,0,0.5,0.2,0.5,0.5v1.5
		C187,444.4,186.8,444.6,186.5,444.6z"/>
	<path class="st1" d="M178.1,444.6h-3.2c-0.3,0-0.5-0.2-0.5-0.5v-1.5c0-0.3,0.2-0.5,0.5-0.5h3.2c0.3,0,0.5,0.2,0.5,0.5v1.5
		C178.6,444.4,178.4,444.6,178.1,444.6z"/>
	<path class="st1" d="M169.7,444.6h-3.2c-0.3,0-0.5-0.2-0.5-0.5v-1.5c0-0.3,0.2-0.5,0.5-0.5h3.2c0.3,0,0.5,0.2,0.5,0.5v1.5
		C170.2,444.4,170,444.6,169.7,444.6z"/>
	<path class="st1" d="M161.4,444.6h-3.2c-0.3,0-0.5-0.2-0.5-0.5v-1.5c0-0.3,0.2-0.5,0.5-0.5h3.2c0.3,0,0.5,0.2,0.5,0.5v1.5
		C161.9,444.4,161.6,444.6,161.4,444.6z"/>
	<path class="st1" d="M153,444.6h-3.2c-0.3,0-0.5-0.2-0.5-0.5v-1.5c0-0.3,0.2-0.5,0.5-0.5h3.2c0.3,0,0.5,0.2,0.5,0.5v1.5
		C153.5,444.4,153.3,444.6,153,444.6z"/>
	<path class="st1" d="M238.4,449.6h-32.5c-0.3,0-0.5-0.2-0.5-0.5v-1.5c0-0.3,0.2-0.5,0.5-0.5h32.5c0.3,0,0.5,0.2,0.5,0.5v1.5
		C238.9,449.4,238.7,449.6,238.4,449.6z"/>
	<path class="st2" d="M168.6,364.9h2.8c0.9,0,1.6,0.7,1.6,1.6l0,0c0,0.9-0.7,1.6-1.6,1.6h-2.8c-0.9,0-1.6-0.7-1.6-1.6l0,0
		C167,365.6,167.7,364.9,168.6,364.9z"/>
	<path class="st2" d="M201.1,364.9h2.8c0.9,0,1.6,0.7,1.6,1.6l0,0c0,0.9-0.7,1.6-1.6,1.6h-2.8c-0.9,0-1.6-0.7-1.6-1.6l0,0
		C199.6,365.6,200.3,364.9,201.1,364.9z"/>
	<path class="st2" d="M210.3,364.9h2.8c0.9,0,1.6,0.7,1.6,1.6l0,0c0,0.9-0.7,1.6-1.6,1.6h-2.8c-0.9,0-1.6-0.7-1.6-1.6l0,0
		C208.8,365.6,209.5,364.9,210.3,364.9z"/>
	<path class="st2" d="M177.4,364.7h17.7c0.9,0,1.6,0.7,1.6,1.6l0,0c0,0.9-0.7,1.6-1.6,1.6h-17.7c-0.9,0-1.6-0.7-1.6-1.6l0,0
		C175.9,365.4,176.6,364.7,177.4,364.7z"/>
	<path class="st2" d="M220.8,364.7h17.7c0.9,0,1.6,0.7,1.6,1.6l0,0c0,0.9-0.7,1.6-1.6,1.6h-17.7c-0.9,0-1.6-0.7-1.6-1.6l0,0
		C219.2,365.4,219.9,364.7,220.8,364.7z"/>
	<path class="st2" d="M177.3,372h2.8c0.9,0,1.6,0.7,1.6,1.6l0,0c0,0.9-0.7,1.6-1.6,1.6h-2.8c-0.9,0-1.6-0.7-1.6-1.6l0,0
		C175.7,372.7,176.4,372,177.3,372z"/>
	<path class="st2" d="M209.8,372h2.8c0.9,0,1.6,0.7,1.6,1.6l0,0c0,0.9-0.7,1.6-1.6,1.6h-2.8c-0.9,0-1.6-0.7-1.6-1.6l0,0
		C208.2,372.7,208.9,372,209.8,372z"/>
	<path class="st2" d="M219,372h2.8c0.9,0,1.6,0.7,1.6,1.6l0,0c0,0.9-0.7,1.6-1.6,1.6H219c-0.9,0-1.6-0.7-1.6-1.6l0,0
		C217.4,372.7,218.1,372,219,372z"/>
	<path class="st2" d="M186.1,371.7h17.7c0.9,0,1.6,0.7,1.6,1.6l0,0c0,0.9-0.7,1.6-1.6,1.6h-17.7c-0.9,0-1.6-0.7-1.6-1.6l0,0
		C184.6,372.4,185.2,371.7,186.1,371.7z"/>
	<path class="st2" d="M229.5,371.7h17.7c0.9,0,1.6,0.7,1.6,1.6l0,0c0,0.9-0.7,1.6-1.6,1.6h-17.7c-0.9,0-1.6-0.7-1.6-1.6l0,0
		C227.9,372.4,228.6,371.7,229.5,371.7z"/>
	<path class="st2" d="M185.9,379h2.8c0.9,0,1.6,0.7,1.6,1.6l0,0c0,0.9-0.7,1.6-1.6,1.6h-2.8c-0.9,0-1.6-0.7-1.6-1.6l0,0
		C184.4,379.7,185.1,379,185.9,379z"/>
	<path class="st2" d="M218.5,379h2.8c0.9,0,1.6,0.7,1.6,1.6l0,0c0,0.9-0.7,1.6-1.6,1.6h-2.8c-0.9,0-1.6-0.7-1.6-1.6l0,0
		C216.9,379.7,217.6,379,218.5,379z"/>
	<path class="st2" d="M227.7,379h2.8c0.9,0,1.6,0.7,1.6,1.6l0,0c0,0.9-0.7,1.6-1.6,1.6h-2.8c-0.9,0-1.6-0.7-1.6-1.6l0,0
		C226.1,379.7,226.8,379,227.7,379z"/>
	<path class="st2" d="M194.8,378.8h17.7c0.9,0,1.6,0.7,1.6,1.6l0,0c0,0.9-0.7,1.6-1.6,1.6h-17.7c-0.9,0-1.6-0.7-1.6-1.6l0,0
		C193.2,379.5,193.9,378.8,194.8,378.8z"/>
	<path class="st2" d="M238.1,378.8h17.7c0.9,0,1.6,0.7,1.6,1.6l0,0c0,0.9-0.7,1.6-1.6,1.6h-17.7c-0.9,0-1.6-0.7-1.6-1.6l0,0
		C236.6,379.5,237.3,378.8,238.1,378.8z"/>
	<path class="st2" d="M194.6,386.1h2.8c0.9,0,1.6,0.7,1.6,1.6l0,0c0,0.9-0.7,1.6-1.6,1.6h-2.8c-0.9,0-1.6-0.7-1.6-1.6l0,0
		C193,386.8,193.7,386.1,194.6,386.1z"/>
	<path class="st2" d="M227.1,386.1h2.8c0.9,0,1.6,0.7,1.6,1.6l0,0c0,0.9-0.7,1.6-1.6,1.6h-2.8c-0.9,0-1.6-0.7-1.6-1.6l0,0
		C225.6,386.8,226.3,386.1,227.1,386.1z"/>
	<path class="st2" d="M236.3,386.1h2.8c0.9,0,1.6,0.7,1.6,1.6l0,0c0,0.9-0.7,1.6-1.6,1.6h-2.8c-0.9,0-1.6-0.7-1.6-1.6l0,0
		C234.8,386.8,235.5,386.1,236.3,386.1z"/>
	<path class="st2" d="M203.5,385.8h17.7c0.9,0,1.6,0.7,1.6,1.6l0,0c0,0.9-0.7,1.6-1.6,1.6h-17.7c-0.9,0-1.6-0.7-1.6-1.6l0,0
		C201.9,386.5,202.6,385.8,203.5,385.8z"/>
	<path class="st2" d="M201.1,414.1h2.8c0.9,0,1.6,0.7,1.6,1.6l0,0c0,0.9-0.7,1.6-1.6,1.6h-2.8c-0.9,0-1.6-0.7-1.6-1.6l0,0
		C199.6,414.8,200.3,414.1,201.1,414.1z"/>
	<path class="st2" d="M210.3,414.1h2.8c0.9,0,1.6,0.7,1.6,1.6l0,0c0,0.9-0.7,1.6-1.6,1.6h-2.8c-0.9,0-1.6-0.7-1.6-1.6l0,0
		C208.8,414.8,209.5,414.1,210.3,414.1z"/>
	<path class="st2" d="M220.8,414.4h17.7c0.9,0,1.6,0.7,1.6,1.6l0,0c0,0.9-0.7,1.6-1.6,1.6h-17.7c-0.9,0-1.6-0.7-1.6-1.6l0,0
		C219.2,415.1,219.9,414.4,220.8,414.4z"/>
	<path class="st2" d="M168.6,414.1h2.8c0.9,0,1.6,0.7,1.6,1.6l0,0c0,0.9-0.7,1.6-1.6,1.6h-2.8c-0.9,0-1.6-0.7-1.6-1.6l0,0
		C167,414.8,167.7,414.1,168.6,414.1z"/>
	<path class="st2" d="M177.4,414.4h17.7c0.9,0,1.6,0.7,1.6,1.6l0,0c0,0.9-0.7,1.6-1.6,1.6h-17.7c-0.9,0-1.6-0.7-1.6-1.6l0,0
		C175.9,415.1,176.6,414.4,177.4,414.4z"/>
	<path class="st2" d="M177.3,407.1h2.8c0.9,0,1.6,0.7,1.6,1.6l0,0c0,0.9-0.7,1.6-1.6,1.6h-2.8c-0.9,0-1.6-0.7-1.6-1.6l0,0
		C175.7,407.7,176.4,407.1,177.3,407.1z"/>
	<path class="st2" d="M209.8,407.1h2.8c0.9,0,1.6,0.7,1.6,1.6l0,0c0,0.9-0.7,1.6-1.6,1.6h-2.8c-0.9,0-1.6-0.7-1.6-1.6l0,0
		C208.2,407.7,208.9,407.1,209.8,407.1z"/>
	<path class="st2" d="M219,407.1h2.8c0.9,0,1.6,0.7,1.6,1.6l0,0c0,0.9-0.7,1.6-1.6,1.6H219c-0.9,0-1.6-0.7-1.6-1.6l0,0
		C217.4,407.7,218.1,407.1,219,407.1z"/>
	<path class="st2" d="M186.1,407.3h17.7c0.9,0,1.6,0.7,1.6,1.6l0,0c0,0.9-0.7,1.6-1.6,1.6h-17.7c-0.9,0-1.6-0.7-1.6-1.6l0,0
		C184.6,408,185.2,407.3,186.1,407.3z"/>
	<path class="st2" d="M185.9,400h2.8c0.9,0,1.6,0.7,1.6,1.6l0,0c0,0.9-0.7,1.6-1.6,1.6h-2.8c-0.9,0-1.6-0.7-1.6-1.6l0,0
		C184.4,400.7,185.1,400,185.9,400z"/>
	<path class="st2" d="M218.5,400h2.8c0.9,0,1.6,0.7,1.6,1.6l0,0c0,0.9-0.7,1.6-1.6,1.6h-2.8c-0.9,0-1.6-0.7-1.6-1.6l0,0
		C216.9,400.7,217.6,400,218.5,400z"/>
	<path class="st2" d="M227.7,400h2.8c0.9,0,1.6,0.7,1.6,1.6l0,0c0,0.9-0.7,1.6-1.6,1.6h-2.8c-0.9,0-1.6-0.7-1.6-1.6l0,0
		C226.1,400.7,226.8,400,227.7,400z"/>
	<path class="st2" d="M194.8,400.3h17.7c0.9,0,1.6,0.7,1.6,1.6l0,0c0,0.9-0.7,1.6-1.6,1.6h-17.7c-0.9,0-1.6-0.7-1.6-1.6l0,0
		C193.2,401,193.9,400.3,194.8,400.3z"/>
	<path class="st2" d="M194.6,393h2.8c0.9,0,1.6,0.7,1.6,1.6l0,0c0,0.9-0.7,1.6-1.6,1.6h-2.8c-0.9,0-1.6-0.7-1.6-1.6l0,0
		C193,393.7,193.7,393,194.6,393z"/>
	<path class="st2" d="M227.1,393h2.8c0.9,0,1.6,0.7,1.6,1.6l0,0c0,0.9-0.7,1.6-1.6,1.6h-2.8c-0.9,0-1.6-0.7-1.6-1.6l0,0
		C225.6,393.7,226.3,393,227.1,393z"/>
	<path class="st2" d="M236.3,393h2.8c0.9,0,1.6,0.7,1.6,1.6l0,0c0,0.9-0.7,1.6-1.6,1.6h-2.8c-0.9,0-1.6-0.7-1.6-1.6l0,0
		C234.8,393.7,235.5,393,236.3,393z"/>
	<path class="st2" d="M203.5,393.2h17.7c0.9,0,1.6,0.7,1.6,1.6l0,0c0,0.9-0.7,1.6-1.6,1.6h-17.7c-0.9,0-1.6-0.7-1.6-1.6l0,0
		C201.9,393.9,202.6,393.2,203.5,393.2z"/>
</g>
<g>
	<path class="st3" d="M509.3,458.3c0.5,0.8,1.2,1.2,1.9,1.2h136c1.4,0,2.5-1.4,2.5-3.3c0-0.3,0-0.4-0.1-0.7l-2.1-13.2
		c-0.2-1.1-0.8-2-1.6-2.4c-0.3-0.1-0.6-0.3-0.9-0.3H513.3c-0.3,0-0.6,0.1-0.9,0.3c-0.8,0.4-1.4,1.3-1.6,2.4l-2.1,13.2
		C508.6,456.6,508.8,457.5,509.3,458.3z"/>
	<path class="st1" d="M635.3,445.4h-3.2c-0.3,0-0.5-0.3-0.5-0.7v-2c0-0.4,0.2-0.7,0.5-0.7h3.2c0.3,0,0.5,0.3,0.5,0.7v2
		C635.8,445.1,635.5,445.4,635.3,445.4z"/>
	<path class="st1" d="M626.9,445.4h-3.2c-0.3,0-0.5-0.3-0.5-0.7v-2c0-0.4,0.2-0.7,0.5-0.7h3.2c0.3,0,0.5,0.3,0.5,0.7v2
		C627.4,445.1,627.2,445.4,626.9,445.4z"/>
	<path class="st1" d="M618.5,445.4h-3.2c-0.3,0-0.5-0.3-0.5-0.7v-2c0-0.4,0.2-0.7,0.5-0.7h3.2c0.3,0,0.5,0.3,0.5,0.7v2
		C619,445.1,618.8,445.4,618.5,445.4z"/>
	<path class="st1" d="M610.1,445.4h-3.2c-0.3,0-0.5-0.3-0.5-0.7v-2c0-0.4,0.2-0.7,0.5-0.7h3.2c0.3,0,0.5,0.3,0.5,0.7v2
		C610.6,445.1,610.4,445.4,610.1,445.4z"/>
	<path class="st1" d="M601.8,445.4h-3.3c-0.3,0-0.5-0.3-0.5-0.7v-2c0-0.4,0.2-0.7,0.5-0.7h3.2c0.3,0,0.5,0.3,0.5,0.7v2
		C602.2,445.1,602,445.4,601.8,445.4z"/>
	<path class="st1" d="M593.4,445.4h-3.2c-0.3,0-0.5-0.3-0.5-0.7v-2c0-0.4,0.2-0.7,0.5-0.7h3.2c0.3,0,0.5,0.3,0.5,0.7v2
		C593.9,445.1,593.7,445.4,593.4,445.4z"/>
	<path class="st1" d="M585,445.4h-3.2c-0.3,0-0.5-0.3-0.5-0.7v-2c0-0.4,0.2-0.7,0.5-0.7h3.2c0.3,0,0.5,0.3,0.5,0.7v2
		C585.5,445.1,585.3,445.4,585,445.4z"/>
	<path class="st1" d="M576.6,445.4h-3.2c-0.3,0-0.5-0.3-0.5-0.7v-2c0-0.4,0.2-0.7,0.5-0.7h3.2c0.3,0,0.5,0.3,0.5,0.7v2
		C577.1,445.1,576.9,445.4,576.6,445.4z"/>
	<path class="st1" d="M568.3,445.4h-3.2c-0.3,0-0.5-0.3-0.5-0.7v-2c0-0.4,0.2-0.7,0.5-0.7h3.2c0.3,0,0.5,0.3,0.5,0.7v2
		C568.7,445.1,568.5,445.4,568.3,445.4z"/>
	<path class="st1" d="M559.9,445.4h-3.2c-0.3,0-0.5-0.3-0.5-0.7v-2c0-0.4,0.2-0.7,0.5-0.7h3.2c0.3,0,0.5,0.3,0.5,0.7v2
		C560.4,445.1,560.1,445.4,559.9,445.4z"/>
	<path class="st1" d="M551.5,445.4h-3.2c-0.3,0-0.5-0.3-0.5-0.7v-2c0-0.4,0.2-0.7,0.5-0.7h3.2c0.3,0,0.5,0.3,0.5,0.7v2
		C552,445.1,551.8,445.4,551.5,445.4z"/>
	<path class="st1" d="M543.1,445.4h-3.2c-0.3,0-0.5-0.3-0.5-0.7v-2c0-0.4,0.2-0.7,0.5-0.7h3.2c0.3,0,0.5,0.3,0.5,0.7v2
		C543.6,445.1,543.4,445.4,543.1,445.4z"/>
	<path class="st1" d="M534.7,445.4h-3.2c-0.3,0-0.5-0.3-0.5-0.7v-2c0-0.4,0.2-0.7,0.5-0.7h3.2c0.3,0,0.5,0.3,0.5,0.7v2
		C535.2,445.1,535,445.4,534.7,445.4z"/>
	<path class="st1" d="M526.4,445.4h-3.2c-0.3,0-0.5-0.3-0.5-0.7v-2c0-0.4,0.2-0.7,0.5-0.7h3.2c0.3,0,0.5,0.3,0.5,0.7v2
		C526.9,445.1,526.6,445.4,526.4,445.4z"/>
	<path class="st1" d="M518,445.4h-3.2c-0.3,0-0.5-0.3-0.5-0.7v-2c0-0.4,0.2-0.7,0.5-0.7h3.2c0.3,0,0.5,0.3,0.5,0.7v2
		C518.5,445.1,518.3,445.4,518,445.4z"/>
	<path class="st1" d="M643.7,450.9h-3.2c-0.3,0-0.5-0.3-0.5-0.7v-2c0-0.4,0.2-0.7,0.5-0.7h3.2c0.3,0,0.5,0.3,0.5,0.7v2
		C644.2,450.6,644,450.9,643.7,450.9z"/>
	<path class="st1" d="M635.4,450.9h-3.2c-0.3,0-0.5-0.3-0.5-0.7v-2c0-0.4,0.2-0.7,0.5-0.7h3.2c0.3,0,0.5,0.3,0.5,0.7v2
		C635.9,450.6,635.6,450.9,635.4,450.9z"/>
	<path class="st1" d="M627,450.9h-3.2c-0.3,0-0.5-0.3-0.5-0.7v-2c0-0.4,0.2-0.7,0.5-0.7h3.2c0.3,0,0.5,0.3,0.5,0.7v2
		C627.5,450.6,627.3,450.9,627,450.9z"/>
	<path class="st1" d="M618.6,450.9h-3.2c-0.3,0-0.5-0.3-0.5-0.7v-2c0-0.4,0.2-0.7,0.5-0.7h3.2c0.3,0,0.5,0.3,0.5,0.7v2
		C619.1,450.6,618.9,450.9,618.6,450.9z"/>
	<path class="st1" d="M610.2,450.9H607c-0.3,0-0.5-0.3-0.5-0.7v-2c0-0.4,0.2-0.7,0.5-0.7h3.2c0.3,0,0.5,0.3,0.5,0.7v2
		C610.7,450.6,610.5,450.9,610.2,450.9z"/>
	<path class="st1" d="M601.9,450.9h-3.2c-0.3,0-0.5-0.3-0.5-0.7v-2c0-0.4,0.2-0.7,0.5-0.7h3.2c0.3,0,0.5,0.3,0.5,0.7v2
		C602.3,450.6,602.1,450.9,601.9,450.9z"/>
	<path class="st1" d="M593.5,450.9h-3.2c-0.3,0-0.5-0.3-0.5-0.7v-2c0-0.4,0.2-0.7,0.5-0.7h3.2c0.3,0,0.5,0.3,0.5,0.7v2
		C594,450.6,593.8,450.9,593.5,450.9z"/>
	<path class="st1" d="M585.1,450.9h-3.2c-0.3,0-0.5-0.3-0.5-0.7v-2c0-0.4,0.2-0.7,0.5-0.7h3.2c0.3,0,0.5,0.3,0.5,0.7v2
		C585.6,450.6,585.4,450.9,585.1,450.9z"/>
	<path class="st1" d="M576.7,450.9h-3.2c-0.3,0-0.5-0.3-0.5-0.7v-2c0-0.4,0.2-0.7,0.5-0.7h3.2c0.3,0,0.5,0.3,0.5,0.7v2
		C577.2,450.6,577,450.9,576.7,450.9z"/>
	<path class="st1" d="M568.4,450.9h-3.2c-0.3,0-0.5-0.3-0.5-0.7v-2c0-0.4,0.2-0.7,0.5-0.7h3.2c0.3,0,0.5,0.3,0.5,0.7v2
		C568.8,450.6,568.6,450.9,568.4,450.9z"/>
	<path class="st1" d="M560,450.9h-3.2c-0.3,0-0.5-0.3-0.5-0.7v-2c0-0.4,0.2-0.7,0.5-0.7h3.2c0.3,0,0.5,0.3,0.5,0.7v2
		C560.5,450.6,560.2,450.9,560,450.9z"/>
	<path class="st1" d="M551.6,450.9h-3.2c-0.3,0-0.5-0.3-0.5-0.7v-2c0-0.4,0.2-0.7,0.5-0.7h3.2c0.3,0,0.5,0.3,0.5,0.7v2
		C552.1,450.6,551.9,450.9,551.6,450.9z"/>
	<path class="st1" d="M543.2,450.9H540c-0.3,0-0.5-0.3-0.5-0.7v-2c0-0.4,0.2-0.7,0.5-0.7h3.2c0.3,0,0.5,0.3,0.5,0.7v2
		C543.7,450.6,543.5,450.9,543.2,450.9z"/>
	<path class="st1" d="M534.8,450.9h-3.2c-0.3,0-0.5-0.3-0.5-0.7v-2c0-0.4,0.2-0.7,0.5-0.7h3.2c0.3,0,0.5,0.3,0.5,0.7v2
		C535.3,450.6,535.1,450.9,534.8,450.9z"/>
	<path class="st1" d="M526.5,450.9h-3.2c-0.3,0-0.5-0.3-0.5-0.7v-2c0-0.4,0.2-0.7,0.5-0.7h3.2c0.3,0,0.5,0.3,0.5,0.7v2
		C527,450.6,526.7,450.9,526.5,450.9z"/>
	<path class="st1" d="M518.1,450.9h-3.2c-0.3,0-0.5-0.3-0.5-0.7v-2c0-0.4,0.2-0.7,0.5-0.7h3.2c0.3,0,0.5,0.3,0.5,0.7v2
		C518.6,450.6,518.4,450.9,518.1,450.9z"/>
	<path class="st1" d="M603.5,457.5H571c-0.3,0-0.5-0.3-0.5-0.7v-2c0-0.4,0.2-0.7,0.5-0.7h32.5c0.3,0,0.5,0.3,0.5,0.7v2
		C604,457.2,603.8,457.5,603.5,457.5z"/>
</g>
<g>
	<g>
		<path class="st4" d="M504.9,490.5l-13.3-21.1l41.9-33.4l17.3-19.2c7.1-7.9,19.2-8.5,27.1-1.4c2.5,2.2,4.3,5.1,5.4,8.2l0,0
			c3.2,9.8-1.9,20.4-11.6,24l-27.3,10.1L504.9,490.5z"/>
		<path class="st1" d="M290.7,376.8l0.2,0.7l0,0l6.5,19.8l7.5,22.9l14.1,43l0.1,6.7l0,0l1,53.7l-2.9,7.3l3.3,11.9
			c0,0-1.5-18-9.6-7.7c-4.6,5.9-9.9,11.9-14.3,17.6c6.4,2.6,12.9,4.9,19.5,7c1.4,0.5,2.9,0.9,4.3,1.3c0.3,0.1,0.6,0.2,0.9,0.3
			c21.9,6.5,44.5,10.1,67.4,10.8c1.2,0,2.3,0.1,3.5,0.1c0.4,0,0.8,0,1.2,0c1.3,0,2.5,0,3.8,0c2.6,0,5.1,0,7.7-0.1
			c18.9-0.5,37.7-3.1,56.1-7.6c-0.1-7.6-0.5-16.4-1-25.9c-0.2-4.6-5.4-9.7-5.7-14.5c-0.2-3.7,4.4-7.1,4.1-10.8
			c-1.6-22.8-3.5-14.1-4.9-30.2c-0.1-1.6-0.3-3.1-0.4-4.6c-0.9-10.4-1.6-16.9-1.6-16.9l6.1-38.7l9.6-60.7l-0.7-1.2l-0.8-0.4
			l-50.8-25.2l-2.8-7.1c-1.6-4.2-5.7-6.9-10.1-6.9l-33.5-0.1c-3.5,0-6.8,1.7-8.9,4.5l-9.1,12.6L290.7,376.8z"/>
		<path class="st1" d="M326.8,453.7l-7.6,16.2L314,481l-8.9,46.6l-4.5,4.7l-3.8-16.8l-40,8.9c-1.3-7.3-0.4,0.2-1.2-7.8
			c0.2-0.2,0.5-0.5,0.7-0.7c0.6-0.6,1.2-1.2,1.2-1.7c-0.5-27.6,0.9-74.5,12.3-103c1.8-4.6,4.2-9,7-13.1c0.2-0.3,0.4-0.6,0.7-0.9
			c5.3-7.4,8.6-14.6,13.3-19.8l0,0l0.1-0.1l0,0l32.4-17.2l1.4,39.1l1,28.1L326.8,453.7z"/>
		<path class="st1" d="M443.8,458.3l9.5,20.3l3.3,7.1l8.9,46.6l4.4,4.7l3.8-16.8l1.8-0.4l32.5-6.7l9.5,30c4.4-7.3,3-16.7-3.3-22.5
			c-0.6-0.6-1.2-1.2-1.2-1.7c0.5-32.4-1.4-91.7-19.4-116.1c-5.7-7.7-9.1-15.4-14.1-20.8l0,0l-12.1-19.8l-0.7-1.2l-0.8-0.4
			L443.8,458.3z"/>
		<circle id="a657ec4b-47ce-4d2a-9c58-81a811696ca9" class="st4" cx="386.4" cy="267.2" r="44.6"/>
		<path class="st3" d="M446.6,236.1c-0.7-0.7-1.7-1.2-2.7-1.2l0.7-1.9c0.7-1.8-0.2-3.9-2.1-4.5c-0.6-0.2-1.3-0.3-1.9-0.2l-2.4,0.5
			l0.2-1.6c0.3-1.9-1.1-3.7-3-4c-0.6-0.1-1.2,0-1.7,0.2c-1.1,0.4-2.3,0.3-3.2-0.2c-1-0.5-1.7-1.5-1.9-2.6l-0.8-4.1l-0.1-0.2
			c-4.1-6.9-12.1-11.9-21.8-13.8c-8.7-1.6-17.6-0.8-26.1,0c-3.4,0.3-7.2,0.7-10.4,2.6c-2.7,1.7-5,5-4.5,8.4
			c-8.5-2.6-17.5,2.6-22,9.1c-5.3,7.8-6.2,17.5-6.3,25.1c-0.4,18,3.3,32.7,11,43.7c0.6,0.8,0.7,2.5,1.8,3l-0.2-0.4
			c1.2,0.6,2.5,1.6,2,2.7c-1.3,3.1,7.6,9.9,13.9,12.1c11.5,4.1,26.9,3.8,37.6,2.3l0.4-2.5c3.9-0.5,6.6-1.5,7.4-3.1
			c1.4-1.2,2.5-2.2,3.5-3.2l0,0c0,0,0.1,0,0.1-0.1c4.9-4.7,6-7.3,6.5-11.4c0.5-4-0.4-8-1.3-11.6c18.7,2.9-7.4-20,10.1-24.4
			c0.2-0.1,0.4-0.1,0.6-0.1c0.5-0.1,1-0.2,1.5-0.4c2.4-0.6,4.6-1.6,6.7-2.9c4.9-3,6.5-6.9,9-11.4
			C447.8,238.8,447.6,237.2,446.6,236.1z"/>
	</g>
	<path class="st3" d="M544,461.4c0,1.8,0,4.2-0.1,7.2c0,0.4,0,0.8,0,1.3c-0.1,5.6-0.3,10.2-0.5,15.4c0,0.4,0,0.7,0,1.1
		c-0.3,7.2-0.7,15.7-1.5,29c-1.4,24.7-3.9,3.4-6.3,12c-0.1,0.4-0.3,0.9-0.4,1.5c-0.4,2.2-1,4.3-1.9,6.3c-1.3,0.8-2.7,1.5-4,2.3
		c-3.8,2.1-7.6,4.1-11.5,6.1c-2.2,1.1-4.4,2.1-6.6,3.2c-0.3,0.2-0.7,0.3-1,0.5c-11.3,5.2-22.9,9.6-34.8,13.3c-2.3,0.7-4.6,1.4-7,2
		c-2.4,0.7-4.9,1.3-7.3,1.9c-18.4,4.5-37.2,7.1-56.1,7.6c-2.5,0.1-5.1,0.1-7.7,0.1c-1.3,0-2.5,0-3.8,0c-0.4,0-0.8,0-1.2,0
		c-1.1,0-2.3,0-3.5-0.1c-22.8-0.7-45.5-4.4-67.3-10.8l-0.9-0.3c-1.4-0.4-2.9-0.9-4.3-1.3c-6.6-2.1-13.1-4.4-19.5-7
		c-4.9-2-9.7-4.1-14.5-6.3c0,0-0.1,0-0.1-0.1c-1-0.5-2-0.9-3-1.4c-0.1-0.1-0.3-0.1-0.4-0.2c-3.7-1.8-7.4-3.7-11.1-5.7
		c-3.1-7.1-7.4-8.4-10.1-14.6c-0.8-1.8-1.3-3.8-1.7-5.7c0,0,0,0,0-0.1c0.3,3.7-1.2-6.6,0,0c0-0.1,0-0.3,0-0.4c0-0.4-0.1-0.8-0.1-1.3
		c-3.4-33.5-3.2-71.8-4.7-103.4c-0.1-2-0.2-4-0.3-5.9c0-0.6-0.1-1.2-0.1-1.8c0.1-0.2,0.1-0.4,0.2-0.5c0-0.1,0-0.1,0.1-0.2
		c0-0.1,0.1-0.1,0.1-0.2c0,0,0-0.1,0.1-0.1v-0.1c0.1-0.1,0.2-0.3,0.3-0.4c0-0.1,0.1-0.1,0.1-0.2s0.1-0.1,0.1-0.1l0.1-0.1l0.1-0.1
		c0,0,0-0.1,0.1-0.1c0.1-0.1,0.2-0.2,0.3-0.3c0.4-0.3,0.7-0.6,1.1-0.9c0.1-0.1,0.3-0.2,0.4-0.3c1-0.6,2.1-1.1,3.2-1.5
		c0.4-0.1,0.8-0.3,1.2-0.4c0.1,0,0.3-0.1,0.4-0.1c0.2-0.1,0.4-0.1,0.7-0.2c1.1-0.3,2.4-0.6,3.7-0.9c0.2,0,0.3-0.1,0.5-0.1
		s0.5-0.1,0.7-0.1c0.3-0.1,0.7-0.1,1-0.2c3-0.5,6.3-0.8,10.1-1c0.4,0,0.7,0,1-0.1c0.4,0,0.8,0,1.2-0.1c0.4,0,0.7,0,1.1,0
		s0.7,0,1.1,0c1,0,2-0.1,3.1-0.1c3-0.1,6.2,0,9.5,0c1.5,0,3.1,0.1,4.8,0.2c0.1,0,0.2,0,0.3,0c1.4,0,2.8,0.1,4.3,0.2
		c1,0,2,0.1,3.1,0.2c1,0.1,1.9,0.1,2.9,0.2c0.8,0,1.5,0.1,2.3,0.2c0.7,0,1.3,0.1,2,0.1l0.9,0.1c0.5,0,1,0.1,1.5,0.1
		c1.1,0.1,2.2,0.2,3.3,0.3c1.1,0.1,2.2,0.2,3.4,0.3s2.3,0.2,3.4,0.3c0.1,0,0.2,0,0.3,0c1,0.1,2.1,0.2,3.1,0.3c0.2,0,0.5,0,0.7,0.1
		c1,0.1,2,0.2,3,0.3c0.3,0,0.6,0.1,0.9,0.1c0.8,0.1,1.6,0.2,2.4,0.3c1,0.1,2.1,0.2,3.2,0.4c0.8,0.1,1.6,0.2,2.4,0.3
		c1.3,0.2,2.6,0.3,3.8,0.5c0.5,0.1,1,0.1,1.5,0.2c3.7,0.5,7.4,1,11.2,1.5c5.7,0.8,11.5,1.7,17.4,2.6c5.9,1,11.8,2,17.7,3
		c1.5,0.3,3,0.5,4.5,0.8c0.7,0.1,1.4,0.3,2,0.4c1.2,0.2,2.3,0.4,3.5,0.7c1.2,0.2,2.3,0.4,3.5,0.7c1.4,0.3,2.8,0.5,4.2,0.8
		c9.1,1.8,18.1,3.7,27,5.7c1.5,0.3,2.9,0.7,4.3,1c2.9,0.7,5.7,1.3,8.6,2c0.8,0.2,1.5,0.4,2.3,0.6c1.9,0.5,3.8,1,5.7,1.5l0.3,0.1
		c1.4,0.3,2.8,0.7,4.1,1c3.2,0.8,6.4,1.7,9.5,2.5c2.1,0.6,4.1,1.1,6.1,1.7c3,0.9,6,1.8,8.8,2.6c0.7,0.2,1.4,0.4,2.1,0.7
		c2.1,0.7,4.2,1.3,6.2,2c1.6,0.5,3.2,1,4.7,1.6c1.5,0.5,3,1.1,4.5,1.6c1,0.3,1.9,0.7,2.8,1c1.3,0.5,2.7,1,4,1.5
		c0.4,0.2,0.8,0.3,1.2,0.5c0.3,0.1,0.5,0.2,0.7,0.3c0.5,0.2,1,0.4,1.4,0.6c0.5,0.2,0.9,0.4,1.4,0.6s0.9,0.4,1.3,0.6
		c0.5,0.2,0.9,0.4,1.3,0.6c0.4,0.2,0.7,0.3,1.1,0.5c0.7,0.3,1.4,0.6,2.1,0.9c0.3,0.2,0.7,0.3,1,0.5l0.8,0.4c0.1,0.1,0.2,0.1,0.3,0.2
		c0.3,0.1,0.5,0.3,0.8,0.4c0.6,0.3,1.2,0.6,1.7,0.8c0.8,0.4,1.5,0.8,2.2,1.1c0.7,0.4,1.4,0.8,2.1,1.1c0.1,0.1,0.2,0.1,0.3,0.2
		c0.2,0.1,0.3,0.2,0.5,0.3c0.5,0.3,1,0.6,1.5,0.9c1,0.6,1.9,1.2,2.7,1.8c0.2,0.1,0.4,0.3,0.6,0.4c0.6,0.5,1.2,0.9,1.8,1.3l0,0
		c0.2,0.1,0.4,0.3,0.5,0.4c0.2,0.1,0.3,0.3,0.5,0.4c0.5,0.5,1,0.9,1.4,1.3c0.1,0.1,0.3,0.3,0.4,0.4c0.1,0,0.1,0.1,0.2,0.2
		c0.2,0.2,0.4,0.4,0.5,0.6c0,0,0,0.1,0.1,0.1c0.2,0.3,0.5,0.6,0.7,0.8c0.1,0.1,0.2,0.3,0.3,0.4c0.1,0.2,0.2,0.3,0.3,0.5
		c0.1,0.1,0.2,0.3,0.3,0.4c0.2,0.4,0.4,0.7,0.5,1.1c0.1,0.3,0.2,0.5,0.3,0.8C543.9,460.9,544,461.2,544,461.4z"/>
	<path class="st5" d="M544,461.4c0,1.8,0,4.2-0.1,7.2c0,0.4,0,0.8,0,1.3c-0.1,4.3-0.3,9.5-0.5,15.4c0,0.4,0,0.7,0,1.1
		c-0.3,7.2-0.7,15.7-1.5,29c-1.4,24.7-3.9,3.4-6.3,12c-6.9-4.2-14.4-8.6-22.4-13.2c-1.4-0.8-2.9-1.6-4.4-2.5
		c-16.1-9-34-18.4-52.8-27.7c-0.7-0.4-1.5-0.7-2.2-1.1c-43-21.2-89.8-41.9-127.8-55.7c-7.3-2.7-14.3-5.1-20.9-7.2
		c-13.9-4.4-25.8-7.5-35.1-8.9c-9.6-1.4-16.2-0.9-18.9,2c-0.1-2-0.2-4-0.3-5.9c0-0.6-0.1-1.2-0.1-1.8c0.1-0.2,0.1-0.3,0.2-0.5
		c0,0,0,0,0-0.1s0-0.1,0.1-0.2c0-0.1,0.1-0.1,0.1-0.2s0.1-0.1,0.1-0.2c0.1-0.1,0.2-0.3,0.3-0.4s0.2-0.2,0.3-0.3l0.1-0.1l0.1-0.1
		c0,0,0-0.1,0.1-0.1c0.1-0.1,0.2-0.2,0.3-0.3c0.4-0.3,0.7-0.6,1.1-0.9c0.1-0.1,0.3-0.2,0.4-0.3c1-0.6,2.1-1.1,3.2-1.5
		c0.4-0.1,0.8-0.3,1.2-0.4c0.1,0,0.3-0.1,0.4-0.1c0.2-0.1,0.4-0.1,0.7-0.2c1.1-0.3,2.4-0.6,3.7-0.9c0.4-0.1,0.8-0.2,1.2-0.2
		c0.3-0.1,0.7-0.1,1-0.2c3-0.5,6.3-0.8,10.1-1c0.4,0,0.7,0,1-0.1c0.4,0,0.8,0,1.2-0.1c0.4,0,0.7,0,1.1,0s0.7,0,1.1,0
		c1,0,2-0.1,3.1-0.1c3,0,6.2,0,9.5,0c1.5,0,3.1,0.1,4.8,0.2c0.1,0,0.2,0,0.3,0c1.4,0,2.8,0.1,4.3,0.2c1,0,2,0.1,3.1,0.2
		c1,0.1,1.9,0.1,2.9,0.2c0.8,0,1.5,0.1,2.3,0.2c0.7,0,1.3,0.1,2,0.1c0.8,0.1,1.6,0.1,2.4,0.2c1.1,0.1,2.2,0.2,3.3,0.3
		c1.1,0.1,2.2,0.2,3.4,0.3s2.3,0.2,3.4,0.3c0.1,0,0.2,0,0.3,0c1,0.1,2.1,0.2,3.1,0.3c5.8,0.6,11.8,1.3,18,2.1
		c3.7,0.5,7.4,1,11.2,1.5c5.7,0.8,11.5,1.7,17.4,2.6c5.9,1,11.8,2,17.7,3c1.5,0.3,3,0.5,4.5,0.8c1.8,0.3,3.7,0.7,5.5,1
		c1.2,0.2,2.3,0.4,3.5,0.7c1.4,0.3,2.8,0.5,4.2,0.8c9.1,1.8,18.1,3.7,27,5.7c1.5,0.3,2.9,0.7,4.3,1c2.9,0.7,5.7,1.3,8.6,2
		c0.8,0.2,1.5,0.4,2.3,0.6c1.9,0.5,3.8,1,5.7,1.4l0,0c0.1,0,0.2,0,0.3,0.1c1.4,0.3,2.8,0.7,4.1,1.1c3.2,0.8,6.4,1.7,9.5,2.5
		c2.1,0.6,4.1,1.2,6.1,1.7c3,0.9,6,1.8,8.8,2.6c0.7,0.2,1.4,0.4,2.1,0.7c2.1,0.7,4.2,1.3,6.2,2c1.6,0.5,3.2,1,4.7,1.6
		c1.5,0.5,3,1.1,4.5,1.6c1,0.3,1.9,0.7,2.8,1c1.4,0.5,2.7,1,4,1.5c0.4,0.2,0.8,0.3,1.2,0.5c0.7,0.3,1.4,0.6,2.1,0.9
		c0.5,0.2,0.9,0.4,1.4,0.6s0.9,0.4,1.3,0.6c0.5,0.2,0.9,0.4,1.3,0.6c0.4,0.2,0.7,0.3,1.1,0.5c0.7,0.3,1.4,0.6,2.1,0.9
		c0.3,0.2,0.7,0.3,1,0.5l0.8,0.4c0.1,0.1,0.2,0.1,0.3,0.2c0.8,0.4,1.7,0.8,2.5,1.2c0.8,0.4,1.5,0.8,2.2,1.1c0.8,0.4,1.6,0.9,2.4,1.3
		c0.2,0.1,0.3,0.2,0.5,0.3c0.5,0.3,1,0.6,1.5,0.9c1,0.6,1.9,1.2,2.7,1.8c0.8,0.6,1.6,1.2,2.3,1.7l0,0c0.3,0.3,0.7,0.6,1,0.8
		c0.5,0.5,1,0.9,1.4,1.3c0.1,0.1,0.3,0.3,0.4,0.4c0.1,0,0.1,0.1,0.2,0.2c0.2,0.2,0.4,0.5,0.6,0.7c0.2,0.3,0.5,0.6,0.7,0.8
		c0.1,0.1,0.2,0.3,0.3,0.4c0.1,0.2,0.2,0.3,0.3,0.5c0.1,0.1,0.2,0.3,0.3,0.4c0.2,0.4,0.4,0.7,0.5,1.1c0.1,0.3,0.2,0.5,0.3,0.8
		C543.9,460.9,544,461.2,544,461.4z"/>
</g>
</svg>
