<?xml version="1.0" encoding="utf-8"?>
<!-- Generator: Adobe Illustrator 24.0.1, SVG Export Plug-In . SVG Version: 6.00 Build 0)  -->
<svg version="1.1" id="Layer_1" xmlns="http://www.w3.org/2000/svg" xmlns:xlink="http://www.w3.org/1999/xlink" x="0px" y="0px"
	 viewBox="0 0 786.8 572.3" style="enable-background:new 0 0 786.8 572.3;" xml:space="preserve">
<style type="text/css">
	.st0{fill:#F2F2F2;}
	.st1{fill:#3F3D56;}
	.st2{fill:#FFFFFF;}
	.st3{fill:#2F2E41;}
	.st4{fill:#FFB6B6;}
	.st5{opacity:0.2;enable-background:new    ;}
</style>
<ellipse class="st0" cx="179.5" cy="-180.6" rx="58.4" ry="57.2"/>
<path class="st0" d="M632.9,724.9c86.9-64.6,128.3-173.4,102.4-277.2c-0.7-2.6-1.3-5.1-2-7.7c-17.3-61.7-59.8-120.1-121.9-139.8
	c-52.1-16.5-109-3.9-163.5-10.5c-106.8-12.8-189.6-97.4-247.8-185.8S97-83.6,19.7-156.6C-107.9-277.1-316-303-474.1-224.7
	C-632.3-146.1-733,27.7-728.9,201.1c4.4,173.4,109.4,339.1,262.5,427.1c56.3,32.3,121,55.2,185.6,47.1c56-6.9,107-36.4,162.9-45.2
	c87.8-13.7,174.9,25,250.8,70.2c76,45.2,149.3,98.9,235.5,119.9C452.3,840.7,556,782,632.9,724.9z"/>
<path class="st1" d="M508.1-221c-2-1.3-3.9-2.4-5.7-3.6c-54.9-34.5-114-62.5-175.8-83.3l-14.2,193.1h-90.8v-221.3
	c-5.7-1.1-11.4-2.4-17.3-3.2v224.6H96.4c-123.7,0-223.9-98-223.9-219l0,0c-5.7,1.3-11.6,2.6-17.3,3.9v214.9h-87.8L-246.2-299
	c-63.5,23.8-123.7,55-179.3,93.1c-0.9,0.6-2,1.3-2.8,1.9c-4.8,3.4-9.6,6.6-14.4,10.1v736.8h258.9l-4.6-62.1l-25.2-340.4h507
	l-25.2,340.4l-4.6,62.1h256.1v-756.4C515.8-216.1,512-218.4,508.1-221z M-144.6,84.7h-73.1l-13.6-182.6h86.7L-144.6,84.7
	L-144.6,84.7z M204.3,84.7H81.5v-3.6c0-7.3-6.1-13.3-13.6-13.3l0,0H14.7c-7.4,0-13.6,6-13.6,13.3l0,0v3.6h-128.5V-97.9h331.6
	L204.3,84.7z M221.6,84.7V-97.9h89.5L297.5,84.7H221.6z"/>
<path class="st1" d="M549,590h-7c-0.7,0-1.1-0.4-1.1-1.1v-3.2c0-0.6,0.4-1.1,1.1-1.1h7c0.7,0,1.1,0.4,1.1,1.1v3.2
	C550.1,589.5,549.7,590,549,590z"/>
<path class="st2" d="M-657,610.5h6.1c2,0,3.5,1.5,3.5,3.4l0,0c0,1.9-1.5,3.4-3.5,3.4h-6.1c-2,0-3.5-1.5-3.5-3.4l0,0
	C-660.5,612-658.9,610.5-657,610.5z"/>
<path class="st2" d="M-585.8,610.5h6.1c2,0,3.5,1.5,3.5,3.4l0,0c0,1.9-1.5,3.4-3.5,3.4h-6.1c-2,0-3.5-1.5-3.5-3.4l0,0
	C-589.1,612-587.6,610.5-585.8,610.5z"/>
<path class="st2" d="M-565.7,610.5h6.1c2,0,3.5,1.5,3.5,3.4l0,0c0,1.9-1.5,3.4-3.5,3.4h-6.1c-2,0-3.5-1.5-3.5-3.4l0,0
	C-569,612-567.4,610.5-565.7,610.5z"/>
<path class="st2" d="M-637.7,610h38.7c2,0,3.5,1.5,3.5,3.4l0,0c0,1.9-1.5,3.4-3.5,3.4h-38.7c-2,0-3.5-1.5-3.5-3.4l0,0
	C-641,611.5-639.5,610-637.7,610z"/>
<path class="st2" d="M-637.9,625.7h6.1c2,0,3.5,1.5,3.5,3.4l0,0c0,1.9-1.5,3.4-3.5,3.4h-6.1c-2,0-3.5-1.5-3.5-3.4l0,0
	C-641.4,627.2-639.9,625.7-637.9,625.7z"/>
<path class="st2" d="M-566.8,625.7h6.1c2,0,3.5,1.5,3.5,3.4l0,0c0,1.9-1.5,3.4-3.5,3.4h-6.1c-2,0-3.5-1.5-3.5-3.4l0,0
	C-570.3,627.2-568.8,625.7-566.8,625.7z"/>
<path class="st2" d="M-546.7,625.7h6.1c2,0,3.5,1.5,3.5,3.4l0,0c0,1.9-1.5,3.4-3.5,3.4h-6.1c-2,0-3.5-1.5-3.5-3.4l0,0
	C-550.2,627.2-548.6,625.7-546.7,625.7z"/>
<path class="st2" d="M-618.7,625h38.7c2,0,3.5,1.5,3.5,3.4l0,0c0,1.9-1.5,3.4-3.5,3.4h-38.7c-2,0-3.5-1.5-3.5-3.4l0,0
	C-622,626.5-620.6,625-618.7,625z"/>
<path class="st2" d="M-619.1,640.7h6.1c2,0,3.5,1.5,3.5,3.4l0,0c0,1.9-1.5,3.4-3.5,3.4h-6.1c-2,0-3.5-1.5-3.5-3.4l0,0
	C-622.4,642.2-620.9,640.7-619.1,640.7z"/>
<path class="st2" d="M-600.1,655.9h6.1c2,0,3.5,1.5,3.5,3.4l0,0c0,1.9-1.5,3.4-3.5,3.4h-6.1c-2,0-3.5-1.5-3.5-3.4l0,0
	C-603.6,657.4-602,655.9-600.1,655.9z"/>
<path class="st2" d="M-528.9,655.9h6.1c2,0,3.5,1.5,3.5,3.4l0,0c0,1.9-1.5,3.4-3.5,3.4h-6.1c-2,0-3.5-1.5-3.5-3.4l0,0
	C-532.2,657.4-530.7,655.9-528.9,655.9z"/>
<path class="st2" d="M-508.8,655.9h6.1c2,0,3.5,1.5,3.5,3.4l0,0c0,1.9-1.5,3.4-3.5,3.4h-6.1c-2,0-3.5-1.5-3.5-3.4l0,0
	C-512.1,657.4-510.5,655.9-508.8,655.9z"/>
<path class="st2" d="M-580.6,655.3h38.7c2,0,3.5,1.5,3.5,3.4l0,0c0,1.9-1.5,3.4-3.5,3.4h-38.7c-2,0-3.5-1.5-3.5-3.4l0,0
	C-584.1,656.8-582.6,655.3-580.6,655.3z"/>
<path class="st1" d="M-404.5,595.5v21.2c0,2.4,2,4.1,4.2,4.1h149.7c2.4,0,4.2-1.9,4.2-4.1v-21.2H-404.5z"/>
<path class="st1" d="M689.8,475.8c2,10.7,23.2,18.2,49,16.7c23.6-1.1,42.9-9.2,46.4-18.8c-1.3-0.4-2.6-0.6-3.9-0.4l-89.3,2.4
	C691.3,475.6,690.4,475.6,689.8,475.8z"/>
<g>
	<path class="st3" d="M694.6,604.8c2,5.6,7.4,9.4,13.6,9.2l58-1.5c6.1-0.2,11.4-4.3,13.1-10.1l8.1-85.6c2.8,1.3,6.1,1.9,9.2,1.9
		c11.6-0.2,20.8-9.8,20.6-21.2c-0.2-11.3-10.1-20.3-21.7-20.1c-1.3,0-2.6,0.2-3.7,0.4c-2.8-3-6.6-4.5-10.7-4.5l-89.3,2.4
		c-0.7,0-1.5,0.2-2.2,0.2c-7.7,1.3-12.5,8.6-11.2,15.8c0.2,0.6,0.2,1.3,0.4,1.7L694.6,604.8z M789.2,511l5.9-20.6
		c0.7-2.4,0.7-4.9,0-7.3c0.2,0,0.4-0.2,0.9-0.2c8.3-0.2,15.3,6.4,15.5,14.6c0.2,8.1-6.3,15-14.7,15.2
		C794,512.8,791.3,512.4,789.2,511z"/>
	<path d="M743.4,557.8c0.2,0,0.2,0,0.4-0.2l12.7-8.1c0.4-0.4,0.7-1.1,0.2-1.5c0-0.2-0.2-0.2-0.2-0.2l-13.1-8.3
		c-0.4-0.4-1.1-0.2-1.5,0.2s-0.2,1.1,0.2,1.5l11.6,7.5l-11.2,7.1c-0.4,0.4-0.7,1.1-0.2,1.5C742.5,557.5,743,557.8,743.4,557.8
		L743.4,557.8z"/>
	<path d="M723.5,558.5c0.7-0.2,0.9-0.6,0.9-1.3c0-0.2-0.2-0.4-0.4-0.6l-11.6-6.4l11.2-8.1c0.4-0.4,0.7-1.1,0.2-1.5s-1.1-0.6-1.5-0.2
		l-12.5,9.2c-0.4,0.4-0.7,1.1-0.2,1.5c0,0.2,0.2,0.2,0.4,0.2l13.1,7.3C723,558.5,723.3,558.5,723.5,558.5z"/>
	<path d="M751.9,572.7c0,0,0.3,0,0.3-0.3c0.7-0.3,1-1.6,0.7-2.3l0,0l-27.1-43.2c-0.3-0.6-1.6-1-2.3-0.6c-0.7,0.3-1,1.6-0.7,2.3
		l27.1,43.2C750.6,572.3,751.2,572.7,751.9,572.7z"/>
</g>
<g>
	<path class="st3" d="M349.8,373.3v219.4h157.4V373.3c0-3.2-2.2-6.2-5.3-7.1c-0.7-0.2-1.5-0.4-2.2-0.4h-142
		C353.1,365.8,349.8,369.3,349.8,373.3L349.8,373.3z M411.1,448.7c0-9,7.7-16.3,16.9-16.3c9.2,0,16.6,7.3,16.6,16.3v25.5
		c0,9-7.7,16.5-16.9,16.3c-9.2,0-16.6-7.3-16.6-16.3V448.7z"/>
	<path class="st1" d="M102.5,42.6v400.9c0,10.7,8.8,19.3,19.7,19.3h607.4c10.9,0,19.7-8.6,19.7-19.3V42.6c0-10.7-8.8-19.3-19.7-19.3
		H122.2C111.2,23.3,102.5,31.9,102.5,42.6z"/>
	<path class="st2" d="M116.7,47.5v390.9c0,5.8,4.8,10.3,10.5,10.3h597.4c5.9,0,10.5-4.7,10.5-10.3V47.5c0-5.8-4.8-10.3-10.5-10.3
		H127.2C121.3,37.3,116.7,41.8,116.7,47.5z"/>
	<path class="st3" d="M227.5,609.7c1.3,1.5,3.1,2.4,5,2.4h355.3c3.5,0,6.6-2.8,6.6-6.4c0-0.4,0-0.9-0.2-1.3l-5.5-25.7
		c-0.4-2.1-2-3.9-4.2-4.7c-0.7-0.2-1.5-0.4-2.4-0.4H238c-0.9,0-1.5,0.2-2.4,0.4c-2,0.9-3.5,2.6-4.2,4.7l-5.5,25.7
		C225.7,606.2,226.2,608.2,227.5,609.7z"/>
</g>
<path class="st1" d="M-815,601.8c19,22,39.6,42.8,61.5,62.1L845.7,666c21.9-19.3,42.5-40,61.5-62.1L-815,601.8z"/>
<g>
	<path class="st1" d="M-502.4,405.1v183.5c0,4.9,3.9,8.8,9,8.8h278c5,0,9-3.9,9-8.8V405.1c0-4.9-3.9-8.8-9-8.8h-278
		C-498.2,396.3-502.4,400.2-502.4,405.1z"/>
	<path d="M-495.8,407.5v179c0,2.6,2.2,4.7,4.8,4.7h273.4c2.6,0,4.8-2.1,4.8-4.7v-179c0-2.6-2.2-4.7-4.8-4.7H-491
		C-493.6,402.8-495.8,404.7-495.8,407.5z"/>
	<path class="st3" d="M-508,624.3c1.1,1.3,2.6,1.9,4.2,1.9h297.7c3.1,0,5.5-2.4,5.5-5.4c0-0.4,0-0.6-0.2-1.1l-4.6-21.4
		c-0.4-1.7-1.8-3.2-3.5-3.9c-0.7-0.2-1.3-0.4-2-0.4h-288.3c-0.7,0-1.3,0.2-2,0.4c-1.8,0.6-3.1,2.1-3.5,3.9l-4.6,21.4
		C-509.6,621.5-509.1,623-508,624.3z"/>
	<path class="st1" d="M-232.2,603.3h-7c-0.7,0-1.1-0.4-1.1-1.1V599c0-0.6,0.4-1.1,1.1-1.1h7c0.7,0,1.1,0.4,1.1,1.1v3.2
		C-231.1,602.9-231.8,603.3-232.2,603.3z"/>
	<path class="st1" d="M-250.6,603.3h-7c-0.7,0-1.1-0.4-1.1-1.1V599c0-0.6,0.4-1.1,1.1-1.1h7c0.7,0,1.1,0.4,1.1,1.1v3.2
		C-249.5,602.9-250,603.3-250.6,603.3z"/>
	<path class="st1" d="M-269,603.3h-7c-0.7,0-1.1-0.4-1.1-1.1V599c0-0.6,0.4-1.1,1.1-1.1h7c0.7,0,1.1,0.4,1.1,1.1v3.2
		C-267.9,602.9-268.4,603.3-269,603.3z"/>
	<path class="st1" d="M-287.4,603.3h-7c-0.7,0-1.1-0.4-1.1-1.1V599c0-0.6,0.4-1.1,1.1-1.1h7c0.7,0,1.1,0.4,1.1,1.1v3.2
		C-286.3,602.9-286.7,603.3-287.4,603.3z"/>
	<path class="st1" d="M-305.6,603.3h-7.2c-0.7,0-1.1-0.4-1.1-1.1V599c0-0.6,0.4-1.1,1.1-1.1h7c0.7,0,1.1,0.4,1.1,1.1v3.2
		C-304.7,602.9-305.1,603.3-305.6,603.3z"/>
	<path class="st1" d="M-324,603.3h-7c-0.7,0-1.1-0.4-1.1-1.1V599c0-0.6,0.4-1.1,1.1-1.1h7c0.7,0,1.1,0.4,1.1,1.1v3.2
		C-322.9,602.9-323.3,603.3-324,603.3z"/>
	<path class="st1" d="M-342.3,603.3h-7c-0.7,0-1.1-0.4-1.1-1.1V599c0-0.6,0.4-1.1,1.1-1.1h7c0.7,0,1.1,0.4,1.1,1.1v3.2
		C-341.2,602.9-341.7,603.3-342.3,603.3z"/>
	<path class="st1" d="M-360.7,603.3h-7c-0.7,0-1.1-0.4-1.1-1.1V599c0-0.6,0.4-1.1,1.1-1.1h7c0.7,0,1.1,0.4,1.1,1.1v3.2
		C-359.6,602.9-360.1,603.3-360.7,603.3z"/>
	<path class="st1" d="M-378.9,603.3h-7c-0.7,0-1.1-0.4-1.1-1.1V599c0-0.6,0.4-1.1,1.1-1.1h7c0.7,0,1.1,0.4,1.1,1.1v3.2
		C-378,602.9-378.5,603.3-378.9,603.3z"/>
	<path class="st1" d="M-397.3,603.3h-7c-0.7,0-1.1-0.4-1.1-1.1V599c0-0.6,0.4-1.1,1.1-1.1h7c0.7,0,1.1,0.4,1.1,1.1v3.2
		C-396.2,602.9-396.8,603.3-397.3,603.3z"/>
	<path class="st1" d="M-415.7,603.3h-7c-0.7,0-1.1-0.4-1.1-1.1V599c0-0.6,0.4-1.1,1.1-1.1h7c0.7,0,1.1,0.4,1.1,1.1v3.2
		C-414.6,602.9-415,603.3-415.7,603.3z"/>
	<path class="st1" d="M-434.1,603.3h-7c-0.7,0-1.1-0.4-1.1-1.1V599c0-0.6,0.4-1.1,1.1-1.1h7c0.7,0,1.1,0.4,1.1,1.1v3.2
		C-433,602.9-433.4,603.3-434.1,603.3z"/>
	<path class="st1" d="M-452.4,603.3h-7c-0.7,0-1.1-0.4-1.1-1.1V599c0-0.6,0.4-1.1,1.1-1.1h7c0.7,0,1.1,0.4,1.1,1.1v3.2
		C-451.4,602.9-451.8,603.3-452.4,603.3z"/>
	<path class="st1" d="M-470.6,603.3h-7c-0.7,0-1.1-0.4-1.1-1.1V599c0-0.6,0.4-1.1,1.1-1.1h7c0.7,0,1.1,0.4,1.1,1.1v3.2
		C-469.5,602.9-470.2,603.3-470.6,603.3z"/>
	<path class="st1" d="M-489,603.3h-7c-0.7,0-1.1-0.4-1.1-1.1V599c0-0.6,0.4-1.1,1.1-1.1h7c0.7,0,1.1,0.4,1.1,1.1v3.2
		C-487.9,602.9-488.3,603.3-489,603.3z"/>
	<path class="st1" d="M-213.9,612.3h-7c-0.7,0-1.1-0.4-1.1-1.1V608c0-0.6,0.4-1.1,1.1-1.1h7c0.7,0,1.1,0.4,1.1,1.1v3.2
		C-212.8,611.9-213.2,612.3-213.9,612.3z"/>
	<path class="st1" d="M-232,612.3h-7c-0.7,0-1.1-0.4-1.1-1.1V608c0-0.6,0.4-1.1,1.1-1.1h7c0.7,0,1.1,0.4,1.1,1.1v3.2
		C-230.9,611.9-231.6,612.3-232,612.3z"/>
	<path class="st1" d="M-250.4,612.3h-7c-0.7,0-1.1-0.4-1.1-1.1V608c0-0.6,0.4-1.1,1.1-1.1h7c0.7,0,1.1,0.4,1.1,1.1v3.2
		C-249.3,611.9-249.8,612.3-250.4,612.3z"/>
	<path class="st1" d="M-268.8,612.3h-7c-0.7,0-1.1-0.4-1.1-1.1V608c0-0.6,0.4-1.1,1.1-1.1h7c0.7,0,1.1,0.4,1.1,1.1v3.2
		C-267.7,611.9-268.1,612.3-268.8,612.3z"/>
	<path class="st1" d="M-287.2,612.3h-7c-0.7,0-1.1-0.4-1.1-1.1V608c0-0.6,0.4-1.1,1.1-1.1h7c0.7,0,1.1,0.4,1.1,1.1v3.2
		C-286.1,611.9-286.5,612.3-287.2,612.3z"/>
	<path class="st1" d="M-305.4,612.3h-7c-0.7,0-1.1-0.4-1.1-1.1V608c0-0.6,0.4-1.1,1.1-1.1h7c0.7,0,1.1,0.4,1.1,1.1v3.2
		C-304.5,611.9-304.9,612.3-305.4,612.3z"/>
	<path class="st1" d="M-323.7,612.3h-7c-0.7,0-1.1-0.4-1.1-1.1V608c0-0.6,0.4-1.1,1.1-1.1h7c0.7,0,1.1,0.4,1.1,1.1v3.2
		C-322.6,611.9-323.1,612.3-323.7,612.3z"/>
	<path class="st1" d="M-342.1,612.3h-7c-0.7,0-1.1-0.4-1.1-1.1V608c0-0.6,0.4-1.1,1.1-1.1h7c0.7,0,1.1,0.4,1.1,1.1v3.2
		C-341,611.9-341.5,612.3-342.1,612.3z"/>
	<path class="st1" d="M-360.5,612.3h-7c-0.7,0-1.1-0.4-1.1-1.1V608c0-0.6,0.4-1.1,1.1-1.1h7c0.7,0,1.1,0.4,1.1,1.1v3.2
		C-359.4,611.9-359.9,612.3-360.5,612.3z"/>
	<path class="st1" d="M-378.7,612.3h-7c-0.7,0-1.1-0.4-1.1-1.1V608c0-0.6,0.4-1.1,1.1-1.1h7c0.7,0,1.1,0.4,1.1,1.1v3.2
		C-377.8,611.9-378.2,612.3-378.7,612.3z"/>
	<path class="st1" d="M-397.1,612.3h-7c-0.7,0-1.1-0.4-1.1-1.1V608c0-0.6,0.4-1.1,1.1-1.1h7c0.7,0,1.1,0.4,1.1,1.1v3.2
		C-396,611.9-396.6,612.3-397.1,612.3z"/>
	<path class="st1" d="M-415.5,612.3h-7c-0.7,0-1.1-0.4-1.1-1.1V608c0-0.6,0.4-1.1,1.1-1.1h7c0.7,0,1.1,0.4,1.1,1.1v3.2
		C-414.4,611.9-414.8,612.3-415.5,612.3z"/>
	<path class="st1" d="M-433.8,612.3h-7c-0.7,0-1.1-0.4-1.1-1.1V608c0-0.6,0.4-1.1,1.1-1.1h7c0.7,0,1.1,0.4,1.1,1.1v3.2
		C-432.7,611.9-433.2,612.3-433.8,612.3z"/>
	<path class="st1" d="M-452.2,612.3h-7c-0.7,0-1.1-0.4-1.1-1.1V608c0-0.6,0.4-1.1,1.1-1.1h7c0.7,0,1.1,0.4,1.1,1.1v3.2
		C-451.1,611.9-451.6,612.3-452.2,612.3z"/>
	<path class="st1" d="M-470.4,612.3h-7c-0.7,0-1.1-0.4-1.1-1.1V608c0-0.6,0.4-1.1,1.1-1.1h7c0.7,0,1.1,0.4,1.1,1.1v3.2
		C-469.3,611.9-470,612.3-470.4,612.3z"/>
	<path class="st1" d="M-488.8,612.3h-7c-0.7,0-1.1-0.4-1.1-1.1V608c0-0.6,0.4-1.1,1.1-1.1h7c0.7,0,1.1,0.4,1.1,1.1v3.2
		C-487.7,611.9-488.1,612.3-488.8,612.3z"/>
	<path class="st1" d="M-301.8,623H-373c-0.7,0-1.1-0.4-1.1-1.1v-3.2c0-0.6,0.4-1.1,1.1-1.1h71.1c0.7,0,1.1,0.4,1.1,1.1v3.2
		C-300.8,622.5-301.2,623-301.8,623z"/>
	<path class="st2" d="M-454.6,441.7h6.1c2,0,3.5,1.5,3.5,3.4l0,0c0,1.9-1.5,3.4-3.5,3.4h-6.1c-2,0-3.5-1.5-3.5-3.4l0,0
		C-458.1,443.2-456.6,441.7-454.6,441.7z"/>
	<path class="st2" d="M-383.5,441.7h6.1c2,0,3.5,1.5,3.5,3.4l0,0c0,1.9-1.5,3.4-3.5,3.4h-6.1c-2,0-3.5-1.5-3.5-3.4l0,0
		C-386.8,443.2-385.2,441.7-383.5,441.7z"/>
	<path class="st2" d="M-363.4,441.7h6.1c2,0,3.5,1.5,3.5,3.4l0,0c0,1.9-1.5,3.4-3.5,3.4h-6.1c-2,0-3.5-1.5-3.5-3.4l0,0
		C-366.6,443.2-365.1,441.7-363.4,441.7z"/>
	<path class="st2" d="M-435.4,441.3h38.7c2,0,3.5,1.5,3.5,3.4l0,0c0,1.9-1.5,3.4-3.5,3.4h-38.7c-2,0-3.5-1.5-3.5-3.4l0,0
		C-438.7,442.8-437.1,441.3-435.4,441.3z"/>
	<path class="st2" d="M-340.4,441.3h38.7c2,0,3.5,1.5,3.5,3.4l0,0c0,1.9-1.5,3.4-3.5,3.4h-38.7c-2,0-3.5-1.5-3.5-3.4l0,0
		C-343.9,442.8-342.3,441.3-340.4,441.3z"/>
	<path class="st2" d="M-435.6,456.9h6.1c2,0,3.5,1.5,3.5,3.4l0,0c0,1.9-1.5,3.4-3.5,3.4h-6.1c-2,0-3.5-1.5-3.5-3.4l0,0
		C-439.1,458.4-437.6,456.9-435.6,456.9z"/>
	<path class="st2" d="M-364.5,456.9h6.1c2,0,3.5,1.5,3.5,3.4l0,0c0,1.9-1.5,3.4-3.5,3.4h-6.1c-2,0-3.5-1.5-3.5-3.4l0,0
		C-368,458.4-366.4,456.9-364.5,456.9z"/>
	<path class="st2" d="M-344.3,456.9h6.1c2,0,3.5,1.5,3.5,3.4l0,0c0,1.9-1.5,3.4-3.5,3.4h-6.1c-2,0-3.5-1.5-3.5-3.4l0,0
		C-347.8,458.4-346.3,456.9-344.3,456.9z"/>
	<path class="st2" d="M-416.3,456.3h38.7c2,0,3.5,1.5,3.5,3.4l0,0c0,1.9-1.5,3.4-3.5,3.4h-38.7c-2,0-3.5-1.5-3.5-3.4l0,0
		C-419.6,457.8-418.3,456.3-416.3,456.3z"/>
	<path class="st2" d="M-321.3,456.3h38.7c2,0,3.5,1.5,3.5,3.4l0,0c0,1.9-1.5,3.4-3.5,3.4h-38.7c-2,0-3.5-1.5-3.5-3.4l0,0
		C-324.8,457.8-323.3,456.3-321.3,456.3z"/>
	<path class="st2" d="M-416.8,471.9h6.1c2,0,3.5,1.5,3.5,3.4l0,0c0,1.9-1.5,3.4-3.5,3.4h-6.1c-2,0-3.5-1.5-3.5-3.4l0,0
		C-420.1,473.4-418.5,471.9-416.8,471.9z"/>
	<path class="st2" d="M-345.4,471.9h6.1c2,0,3.5,1.5,3.5,3.4l0,0c0,1.9-1.5,3.4-3.5,3.4h-6.1c-2,0-3.5-1.5-3.5-3.4l0,0
		C-348.9,473.4-347.4,471.9-345.4,471.9z"/>
	<path class="st2" d="M-325.3,471.9h6.1c2,0,3.5,1.5,3.5,3.4l0,0c0,1.9-1.5,3.4-3.5,3.4h-6.1c-2,0-3.5-1.5-3.5-3.4l0,0
		C-328.8,473.4-327.2,471.9-325.3,471.9z"/>
	<path class="st2" d="M-397.3,471.5h38.7c2,0,3.5,1.5,3.5,3.4l0,0c0,1.9-1.5,3.4-3.5,3.4h-38.7c-2,0-3.5-1.5-3.5-3.4l0,0
		C-400.8,473-399.3,471.5-397.3,471.5z"/>
	<path class="st2" d="M-302.5,471.5h38.7c2,0,3.5,1.5,3.5,3.4l0,0c0,1.9-1.5,3.4-3.5,3.4h-38.7c-2,0-3.5-1.5-3.5-3.4l0,0
		C-305.8,473-304.3,471.5-302.5,471.5z"/>
	<path class="st2" d="M-397.7,487.1h6.1c2,0,3.5,1.5,3.5,3.4l0,0c0,1.9-1.5,3.4-3.5,3.4h-6.1c-2,0-3.5-1.5-3.5-3.4l0,0
		C-401.2,488.6-399.7,487.1-397.7,487.1z"/>
	<path class="st2" d="M-326.6,487.1h6.1c2,0,3.5,1.5,3.5,3.4l0,0c0,1.9-1.5,3.4-3.5,3.4h-6.1c-2,0-3.5-1.5-3.5-3.4l0,0
		C-329.9,488.6-328.3,487.1-326.6,487.1z"/>
	<path class="st2" d="M-306.4,487.1h6.1c2,0,3.5,1.5,3.5,3.4l0,0c0,1.9-1.5,3.4-3.5,3.4h-6.1c-2,0-3.5-1.5-3.5-3.4l0,0
		C-309.7,488.6-308.2,487.1-306.4,487.1z"/>
	<path class="st2" d="M-378.2,486.5h38.7c2,0,3.5,1.5,3.5,3.4l0,0c0,1.9-1.5,3.4-3.5,3.4h-38.7c-2,0-3.5-1.5-3.5-3.4l0,0
		C-381.7,488-380.2,486.5-378.2,486.5z"/>
	<path class="st2" d="M-383.5,547h6.1c2,0,3.5,1.5,3.5,3.4l0,0c0,1.9-1.5,3.4-3.5,3.4h-6.1c-2,0-3.5-1.5-3.5-3.4l0,0
		C-386.8,548.5-385.2,547-383.5,547z"/>
	<path class="st2" d="M-363.4,547h6.1c2,0,3.5,1.5,3.5,3.4l0,0c0,1.9-1.5,3.4-3.5,3.4h-6.1c-2,0-3.5-1.5-3.5-3.4l0,0
		C-366.6,548.5-365.1,547-363.4,547z"/>
	<path class="st2" d="M-340.4,547.7h38.7c2,0,3.5,1.5,3.5,3.4l0,0c0,1.9-1.5,3.4-3.5,3.4h-38.7c-2,0-3.5-1.5-3.5-3.4l0,0
		C-343.9,549.2-342.3,547.7-340.4,547.7z"/>
	<path class="st2" d="M-454.6,547h6.1c2,0,3.5,1.5,3.5,3.4l0,0c0,1.9-1.5,3.4-3.5,3.4h-6.1c-2,0-3.5-1.5-3.5-3.4l0,0
		C-458.1,548.5-456.6,547-454.6,547z"/>
	<path class="st2" d="M-435.4,547.7h38.7c2,0,3.5,1.5,3.5,3.4l0,0c0,1.9-1.5,3.4-3.5,3.4h-38.7c-2,0-3.5-1.5-3.5-3.4l0,0
		C-438.7,549.2-437.1,547.7-435.4,547.7z"/>
	<path class="st2" d="M-435.6,532h6.1c2,0,3.5,1.5,3.5,3.4l0,0c0,1.9-1.5,3.4-3.5,3.4h-6.1c-2,0-3.5-1.5-3.5-3.4l0,0
		C-439.1,533.3-437.6,532-435.6,532z"/>
	<path class="st2" d="M-364.5,532h6.1c2,0,3.5,1.5,3.5,3.4l0,0c0,1.9-1.5,3.4-3.5,3.4h-6.1c-2,0-3.5-1.5-3.5-3.4l0,0
		C-368,533.3-366.4,532-364.5,532z"/>
	<path class="st2" d="M-344.3,532h6.1c2,0,3.5,1.5,3.5,3.4l0,0c0,1.9-1.5,3.4-3.5,3.4h-6.1c-2,0-3.5-1.5-3.5-3.4l0,0
		C-347.8,533.3-346.3,532-344.3,532z"/>
	<path class="st2" d="M-416.3,532.5h38.7c2,0,3.5,1.5,3.5,3.4l0,0c0,1.9-1.5,3.4-3.5,3.4h-38.7c-2,0-3.5-1.5-3.5-3.4l0,0
		C-419.6,534-418.3,532.5-416.3,532.5z"/>
	<path class="st2" d="M-416.8,516.9h6.1c2,0,3.5,1.5,3.5,3.4l0,0c0,1.9-1.5,3.4-3.5,3.4h-6.1c-2,0-3.5-1.5-3.5-3.4l0,0
		C-420.1,518.4-418.5,516.9-416.8,516.9z"/>
	<path class="st2" d="M-345.4,516.9h6.1c2,0,3.5,1.5,3.5,3.4l0,0c0,1.9-1.5,3.4-3.5,3.4h-6.1c-2,0-3.5-1.5-3.5-3.4l0,0
		C-348.9,518.4-347.4,516.9-345.4,516.9z"/>
	<path class="st2" d="M-325.3,516.9h6.1c2,0,3.5,1.5,3.5,3.4l0,0c0,1.9-1.5,3.4-3.5,3.4h-6.1c-2,0-3.5-1.5-3.5-3.4l0,0
		C-328.8,518.4-327.2,516.9-325.3,516.9z"/>
	<path class="st2" d="M-397.3,517.5h38.7c2,0,3.5,1.5,3.5,3.4l0,0c0,1.9-1.5,3.4-3.5,3.4h-38.7c-2,0-3.5-1.5-3.5-3.4l0,0
		C-400.8,519-399.3,517.5-397.3,517.5z"/>
	<path class="st2" d="M-397.7,501.9h6.1c2,0,3.5,1.5,3.5,3.4l0,0c0,1.9-1.5,3.4-3.5,3.4h-6.1c-2,0-3.5-1.5-3.5-3.4l0,0
		C-401.2,503.4-399.7,501.9-397.7,501.9z"/>
	<path class="st2" d="M-326.6,501.9h6.1c2,0,3.5,1.5,3.5,3.4l0,0c0,1.9-1.5,3.4-3.5,3.4h-6.1c-2,0-3.5-1.5-3.5-3.4l0,0
		C-329.9,503.4-328.3,501.9-326.6,501.9z"/>
	<path class="st2" d="M-306.4,501.9h6.1c2,0,3.5,1.5,3.5,3.4l0,0c0,1.9-1.5,3.4-3.5,3.4h-6.1c-2,0-3.5-1.5-3.5-3.4l0,0
		C-309.7,503.4-308.2,501.9-306.4,501.9z"/>
	<path class="st2" d="M-378.2,502.3h38.7c2,0,3.5,1.5,3.5,3.4l0,0c0,1.9-1.5,3.4-3.5,3.4h-38.7c-2,0-3.5-1.5-3.5-3.4l0,0
		C-381.7,503.8-380.2,502.3-378.2,502.3z"/>
</g>
<g>
	<path class="st3" d="M291.1,641.5c1.1,1.7,2.6,2.5,4.2,2.5H593c3.1,0,5.5-3.1,5.5-7c0-0.6,0-0.8-0.2-1.4l-4.6-28.2
		c-0.4-2.3-1.8-4.2-3.5-5.1c-0.7-0.3-1.3-0.6-2-0.6H299.8c-0.7,0-1.3,0.3-2,0.6c-1.8,0.8-3.1,2.8-3.5,5.1l-4.6,28.2
		C289.6,637.9,290,639.9,291.1,641.5z"/>
	<path class="st1" d="M566.9,614h-7c-0.7,0-1.1-0.6-1.1-1.4v-4.2c0-0.8,0.4-1.4,1.1-1.4h7c0.7,0,1.1,0.6,1.1,1.4v4.2
		C568,613.4,567.3,614,566.9,614z"/>
	<path class="st1" d="M548.5,614h-7c-0.7,0-1.1-0.6-1.1-1.4v-4.2c0-0.8,0.4-1.4,1.1-1.4h7c0.7,0,1.1,0.6,1.1,1.4v4.2
		C549.6,613.4,549.2,614,548.5,614z"/>
	<path class="st1" d="M530.1,614h-7c-0.7,0-1.1-0.6-1.1-1.4v-4.2c0-0.8,0.4-1.4,1.1-1.4h7c0.7,0,1.1,0.6,1.1,1.4v4.2
		C531.2,613.4,530.8,614,530.1,614z"/>
	<path class="st1" d="M511.7,614h-7c-0.7,0-1.1-0.6-1.1-1.4v-4.2c0-0.8,0.4-1.4,1.1-1.4h7c0.7,0,1.1,0.6,1.1,1.4v4.2
		C512.8,613.4,512.4,614,511.7,614z"/>
	<path class="st1" d="M493.6,614h-7.2c-0.7,0-1.1-0.6-1.1-1.4v-4.2c0-0.8,0.4-1.4,1.1-1.4h7c0.7,0,1.1,0.6,1.1,1.4v4.2
		C494.4,613.4,494,614,493.6,614z"/>
	<path class="st1" d="M475.2,614h-7c-0.7,0-1.1-0.6-1.1-1.4v-4.2c0-0.8,0.4-1.4,1.1-1.4h7c0.7,0,1.1,0.6,1.1,1.4v4.2
		C476.3,613.4,475.8,614,475.2,614z"/>
	<path class="st1" d="M456.8,614h-7c-0.7,0-1.1-0.6-1.1-1.4v-4.2c0-0.8,0.4-1.4,1.1-1.4h7c0.7,0,1.1,0.6,1.1,1.4v4.2
		C457.9,613.4,457.4,614,456.8,614z"/>
	<path class="st1" d="M438.4,614h-7c-0.7,0-1.1-0.6-1.1-1.4v-4.2c0-0.8,0.4-1.4,1.1-1.4h7c0.7,0,1.1,0.6,1.1,1.4v4.2
		C439.5,613.4,439.1,614,438.4,614z"/>
	<path class="st1" d="M420.2,614h-7c-0.7,0-1.1-0.6-1.1-1.4v-4.2c0-0.8,0.4-1.4,1.1-1.4h7c0.7,0,1.1,0.6,1.1,1.4v4.2
		C421.1,613.4,420.7,614,420.2,614z"/>
	<path class="st1" d="M401.9,614h-7c-0.7,0-1.1-0.6-1.1-1.4v-4.2c0-0.8,0.4-1.4,1.1-1.4h7c0.7,0,1.1,0.6,1.1,1.4v4.2
		C402.9,613.4,402.3,614,401.9,614z"/>
	<path class="st1" d="M383.5,614h-7c-0.7,0-1.1-0.6-1.1-1.4v-4.2c0-0.8,0.4-1.4,1.1-1.4h7c0.7,0,1.1,0.6,1.1,1.4v4.2
		C384.6,613.4,384.1,614,383.5,614z"/>
	<path class="st1" d="M365.1,614h-7c-0.7,0-1.1-0.6-1.1-1.4v-4.2c0-0.8,0.4-1.4,1.1-1.4h7c0.7,0,1.1,0.6,1.1,1.4v4.2
		C366.2,613.4,365.7,614,365.1,614z"/>
	<path class="st1" d="M346.7,614h-7c-0.7,0-1.1-0.6-1.1-1.4v-4.2c0-0.8,0.4-1.4,1.1-1.4h7c0.7,0,1.1,0.6,1.1,1.4v4.2
		C347.8,613.4,347.3,614,346.7,614z"/>
	<path class="st1" d="M328.5,614h-7c-0.7,0-1.1-0.6-1.1-1.4v-4.2c0-0.8,0.4-1.4,1.1-1.4h7c0.7,0,1.1,0.6,1.1,1.4v4.2
		C329.6,613.4,329,614,328.5,614z"/>
	<path class="st1" d="M310.1,614h-7c-0.7,0-1.1-0.6-1.1-1.4v-4.2c0-0.8,0.4-1.4,1.1-1.4h7c0.7,0,1.1,0.6,1.1,1.4v4.2
		C311.2,613.4,310.8,614,310.1,614z"/>
	<path class="st1" d="M585.3,625.8h-7c-0.7,0-1.1-0.6-1.1-1.4v-4.2c0-0.8,0.4-1.4,1.1-1.4h7c0.7,0,1.1,0.6,1.1,1.4v4.2
		C586.4,625.2,585.9,625.8,585.3,625.8z"/>
	<path class="st1" d="M567.1,625.8h-7c-0.7,0-1.1-0.6-1.1-1.4v-4.2c0-0.8,0.4-1.4,1.1-1.4h7c0.7,0,1.1,0.6,1.1,1.4v4.2
		C568.2,625.2,567.6,625.8,567.1,625.8z"/>
	<path class="st1" d="M548.7,625.8h-7c-0.7,0-1.1-0.6-1.1-1.4v-4.2c0-0.8,0.4-1.4,1.1-1.4h7c0.7,0,1.1,0.6,1.1,1.4v4.2
		C549.8,625.2,549.4,625.8,548.7,625.8z"/>
	<path class="st1" d="M530.3,625.8h-7c-0.7,0-1.1-0.6-1.1-1.4v-4.2c0-0.8,0.4-1.4,1.1-1.4h7c0.7,0,1.1,0.6,1.1,1.4v4.2
		C531.4,625.2,531,625.8,530.3,625.8z"/>
	<path class="st1" d="M512,625.8h-7c-0.7,0-1.1-0.6-1.1-1.4v-4.2c0-0.8,0.4-1.4,1.1-1.4h7c0.7,0,1.1,0.6,1.1,1.4v4.2
		C513,625.2,512.6,625.8,512,625.8z"/>
	<path class="st1" d="M493.8,625.8h-7c-0.7,0-1.1-0.6-1.1-1.4v-4.2c0-0.8,0.4-1.4,1.1-1.4h7c0.7,0,1.1,0.6,1.1,1.4v4.2
		C494.7,625.2,494.2,625.8,493.8,625.8z"/>
	<path class="st1" d="M475.4,625.8h-7c-0.7,0-1.1-0.6-1.1-1.4v-4.2c0-0.8,0.4-1.4,1.1-1.4h7c0.7,0,1.1,0.6,1.1,1.4v4.2
		C476.5,625.2,476.1,625.8,475.4,625.8z"/>
	<path class="st1" d="M457,625.8h-7c-0.7,0-1.1-0.6-1.1-1.4v-4.2c0-0.8,0.4-1.4,1.1-1.4h7c0.7,0,1.1,0.6,1.1,1.4v4.2
		C458.1,625.2,457.7,625.8,457,625.8z"/>
	<path class="st1" d="M438.6,625.8h-7c-0.7,0-1.1-0.6-1.1-1.4v-4.2c0-0.8,0.4-1.4,1.1-1.4h7c0.7,0,1.1,0.6,1.1,1.4v4.2
		C439.7,625.2,439.3,625.8,438.6,625.8z"/>
	<path class="st1" d="M420.5,625.8h-7c-0.7,0-1.1-0.6-1.1-1.4v-4.2c0-0.8,0.4-1.4,1.1-1.4h7c0.7,0,1.1,0.6,1.1,1.4v4.2
		C421.3,625.2,420.9,625.8,420.5,625.8z"/>
	<path class="st1" d="M402.1,625.8h-7c-0.7,0-1.1-0.6-1.1-1.4v-4.2c0-0.8,0.4-1.4,1.1-1.4h7c0.7,0,1.1,0.6,1.1,1.4v4.2
		C403.2,625.2,402.5,625.8,402.1,625.8z"/>
	<path class="st1" d="M383.7,625.8h-7c-0.7,0-1.1-0.6-1.1-1.4v-4.2c0-0.8,0.4-1.4,1.1-1.4h7c0.7,0,1.1,0.6,1.1,1.4v4.2
		C384.8,625.2,384.3,625.8,383.7,625.8z"/>
	<path class="st1" d="M365.3,625.8h-7c-0.7,0-1.1-0.6-1.1-1.4v-4.2c0-0.8,0.4-1.4,1.1-1.4h7c0.7,0,1.1,0.6,1.1,1.4v4.2
		C366.4,625.2,366,625.8,365.3,625.8z"/>
	<path class="st1" d="M346.9,625.8h-7c-0.7,0-1.1-0.6-1.1-1.4v-4.2c0-0.8,0.4-1.4,1.1-1.4h7c0.7,0,1.1,0.6,1.1,1.4v4.2
		C348,625.2,347.6,625.8,346.9,625.8z"/>
	<path class="st1" d="M328.7,625.8h-7c-0.7,0-1.1-0.6-1.1-1.4v-4.2c0-0.8,0.4-1.4,1.1-1.4h7c0.7,0,1.1,0.6,1.1,1.4v4.2
		C329.8,625.2,329.2,625.8,328.7,625.8z"/>
	<path class="st1" d="M310.4,625.8h-7c-0.7,0-1.1-0.6-1.1-1.4v-4.2c0-0.8,0.4-1.4,1.1-1.4h7c0.7,0,1.1,0.6,1.1,1.4v4.2
		C311.4,625.2,311,625.8,310.4,625.8z"/>
	<path class="st1" d="M497.3,639.9h-71.1c-0.7,0-1.1-0.6-1.1-1.4v-4.2c0-0.8,0.4-1.4,1.1-1.4h71.1c0.7,0,1.1,0.6,1.1,1.4v4.2
		C498.4,639.3,497.9,639.9,497.3,639.9z"/>
</g>
<g>
	<g>
		<path class="st4" d="M281.5,710.5l-29.1-45.2l91.7-71.5l37.9-41.1c15.5-16.9,42-18.2,59.3-3c5.5,4.7,9.4,10.9,11.8,17.6l0,0
			c7,21-4.2,43.7-25.4,51.4L368,640.4L281.5,710.5z"/>
		<path class="st1" d="M-187.3,467.2l0.4,1.5l0,0l14.2,42.4l16.4,49l30.9,92l0.2,14.3l0,0l2.2,115l-6.3,15.6l7.2,25.5
			c0,0-3.3-38.5-21-16.5c-10.1,12.6-21.7,25.5-31.3,37.7c14,5.6,28.2,10.5,42.7,15c3.1,1.1,6.3,1.9,9.4,2.8c0.7,0.2,1.3,0.4,2,0.6
			c47.9,13.9,97.4,21.6,147.5,23.1c2.6,0,5,0.2,7.7,0.2c0.9,0,1.8,0,2.6,0c2.8,0,5.5,0,8.3,0c5.7,0,11.2,0,16.9-0.2
			c41.4-1.1,82.5-6.6,122.8-16.3c-0.2-16.3-1.1-35.1-2.2-55.4c-0.4-9.8-11.8-20.8-12.5-31c-0.4-7.9,9.6-15.2,9-23.1
			c-3.5-48.8-7.7-30.2-10.7-64.6c-0.2-3.4-0.7-6.6-0.9-9.8c-2-22.3-3.5-36.2-3.5-36.2l13.4-82.8l21-129.9l-1.5-2.6l-1.8-0.9
			l-111.3-54l-6.1-15.2c-3.5-9-12.5-14.8-22.1-14.8l-73.3-0.2c-7.7,0-14.9,3.6-19.5,9.6l-19.9,27L-187.3,467.2z"/>
		<path class="st1" d="M-108.3,631.8l-16.6,34.7l-11.4,23.8l-19.5,99.8l-9.9,10.1l-8.3-36l-87.6,19.1c-2.8-15.6-0.9,0.4-2.6-16.7
			c0.4-0.4,1.1-1.1,1.5-1.5c1.3-1.3,2.6-2.6,2.6-3.6c-1.1-59.1,2-159.5,26.9-220.5c3.9-9.8,9.2-19.3,15.3-28
			c0.4-0.6,0.9-1.3,1.5-1.9c11.6-15.8,18.8-31.3,29.1-42.4l0,0l0.2-0.2l0,0l71.1-37l3.1,83.7l2.2,60.2L-108.3,631.8z"/>
		<path class="st1" d="M147.8,641.7l20.8,43.5l7.2,15.2l19.5,99.8l9.6,10.1l8.3-36l3.9-0.9l71.1-14.3l20.8,64.2
			c9.6-15.6,6.6-35.7-7.2-48.2c-1.3-1.3-2.6-2.6-2.6-3.6c1.1-69.4-3.1-196.3-42.5-248.5c-12.5-16.5-19.9-33-30.9-44.5l0,0
			l-26.5-42.4l-1.5-2.6l-1.8-0.9L147.8,641.7z"/>
		<ellipse id="a657ec4b-47ce-4d2a-9c58-81a811696ca9" class="st4" cx="22.2" cy="232.6" rx="97.6" ry="95.5"/>
		<path class="st3" d="M153.9,166c-1.5-1.5-3.7-2.6-5.9-2.6l1.5-4.1c1.5-3.9-0.4-8.3-4.6-9.6c-1.3-0.4-2.8-0.6-4.2-0.4l-5.3,1.1
			l0.4-3.4c0.7-4.1-2.4-7.9-6.6-8.6c-1.3-0.2-2.6,0-3.7,0.4c-2.4,0.9-5,0.6-7-0.4c-2.2-1.1-3.7-3.2-4.2-5.6l-1.8-8.8l-0.2-0.4
			c-9-14.8-26.5-25.5-47.7-29.5c-19-3.4-38.5-1.7-57.1,0c-7.4,0.6-15.8,1.5-22.8,5.6c-5.9,3.6-10.9,10.7-9.9,18
			c-18.6-5.6-38.3,5.6-48.2,19.5C-85,153.9-87,174.7-87.2,190.9c-0.9,38.5,7.2,70,24.1,93.5c1.3,1.7,1.5,5.4,3.9,6.4l-0.4-0.9
			c2.6,1.3,5.5,3.4,4.4,5.8c-2.8,6.6,16.6,21.2,30.4,25.9c25.2,8.8,58.9,8.1,82.3,4.9l0.9-5.4c8.5-1.1,14.4-3.2,16.2-6.6
			c3.1-2.6,5.5-4.7,7.7-6.9l0,0c0,0,0.2,0,0.2-0.2c11-9.9,13.4-15.5,14.5-24.3c1.1-8.6-0.9-17.1-2.8-24.8
			c40.9,6.2-16.2-42.8,22.1-52.2c0.4-0.2,0.9-0.2,1.3-0.2c1.1-0.2,2.2-0.4,3.3-0.9c5.3-1.3,10.1-3.4,14.7-6.2
			c10.7-6.4,14.2-14.8,19.7-24.4C156.6,171.8,156.1,168.4,153.9,166z"/>
	</g>
	<path class="st3" d="M367.1,648.3c0,3.9,0,9-0.2,15.4c0,0.9,0,1.7,0,2.8c-0.2,12-0.7,21.8-1.1,33c0,0.9,0,1.5,0,2.4
		c-0.7,15.4-1.5,33.6-3.3,62.1c-3.1,52.9-8.5,7.3-13.8,25.7c-0.2,0.9-0.7,1.9-0.9,3.2c-0.9,4.7-2.2,9.2-4.2,13.5
		c-2.8,1.7-5.9,3.2-8.8,4.9c-8.3,4.5-16.6,8.8-25.2,13.1c-4.8,2.4-9.6,4.5-14.4,6.9c-0.7,0.4-1.5,0.6-2.2,1.1
		c-24.7,11.1-50.1,20.6-76.2,28.5c-5,1.5-10.1,3-15.3,4.3c-5.3,1.5-10.7,2.8-16,4.1c-40.3,9.6-81.4,15.2-122.8,16.3
		c-5.3-0.1-11-0.1-16.7-0.1c-2.8,0-5.5,0-8.3,0c-0.9,0-1.8,0-2.6,0c-2.4,0-5,0-7.7-0.2c-49.9-1.5-99.6-9.4-147.3-23.1l-2-0.6
		c-3.1-0.9-6.3-1.9-9.4-2.8c-14.4-4.5-28.7-9.4-42.7-15c-10.7-4.3-21.2-8.8-31.7-13.5c0,0-0.2,0-0.2-0.2c-2.2-1.1-4.4-1.9-6.6-3
		c-0.2-0.2-0.7-0.2-0.9-0.4c-8.1-3.9-16.2-7.9-24.3-12.2c-6.8-15.2-16.2-18-22.1-31.3c-1.8-3.9-2.8-8.1-3.7-12.2c0,0,0,0,0-0.2
		c0.7,7.9-2.6-14.1,0,0c0-0.2,0-0.6,0-0.9c0-0.9-0.2-1.7-0.2-2.8c-7.4-71.7-7-153.7-10.3-221.3c-0.2-4.3-0.4-8.6-0.7-12.6
		c0-1.3-0.2-2.6-0.2-3.9c0.2-0.4,0.2-0.9,0.4-1.1c0-0.2,0-0.2,0.2-0.4c0-0.2,0.2-0.2,0.2-0.4c0,0,0-0.2,0.2-0.2V527
		c0.2-0.2,0.4-0.6,0.7-0.9c0-0.2,0.2-0.2,0.2-0.4s0.2-0.2,0.2-0.2l0.2-0.2l0.2-0.2c0,0,0-0.2,0.2-0.2c0.2-0.2,0.4-0.4,0.7-0.6
		c0.9-0.6,1.5-1.3,2.4-1.9c0.2-0.2,0.7-0.4,0.9-0.6c2.2-1.3,4.6-2.4,7-3.2c0.9-0.2,1.8-0.6,2.6-0.9c0.2,0,0.7-0.2,0.9-0.2
		c0.4-0.2,0.9-0.2,1.5-0.4c2.4-0.6,5.3-1.3,8.1-1.9c0.4,0,0.7-0.2,1.1-0.2s1.1-0.2,1.5-0.2c0.7-0.2,1.5-0.2,2.2-0.4
		c6.6-1.1,13.8-1.7,22.1-2.1c0.9,0,1.5,0,2.2-0.2c0.9,0,1.8,0,2.6-0.2c0.9,0,1.5,0,2.4,0s1.5,0,2.4,0c2.2,0,4.4-0.2,6.8-0.2
		c6.6-0.2,13.6,0,20.8,0c3.3,0,6.8,0.2,10.5,0.4c0.2,0,0.4,0,0.7,0c3.1,0,6.1,0.2,9.4,0.4c2.2,0,4.4,0.2,6.8,0.4
		c2.2,0.2,4.2,0.2,6.3,0.4c1.8,0,3.3,0.2,5,0.4c1.5,0,2.8,0.2,4.4,0.2l2,0.2c1.1,0,2.2,0.2,3.3,0.2c2.4,0.2,4.8,0.4,7.2,0.6
		c2.4,0.2,4.8,0.4,7.4,0.6c2.6,0.2,5,0.4,7.4,0.6c0.2,0,0.4,0,0.7,0c2.2,0.2,4.6,0.4,6.8,0.6c0.4,0,1.1,0,1.5,0.2
		c2.2,0.2,4.4,0.4,6.6,0.6c0.7,0,1.3,0.2,2,0.2c1.8,0.2,3.5,0.4,5.3,0.6c2.2,0.2,4.6,0.4,7,0.9c1.8,0.2,3.5,0.4,5.3,0.6
		c2.8,0.4,5.7,0.6,8.3,1.1c1.1,0.2,2.2,0.2,3.3,0.4c8.1,1.1,16.2,2.1,24.5,3.2c12.5,1.7,25.2,3.6,38.1,5.6
		c12.9,2.1,25.8,4.3,38.7,6.4c3.3,0.6,6.6,1.1,9.9,1.7c1.5,0.2,3.1,0.6,4.4,0.9c2.6,0.4,5,0.9,7.7,1.5c2.6,0.4,5,0.9,7.7,1.5
		c3.1,0.6,6.1,1.1,9.2,1.7c19.9,3.9,39.6,7.9,59.1,12.2c3.3,0.6,6.3,1.5,9.4,2.1c6.3,1.5,12.5,2.8,18.8,4.3c1.8,0.4,3.3,0.9,5,1.3
		c4.2,1.1,8.3,2.1,12.5,3.2l0.7,0.2c3.1,0.6,6.1,1.5,9,2.1c7,1.7,14,3.6,20.8,5.4c4.6,1.3,9,2.4,13.4,3.6c6.6,1.9,13.1,3.9,19.3,5.6
		c1.5,0.4,3.1,0.9,4.6,1.5c4.6,1.5,9.2,2.8,13.6,4.3c3.5,1.1,7,2.1,10.3,3.4c3.3,1.1,6.6,2.4,9.9,3.4c2.2,0.6,4.2,1.5,6.1,2.1
		c2.8,1.1,5.9,2.1,8.8,3.2c0.9,0.4,1.8,0.6,2.6,1.1c0.7,0.2,1.1,0.4,1.5,0.6c1.1,0.4,2.2,0.9,3.1,1.3c1.1,0.4,2,0.9,3.1,1.3
		s2,0.9,2.8,1.3c1.1,0.4,2,0.9,2.8,1.3c0.9,0.4,1.5,0.6,2.4,1.1c1.5,0.6,3.1,1.3,4.6,1.9c0.7,0.4,1.5,0.6,2.2,1.1l1.8,0.9
		c0.2,0.2,0.4,0.2,0.7,0.4c0.7,0.2,1.1,0.6,1.8,0.9c1.3,0.6,2.6,1.3,3.7,1.7c1.8,0.9,3.3,1.7,4.8,2.4c1.5,0.9,3.1,1.7,4.6,2.4
		c0.2,0.2,0.4,0.2,0.7,0.4c0.4,0.2,0.7,0.4,1.1,0.6c1.1,0.6,2.2,1.3,3.3,1.9c2.2,1.3,4.2,2.6,5.9,3.9c0.4,0.2,0.9,0.6,1.3,0.9
		c1.3,1.1,2.6,1.9,3.9,2.8l0,0c0.4,0.2,0.9,0.6,1.1,0.9c0.4,0.2,0.7,0.6,1.1,0.9c1.1,1.1,2.2,1.9,3.1,2.8c0.2,0.2,0.7,0.6,0.9,0.9
		c0.2,0,0.2,0.2,0.4,0.4c0.4,0.4,0.9,0.9,1.1,1.3c0,0,0,0.2,0.2,0.2c0.4,0.6,1.1,1.3,1.5,1.7c0.2,0.2,0.4,0.6,0.7,0.9
		c0.2,0.4,0.4,0.6,0.7,1.1c0.2,0.2,0.4,0.6,0.7,0.9c0.4,0.9,0.9,1.5,1.1,2.4c0.2,0.6,0.4,1.1,0.7,1.7
		C366.9,647.2,367.1,647.9,367.1,648.3z"/>
	<path class="st5" d="M367.1,648.3c0,3.9,0,9-0.2,15.4c0,0.9,0,1.7,0,2.8c-0.2,9.2-0.7,20.3-1.1,33c0,0.9,0,1.5,0,2.4
		c-0.7,15.4-1.5,33.6-3.3,62.1c-3.1,52.9-8.5,7.3-13.8,25.7c-15.1-9-31.5-18.4-49-28.3c-3.1-1.7-6.3-3.4-9.6-5.4
		c-35.2-19.3-74.4-39.4-115.6-59.3c-1.5-0.9-3.3-1.5-4.8-2.4C75.6,648.8-26.9,604.5-110,575c-16-5.8-31.3-10.9-45.7-15.4
		c-30.4-9.4-56.5-16.1-76.8-19.1c-21-3-35.5-1.9-41.4,4.3c-0.2-4.3-0.4-8.6-0.7-12.6c0-1.3-0.2-2.6-0.2-3.9c0.2-0.4,0.2-0.6,0.4-1.1
		c0,0,0,0,0-0.2s0-0.2,0.2-0.4c0-0.2,0.2-0.2,0.2-0.4s0.2-0.2,0.2-0.4c0.2-0.2,0.4-0.6,0.7-0.9s0.4-0.4,0.7-0.6l0.2-0.2l0.2-0.2
		c0,0,0-0.2,0.2-0.2c0.2-0.2,0.4-0.4,0.7-0.6c0.9-0.6,1.5-1.3,2.4-1.9c0.2-0.2,0.7-0.4,0.9-0.6c2.2-1.3,4.6-2.4,7-3.2
		c0.9-0.2,1.8-0.6,2.6-0.9c0.2,0,0.7-0.2,0.9-0.2c0.4-0.2,0.9-0.2,1.5-0.4c2.4-0.6,5.3-1.3,8.1-1.9c0.9-0.2,1.8-0.4,2.6-0.4
		c0.7-0.2,1.5-0.2,2.2-0.4c6.6-1.1,13.8-1.7,22.1-2.1c0.9,0,1.5,0,2.2-0.2c0.9,0,1.8,0,2.6-0.2c0.9,0,1.5,0,2.4,0s1.5,0,2.4,0
		c2.2,0,4.4-0.2,6.8-0.2c6.6,0,13.6,0,20.8,0c3.3,0,6.8,0.2,10.5,0.4c0.2,0,0.4,0,0.7,0c3.1,0,6.1,0.2,9.4,0.4
		c2.2,0,4.4,0.2,6.8,0.4c2.2,0.2,4.2,0.2,6.3,0.4c1.8,0,3.3,0.2,5,0.4c1.5,0,2.8,0.2,4.4,0.2c1.8,0.2,3.5,0.2,5.3,0.4
		c2.4,0.2,4.8,0.4,7.2,0.6c2.4,0.2,4.8,0.4,7.4,0.6s5,0.4,7.4,0.6c0.2,0,0.4,0,0.7,0c2.2,0.2,4.6,0.4,6.8,0.6
		c12.7,1.3,25.8,2.8,39.4,4.5c8.1,1.1,16.2,2.1,24.5,3.2c12.5,1.7,25.2,3.6,38.1,5.6c12.9,2.1,25.8,4.3,38.7,6.4
		c3.3,0.6,6.6,1.1,9.9,1.7c3.9,0.6,8.1,1.5,12,2.1c2.6,0.4,5,0.9,7.7,1.5c3.1,0.6,6.1,1.1,9.2,1.7c19.9,3.9,39.6,7.9,59.1,12.2
		c3.3,0.6,6.3,1.5,9.4,2.1c6.3,1.5,12.5,2.8,18.8,4.3c1.8,0.4,3.3,0.9,5,1.3c4.2,1.1,8.3,2.1,12.5,3l0,0c0.2,0,0.4,0,0.7,0.2
		c3.1,0.6,6.1,1.5,9,2.4c7,1.7,14,3.6,20.8,5.4c4.6,1.3,9,2.6,13.4,3.6c6.6,1.9,13.1,3.9,19.3,5.6c1.5,0.4,3.1,0.9,4.6,1.5
		c4.6,1.5,9.2,2.8,13.6,4.3c3.5,1.1,7,2.1,10.3,3.4c3.3,1.1,6.6,2.4,9.9,3.4c2.2,0.6,4.2,1.5,6.1,2.1c3.1,1.1,5.9,2.1,8.8,3.2
		c0.9,0.4,1.8,0.6,2.6,1.1c1.5,0.6,3.1,1.3,4.6,1.9c1.1,0.4,2,0.9,3.1,1.3s2,0.9,2.8,1.3c1.1,0.4,2,0.9,2.8,1.3
		c0.9,0.4,1.5,0.6,2.4,1.1c1.5,0.6,3.1,1.3,4.6,1.9c0.7,0.4,1.5,0.6,2.2,1.1l1.8,0.9c0.2,0.2,0.4,0.2,0.7,0.4
		c1.8,0.9,3.7,1.7,5.5,2.6c1.8,0.9,3.3,1.7,4.8,2.4c1.8,0.9,3.5,1.9,5.3,2.8c0.4,0.2,0.7,0.4,1.1,0.6c1.1,0.6,2.2,1.3,3.3,1.9
		c2.2,1.3,4.2,2.6,5.9,3.9c1.8,1.3,3.5,2.6,5,3.6l0,0c0.7,0.6,1.5,1.3,2.2,1.7c1.1,1.1,2.2,1.9,3.1,2.8c0.2,0.2,0.7,0.6,0.9,0.9
		c0.2,0,0.2,0.2,0.4,0.4c0.4,0.4,0.9,1.1,1.3,1.5c0.4,0.6,1.1,1.3,1.5,1.7c0.2,0.2,0.4,0.6,0.7,0.9c0.2,0.4,0.4,0.6,0.7,1.1
		c0.2,0.2,0.4,0.6,0.7,0.9c0.4,0.9,0.9,1.5,1.1,2.4c0.2,0.6,0.4,1.1,0.7,1.7C366.9,647.2,367.1,647.9,367.1,648.3z"/>
</g>
</svg>
