<?xml version="1.0" encoding="utf-8"?>
<!-- Generator: Adobe Illustrator 24.0.1, SVG Export Plug-In . SVG Version: 6.00 Build 0)  -->
<svg version="1.1" id="Layer_1" xmlns="http://www.w3.org/2000/svg" xmlns:xlink="http://www.w3.org/1999/xlink" x="0px" y="0px"
	 viewBox="0 0 786.8 572.3" style="enable-background:new 0 0 786.8 572.3;" xml:space="preserve">
<style type="text/css">
	.st0{fill:#F2F2F2;}
	.st1{fill:#3F3D56;}
	.st2{fill:#FFFFFF;}
	.st3{fill:#2F2E41;}
	.st4{fill:#FFB6B6;}
	.st5{opacity:0.2;enable-background:new    ;}
</style>
<ellipse class="st0" cx="290" cy="-129.8" rx="42.5" ry="44.7"/>
<path class="st0" d="M620,579.1c63.3-50.6,93.4-135.7,74.6-217c-0.5-2-1-4-1.4-6c-12.6-48.3-43.5-94-88.8-109.4
	c-37.9-12.9-79.4-3-119-8.2C407.6,228.4,347.4,162.3,305,93S229.9-53.9,173.6-111c-92.9-94.3-244.4-114.6-359.5-53.3
	C-301-102.8-374.3,33.3-371.3,169c3.2,135.7,79.7,265.4,191.1,334.3c41,25.3,88.1,43.2,135.1,36.9c40.8-5.4,77.9-28.5,118.6-35.4
	c63.9-10.7,127.3,19.6,182.6,55s108.7,77.4,171.5,93.8C488.5,669.7,564,623.8,620,579.1z"/>
<path class="st1" d="M529.1-161.4c-1.4-1-2.9-1.8-4.1-2.8c-40-27-83-48.9-128-65.2L386.7-78.3h-66.1v-173.3
	c-4.1-0.8-8.3-1.8-12.6-2.5v175.8h-78.6c-90,0-163-76.7-163-171.4l0,0c-4.1,1-8.4,2-12.6,3v168.2h-63.9L-20-222.6
	c-46.2,18.6-90,43.1-130.5,72.9c-0.6,0.5-1.4,1-2.1,1.5c-3.5,2.7-7,5.2-10.5,7.9v576.8H25.4l-3.3-48.6L3.8,121.4h369l-18.3,266.4
	l-3.3,48.6h186.4v-592C534.7-157.6,532-159.4,529.1-161.4z M54,77.9H0.7l-9.8-143H54V77.9z M308,77.9h-89.4V75
	c0-5.7-4.5-10.4-9.9-10.4l0,0H170c-5.4,0-9.9,4.7-9.9,10.4l0,0v2.8H66.6V-65.1H308V77.9z M320.5,77.9v-143h65.2l-9.9,142.9h-55.3
	V77.9z"/>
<path class="st1" d="M558.9,473.5h-5.1c-0.5,0-0.8-0.3-0.8-0.8v-2.5c0-0.5,0.3-0.8,0.8-0.8h5.1c0.5,0,0.8,0.3,0.8,0.8v2.5
	C559.7,473.2,559.4,473.5,558.9,473.5z"/>
<path class="st2" d="M-319,489.5h4.5c1.4,0,2.5,1.2,2.5,2.7l0,0c0,1.5-1.1,2.7-2.5,2.7h-4.5c-1.4,0-2.5-1.2-2.5-2.7l0,0
	C-321.5,490.7-320.4,489.5-319,489.5z"/>
<path class="st2" d="M-267.2,489.5h4.5c1.4,0,2.5,1.2,2.5,2.7l0,0c0,1.5-1.1,2.7-2.5,2.7h-4.5c-1.4,0-2.5-1.2-2.5-2.7l0,0
	C-269.6,490.7-268.5,489.5-267.2,489.5z"/>
<path class="st2" d="M-252.5,489.5h4.5c1.4,0,2.5,1.2,2.5,2.7l0,0c0,1.5-1.1,2.7-2.5,2.7h-4.5c-1.4,0-2.5-1.2-2.5-2.7l0,0
	C-254.9,490.7-253.8,489.5-252.5,489.5z"/>
<path class="st2" d="M-305,489.2h28.2c1.4,0,2.5,1.2,2.5,2.7l0,0c0,1.5-1.1,2.7-2.5,2.7H-305c-1.4,0-2.5-1.2-2.5-2.7l0,0
	C-307.4,490.3-306.2,489.2-305,489.2z"/>
<path class="st2" d="M-305.1,501.4h4.5c1.4,0,2.5,1.2,2.5,2.7l0,0c0,1.5-1.1,2.7-2.5,2.7h-4.5c-1.4,0-2.5-1.2-2.5-2.7l0,0
	C-307.7,502.6-306.6,501.4-305.1,501.4z"/>
<path class="st2" d="M-253.3,501.4h4.5c1.4,0,2.5,1.2,2.5,2.7l0,0c0,1.5-1.1,2.7-2.5,2.7h-4.5c-1.4,0-2.5-1.2-2.5-2.7l0,0
	C-255.9,502.6-254.8,501.4-253.3,501.4z"/>
<path class="st2" d="M-238.7,501.4h4.5c1.4,0,2.5,1.2,2.5,2.7l0,0c0,1.5-1.1,2.7-2.5,2.7h-4.5c-1.4,0-2.5-1.2-2.5-2.7l0,0
	C-241.2,502.6-240.1,501.4-238.7,501.4z"/>
<path class="st2" d="M-291.1,500.9h28.2c1.4,0,2.5,1.2,2.5,2.7l0,0c0,1.5-1.1,2.7-2.5,2.7h-28.2c-1.4,0-2.5-1.2-2.5-2.7l0,0
	C-293.5,502.1-292.5,500.9-291.1,500.9z"/>
<path class="st2" d="M-291.4,513.1h4.5c1.4,0,2.5,1.2,2.5,2.7l0,0c0,1.5-1.1,2.7-2.5,2.7h-4.5c-1.4,0-2.5-1.2-2.5-2.7l0,0
	C-293.8,514.3-292.7,513.1-291.4,513.1z"/>
<path class="st2" d="M-277.6,525h4.5c1.4,0,2.5,1.2,2.5,2.7l0,0c0,1.5-1.1,2.7-2.5,2.7h-4.5c-1.4,0-2.5-1.2-2.5-2.7l0,0
	C-280.1,526.2-279,525-277.6,525z"/>
<path class="st2" d="M-225.8,525h4.5c1.4,0,2.5,1.2,2.5,2.7l0,0c0,1.5-1.1,2.7-2.5,2.7h-4.5c-1.4,0-2.5-1.2-2.5-2.7l0,0
	C-228.2,526.2-227,525-225.8,525z"/>
<path class="st2" d="M-211.1,525h4.5c1.4,0,2.5,1.2,2.5,2.7l0,0c0,1.5-1.1,2.7-2.5,2.7h-4.5c-1.4,0-2.5-1.2-2.5-2.7l0,0
	C-213.5,526.2-212.4,525-211.1,525z"/>
<path class="st2" d="M-263.4,524.5h28.2c1.4,0,2.5,1.2,2.5,2.7l0,0c0,1.5-1.1,2.7-2.5,2.7h-28.2c-1.4,0-2.5-1.2-2.5-2.7l0,0
	C-265.9,525.7-264.8,524.5-263.4,524.5z"/>
<path class="st1" d="M-135.2,477.9v16.6c0,1.8,1.4,3.2,3,3.2h109c1.8,0,3-1.5,3-3.2v-16.6H-135.2z"/>
<path class="st1" d="M661.4,384c1.4,8.4,16.9,14.2,35.7,13.1c17.2-0.8,31.2-7.2,33.8-14.7c-1-0.3-1.9-0.5-2.9-0.3l-65,1.8
	C662.5,383.9,661.9,383.9,661.4,384z"/>
<g>
	<path class="st3" d="M664.9,485.1c1.4,4.4,5.4,7.4,9.9,7.2l42.2-1.2c4.5-0.2,8.3-3.4,9.6-7.9l5.9-67c2.1,1,4.5,1.5,6.7,1.5
		c8.4-0.2,15.1-7.7,15-16.6s-7.3-15.9-15.8-15.8c-1,0-1.9,0.2-2.7,0.3c-2.1-2.3-4.8-3.5-7.8-3.5l-65,1.8c-0.5,0-1.1,0.2-1.6,0.2
		c-5.6,1-9.1,6.7-8.1,12.4c0.2,0.5,0.2,1,0.3,1.3L664.9,485.1z M733.7,411.7l4.3-16.1c0.5-1.8,0.5-3.9,0-5.7c0.2,0,0.3-0.2,0.6-0.2
		c6.1-0.2,11.2,5,11.3,11.4s-4.6,11.7-10.7,11.9C737.2,413,735.3,412.7,733.7,411.7z"/>
	<path d="M700.4,448.2c0.2,0,0.2,0,0.3-0.2l9.2-6.4c0.3-0.3,0.5-0.8,0.2-1.2c0-0.2-0.2-0.2-0.2-0.2l-9.6-6.5
		c-0.3-0.3-0.8-0.2-1.1,0.2s-0.2,0.8,0.2,1.2l8.4,5.9l-8.1,5.5c-0.3,0.3-0.5,0.8-0.2,1.2C699.8,448,700.1,448.2,700.4,448.2
		L700.4,448.2z"/>
	<path d="M685.9,448.9c0.5-0.2,0.6-0.5,0.6-1c0-0.2-0.2-0.3-0.3-0.5l-8.4-5l8.1-6.4c0.3-0.3,0.5-0.8,0.2-1.2
		c-0.3-0.3-0.8-0.5-1.1-0.2l-9.1,7.2c-0.3,0.3-0.5,0.8-0.2,1.2c0,0.2,0.2,0.2,0.3,0.2l9.6,5.7C685.6,448.9,685.8,448.9,685.9,448.9z
		"/>
	<path d="M706.6,459.9c0,0,0.2,0,0.2-0.3c0.5-0.3,0.7-1.3,0.5-1.8l0,0L687.6,424c-0.2-0.5-1.2-0.8-1.7-0.5s-0.7,1.3-0.5,1.8
		l19.7,33.8C705.6,459.6,706.1,459.9,706.6,459.9z"/>
</g>
<g>
	<path class="st3" d="M413.9,303.8v171.8h114.6V303.8c0-2.5-1.6-4.9-3.8-5.5c-0.5-0.2-1.1-0.3-1.6-0.3H419.7
		C416.3,298,413.9,300.7,413.9,303.8L413.9,303.8z M458.5,362.8c0-7,5.6-12.7,12.3-12.7s12.1,5.7,12.1,12.7v19.9
		c0,7-5.6,12.9-12.3,12.7c-6.7,0-12.1-5.7-12.1-12.7V362.8z"/>
	<path class="st1" d="M233.9,44.9v313.9c0,8.4,6.4,15.1,14.3,15.1h442.2c8,0,14.3-6.7,14.3-15.1V44.9c0-8.4-6.4-15.1-14.3-15.1
		H248.2C240.2,29.9,233.9,36.6,233.9,44.9z"/>
	<path class="st2" d="M244.2,48.8v306c0,4.5,3.5,8,7.6,8h434.8c4.3,0,7.6-3.7,7.6-8v-306c0-4.5-3.5-8-7.6-8H251.9
		C247.6,40.7,244.2,44.3,244.2,48.8z"/>
	<path class="st3" d="M324.9,488.8c1,1.2,2.2,1.8,3.7,1.8h258.6c2.5,0,4.8-2.2,4.8-5c0-0.3,0-0.7-0.2-1l-4-20.1
		c-0.3-1.7-1.4-3-3-3.7c-0.5-0.2-1.1-0.3-1.8-0.3H332.5c-0.6,0-1.1,0.2-1.8,0.3c-1.4,0.7-2.5,2-3,3.7l-4,20.1
		C323.6,486.2,323.9,487.7,324.9,488.8z"/>
</g>
<path class="st1" d="M-434,482.7c13.9,17.3,28.8,33.5,44.8,48.6L774.9,533c15.9-15.1,30.9-31.3,44.8-48.6L-434,482.7z"/>
<g>
	<path class="st1" d="M-206.4,328.7v143.6c0,3.9,2.9,6.9,6.5,6.9H2.5c3.7,0,6.5-3,6.5-6.9V328.7c0-3.9-2.9-6.9-6.5-6.9h-202.4
		C-203.4,321.9-206.4,324.9-206.4,328.7z"/>
	<path d="M-201.6,330.6v140.1c0,2,1.6,3.7,3.5,3.7h199c1.9,0,3.5-1.7,3.5-3.7V330.6c0-2-1.6-3.7-3.5-3.7h-199
		C-200.1,326.9-201.6,328.4-201.6,330.6z"/>
	<path class="st3" d="M-210.6,500.3c0.8,1,1.9,1.5,3,1.5H9.2c2.2,0,4-1.8,4-4.2c0-0.3,0-0.5-0.2-0.8L9.6,480c-0.3-1.3-1.3-2.5-2.5-3
		c-0.5-0.2-1-0.3-1.4-0.3h-209.9c-0.5,0-1,0.2-1.4,0.3c-1.3,0.5-2.2,1.7-2.5,3l-3.3,16.8C-211.7,498.1-211.4,499.3-210.6,500.3z"/>
	<path class="st1" d="M-9.8,483.9h-5.1c-0.5,0-0.8-0.3-0.8-0.8v-2.5c0-0.5,0.3-0.8,0.8-0.8h5.1c0.5,0,0.8,0.3,0.8,0.8v2.5
		C-9,483.6-9.5,483.9-9.8,483.9z"/>
	<path class="st1" d="M-23.2,483.9h-5.1c-0.5,0-0.8-0.3-0.8-0.8v-2.5c0-0.5,0.3-0.8,0.8-0.8h5.1c0.5,0,0.8,0.3,0.8,0.8v2.5
		C-22.4,483.6-22.7,483.9-23.2,483.9z"/>
	<path class="st1" d="M-36.6,483.9h-5.1c-0.5,0-0.8-0.3-0.8-0.8v-2.5c0-0.5,0.3-0.8,0.8-0.8h5.1c0.5,0,0.8,0.3,0.8,0.8v2.5
		C-35.8,483.6-36.1,483.9-36.6,483.9z"/>
	<path class="st1" d="M-50,483.9h-5.1c-0.5,0-0.8-0.3-0.8-0.8v-2.5c0-0.5,0.3-0.8,0.8-0.8h5.1c0.5,0,0.8,0.3,0.8,0.8v2.5
		C-49.2,483.6-49.5,483.9-50,483.9z"/>
	<path class="st1" d="M-63.2,483.9h-5.3c-0.5,0-0.8-0.3-0.8-0.8v-2.5c0-0.5,0.3-0.8,0.8-0.8h5.1c0.5,0,0.8,0.3,0.8,0.8v2.5
		C-62.5,483.6-62.9,483.9-63.2,483.9z"/>
	<path class="st1" d="M-76.6,483.9h-5.1c-0.5,0-0.8-0.3-0.8-0.8v-2.5c0-0.5,0.3-0.8,0.8-0.8h5.1c0.5,0,0.8,0.3,0.8,0.8v2.5
		C-75.8,483.6-76.1,483.9-76.6,483.9z"/>
	<path class="st1" d="M-90,483.9h-5c-0.5,0-0.8-0.3-0.8-0.8v-2.5c0-0.5,0.3-0.8,0.8-0.8h5.1c0.5,0,0.8,0.3,0.8,0.8v2.5
		C-89.2,483.6-89.5,483.9-90,483.9z"/>
	<path class="st1" d="M-103.3,483.9h-5.1c-0.5,0-0.8-0.3-0.8-0.8v-2.5c0-0.5,0.3-0.8,0.8-0.8h5.1c0.5,0,0.8,0.3,0.8,0.8v2.5
		C-102.5,483.6-102.9,483.9-103.3,483.9z"/>
	<path class="st1" d="M-116.6,483.9h-5.1c-0.5,0-0.8-0.3-0.8-0.8v-2.5c0-0.5,0.3-0.8,0.8-0.8h5.1c0.5,0,0.8,0.3,0.8,0.8v2.5
		C-115.9,483.6-116.2,483.9-116.6,483.9z"/>
	<path class="st1" d="M-129.9,483.9h-5.1c-0.5,0-0.8-0.3-0.8-0.8v-2.5c0-0.5,0.3-0.8,0.8-0.8h5.1c0.5,0,0.8,0.3,0.8,0.8v2.5
		C-129.1,483.6-129.6,483.9-129.9,483.9z"/>
	<path class="st1" d="M-143.3,483.9h-5.1c-0.5,0-0.8-0.3-0.8-0.8v-2.5c0-0.5,0.3-0.8,0.8-0.8h5.1c0.5,0,0.8,0.3,0.8,0.8v2.5
		C-142.5,483.6-142.9,483.9-143.3,483.9z"/>
	<path class="st1" d="M-156.7,483.9h-5.1c-0.5,0-0.8-0.3-0.8-0.8v-2.5c0-0.5,0.3-0.8,0.8-0.8h5.1c0.5,0,0.8,0.3,0.8,0.8v2.5
		C-155.9,483.6-156.2,483.9-156.7,483.9z"/>
	<path class="st1" d="M-170.1,483.9h-5.1c-0.5,0-0.8-0.3-0.8-0.8v-2.5c0-0.5,0.3-0.8,0.8-0.8h5.1c0.5,0,0.8,0.3,0.8,0.8v2.5
		C-169.3,483.6-169.6,483.9-170.1,483.9z"/>
	<path class="st1" d="M-183.3,483.9h-5.1c-0.5,0-0.8-0.3-0.8-0.8v-2.5c0-0.5,0.3-0.8,0.8-0.8h5.1c0.5,0,0.8,0.3,0.8,0.8v2.5
		C-182.5,483.6-183,483.9-183.3,483.9z"/>
	<path class="st1" d="M-196.7,483.9h-5.1c-0.5,0-0.8-0.3-0.8-0.8v-2.5c0-0.5,0.3-0.8,0.8-0.8h5.1c0.5,0,0.8,0.3,0.8,0.8v2.5
		C-195.9,483.6-196.2,483.9-196.7,483.9z"/>
	<path class="st1" d="M3.6,490.9h-5.1c-0.5,0-0.8-0.3-0.8-0.8v-2.5c0-0.5,0.3-0.8,0.8-0.8h5.1c0.5,0,0.8,0.3,0.8,0.8v2.5
		C4.4,490.6,4.1,490.9,3.6,490.9z"/>
	<path class="st1" d="M-9.6,490.9h-5.1c-0.5,0-0.8-0.3-0.8-0.8v-2.5c0-0.5,0.3-0.8,0.8-0.8h5.1c0.5,0,0.8,0.3,0.8,0.8v2.5
		C-8.8,490.6-9.3,490.9-9.6,490.9z"/>
	<path class="st1" d="M-23,490.9h-5.1c-0.5,0-0.8-0.3-0.8-0.8v-2.5c0-0.5,0.3-0.8,0.8-0.8h5.1c0.5,0,0.8,0.3,0.8,0.8v2.5
		C-22.2,490.6-22.5,490.9-23,490.9z"/>
	<path class="st1" d="M-36.4,490.9h-5.1c-0.5,0-0.8-0.3-0.8-0.8v-2.5c0-0.5,0.3-0.8,0.8-0.8h5.1c0.5,0,0.8,0.3,0.8,0.8v2.5
		C-35.6,490.6-35.9,490.9-36.4,490.9z"/>
	<path class="st1" d="M-49.8,490.9h-5.1c-0.5,0-0.8-0.3-0.8-0.8v-2.5c0-0.5,0.3-0.8,0.8-0.8h5.1c0.5,0,0.8,0.3,0.8,0.8v2.5
		C-49,490.6-49.3,490.9-49.8,490.9z"/>
	<path class="st1" d="M-63,490.9h-5.1c-0.5,0-0.8-0.3-0.8-0.8v-2.5c0-0.5,0.3-0.8,0.8-0.8h5.1c0.5,0,0.8,0.3,0.8,0.8v2.5
		C-62.4,490.6-62.7,490.9-63,490.9z"/>
	<path class="st1" d="M-76.4,490.9h-5.1c-0.5,0-0.8-0.3-0.8-0.8v-2.5c0-0.5,0.3-0.8,0.8-0.8h5.1c0.5,0,0.8,0.3,0.8,0.8v2.5
		C-75.6,490.6-75.9,490.9-76.4,490.9z"/>
	<path class="st1" d="M-89.8,490.9h-5.1c-0.5,0-0.8-0.3-0.8-0.8v-2.5c0-0.5,0.3-0.8,0.8-0.8h5.1c0.5,0,0.8,0.3,0.8,0.8v2.5
		C-89,490.6-89.3,490.9-89.8,490.9z"/>
	<path class="st1" d="M-103.2,490.9h-5.1c-0.5,0-0.8-0.3-0.8-0.8v-2.5c0-0.5,0.3-0.8,0.8-0.8h5.1c0.5,0,0.8,0.3,0.8,0.8v2.5
		C-102.4,490.6-102.7,490.9-103.2,490.9z"/>
	<path class="st1" d="M-116.4,490.9h-5.1c-0.5,0-0.8-0.3-0.8-0.8v-2.5c0-0.5,0.3-0.8,0.8-0.8h5.1c0.5,0,0.8,0.3,0.8,0.8v2.5
		C-115.8,490.6-116.1,490.9-116.4,490.9z"/>
	<path class="st1" d="M-129.8,490.9h-5.1c-0.5,0-0.8-0.3-0.8-0.8v-2.5c0-0.5,0.3-0.8,0.8-0.8h5.1c0.5,0,0.8,0.3,0.8,0.8v2.5
		C-129,490.6-129.5,490.9-129.8,490.9z"/>
	<path class="st1" d="M-143.2,490.9h-5.1c-0.5,0-0.8-0.3-0.8-0.8v-2.5c0-0.5,0.3-0.8,0.8-0.8h5.1c0.5,0,0.8,0.3,0.8,0.8v2.5
		C-142.4,490.6-142.7,490.9-143.2,490.9z"/>
	<path class="st1" d="M-156.6,490.9h-5.1c-0.5,0-0.8-0.3-0.8-0.8v-2.5c0-0.5,0.3-0.8,0.8-0.8h5.1c0.5,0,0.8,0.3,0.8,0.8v2.5
		C-155.8,490.6-156.1,490.9-156.6,490.9z"/>
	<path class="st1" d="M-169.9,490.9h-5.1c-0.5,0-0.8-0.3-0.8-0.8v-2.5c0-0.5,0.3-0.8,0.8-0.8h5.1c0.5,0,0.8,0.3,0.8,0.8v2.5
		C-169.1,490.6-169.5,490.9-169.9,490.9z"/>
	<path class="st1" d="M-183.2,490.9h-5.1c-0.5,0-0.8-0.3-0.8-0.8v-2.5c0-0.5,0.3-0.8,0.8-0.8h5.1c0.5,0,0.8,0.3,0.8,0.8v2.5
		C-182.4,490.6-182.8,490.9-183.2,490.9z"/>
	<path class="st1" d="M-196.6,490.9h-5.1c-0.5,0-0.8-0.3-0.8-0.8v-2.5c0-0.5,0.3-0.8,0.8-0.8h5.1c0.5,0,0.8,0.3,0.8,0.8v2.5
		C-195.8,490.6-196.1,490.9-196.6,490.9z"/>
	<path class="st1" d="M-60.5,499.3h-51.8c-0.5,0-0.8-0.3-0.8-0.8V496c0-0.5,0.3-0.8,0.8-0.8h51.8c0.5,0,0.8,0.3,0.8,0.8v2.5
		C-59.7,499-60,499.3-60.5,499.3z"/>
	<path class="st2" d="M-171.7,357.4h4.5c1.4,0,2.5,1.2,2.5,2.7l0,0c0,1.5-1.1,2.7-2.5,2.7h-4.5c-1.4,0-2.5-1.2-2.5-2.7l0,0
		C-174.2,358.6-173.1,357.4-171.7,357.4z"/>
	<path class="st2" d="M-119.9,357.4h4.5c1.4,0,2.5,1.2,2.5,2.7l0,0c0,1.5-1.1,2.7-2.5,2.7h-4.5c-1.4,0-2.5-1.2-2.5-2.7l0,0
		C-122.3,358.6-121.2,357.4-119.9,357.4z"/>
	<path class="st2" d="M-105.2,357.4h4.5c1.4,0,2.5,1.2,2.5,2.7l0,0c0,1.5-1.1,2.7-2.5,2.7h-4.5c-1.4,0-2.5-1.2-2.5-2.7l0,0
		C-107.6,358.6-106.5,357.4-105.2,357.4z"/>
	<path class="st2" d="M-157.7,357h28.2c1.4,0,2.5,1.2,2.5,2.7l0,0c0,1.5-1.1,2.7-2.5,2.7h-28.2c-1.4,0-2.5-1.2-2.5-2.7l0,0
		C-160.1,358.2-158.9,357-157.7,357z"/>
	<path class="st2" d="M-88.5,357h28.2c1.4,0,2.5,1.2,2.5,2.7l0,0c0,1.5-1.1,2.7-2.5,2.7h-28.2c-1.4,0-2.5-1.2-2.5-2.7l0,0
		C-91.1,358.2-90,357-88.5,357z"/>
	<path class="st2" d="M-157.8,369.3h4.5c1.4,0,2.5,1.2,2.5,2.7l0,0c0,1.5-1.1,2.7-2.5,2.7h-4.5c-1.4,0-2.5-1.2-2.5-2.7l0,0
		C-160.4,370.4-159.3,369.3-157.8,369.3z"/>
	<path class="st2" d="M-106,369.3h4.5c1.4,0,2.5,1.2,2.5,2.7l0,0c0,1.5-1.1,2.7-2.5,2.7h-4.5c-1.4,0-2.5-1.2-2.5-2.7l0,0
		C-108.6,370.4-107.5,369.3-106,369.3z"/>
	<path class="st2" d="M-91.4,369.3h4.5c1.4,0,2.5,1.2,2.5,2.7l0,0c0,1.5-1.1,2.7-2.5,2.7h-4.5c-1.4,0-2.5-1.2-2.5-2.7l0,0
		C-93.9,370.4-92.8,369.3-91.4,369.3z"/>
	<path class="st2" d="M-143.8,368.8h28.2c1.4,0,2.5,1.2,2.5,2.7l0,0c0,1.5-1.1,2.7-2.5,2.7h-28.2c-1.4,0-2.5-1.2-2.5-2.7l0,0
		C-146.2,369.9-145.2,368.8-143.8,368.8z"/>
	<path class="st2" d="M-74.7,368.8h28.2c1.4,0,2.5,1.2,2.5,2.7l0,0c0,1.5-1.1,2.7-2.5,2.7h-28.2c-1.4,0-2.5-1.2-2.5-2.7l0,0
		C-77.2,369.9-76.1,368.8-74.7,368.8z"/>
	<path class="st2" d="M-144.1,381h4.5c1.4,0,2.5,1.2,2.5,2.7l0,0c0,1.5-1.1,2.7-2.5,2.7h-4.5c-1.4,0-2.5-1.2-2.5-2.7l0,0
		C-146.5,382.2-145.4,381-144.1,381z"/>
	<path class="st2" d="M-92.2,381h4.5c1.4,0,2.5,1.2,2.5,2.7l0,0c0,1.5-1.1,2.7-2.5,2.7h-4.5c-1.4,0-2.5-1.2-2.5-2.7l0,0
		C-94.7,382.2-93.6,381-92.2,381z"/>
	<path class="st2" d="M-77.5,381h4.5c1.4,0,2.5,1.2,2.5,2.7l0,0c0,1.5-1.1,2.7-2.5,2.7h-4.5c-1.4,0-2.5-1.2-2.5-2.7l0,0
		C-80.1,382.2-79,381-77.5,381z"/>
	<path class="st2" d="M-129.9,380.7h28.2c1.4,0,2.5,1.2,2.5,2.7l0,0c0,1.5-1.1,2.7-2.5,2.7h-28.2c-1.4,0-2.5-1.2-2.5-2.7l0,0
		C-132.5,381.8-131.4,380.7-129.9,380.7z"/>
	<path class="st2" d="M-60.9,380.7h28.2c1.4,0,2.5,1.2,2.5,2.7l0,0c0,1.5-1.1,2.7-2.5,2.7h-28.2c-1.4,0-2.5-1.2-2.5-2.7l0,0
		C-63.3,381.8-62.2,380.7-60.9,380.7z"/>
	<path class="st2" d="M-130.3,392.9h4.5c1.4,0,2.5,1.2,2.5,2.7l0,0c0,1.5-1.1,2.7-2.5,2.7h-4.5c-1.4,0-2.5-1.2-2.5-2.7l0,0
		C-132.8,394.1-131.7,392.9-130.3,392.9z"/>
	<path class="st2" d="M-78.5,392.9h4.5c1.4,0,2.5,1.2,2.5,2.7l0,0c0,1.5-1.1,2.7-2.5,2.7h-4.5c-1.4,0-2.5-1.2-2.5-2.7l0,0
		C-80.9,394.1-79.8,392.9-78.5,392.9z"/>
	<path class="st2" d="M-63.8,392.9h4.5c1.4,0,2.5,1.2,2.5,2.7l0,0c0,1.5-1.1,2.7-2.5,2.7h-4.5c-1.4,0-2.5-1.2-2.5-2.7l0,0
		C-66.2,394.1-65.1,392.9-63.8,392.9z"/>
	<path class="st2" d="M-116.1,392.4h28.2c1.4,0,2.5,1.2,2.5,2.7l0,0c0,1.5-1.1,2.7-2.5,2.7h-28.2c-1.4,0-2.5-1.2-2.5-2.7l0,0
		C-118.6,393.6-117.5,392.4-116.1,392.4z"/>
	<path class="st2" d="M-119.9,439.8h4.5c1.4,0,2.5,1.2,2.5,2.7l0,0c0,1.5-1.1,2.7-2.5,2.7h-4.5c-1.4,0-2.5-1.2-2.5-2.7l0,0
		C-122.3,441-121.2,439.8-119.9,439.8z"/>
	<path class="st2" d="M-105.2,439.8h4.5c1.4,0,2.5,1.2,2.5,2.7l0,0c0,1.5-1.1,2.7-2.5,2.7h-4.5c-1.4,0-2.5-1.2-2.5-2.7l0,0
		C-107.6,441-106.5,439.8-105.2,439.8z"/>
	<path class="st2" d="M-88.5,440.3h28.2c1.4,0,2.5,1.2,2.5,2.7l0,0c0,1.5-1.1,2.7-2.5,2.7h-28.2c-1.4,0-2.5-1.2-2.5-2.7l0,0
		C-91.1,441.5-90,440.3-88.5,440.3z"/>
	<path class="st2" d="M-171.7,439.8h4.5c1.4,0,2.5,1.2,2.5,2.7l0,0c0,1.5-1.1,2.7-2.5,2.7h-4.5c-1.4,0-2.5-1.2-2.5-2.7l0,0
		C-174.2,441-173.1,439.8-171.7,439.8z"/>
	<path class="st2" d="M-157.7,440.3h28.2c1.4,0,2.5,1.2,2.5,2.7l0,0c0,1.5-1.1,2.7-2.5,2.7h-28.2c-1.4,0-2.5-1.2-2.5-2.7l0,0
		C-160.1,441.5-158.9,440.3-157.7,440.3z"/>
	<path class="st2" d="M-157.8,428.1h4.5c1.4,0,2.5,1.2,2.5,2.7l0,0c0,1.5-1.1,2.7-2.5,2.7h-4.5c-1.4,0-2.5-1.2-2.5-2.7l0,0
		C-160.4,429.1-159.3,428.1-157.8,428.1z"/>
	<path class="st2" d="M-106,428.1h4.5c1.4,0,2.5,1.2,2.5,2.7l0,0c0,1.5-1.1,2.7-2.5,2.7h-4.5c-1.4,0-2.5-1.2-2.5-2.7l0,0
		C-108.6,429.1-107.5,428.1-106,428.1z"/>
	<path class="st2" d="M-91.4,428.1h4.5c1.4,0,2.5,1.2,2.5,2.7l0,0c0,1.5-1.1,2.7-2.5,2.7h-4.5c-1.4,0-2.5-1.2-2.5-2.7l0,0
		C-93.9,429.1-92.8,428.1-91.4,428.1z"/>
	<path class="st2" d="M-143.8,428.4h28.2c1.4,0,2.5,1.2,2.5,2.7l0,0c0,1.5-1.1,2.7-2.5,2.7h-28.2c-1.4,0-2.5-1.2-2.5-2.7l0,0
		C-146.2,429.6-145.2,428.4-143.8,428.4z"/>
	<path class="st2" d="M-144.1,416.2h4.5c1.4,0,2.5,1.2,2.5,2.7l0,0c0,1.5-1.1,2.7-2.5,2.7h-4.5c-1.4,0-2.5-1.2-2.5-2.7l0,0
		C-146.5,417.4-145.4,416.2-144.1,416.2z"/>
	<path class="st2" d="M-92.2,416.2h4.5c1.4,0,2.5,1.2,2.5,2.7l0,0c0,1.5-1.1,2.7-2.5,2.7h-4.5c-1.4,0-2.5-1.2-2.5-2.7l0,0
		C-94.7,417.4-93.6,416.2-92.2,416.2z"/>
	<path class="st2" d="M-77.5,416.2h4.5c1.4,0,2.5,1.2,2.5,2.7l0,0c0,1.5-1.1,2.7-2.5,2.7h-4.5c-1.4,0-2.5-1.2-2.5-2.7l0,0
		C-80.1,417.4-79,416.2-77.5,416.2z"/>
	<path class="st2" d="M-129.9,416.7h28.2c1.4,0,2.5,1.2,2.5,2.7l0,0c0,1.5-1.1,2.7-2.5,2.7h-28.2c-1.4,0-2.5-1.2-2.5-2.7l0,0
		C-132.5,417.9-131.4,416.7-129.9,416.7z"/>
	<path class="st2" d="M-130.3,404.5h4.5c1.4,0,2.5,1.2,2.5,2.7l0,0c0,1.5-1.1,2.7-2.5,2.7h-4.5c-1.4,0-2.5-1.2-2.5-2.7l0,0
		C-132.8,405.6-131.7,404.5-130.3,404.5z"/>
	<path class="st2" d="M-78.5,404.5h4.5c1.4,0,2.5,1.2,2.5,2.7l0,0c0,1.5-1.1,2.7-2.5,2.7h-4.5c-1.4,0-2.5-1.2-2.5-2.7l0,0
		C-80.9,405.6-79.8,404.5-78.5,404.5z"/>
	<path class="st2" d="M-63.8,404.5h4.5c1.4,0,2.5,1.2,2.5,2.7l0,0c0,1.5-1.1,2.7-2.5,2.7h-4.5c-1.4,0-2.5-1.2-2.5-2.7l0,0
		C-66.2,405.6-65.1,404.5-63.8,404.5z"/>
	<path class="st2" d="M-116.1,404.8h28.2c1.4,0,2.5,1.2,2.5,2.7l0,0c0,1.5-1.1,2.7-2.5,2.7h-28.2c-1.4,0-2.5-1.2-2.5-2.7l0,0
		C-118.6,406-117.5,404.8-116.1,404.8z"/>
</g>
<g>
	<path class="st3" d="M371.2,513.8c0.8,1.3,1.9,2,3,2h216.7c2.2,0,4-2.4,4-5.5c0-0.4,0-0.7-0.2-1.1l-3.3-22.1
		c-0.3-1.8-1.3-3.3-2.5-4c-0.5-0.2-1-0.4-1.4-0.4h-210c-0.5,0-1,0.2-1.4,0.4c-1.3,0.7-2.2,2.2-2.5,4l-3.3,22.1
		C370,511,370.4,512.5,371.2,513.8z"/>
	<path class="st1" d="M571.9,492.2h-5.1c-0.5,0-0.8-0.4-0.8-1.1v-3.3c0-0.7,0.3-1.1,0.8-1.1h5.1c0.5,0,0.8,0.4,0.8,1.1v3.3
		C572.7,491.8,572.2,492.2,571.9,492.2z"/>
	<path class="st1" d="M558.5,492.2h-5.1c-0.5,0-0.8-0.4-0.8-1.1v-3.3c0-0.7,0.3-1.1,0.8-1.1h5.1c0.5,0,0.8,0.4,0.8,1.1v3.3
		C559.3,491.8,559,492.2,558.5,492.2z"/>
	<path class="st1" d="M545.2,492.2h-5.1c-0.5,0-0.8-0.4-0.8-1.1v-3.3c0-0.7,0.3-1.1,0.8-1.1h5.1c0.5,0,0.8,0.4,0.8,1.1v3.3
		C546,491.8,545.6,492.2,545.2,492.2z"/>
	<path class="st1" d="M531.8,492.2h-5.1c-0.5,0-0.8-0.4-0.8-1.1v-3.3c0-0.7,0.3-1.1,0.8-1.1h5.1c0.5,0,0.8,0.4,0.8,1.1v3.3
		C532.6,491.8,532.3,492.2,531.8,492.2z"/>
	<path class="st1" d="M518.6,492.2h-5.3c-0.5,0-0.8-0.4-0.8-1.1v-3.3c0-0.7,0.3-1.1,0.8-1.1h5.1c0.5,0,0.8,0.4,0.8,1.1v3.3
		C519.2,491.8,518.9,492.2,518.6,492.2z"/>
	<path class="st1" d="M505.2,492.2h-5.1c-0.5,0-0.8-0.4-0.8-1.1v-3.3c0-0.7,0.3-1.1,0.8-1.1h5.1c0.5,0,0.8,0.4,0.8,1.1v3.3
		C506,491.8,505.6,492.2,505.2,492.2z"/>
	<path class="st1" d="M491.8,492.2h-5.1c-0.5,0-0.8-0.4-0.8-1.1v-3.3c0-0.7,0.3-1.1,0.8-1.1h5.1c0.5,0,0.8,0.4,0.8,1.1v3.3
		C492.6,491.8,492.3,492.2,491.8,492.2z"/>
	<path class="st1" d="M478.4,492.2h-5.1c-0.5,0-0.8-0.4-0.8-1.1v-3.3c0-0.7,0.3-1.1,0.8-1.1h5.1c0.5,0,0.8,0.4,0.8,1.1v3.3
		C479.2,491.8,478.9,492.2,478.4,492.2z"/>
	<path class="st1" d="M465.2,492.2h-5.1c-0.5,0-0.8-0.4-0.8-1.1v-3.3c0-0.7,0.3-1.1,0.8-1.1h5.1c0.5,0,0.8,0.4,0.8,1.1v3.3
		C465.8,491.8,465.5,492.2,465.2,492.2z"/>
	<path class="st1" d="M451.8,492.2h-5.1c-0.5,0-0.8-0.4-0.8-1.1v-3.3c0-0.7,0.3-1.1,0.8-1.1h5.1c0.5,0,0.8,0.4,0.8,1.1v3.3
		C452.6,491.8,452.1,492.2,451.8,492.2z"/>
	<path class="st1" d="M438.4,492.2h-5.1c-0.5,0-0.8-0.4-0.8-1.1v-3.3c0-0.7,0.3-1.1,0.8-1.1h5.1c0.5,0,0.8,0.4,0.8,1.1v3.3
		C439.2,491.8,438.9,492.2,438.4,492.2z"/>
	<path class="st1" d="M425,492.2h-5.1c-0.5,0-0.8-0.4-0.8-1.1v-3.3c0-0.7,0.3-1.1,0.8-1.1h5.1c0.5,0,0.8,0.4,0.8,1.1v3.3
		C425.8,491.8,425.5,492.2,425,492.2z"/>
	<path class="st1" d="M411.6,492.2h-5.1c-0.5,0-0.8-0.4-0.8-1.1v-3.3c0-0.7,0.3-1.1,0.8-1.1h5.1c0.5,0,0.8,0.4,0.8,1.1v3.3
		C412.4,491.8,412.1,492.2,411.6,492.2z"/>
	<path class="st1" d="M398.4,492.2h-5.1c-0.5,0-0.8-0.4-0.8-1.1v-3.3c0-0.7,0.3-1.1,0.8-1.1h5.1c0.5,0,0.8,0.4,0.8,1.1v3.3
		C399.2,491.8,398.7,492.2,398.4,492.2z"/>
	<path class="st1" d="M385,492.2h-5.1c-0.5,0-0.8-0.4-0.8-1.1v-3.3c0-0.7,0.3-1.1,0.8-1.1h5.1c0.5,0,0.8,0.4,0.8,1.1v3.3
		C385.8,491.8,385.5,492.2,385,492.2z"/>
	<path class="st1" d="M585.3,501.5h-5.1c-0.5,0-0.8-0.4-0.8-1.1v-3.3c0-0.7,0.3-1.1,0.8-1.1h5.1c0.5,0,0.8,0.4,0.8,1.1v3.3
		C586.1,501,585.8,501.5,585.3,501.5z"/>
	<path class="st1" d="M572.1,501.5H567c-0.5,0-0.8-0.4-0.8-1.1v-3.3c0-0.7,0.3-1.1,0.8-1.1h5.1c0.5,0,0.8,0.4,0.8,1.1v3.3
		C572.9,501,572.4,501.5,572.1,501.5z"/>
	<path class="st1" d="M558.7,501.5h-5.1c-0.5,0-0.8-0.4-0.8-1.1v-3.3c0-0.7,0.3-1.1,0.8-1.1h5.1c0.5,0,0.8,0.4,0.8,1.1v3.3
		C559.5,501,559.2,501.5,558.7,501.5z"/>
	<path class="st1" d="M545.3,501.5h-5.1c-0.5,0-0.8-0.4-0.8-1.1v-3.3c0-0.7,0.3-1.1,0.8-1.1h5.1c0.5,0,0.8,0.4,0.8,1.1v3.3
		C546.1,501,545.8,501.5,545.3,501.5z"/>
	<path class="st1" d="M531.9,501.5h-5.1c-0.5,0-0.8-0.4-0.8-1.1v-3.3c0-0.7,0.3-1.1,0.8-1.1h5.1c0.5,0,0.8,0.4,0.8,1.1v3.3
		C532.7,501,532.4,501.5,531.9,501.5z"/>
	<path class="st1" d="M518.7,501.5h-5.1c-0.5,0-0.8-0.4-0.8-1.1v-3.3c0-0.7,0.3-1.1,0.8-1.1h5.1c0.5,0,0.8,0.4,0.8,1.1v3.3
		C519.3,501,519,501.5,518.7,501.5z"/>
	<path class="st1" d="M505.3,501.5h-5.1c-0.5,0-0.8-0.4-0.8-1.1v-3.3c0-0.7,0.3-1.1,0.8-1.1h5.1c0.5,0,0.8,0.4,0.8,1.1v3.3
		C506.1,501,505.8,501.5,505.3,501.5z"/>
	<path class="st1" d="M491.9,501.5h-5.1c-0.5,0-0.8-0.4-0.8-1.1v-3.3c0-0.7,0.3-1.1,0.8-1.1h5.1c0.5,0,0.8,0.4,0.8,1.1v3.3
		C492.7,501,492.4,501.5,491.9,501.5z"/>
	<path class="st1" d="M478.6,501.5h-5.1c-0.5,0-0.8-0.4-0.8-1.1v-3.3c0-0.7,0.3-1.1,0.8-1.1h5.1c0.5,0,0.8,0.4,0.8,1.1v3.3
		C479.4,501,479,501.5,478.6,501.5z"/>
	<path class="st1" d="M465.3,501.5h-5.1c-0.5,0-0.8-0.4-0.8-1.1v-3.3c0-0.7,0.3-1.1,0.8-1.1h5.1c0.5,0,0.8,0.4,0.8,1.1v3.3
		C466,501,465.6,501.5,465.3,501.5z"/>
	<path class="st1" d="M451.9,501.5h-5.1c-0.5,0-0.8-0.4-0.8-1.1v-3.3c0-0.7,0.3-1.1,0.8-1.1h5.1c0.5,0,0.8,0.4,0.8,1.1v3.3
		C452.7,501,452.3,501.5,451.9,501.5z"/>
	<path class="st1" d="M438.6,501.5h-5.1c-0.5,0-0.8-0.4-0.8-1.1v-3.3c0-0.7,0.3-1.1,0.8-1.1h5.1c0.5,0,0.8,0.4,0.8,1.1v3.3
		C439.4,501,439,501.5,438.6,501.5z"/>
	<path class="st1" d="M425.2,501.5h-5.1c-0.5,0-0.8-0.4-0.8-1.1v-3.3c0-0.7,0.3-1.1,0.8-1.1h5.1c0.5,0,0.8,0.4,0.8,1.1v3.3
		C426,501,425.7,501.5,425.2,501.5z"/>
	<path class="st1" d="M411.8,501.5h-5.1c-0.5,0-0.8-0.4-0.8-1.1v-3.3c0-0.7,0.3-1.1,0.8-1.1h5.1c0.5,0,0.8,0.4,0.8,1.1v3.3
		C412.6,501,412.3,501.5,411.8,501.5z"/>
	<path class="st1" d="M398.6,501.5h-5.1c-0.5,0-0.8-0.4-0.8-1.1v-3.3c0-0.7,0.3-1.1,0.8-1.1h5.1c0.5,0,0.8,0.4,0.8,1.1v3.3
		C399.4,501,398.9,501.5,398.6,501.5z"/>
	<path class="st1" d="M385.2,501.5h-5.1c-0.5,0-0.8-0.4-0.8-1.1v-3.3c0-0.7,0.3-1.1,0.8-1.1h5.1c0.5,0,0.8,0.4,0.8,1.1v3.3
		C386,501,385.7,501.5,385.2,501.5z"/>
	<path class="st1" d="M521.3,512.5h-51.8c-0.5,0-0.8-0.4-0.8-1.1v-3.3c0-0.7,0.3-1.1,0.8-1.1h51.8c0.5,0,0.8,0.4,0.8,1.1v3.3
		C522.1,512.1,521.7,512.5,521.3,512.5z"/>
</g>
<g>
	<g>
		<path class="st4" d="M364.2,567.9L343,532.5l66.8-56l27.6-32.2c11.3-13.2,30.6-14.2,43.2-2.3c4,3.7,6.9,8.5,8.6,13.7l0,0
			c5.1,16.4-3,34.2-18.5,40.2l-43.5,16.9L364.2,567.9z"/>
		<path class="st1" d="M22.9,377.3l0.3,1.2l0,0l10.4,33.2l12,38.4l22.4,72l0.2,11.2l0,0l1.6,90l-4.6,12.2l5.3,19.9
			c0,0-2.4-30.2-15.3-12.9c-7.3,9.9-15.8,19.9-22.8,29.5c10.2,4.4,20.6,8.2,31.1,11.7c2.2,0.8,4.6,1.5,6.9,2.2
			c0.5,0.2,1,0.3,1.4,0.5c34.9,10.9,70.9,16.9,107.4,18.1c1.9,0,3.7,0.2,5.6,0.2c0.6,0,1.3,0,1.9,0c2.1,0,4,0,6.1,0
			c4.1,0,8.1,0,12.3-0.2c30.1-0.8,60.1-5.2,89.4-12.7c-0.2-12.7-0.8-27.5-1.6-43.4c-0.3-7.7-8.6-16.3-9.1-24.3
			c-0.3-6.2,7-11.9,6.5-18.1c-2.5-38.2-5.6-23.6-7.8-50.6c-0.2-2.7-0.5-5.2-0.6-7.7c-1.4-17.4-2.5-28.3-2.5-28.3l9.7-64.9
			l15.3-101.7l-1.1-2l-1.3-0.7l-80.9-42.2l-4.5-11.9c-2.5-7-9.1-11.6-16.1-11.6l-53.4-0.2c-5.6,0-10.8,2.8-14.2,7.5L118.2,313
			L22.9,377.3z"/>
		<path class="st1" d="M80.4,506.2l-12.1,27.1L60,551.9L45.8,630l-7.2,7.9l-6.1-28.2l-63.7,14.9c-2.1-12.2-0.6,0.3-1.9-13.1
			c0.3-0.3,0.8-0.8,1.1-1.2c1-1,1.9-2,1.9-2.8c-0.8-46.3,1.4-124.8,19.6-172.6c2.9-7.7,6.7-15.1,11.2-22c0.3-0.5,0.6-1,1.1-1.5
			c8.4-12.4,13.7-24.5,21.2-33.2l0,0l0.2-0.2l0,0l51.6-28.8l2.2,65.5l1.6,47.1L80.4,506.2z"/>
		<path class="st1" d="M266.9,513.9l15.1,34l5.3,11.9l14.2,78.1l7,7.9l6.1-28.2l2.9-0.7l51.8-11.2l15.1,50.3c7-12.2,4.8-28-5.3-37.7
			c-1-1-1.9-2-1.9-2.8c0.8-54.3-2.2-153.7-30.9-194.6c-9.1-12.9-14.5-25.8-22.5-34.9l0,0l-19.3-33.2l-1.1-2l-1.3-0.7L266.9,513.9z"
			/>
		<ellipse id="a657ec4b-47ce-4d2a-9c58-81a811696ca9" class="st4" cx="175.4" cy="193.7" rx="71.1" ry="74.7"/>
		<path class="st3" d="M271.3,141.5c-1.1-1.2-2.7-2-4.3-2l1.1-3.2c1.1-3-0.3-6.5-3.3-7.5c-1-0.3-2.1-0.5-3-0.3l-3.8,0.8l0.3-2.7
			c0.5-3.2-1.8-6.2-4.8-6.7c-1-0.2-1.9,0-2.7,0.3c-1.8,0.7-3.7,0.5-5.1-0.3c-1.6-0.8-2.7-2.5-3-4.4l-1.3-6.9l-0.2-0.3
			c-6.5-11.6-19.3-19.9-34.7-23.1c-13.9-2.7-28-1.3-41.6,0c-5.4,0.5-11.5,1.2-16.6,4.4c-4.3,2.8-8,8.4-7.2,14.1
			c-13.5-4.4-27.9,4.4-35.1,15.2c-8.4,13.1-9.9,29.3-10,42.1c-0.6,30.2,5.3,54.8,17.5,73.2c1,1.3,1.1,4.2,2.9,5l-0.3-0.7
			c1.9,1,4,2.7,3.2,4.5c-2.1,5.2,12.1,16.6,22.1,20.3c18.3,6.9,42.9,6.4,59.9,3.9l0.6-4.2c6.2-0.8,10.5-2.5,11.8-5.2
			c2.2-2,4-3.7,5.6-5.4l0,0c0,0,0.2,0,0.2-0.2c7.8-7.9,9.6-12.2,10.4-19.1c0.8-6.7-0.6-13.4-2.1-19.4c29.8,4.9-11.8-33.5,16.1-40.9
			c0.3-0.2,0.6-0.2,1-0.2c0.8-0.2,1.6-0.3,2.4-0.7c3.8-1,7.3-2.7,10.7-4.9c7.8-5,10.4-11.6,14.3-19.1
			C273.2,146.1,272.9,143.4,271.3,141.5z"/>
	</g>
	<path class="st3" d="M426.5,519.1c0,3,0,7-0.2,12.1c0,0.7,0,1.3,0,2.2c-0.2,9.4-0.5,17.1-0.8,25.8c0,0.7,0,1.2,0,1.8
		c-0.5,12.1-1.1,26.3-2.4,48.6c-2.2,41.4-6.2,5.7-10,20.1c-0.2,0.7-0.5,1.5-0.6,2.5c-0.6,3.7-1.6,7.2-3,10.6
		c-2.1,1.3-4.3,2.5-6.4,3.9c-6.1,3.5-12.1,6.9-18.3,10.2c-3.5,1.8-7,3.5-10.5,5.4c-0.5,0.3-1.1,0.5-1.6,0.8
		c-18,8.7-36.5,16.1-55.5,22.3c-3.7,1.2-7.3,2.3-11.2,3.4c-3.8,1.2-7.8,2.2-11.6,3.2c-29.3,7.5-59.3,11.9-89.4,12.7
		c-4,0.2-8.1,0.2-12.3,0.2c-2.1,0-4,0-6.1,0c-0.6,0-1.3,0-1.9,0c-1.8,0-3.7,0-5.6-0.2c-36.3-1.2-72.5-7.4-107.2-18.1l-1.4-0.5
		c-2.2-0.7-4.6-1.5-6.9-2.2c-10.5-3.5-20.9-7.4-31.1-11.7c-7.8-3.4-15.5-6.9-23.1-10.6c0,0-0.2,0-0.2-0.2c-1.6-0.8-3.2-1.5-4.8-2.3
		c-0.2-0.2-0.5-0.2-0.6-0.3c-5.9-3-11.8-6.2-17.7-9.6c-4.9-11.9-11.8-14.1-16.1-24.5c-1.3-3-2.1-6.4-2.7-9.6c0,0,0,0,0-0.2
		c0.5,6.2-1.9-11.1,0,0c0-0.2,0-0.5,0-0.7c0-0.7-0.2-1.3-0.2-2.2c-5.4-56.1-5.1-120.3-7.5-173.3c-0.2-3.4-0.3-6.7-0.5-9.9
		c0-1-0.2-2-0.2-3c0.2-0.3,0.2-0.7,0.3-0.8c0-0.2,0-0.2,0.2-0.3c0-0.2,0.2-0.2,0.2-0.3c0,0,0-0.2,0.2-0.2V424
		c0.2-0.2,0.3-0.5,0.5-0.7c0-0.2,0.2-0.2,0.2-0.3c0-0.2,0.2-0.2,0.2-0.2l0.2-0.2l0.2-0.2c0,0,0-0.2,0.2-0.2c0.2-0.2,0.3-0.3,0.5-0.5
		c0.6-0.5,1.1-1,1.8-1.5c0.2-0.2,0.5-0.3,0.6-0.5c1.6-1,3.3-1.8,5.1-2.5c0.6-0.2,1.3-0.5,1.9-0.7c0.2,0,0.5-0.2,0.6-0.2
		c0.3-0.2,0.6-0.2,1.1-0.3c1.8-0.5,3.8-1,5.9-1.5c0.3,0,0.5-0.2,0.8-0.2s0.8-0.2,1.1-0.2c0.5-0.2,1.1-0.2,1.6-0.3
		c4.8-0.8,10-1.3,16.1-1.7c0.6,0,1.1,0,1.6-0.2c0.6,0,1.3,0,1.9-0.2c0.6,0,1.1,0,1.8,0s1.1,0,1.8,0c1.6,0,3.2-0.2,4.9-0.2
		c4.8-0.2,9.9,0,15.1,0c2.4,0,4.9,0.2,7.6,0.3c0.2,0,0.3,0,0.5,0c2.2,0,4.5,0.2,6.9,0.3c1.6,0,3.2,0.2,4.9,0.3
		c1.6,0.2,3,0.2,4.6,0.3c1.3,0,2.4,0.2,3.7,0.3c1.1,0,2.1,0.2,3.2,0.2l1.4,0.2c0.8,0,1.6,0.2,2.4,0.2c1.8,0.2,3.5,0.3,5.3,0.5
		s3.5,0.3,5.4,0.5s3.7,0.3,5.4,0.5c0.2,0,0.3,0,0.5,0c1.6,0.2,3.3,0.3,4.9,0.5c0.3,0,0.8,0,1.1,0.2c1.6,0.2,3.2,0.3,4.8,0.5
		c0.5,0,1,0.2,1.4,0.2c1.3,0.2,2.5,0.3,3.8,0.5c1.6,0.2,3.3,0.3,5.1,0.7c1.3,0.2,2.5,0.3,3.8,0.5c2.1,0.3,4.1,0.5,6.1,0.8
		c0.8,0.2,1.6,0.2,2.4,0.3c5.9,0.8,11.8,1.7,17.8,2.5c9.1,1.3,18.3,2.8,27.7,4.4c9.4,1.7,18.8,3.4,28.2,5c2.4,0.5,4.8,0.8,7.2,1.3
		c1.1,0.2,2.2,0.5,3.2,0.7c1.9,0.3,3.7,0.7,5.6,1.2c1.9,0.3,3.7,0.7,5.6,1.2c2.2,0.5,4.5,0.8,6.7,1.3c14.5,3,28.8,6.2,43,9.6
		c2.4,0.5,4.6,1.2,6.9,1.7c4.6,1.2,9.1,2.2,13.7,3.4c1.3,0.3,2.4,0.7,3.7,1c3,0.8,6.1,1.7,9.1,2.5l0.5,0.2c2.2,0.5,4.5,1.2,6.5,1.7
		c5.1,1.3,10.2,2.8,15.1,4.2c3.3,1,6.5,1.8,9.7,2.8c4.8,1.5,9.6,3,14,4.4c1.1,0.3,2.2,0.7,3.3,1.2c3.3,1.2,6.7,2.2,9.9,3.4
		c2.5,0.8,5.1,1.7,7.5,2.7c2.4,0.8,4.8,1.8,7.2,2.7c1.6,0.5,3,1.2,4.5,1.7c2.1,0.8,4.3,1.7,6.4,2.5c0.6,0.3,1.3,0.5,1.9,0.8
		c0.5,0.2,0.8,0.3,1.1,0.5c0.8,0.3,1.6,0.7,2.2,1c0.8,0.3,1.4,0.7,2.2,1s1.4,0.7,2.1,1c0.8,0.3,1.4,0.7,2.1,1
		c0.6,0.3,1.1,0.5,1.8,0.8c1.1,0.5,2.2,1,3.3,1.5c0.5,0.3,1.1,0.5,1.6,0.8l1.3,0.7c0.2,0.2,0.3,0.2,0.5,0.3c0.5,0.2,0.8,0.5,1.3,0.7
		c1,0.5,1.9,1,2.7,1.3c1.3,0.7,2.4,1.3,3.5,1.8c1.1,0.7,2.2,1.3,3.3,1.8c0.2,0.2,0.3,0.2,0.5,0.3c0.3,0.2,0.5,0.3,0.8,0.5
		c0.8,0.5,1.6,1,2.4,1.5c1.6,1,3,2,4.3,3c0.3,0.2,0.6,0.5,1,0.7c1,0.8,1.9,1.5,2.9,2.2l0,0c0.3,0.2,0.6,0.5,0.8,0.7
		c0.3,0.2,0.5,0.5,0.8,0.7c0.8,0.8,1.6,1.5,2.2,2.2c0.2,0.2,0.5,0.5,0.6,0.7c0.2,0,0.2,0.2,0.3,0.3c0.3,0.3,0.6,0.7,0.8,1
		c0,0,0,0.2,0.2,0.2c0.3,0.5,0.8,1,1.1,1.3c0.2,0.2,0.3,0.5,0.5,0.7c0.2,0.3,0.3,0.5,0.5,0.8c0.2,0.2,0.3,0.5,0.5,0.7
		c0.3,0.7,0.6,1.2,0.8,1.8c0.2,0.5,0.3,0.8,0.5,1.3C426.4,518.3,426.5,518.8,426.5,519.1z"/>
	<path class="st5" d="M426.5,519.1c0,3,0,7-0.2,12.1c0,0.7,0,1.3,0,2.2c-0.2,7.2-0.5,15.9-0.8,25.8c0,0.7,0,1.2,0,1.8
		c-0.5,12.1-1.1,26.3-2.4,48.6c-2.2,41.4-6.2,5.7-10,20.1c-11-7-22.9-14.4-35.7-22.1c-2.2-1.3-4.6-2.7-7-4.2
		c-25.7-15.1-54.2-30.8-84.1-46.4c-1.1-0.7-2.4-1.2-3.5-1.8c-68.5-35.5-143.1-70.2-203.6-93.3c-11.6-4.5-22.8-8.5-33.3-12.1
		c-22.1-7.4-41.1-12.6-55.9-14.9c-15.3-2.3-25.8-1.5-30.1,3.4c-0.2-3.4-0.3-6.7-0.5-9.9c0-1-0.2-2-0.2-3c0.2-0.3,0.2-0.5,0.3-0.8
		c0,0,0,0,0-0.2s0-0.2,0.2-0.3c0-0.2,0.2-0.2,0.2-0.3c0-0.2,0.2-0.2,0.2-0.3c0.2-0.2,0.3-0.5,0.5-0.7s0.3-0.3,0.5-0.5l0.2-0.2
		l0.2-0.2c0,0,0-0.2,0.2-0.2c0.2-0.2,0.3-0.3,0.5-0.5c0.6-0.5,1.1-1,1.8-1.5c0.2-0.2,0.5-0.3,0.6-0.5c1.6-1,3.3-1.8,5.1-2.5
		c0.6-0.2,1.3-0.5,1.9-0.7c0.2,0,0.5-0.2,0.6-0.2c0.3-0.2,0.6-0.2,1.1-0.3c1.8-0.5,3.8-1,5.9-1.5c0.6-0.2,1.3-0.3,1.9-0.3
		c0.5-0.2,1.1-0.2,1.6-0.3c4.8-0.8,10-1.3,16.1-1.7c0.6,0,1.1,0,1.6-0.2c0.6,0,1.3,0,1.9-0.2c0.6,0,1.1,0,1.8,0s1.1,0,1.8,0
		c1.6,0,3.2-0.2,4.9-0.2c4.8,0,9.9,0,15.1,0c2.4,0,4.9,0.2,7.6,0.3c0.2,0,0.3,0,0.5,0c2.2,0,4.5,0.2,6.9,0.3c1.6,0,3.2,0.2,4.9,0.3
		c1.6,0.2,3,0.2,4.6,0.3c1.3,0,2.4,0.2,3.7,0.3c1.1,0,2.1,0.2,3.2,0.2c1.3,0.2,2.5,0.2,3.8,0.3c1.8,0.2,3.5,0.3,5.3,0.5
		s3.5,0.3,5.4,0.5s3.7,0.3,5.4,0.5c0.2,0,0.3,0,0.5,0c1.6,0.2,3.3,0.3,4.9,0.5c9.2,1,18.8,2.2,28.7,3.5c5.9,0.8,11.8,1.7,17.8,2.5
		c9.1,1.3,18.3,2.8,27.7,4.4c9.4,1.7,18.8,3.4,28.2,5c2.4,0.5,4.8,0.8,7.2,1.3c2.9,0.5,5.9,1.2,8.8,1.7c1.9,0.3,3.7,0.7,5.6,1.2
		c2.2,0.5,4.5,0.8,6.7,1.3c14.5,3,28.8,6.2,43,9.6c2.4,0.5,4.6,1.2,6.9,1.7c4.6,1.2,9.1,2.2,13.7,3.4c1.3,0.3,2.4,0.7,3.7,1
		c3,0.8,6.1,1.7,9.1,2.3l0,0c0.2,0,0.3,0,0.5,0.2c2.2,0.5,4.5,1.2,6.5,1.8c5.1,1.3,10.2,2.8,15.1,4.2c3.3,1,6.5,2,9.7,2.8
		c4.8,1.5,9.6,3,14,4.4c1.1,0.3,2.2,0.7,3.3,1.2c3.3,1.2,6.7,2.2,9.9,3.4c2.5,0.8,5.1,1.7,7.5,2.7c2.4,0.8,4.8,1.8,7.2,2.7
		c1.6,0.5,3,1.2,4.5,1.7c2.2,0.8,4.3,1.7,6.4,2.5c0.6,0.3,1.3,0.5,1.9,0.8c1.1,0.5,2.2,1,3.3,1.5c0.8,0.3,1.4,0.7,2.2,1
		c0.8,0.3,1.4,0.7,2.1,1c0.8,0.3,1.4,0.7,2.1,1c0.6,0.3,1.1,0.5,1.8,0.8c1.1,0.5,2.2,1,3.3,1.5c0.5,0.3,1.1,0.5,1.6,0.8l1.3,0.7
		c0.2,0.2,0.3,0.2,0.5,0.3c1.3,0.7,2.7,1.3,4,2s2.4,1.3,3.5,1.8c1.3,0.7,2.5,1.5,3.8,2.2c0.3,0.2,0.5,0.3,0.8,0.5
		c0.8,0.5,1.6,1,2.4,1.5c1.6,1,3,2,4.3,3s2.5,2,3.7,2.8l0,0c0.5,0.5,1.1,1,1.6,1.3c0.8,0.8,1.6,1.5,2.2,2.2c0.2,0.2,0.5,0.5,0.6,0.7
		c0.2,0,0.2,0.2,0.3,0.3c0.3,0.3,0.6,0.8,1,1.2c0.3,0.5,0.8,1,1.1,1.3c0.2,0.2,0.3,0.5,0.5,0.7c0.2,0.3,0.3,0.5,0.5,0.8
		c0.2,0.2,0.3,0.5,0.5,0.7c0.3,0.7,0.6,1.2,0.8,1.8c0.2,0.5,0.3,0.8,0.5,1.3C426.4,518.3,426.5,518.8,426.5,519.1z"/>
</g>
</svg>
