<?xml version="1.0" encoding="utf-8"?>
<!-- Generator: Adobe Illustrator 24.0.1, SVG Export Plug-In . SVG Version: 6.00 Build 0)  -->
<svg version="1.1" id="Layer_1" xmlns="http://www.w3.org/2000/svg" xmlns:xlink="http://www.w3.org/1999/xlink" x="0px" y="0px"
	 viewBox="0 0 786.8 572.3" style="enable-background:new 0 0 786.8 572.3;" xml:space="preserve">
<style type="text/css">
	.st0{fill:#F2F2F2;}
	.st1{fill:#3F3D56;}
	.st2{fill:#FFFFFF;}
	.st3{fill:#2F2E41;}
	.st4{fill:#FFB6B6;}
	.st5{opacity:0.2;enable-background:new    ;}
</style>
<ellipse class="st0" cx="23.5" cy="-270.8" rx="90.2" ry="79.4"/>
<path class="st0" d="M722.9,987.8C857,897.9,920.8,746.8,881,602.5c-1-3.6-2-7.1-3-10.7c-26.7-85.7-92.2-166.9-188.1-194.3
	c-80.4-22.9-168.2-5.4-252.3-14.6C272.8,365,145.1,247.5,55.3,124.6S-103.8-136-223-237.5C-419.9-405-741.1-441-984.9-332.1
	c-244.2,109.2-399.5,350.8-393.1,591.8c6.8,241,168.9,471.3,404.9,593.6c86.8,44.9,186.8,76.8,286.4,65.5
	c86.5-9.5,165.1-50.6,251.3-62.8c135.4-19,269.8,34.8,387,97.6S181.9,1091,315,1120.2C444.3,1148.7,604.4,1067.2,722.9,987.8z"/>
<path class="st1" d="M530.4-327c-3-1.8-6.1-3.3-8.8-5.1C436.9-380,345.7-419,250.5-447.8l-22,268.4H88.4v-307.7
	c-8.8-1.5-17.6-3.3-26.7-4.5v312.1h-166.5c-190.8,0-345.5-136.3-345.5-304.4l0,0c-8.8,1.8-17.9,3.6-26.7,5.4v298.7h-135.4
	l-20.9-255.9c-97.9,33-190.8,76.5-276.6,129.4c-1.4,0.9-3,1.8-4.4,2.7c-7.4,4.8-14.9,9.2-22.3,14V734.6h399.5l-7.1-86.3L-583,175.2
	h782.1l-38.8,473.1l-7.1,86.3h395.1V-316.6C542.3-320.2,536.5-323.5,530.4-327z M-476.6,97.8h-112.8l-21-253.8h133.7V97.8H-476.6z
	 M61.7,97.8h-189.5v-5.1c0-10.1-9.5-18.4-20.9-18.4l0,0h-82.1c-11.5,0-20.9,8.3-20.9,18.4l0,0v5.1H-450V-156H61.7V97.8z M88.4,97.8
	V-156h138.1l-21,253.8H88.4z"/>
<path class="st1" d="M593.6,800.3h-10.8c-1,0-1.7-0.6-1.7-1.5v-4.5c0-0.9,0.7-1.5,1.7-1.5h10.8c1,0,1.7,0.6,1.7,1.5v4.5
	C595.3,799.7,594.6,800.3,593.6,800.3z"/>
<path class="st2" d="M-668,628h6.1c2,0,3.5,1.5,3.5,3.4l0,0c0,1.9-1.5,3.4-3.5,3.4h-6.1c-2,0-3.5-1.5-3.5-3.4l0,0
	C-671.5,629.5-669.9,628-668,628z"/>
<path class="st2" d="M-596.8,628h6.1c2,0,3.5,1.5,3.5,3.4l0,0c0,1.9-1.5,3.4-3.5,3.4h-6.1c-2,0-3.5-1.5-3.5-3.4l0,0
	C-600.1,629.5-598.6,628-596.8,628z"/>
<path class="st2" d="M-576.7,628h6.1c2,0,3.5,1.5,3.5,3.4l0,0c0,1.9-1.5,3.4-3.5,3.4h-6.1c-2,0-3.5-1.5-3.5-3.4l0,0
	C-580,629.5-578.4,628-576.7,628z"/>
<path class="st2" d="M-648.7,627.6h38.7c2,0,3.5,1.5,3.5,3.4l0,0c0,1.9-1.5,3.4-3.5,3.4h-38.7c-2,0-3.5-1.5-3.5-3.4l0,0
	C-652,629.1-650.5,627.6-648.7,627.6z"/>
<path class="st2" d="M-648.9,643.2h6.1c2,0,3.5,1.5,3.5,3.4l0,0c0,1.9-1.5,3.4-3.5,3.4h-6.1c-2,0-3.5-1.5-3.5-3.4l0,0
	C-652.4,644.7-650.9,643.2-648.9,643.2z"/>
<path class="st2" d="M-577.8,643.2h6.1c2,0,3.5,1.5,3.5,3.4l0,0c0,1.9-1.5,3.4-3.5,3.4h-6.1c-2,0-3.5-1.5-3.5-3.4l0,0
	C-581.3,644.7-579.8,643.2-577.8,643.2z"/>
<path class="st2" d="M-557.7,643.2h6.1c2,0,3.5,1.5,3.5,3.4l0,0c0,1.9-1.5,3.4-3.5,3.4h-6.1c-2,0-3.5-1.5-3.5-3.4l0,0
	C-561.2,644.7-559.6,643.2-557.7,643.2z"/>
<path class="st2" d="M-629.7,642.6h38.7c2,0,3.5,1.5,3.5,3.4l0,0c0,1.9-1.5,3.4-3.5,3.4h-38.7c-2,0-3.5-1.5-3.5-3.4l0,0
	C-633,644.1-631.6,642.6-629.7,642.6z"/>
<path class="st2" d="M-630.1,658.2h6.1c2,0,3.5,1.5,3.5,3.4l0,0c0,1.9-1.5,3.4-3.5,3.4h-6.1c-2,0-3.5-1.5-3.5-3.4l0,0
	C-633.4,659.7-631.9,658.2-630.1,658.2z"/>
<path class="st2" d="M-611.1,673.4h6.1c2,0,3.5,1.5,3.5,3.4l0,0c0,1.9-1.5,3.4-3.5,3.4h-6.1c-2,0-3.5-1.5-3.5-3.4l0,0
	C-614.6,674.9-613,673.4-611.1,673.4z"/>
<path class="st2" d="M-539.9,673.4h6.1c2,0,3.5,1.5,3.5,3.4l0,0c0,1.9-1.5,3.4-3.5,3.4h-6.1c-2,0-3.5-1.5-3.5-3.4l0,0
	C-543.2,674.9-541.7,673.4-539.9,673.4z"/>
<path class="st2" d="M-519.8,673.4h6.1c2,0,3.5,1.5,3.5,3.4l0,0c0,1.9-1.5,3.4-3.5,3.4h-6.1c-2,0-3.5-1.5-3.5-3.4l0,0
	C-523.1,674.9-521.5,673.4-519.8,673.4z"/>
<path class="st2" d="M-591.6,672.8h38.7c2,0,3.5,1.5,3.5,3.4l0,0c0,1.9-1.5,3.4-3.5,3.4h-38.7c-2,0-3.5-1.5-3.5-3.4l0,0
	C-595.1,674.3-593.6,672.8-591.6,672.8z"/>
<path class="st1" d="M-877.5,808.1v29.5c0,3.3,3,5.7,6.4,5.7h231c3.7,0,6.4-2.7,6.4-5.7v-29.5H-877.5z"/>
<path class="st1" d="M810.7,641.4c3,14.9,35.8,25.3,75.6,23.2c36.5-1.5,66.2-12.8,71.6-26.2c-2-0.6-4.1-0.9-6.1-0.6L814,641.1
	C813.1,641.1,811.7,641.1,810.7,641.4z"/>
<g>
	<path class="st3" d="M818.2,820.9c3,7.7,11.5,13.1,20.9,12.8l89.5-2.1c9.5-0.3,17.6-6,20.3-14l12.5-119c4.4,1.8,9.5,2.7,14.2,2.7
		c17.9-0.3,32.1-13.7,31.7-29.5c-0.3-15.8-15.5-28.3-33.4-28c-2,0-4.1,0.3-5.7,0.6c-4.4-4.2-10.1-6.2-16.5-6.2l-137.8,3.3
		c-1,0-2.4,0.3-3.4,0.3c-11.8,1.8-19.2,11.9-17.2,22c0.3,0.9,0.3,1.8,0.7,2.4L818.2,820.9z M964.1,690.5l9.1-28.6
		c1-3.3,1-6.8,0-10.1c0.3,0,0.7-0.3,1.4-0.3c12.8-0.3,23.6,8.9,24,20.2c0.3,11.3-9.8,20.8-22.6,21.1
		C971.5,692.9,967.4,692.3,964.1,690.5z"/>
	<path d="M893.5,755.4c0.3,0,0.3,0,0.7-0.3l19.6-11.3c0.7-0.6,1-1.5,0.3-2.1c0-0.3-0.3-0.3-0.3-0.3l-20.3-11.6
		c-0.7-0.6-1.7-0.3-2.4,0.3s-0.3,1.5,0.3,2.1l17.9,10.4l-17.2,9.8c-0.7,0.6-1,1.5-0.3,2.1C892.1,755.1,892.8,755.4,893.5,755.4
		L893.5,755.4z"/>
	<path d="M862.7,756.6c1-0.3,1.4-0.9,1.4-1.8c0-0.3-0.3-0.6-0.7-0.9l-17.9-8.9l17.2-11.3c0.7-0.6,1-1.5,0.3-2.1s-1.7-0.9-2.4-0.3
		l-19.2,12.8c-0.7,0.6-1,1.5-0.3,2.1c0,0.3,0.3,0.3,0.7,0.3l20.3,10.1C862.1,756.6,862.4,756.6,862.7,756.6z"/>
	<path d="M906.6,776.1c0,0,0.5,0,0.5-0.4c1-0.4,1.5-2.2,1-3.1l0,0l-41.7-60.1c-0.5-0.9-2.5-1.3-3.6-0.9c-1,0.4-1.5,2.2-1,3.1
		l41.7,60.1C904.6,775.7,905.6,776.1,906.6,776.1z"/>
</g>
<g>
	<path class="st3" d="M286.3,499.1v305h242.8v-305c0-4.5-3.4-8.6-8.1-9.8c-1-0.3-2.4-0.6-3.4-0.6H298.4
		C291.3,488.7,286.3,493.4,286.3,499.1L286.3,499.1z M380.8,603.8c0-12.5,11.8-22.6,26-22.6s25.7,10.1,25.7,22.6v35.4
		c0,12.5-11.8,22.9-26,22.6c-14.2,0-25.7-10.1-25.7-22.6V603.8z"/>
	<path class="st1" d="M-95.4,39.4v557.3c0,14.9,13.5,26.8,30.4,26.8h937.2c16.9,0,30.4-11.9,30.4-26.8V39.4
		c0-14.9-13.5-26.8-30.4-26.8H-65C-81.8,12.6-95.4,24.5-95.4,39.4z"/>
	<path class="st2" d="M-73.4,46.2v543.3c0,8,7.4,14.3,16.2,14.3h921.6c9.1,0,16.2-6.5,16.2-14.3V46.2c0-8-7.4-14.3-16.2-14.3H-57.2
		C-66.3,31.9-73.4,38.2-73.4,46.2z"/>
	<path class="st3" d="M97.5,827.5c2,2.1,4.7,3.3,7.8,3.3h548.1c5.4,0,10.1-3.9,10.1-8.9c0-0.6,0-1.2-0.3-1.8l-8.4-35.7
		c-0.7-3-3-5.4-6.4-6.5c-1-0.3-2.4-0.6-3.7-0.6h-531c-1.4,0-2.4,0.3-3.7,0.6c-3,1.2-5.4,3.6-6.4,6.5l-8.4,35.7
		C94.8,822.8,95.5,825.5,97.5,827.5z"/>
</g>
<path class="st1" d="M-1510.9,816.7c29.4,30.6,61.1,59.5,94.9,86.3l2467.3,3c33.8-26.8,65.5-55.6,94.9-86.3L-1510.9,816.7z"/>
<g>
	<path class="st1" d="M-1028.5,543.3v255c0,6.8,6.1,12.2,13.8,12.2h428.9c7.8,0,13.8-5.4,13.8-12.2v-255c0-6.8-6.1-12.2-13.8-12.2
		h-428.9C-1022.1,531.1-1028.5,536.4-1028.5,543.3z"/>
	<path d="M-1018.4,546.5v248.7c0,3.6,3.4,6.5,7.4,6.5h421.8c4.1,0,7.4-3,7.4-6.5V546.5c0-3.6-3.4-6.5-7.4-6.5H-1011
		C-1015,540-1018.4,542.7-1018.4,546.5z"/>
	<path class="st3" d="M-1037.3,847.9c1.7,1.8,4.1,2.7,6.4,2.7h459.3c4.7,0,8.4-3.3,8.4-7.4c0-0.6,0-0.9-0.3-1.5l-7.1-29.8
		c-0.7-2.4-2.7-4.5-5.4-5.4c-1-0.3-2-0.6-3-0.6h-444.8c-1,0-2,0.3-3,0.6c-2.7,0.9-4.7,3-5.4,5.4l-7.1,29.8
		C-1039.7,844.1-1039,846.1-1037.3,847.9z"/>
	<path class="st1" d="M-611.8,818.8h-10.8c-1,0-1.7-0.6-1.7-1.5v-4.5c0-0.9,0.7-1.5,1.7-1.5h10.8c1,0,1.7,0.6,1.7,1.5v4.5
		C-610.1,818.2-611.1,818.8-611.8,818.8z"/>
	<path class="st1" d="M-640.2,818.8H-651c-1,0-1.7-0.6-1.7-1.5v-4.5c0-0.9,0.7-1.5,1.7-1.5h10.8c1,0,1.7,0.6,1.7,1.5v4.5
		C-638.5,818.2-639.1,818.8-640.2,818.8z"/>
	<path class="st1" d="M-668.5,818.8h-10.8c-1,0-1.7-0.6-1.7-1.5v-4.5c0-0.9,0.7-1.5,1.7-1.5h10.8c1,0,1.7,0.6,1.7,1.5v4.5
		C-666.8,818.2-667.5,818.8-668.5,818.8z"/>
	<path class="st1" d="M-696.9,818.8h-10.8c-1,0-1.7-0.6-1.7-1.5v-4.5c0-0.9,0.7-1.5,1.7-1.5h10.8c1,0,1.7,0.6,1.7,1.5v4.5
		C-695.2,818.2-695.9,818.8-696.9,818.8z"/>
	<path class="st1" d="M-724.9,818.8H-736c-1,0-1.7-0.6-1.7-1.5v-4.5c0-0.9,0.7-1.5,1.7-1.5h10.8c1,0,1.7,0.6,1.7,1.5v4.5
		C-723.6,818.2-724.2,818.8-724.9,818.8z"/>
	<path class="st1" d="M-753.3,818.8h-10.8c-1,0-1.7-0.6-1.7-1.5v-4.5c0-0.9,0.7-1.5,1.7-1.5h10.8c1,0,1.7,0.6,1.7,1.5v4.5
		C-751.6,818.2-752.3,818.8-753.3,818.8z"/>
	<path class="st1" d="M-781.7,818.8h-10.8c-1,0-1.7-0.6-1.7-1.5v-4.5c0-0.9,0.7-1.5,1.7-1.5h10.8c1,0,1.7,0.6,1.7,1.5v4.5
		C-780,818.2-780.6,818.8-781.7,818.8z"/>
	<path class="st1" d="M-810,818.8h-10.8c-1,0-1.7-0.6-1.7-1.5v-4.5c0-0.9,0.7-1.5,1.7-1.5h10.8c1,0,1.7,0.6,1.7,1.5v4.5
		C-808.3,818.2-809,818.8-810,818.8z"/>
	<path class="st1" d="M-838.1,818.8h-10.8c-1,0-1.7-0.6-1.7-1.5v-4.5c0-0.9,0.7-1.5,1.7-1.5h10.8c1,0,1.7,0.6,1.7,1.5v4.5
		C-836.7,818.2-837.4,818.8-838.1,818.8z"/>
	<path class="st1" d="M-866.4,818.8h-10.8c-1,0-1.7-0.6-1.7-1.5v-4.5c0-0.9,0.7-1.5,1.7-1.5h10.8c1,0,1.7,0.6,1.7,1.5v4.5
		C-864.7,818.2-865.8,818.8-866.4,818.8z"/>
	<path class="st1" d="M-894.8,818.8h-10.8c-1,0-1.7-0.6-1.7-1.5v-4.5c0-0.9,0.7-1.5,1.7-1.5h10.8c1,0,1.7,0.6,1.7,1.5v4.5
		C-893.1,818.2-893.8,818.8-894.8,818.8z"/>
	<path class="st1" d="M-923.2,818.8H-934c-1,0-1.7-0.6-1.7-1.5v-4.5c0-0.9,0.7-1.5,1.7-1.5h10.8c1,0,1.7,0.6,1.7,1.5v4.5
		C-921.5,818.2-922.1,818.8-923.2,818.8z"/>
	<path class="st1" d="M-951.5,818.8h-10.8c-1,0-1.7-0.6-1.7-1.5v-4.5c0-0.9,0.7-1.5,1.7-1.5h10.8c1,0,1.7,0.6,1.7,1.5v4.5
		C-949.8,818.2-950.5,818.8-951.5,818.8z"/>
	<path class="st1" d="M-979.6,818.8h-10.8c-1,0-1.7-0.6-1.7-1.5v-4.5c0-0.9,0.7-1.5,1.7-1.5h10.8c1,0,1.7,0.6,1.7,1.5v4.5
		C-977.9,818.2-978.9,818.8-979.6,818.8z"/>
	<path class="st1" d="M-1007.9,818.8h-10.8c-1,0-1.7-0.6-1.7-1.5v-4.5c0-0.9,0.7-1.5,1.7-1.5h10.8c1,0,1.7,0.6,1.7,1.5v4.5
		C-1006.2,818.2-1006.9,818.8-1007.9,818.8z"/>
	<path class="st1" d="M-583.4,831.3h-10.8c-1,0-1.7-0.6-1.7-1.5v-4.5c0-0.9,0.7-1.5,1.7-1.5h10.8c1,0,1.7,0.6,1.7,1.5v4.5
		C-581.7,830.7-582.4,831.3-583.4,831.3z"/>
	<path class="st1" d="M-611.5,831.3h-10.8c-1,0-1.7-0.6-1.7-1.5v-4.5c0-0.9,0.7-1.5,1.7-1.5h10.8c1,0,1.7,0.6,1.7,1.5v4.5
		C-609.8,830.7-610.8,831.3-611.5,831.3z"/>
	<path class="st1" d="M-639.8,831.3h-10.8c-1,0-1.7-0.6-1.7-1.5v-4.5c0-0.9,0.7-1.5,1.7-1.5h10.8c1,0,1.7,0.6,1.7,1.5v4.5
		C-638.1,830.7-638.8,831.3-639.8,831.3z"/>
	<path class="st1" d="M-668.2,831.3H-679c-1,0-1.7-0.6-1.7-1.5v-4.5c0-0.9,0.7-1.5,1.7-1.5h10.8c1,0,1.7,0.6,1.7,1.5v4.5
		C-666.5,830.7-667.2,831.3-668.2,831.3z"/>
	<path class="st1" d="M-696.6,831.3h-10.8c-1,0-1.7-0.6-1.7-1.5v-4.5c0-0.9,0.7-1.5,1.7-1.5h10.8c1,0,1.7,0.6,1.7,1.5v4.5
		C-694.9,830.7-695.5,831.3-696.6,831.3z"/>
	<path class="st1" d="M-724.6,831.3h-10.8c-1,0-1.7-0.6-1.7-1.5v-4.5c0-0.9,0.7-1.5,1.7-1.5h10.8c1,0,1.7,0.6,1.7,1.5v4.5
		C-723.2,830.7-723.9,831.3-724.6,831.3z"/>
	<path class="st1" d="M-753,831.3h-10.8c-1,0-1.7-0.6-1.7-1.5v-4.5c0-0.9,0.7-1.5,1.7-1.5h10.8c1,0,1.7,0.6,1.7,1.5v4.5
		C-751.3,830.7-751.9,831.3-753,831.3z"/>
	<path class="st1" d="M-781.3,831.3h-10.8c-1,0-1.7-0.6-1.7-1.5v-4.5c0-0.9,0.7-1.5,1.7-1.5h10.8c1,0,1.7,0.6,1.7,1.5v4.5
		C-779.6,830.7-780.3,831.3-781.3,831.3z"/>
	<path class="st1" d="M-809.7,831.3h-10.8c-1,0-1.7-0.6-1.7-1.5v-4.5c0-0.9,0.7-1.5,1.7-1.5h10.8c1,0,1.7,0.6,1.7,1.5v4.5
		C-808,830.7-808.7,831.3-809.7,831.3z"/>
	<path class="st1" d="M-837.7,831.3h-10.8c-1,0-1.7-0.6-1.7-1.5v-4.5c0-0.9,0.7-1.5,1.7-1.5h10.8c1,0,1.7,0.6,1.7,1.5v4.5
		C-836.4,830.7-837,831.3-837.7,831.3z"/>
	<path class="st1" d="M-866.1,831.3h-10.8c-1,0-1.7-0.6-1.7-1.5v-4.5c0-0.9,0.7-1.5,1.7-1.5h10.8c1,0,1.7,0.6,1.7,1.5v4.5
		C-864.4,830.7-865.4,831.3-866.1,831.3z"/>
	<path class="st1" d="M-894.5,831.3h-10.8c-1,0-1.7-0.6-1.7-1.5v-4.5c0-0.9,0.7-1.5,1.7-1.5h10.8c1,0,1.7,0.6,1.7,1.5v4.5
		C-892.8,830.7-893.4,831.3-894.5,831.3z"/>
	<path class="st1" d="M-922.8,831.3h-10.8c-1,0-1.7-0.6-1.7-1.5v-4.5c0-0.9,0.7-1.5,1.7-1.5h10.8c1,0,1.7,0.6,1.7,1.5v4.5
		C-921.1,830.7-921.8,831.3-922.8,831.3z"/>
	<path class="st1" d="M-951.2,831.3H-962c-1,0-1.7-0.6-1.7-1.5v-4.5c0-0.9,0.7-1.5,1.7-1.5h10.8c1,0,1.7,0.6,1.7,1.5v4.5
		C-949.5,830.7-950.2,831.3-951.2,831.3z"/>
	<path class="st1" d="M-979.2,831.3H-990c-1,0-1.7-0.6-1.7-1.5v-4.5c0-0.9,0.7-1.5,1.7-1.5h10.8c1,0,1.7,0.6,1.7,1.5v4.5
		C-977.5,830.7-978.5,831.3-979.2,831.3z"/>
	<path class="st1" d="M-1007.6,831.3h-10.8c-1,0-1.7-0.6-1.7-1.5v-4.5c0-0.9,0.7-1.5,1.7-1.5h10.8c1,0,1.7,0.6,1.7,1.5v4.5
		C-1005.9,830.7-1006.6,831.3-1007.6,831.3z"/>
	<path class="st1" d="M-719.2,846.1H-829c-1,0-1.7-0.6-1.7-1.5v-4.5c0-0.9,0.7-1.5,1.7-1.5h109.8c1,0,1.7,0.6,1.7,1.5v4.5
		C-717.5,845.5-718.2,846.1-719.2,846.1z"/>
	<path class="st2" d="M-954.9,594.1h9.5c3,0,5.4,2.1,5.4,4.8l0,0c0,2.7-2.4,4.8-5.4,4.8h-9.5c-3,0-5.4-2.1-5.4-4.8l0,0
		C-960.3,596.2-957.9,594.1-954.9,594.1z"/>
	<path class="st2" d="M-845.2,594.1h9.5c3,0,5.4,2.1,5.4,4.8l0,0c0,2.7-2.4,4.8-5.4,4.8h-9.5c-3,0-5.4-2.1-5.4-4.8l0,0
		C-850.2,596.2-847.9,594.1-845.2,594.1z"/>
	<path class="st2" d="M-814.1,594.1h9.5c3,0,5.4,2.1,5.4,4.8l0,0c0,2.7-2.4,4.8-5.4,4.8h-9.5c-3,0-5.4-2.1-5.4-4.8l0,0
		C-819.1,596.2-816.8,594.1-814.1,594.1z"/>
	<path class="st2" d="M-925.2,593.5h59.8c3,0,5.4,2.1,5.4,4.8l0,0c0,2.7-2.4,4.8-5.4,4.8h-59.8c-3,0-5.4-2.1-5.4-4.8l0,0
		C-930.3,595.6-927.9,593.5-925.2,593.5z"/>
	<path class="st2" d="M-778.6,593.5h59.8c3,0,5.4,2.1,5.4,4.8l0,0c0,2.7-2.4,4.8-5.4,4.8h-59.8c-3,0-5.4-2.1-5.4-4.8l0,0
		C-784,595.6-781.7,593.5-778.6,593.5z"/>
	<path class="st2" d="M-925.5,615.3h9.5c3,0,5.4,2.1,5.4,4.8l0,0c0,2.7-2.4,4.8-5.4,4.8h-9.5c-3,0-5.4-2.1-5.4-4.8l0,0
		C-930.9,617.3-928.6,615.3-925.5,615.3z"/>
	<path class="st2" d="M-815.8,615.3h9.5c3,0,5.4,2.1,5.4,4.8l0,0c0,2.7-2.4,4.8-5.4,4.8h-9.5c-3,0-5.4-2.1-5.4-4.8l0,0
		C-821.2,617.3-818.8,615.3-815.8,615.3z"/>
	<path class="st2" d="M-784.7,615.3h9.5c3,0,5.4,2.1,5.4,4.8l0,0c0,2.7-2.4,4.8-5.4,4.8h-9.5c-3,0-5.4-2.1-5.4-4.8l0,0
		C-790.1,617.3-787.7,615.3-784.7,615.3z"/>
	<path class="st2" d="M-895.8,614.4h59.8c3,0,5.4,2.1,5.4,4.8l0,0c0,2.7-2.4,4.8-5.4,4.8h-59.8c-3,0-5.4-2.1-5.4-4.8l0,0
		C-900.9,616.4-898.8,614.4-895.8,614.4z"/>
	<path class="st2" d="M-749.2,614.4h59.8c3,0,5.4,2.1,5.4,4.8l0,0c0,2.7-2.4,4.8-5.4,4.8h-59.8c-3,0-5.4-2.1-5.4-4.8l0,0
		C-754.6,616.4-752.3,614.4-749.2,614.4z"/>
	<path class="st2" d="M-896.5,636.1h9.5c3,0,5.4,2.1,5.4,4.8l0,0c0,2.7-2.4,4.8-5.4,4.8h-9.5c-3,0-5.4-2.1-5.4-4.8l0,0
		C-901.5,638.2-899.2,636.1-896.5,636.1z"/>
	<path class="st2" d="M-786.4,636.1h9.5c3,0,5.4,2.1,5.4,4.8l0,0c0,2.7-2.4,4.8-5.4,4.8h-9.5c-3,0-5.4-2.1-5.4-4.8l0,0
		C-791.8,638.2-789.4,636.1-786.4,636.1z"/>
	<path class="st2" d="M-755.3,636.1h9.5c3,0,5.4,2.1,5.4,4.8l0,0c0,2.7-2.4,4.8-5.4,4.8h-9.5c-3,0-5.4-2.1-5.4-4.8l0,0
		C-760.7,638.2-758.4,636.1-755.3,636.1z"/>
	<path class="st2" d="M-866.4,635.5h59.8c3,0,5.4,2.1,5.4,4.8l0,0c0,2.7-2.4,4.8-5.4,4.8h-59.8c-3,0-5.4-2.1-5.4-4.8l0,0
		C-871.8,637.6-869.5,635.5-866.4,635.5z"/>
	<path class="st2" d="M-720.2,635.5h59.8c3,0,5.4,2.1,5.4,4.8l0,0c0,2.7-2.4,4.8-5.4,4.8h-59.8c-3,0-5.4-2.1-5.4-4.8l0,0
		C-725.3,637.6-722.9,635.5-720.2,635.5z"/>
	<path class="st2" d="M-867.1,657.2h9.5c3,0,5.4,2.1,5.4,4.8l0,0c0,2.7-2.4,4.8-5.4,4.8h-9.5c-3,0-5.4-2.1-5.4-4.8l0,0
		C-872.5,659.3-870.1,657.2-867.1,657.2z"/>
	<path class="st2" d="M-757.3,657.2h9.5c3,0,5.4,2.1,5.4,4.8l0,0c0,2.7-2.4,4.8-5.4,4.8h-9.5c-3,0-5.4-2.1-5.4-4.8l0,0
		C-762.4,659.3-760,657.2-757.3,657.2z"/>
	<path class="st2" d="M-726.3,657.2h9.5c3,0,5.4,2.1,5.4,4.8l0,0c0,2.7-2.4,4.8-5.4,4.8h-9.5c-3,0-5.4-2.1-5.4-4.8l0,0
		C-731.3,659.3-729,657.2-726.3,657.2z"/>
	<path class="st2" d="M-837,656.3h59.8c3,0,5.4,2.1,5.4,4.8l0,0c0,2.7-2.4,4.8-5.4,4.8H-837c-3,0-5.4-2.1-5.4-4.8l0,0
		C-842.4,658.4-840.1,656.3-837,656.3z"/>
	<path class="st2" d="M-845.2,740.5h9.5c3,0,5.4,2.1,5.4,4.8l0,0c0,2.7-2.4,4.8-5.4,4.8h-9.5c-3,0-5.4-2.1-5.4-4.8l0,0
		C-850.2,742.6-847.9,740.5-845.2,740.5z"/>
	<path class="st2" d="M-814.1,740.5h9.5c3,0,5.4,2.1,5.4,4.8l0,0c0,2.7-2.4,4.8-5.4,4.8h-9.5c-3,0-5.4-2.1-5.4-4.8l0,0
		C-819.1,742.6-816.8,740.5-814.1,740.5z"/>
	<path class="st2" d="M-778.6,741.4h59.8c3,0,5.4,2.1,5.4,4.8l0,0c0,2.7-2.4,4.8-5.4,4.8h-59.8c-3,0-5.4-2.1-5.4-4.8l0,0
		C-784,743.5-781.7,741.4-778.6,741.4z"/>
	<path class="st2" d="M-954.9,740.5h9.5c3,0,5.4,2.1,5.4,4.8l0,0c0,2.7-2.4,4.8-5.4,4.8h-9.5c-3,0-5.4-2.1-5.4-4.8l0,0
		C-960.3,742.6-957.9,740.5-954.9,740.5z"/>
	<path class="st2" d="M-925.2,741.4h59.8c3,0,5.4,2.1,5.4,4.8l0,0c0,2.7-2.4,4.8-5.4,4.8h-59.8c-3,0-5.4-2.1-5.4-4.8l0,0
		C-930.3,743.5-927.9,741.4-925.2,741.4z"/>
	<path class="st2" d="M-925.5,719.7h9.5c3,0,5.4,2.1,5.4,4.8l0,0c0,2.7-2.4,4.8-5.4,4.8h-9.5c-3,0-5.4-2.1-5.4-4.8l0,0
		C-930.9,721.5-928.6,719.7-925.5,719.7z"/>
	<path class="st2" d="M-815.8,719.7h9.5c3,0,5.4,2.1,5.4,4.8l0,0c0,2.7-2.4,4.8-5.4,4.8h-9.5c-3,0-5.4-2.1-5.4-4.8l0,0
		C-821.2,721.5-818.8,719.7-815.8,719.7z"/>
	<path class="st2" d="M-784.7,719.7h9.5c3,0,5.4,2.1,5.4,4.8l0,0c0,2.7-2.4,4.8-5.4,4.8h-9.5c-3,0-5.4-2.1-5.4-4.8l0,0
		C-790.1,721.5-787.7,719.7-784.7,719.7z"/>
	<path class="st2" d="M-895.8,720.3h59.8c3,0,5.4,2.1,5.4,4.8l0,0c0,2.7-2.4,4.8-5.4,4.8h-59.8c-3,0-5.4-2.1-5.4-4.8l0,0
		C-900.9,722.4-898.8,720.3-895.8,720.3z"/>
	<path class="st2" d="M-896.5,698.6h9.5c3,0,5.4,2.1,5.4,4.8l0,0c0,2.7-2.4,4.8-5.4,4.8h-9.5c-3,0-5.4-2.1-5.4-4.8l0,0
		C-901.5,700.6-899.2,698.6-896.5,698.6z"/>
	<path class="st2" d="M-786.4,698.6h9.5c3,0,5.4,2.1,5.4,4.8l0,0c0,2.7-2.4,4.8-5.4,4.8h-9.5c-3,0-5.4-2.1-5.4-4.8l0,0
		C-791.8,700.6-789.4,698.6-786.4,698.6z"/>
	<path class="st2" d="M-755.3,698.6h9.5c3,0,5.4,2.1,5.4,4.8l0,0c0,2.7-2.4,4.8-5.4,4.8h-9.5c-3,0-5.4-2.1-5.4-4.8l0,0
		C-760.7,700.6-758.4,698.6-755.3,698.6z"/>
	<path class="st2" d="M-866.4,699.5h59.8c3,0,5.4,2.1,5.4,4.8l0,0c0,2.7-2.4,4.8-5.4,4.8h-59.8c-3,0-5.4-2.1-5.4-4.8l0,0
		C-871.8,701.5-869.5,699.5-866.4,699.5z"/>
	<path class="st2" d="M-867.1,677.7h9.5c3,0,5.4,2.1,5.4,4.8l0,0c0,2.7-2.4,4.8-5.4,4.8h-9.5c-3,0-5.4-2.1-5.4-4.8l0,0
		C-872.5,679.8-870.1,677.7-867.1,677.7z"/>
	<path class="st2" d="M-757.3,677.7h9.5c3,0,5.4,2.1,5.4,4.8l0,0c0,2.7-2.4,4.8-5.4,4.8h-9.5c-3,0-5.4-2.1-5.4-4.8l0,0
		C-762.4,679.8-760,677.7-757.3,677.7z"/>
	<path class="st2" d="M-726.3,677.7h9.5c3,0,5.4,2.1,5.4,4.8l0,0c0,2.7-2.4,4.8-5.4,4.8h-9.5c-3,0-5.4-2.1-5.4-4.8l0,0
		C-731.3,679.8-729,677.7-726.3,677.7z"/>
	<path class="st2" d="M-837,678.3h59.8c3,0,5.4,2.1,5.4,4.8l0,0c0,2.7-2.4,4.8-5.4,4.8H-837c-3,0-5.4-2.1-5.4-4.8l0,0
		C-842.4,680.4-840.1,678.3-837,678.3z"/>
</g>
<g>
	<path class="st3" d="M195.6,871.9c1.7,2.4,4.1,3.5,6.4,3.5h459.3c4.7,0,8.4-4.3,8.4-9.8c0-0.8,0-1.2-0.3-2l-7.1-39.2
		c-0.7-3.1-2.7-5.9-5.4-7.1c-1-0.4-2-0.8-3-0.8H209.1c-1,0-2,0.4-3,0.8c-2.7,1.2-4.7,3.9-5.4,7.1l-7.1,39.2
		C193.3,866.8,193.9,869.6,195.6,871.9z"/>
	<path class="st1" d="M621.1,833.5h-10.8c-1,0-1.7-0.8-1.7-2v-5.9c0-1.2,0.7-2,1.7-2h10.8c1,0,1.7,0.8,1.7,2v5.9
		C622.8,832.7,621.8,833.5,621.1,833.5z"/>
	<path class="st1" d="M592.8,833.5H582c-1,0-1.7-0.8-1.7-2v-5.9c0-1.2,0.7-2,1.7-2h10.8c1,0,1.7,0.8,1.7,2v5.9
		C594.5,832.7,593.8,833.5,592.8,833.5z"/>
	<path class="st1" d="M564.4,833.5h-10.8c-1,0-1.7-0.8-1.7-2v-5.9c0-1.2,0.7-2,1.7-2h10.8c1,0,1.7,0.8,1.7,2v5.9
		C566.1,832.7,565.4,833.5,564.4,833.5z"/>
	<path class="st1" d="M536,833.5h-10.8c-1,0-1.7-0.8-1.7-2v-5.9c0-1.2,0.7-2,1.7-2H536c1,0,1.7,0.8,1.7,2v5.9
		C537.7,832.7,537.1,833.5,536,833.5z"/>
	<path class="st1" d="M508,833.5h-11.1c-1,0-1.7-0.8-1.7-2v-5.9c0-1.2,0.7-2,1.7-2h10.8c1,0,1.7,0.8,1.7,2v5.9
		C509.4,832.7,508.7,833.5,508,833.5z"/>
	<path class="st1" d="M479.6,833.5h-10.8c-1,0-1.7-0.8-1.7-2v-5.9c0-1.2,0.7-2,1.7-2h10.8c1,0,1.7,0.8,1.7,2v5.9
		C481.3,832.7,480.7,833.5,479.6,833.5z"/>
	<path class="st1" d="M451.3,833.5h-10.8c-1,0-1.7-0.8-1.7-2v-5.9c0-1.2,0.7-2,1.7-2h10.8c1,0,1.7,0.8,1.7,2v5.9
		C453,832.7,452.3,833.5,451.3,833.5z"/>
	<path class="st1" d="M422.9,833.5h-10.8c-1,0-1.7-0.8-1.7-2v-5.9c0-1.2,0.7-2,1.7-2h10.8c1,0,1.7,0.8,1.7,2v5.9
		C424.6,832.7,423.9,833.5,422.9,833.5z"/>
	<path class="st1" d="M394.9,833.5h-10.8c-1,0-1.7-0.8-1.7-2v-5.9c0-1.2,0.7-2,1.7-2h10.8c1,0,1.7,0.8,1.7,2v5.9
		C396.2,832.7,395.6,833.5,394.9,833.5z"/>
	<path class="st1" d="M366.5,833.5h-10.8c-1,0-1.7-0.8-1.7-2v-5.9c0-1.2,0.7-2,1.7-2h10.8c1,0,1.7,0.8,1.7,2v5.9
		C368.2,832.7,367.2,833.5,366.5,833.5z"/>
	<path class="st1" d="M338.1,833.5h-10.8c-1,0-1.7-0.8-1.7-2v-5.9c0-1.2,0.7-2,1.7-2h10.8c1,0,1.7,0.8,1.7,2v5.9
		C339.8,832.7,339.2,833.5,338.1,833.5z"/>
	<path class="st1" d="M309.8,833.5H299c-1,0-1.7-0.8-1.7-2v-5.9c0-1.2,0.7-2,1.7-2h10.8c1,0,1.7,0.8,1.7,2v5.9
		C311.5,832.7,310.8,833.5,309.8,833.5z"/>
	<path class="st1" d="M281.4,833.5h-10.8c-1,0-1.7-0.8-1.7-2v-5.9c0-1.2,0.7-2,1.7-2h10.8c1,0,1.7,0.8,1.7,2v5.9
		C283.1,832.7,282.4,833.5,281.4,833.5z"/>
	<path class="st1" d="M253.4,833.5h-10.8c-1,0-1.7-0.8-1.7-2v-5.9c0-1.2,0.7-2,1.7-2h10.8c1,0,1.7,0.8,1.7,2v5.9
		C255.1,832.7,254.1,833.5,253.4,833.5z"/>
	<path class="st1" d="M225,833.5h-10.8c-1,0-1.7-0.8-1.7-2v-5.9c0-1.2,0.7-2,1.7-2H225c1,0,1.7,0.8,1.7,2v5.9
		C226.7,832.7,226,833.5,225,833.5z"/>
	<path class="st1" d="M649.5,850h-10.8c-1,0-1.7-0.8-1.7-2v-5.9c0-1.2,0.7-2,1.7-2h10.8c1,0,1.7,0.8,1.7,2v5.9
		C651.2,849.2,650.5,850,649.5,850z"/>
	<path class="st1" d="M621.5,850h-10.8c-1,0-1.7-0.8-1.7-2v-5.9c0-1.2,0.7-2,1.7-2h10.8c1,0,1.7,0.8,1.7,2v5.9
		C623.2,849.2,622.2,850,621.5,850z"/>
	<path class="st1" d="M593.1,850h-10.8c-1,0-1.7-0.8-1.7-2v-5.9c0-1.2,0.7-2,1.7-2h10.8c1,0,1.7,0.8,1.7,2v5.9
		C594.8,849.2,594.1,850,593.1,850z"/>
	<path class="st1" d="M564.8,850H554c-1,0-1.7-0.8-1.7-2v-5.9c0-1.2,0.7-2,1.7-2h10.8c1,0,1.7,0.8,1.7,2v5.9
		C566.4,849.2,565.8,850,564.8,850z"/>
	<path class="st1" d="M536.4,850h-10.8c-1,0-1.7-0.8-1.7-2v-5.9c0-1.2,0.7-2,1.7-2h10.8c1,0,1.7,0.8,1.7,2v5.9
		C538.1,849.2,537.4,850,536.4,850z"/>
	<path class="st1" d="M508.4,850h-10.8c-1,0-1.7-0.8-1.7-2v-5.9c0-1.2,0.7-2,1.7-2h10.8c1,0,1.7,0.8,1.7,2v5.9
		C509.7,849.2,509,850,508.4,850z"/>
	<path class="st1" d="M480,850h-10.8c-1,0-1.7-0.8-1.7-2v-5.9c0-1.2,0.7-2,1.7-2H480c1,0,1.7,0.8,1.7,2v5.9
		C481.7,849.2,481,850,480,850z"/>
	<path class="st1" d="M451.6,850h-10.8c-1,0-1.7-0.8-1.7-2v-5.9c0-1.2,0.7-2,1.7-2h10.8c1,0,1.7,0.8,1.7,2v5.9
		C453.3,849.2,452.6,850,451.6,850z"/>
	<path class="st1" d="M423.2,850h-10.8c-1,0-1.7-0.8-1.7-2v-5.9c0-1.2,0.7-2,1.7-2h10.8c1,0,1.7,0.8,1.7,2v5.9
		C424.9,849.2,424.3,850,423.2,850z"/>
	<path class="st1" d="M395.2,850h-10.8c-1,0-1.7-0.8-1.7-2v-5.9c0-1.2,0.7-2,1.7-2h10.8c1,0,1.7,0.8,1.7,2v5.9
		C396.6,849.2,395.9,850,395.2,850z"/>
	<path class="st1" d="M366.8,850H356c-1,0-1.7-0.8-1.7-2v-5.9c0-1.2,0.7-2,1.7-2h10.8c1,0,1.7,0.8,1.7,2v5.9
		C368.5,849.2,367.5,850,366.8,850z"/>
	<path class="st1" d="M338.5,850h-10.8c-1,0-1.7-0.8-1.7-2v-5.9c0-1.2,0.7-2,1.7-2h10.8c1,0,1.7,0.8,1.7,2v5.9
		C340.2,849.2,339.5,850,338.5,850z"/>
	<path class="st1" d="M310.1,850h-10.8c-1,0-1.7-0.8-1.7-2v-5.9c0-1.2,0.7-2,1.7-2h10.8c1,0,1.7,0.8,1.7,2v5.9
		C311.8,849.2,311.1,850,310.1,850z"/>
	<path class="st1" d="M281.7,850h-10.8c-1,0-1.7-0.8-1.7-2v-5.9c0-1.2,0.7-2,1.7-2h10.8c1,0,1.7,0.8,1.7,2v5.9
		C283.4,849.2,282.8,850,281.7,850z"/>
	<path class="st1" d="M253.7,850h-10.8c-1,0-1.7-0.8-1.7-2v-5.9c0-1.2,0.7-2,1.7-2h10.8c1,0,1.7,0.8,1.7,2v5.9
		C255.4,849.2,254.4,850,253.7,850z"/>
	<path class="st1" d="M225.3,850h-10.8c-1,0-1.7-0.8-1.7-2v-5.9c0-1.2,0.7-2,1.7-2h10.8c1,0,1.7,0.8,1.7,2v5.9
		C227,849.2,226.4,850,225.3,850z"/>
	<path class="st1" d="M513.8,869.6H404c-1,0-1.7-0.8-1.7-2v-5.9c0-1.2,0.7-2,1.7-2h109.8c1,0,1.7,0.8,1.7,2v5.9
		C515.4,868.8,514.8,869.6,513.8,869.6z"/>
</g>
<g>
	<g>
		<path class="st4" d="M180.9,967.8L136,905.1l141.5-99.4l58.4-57.1c24-23.5,64.8-25.3,91.5-4.2c8.4,6.5,14.5,15.2,18.2,24.4l0,0
			c10.8,29.2-6.4,60.7-39.2,71.4l-92.2,30.1L180.9,967.8z"/>
		<path class="st1" d="M-542.5,629.5l0.7,2.1l0,0l22,58.9l25.3,68.1l47.6,127.9l0.3,19.9l0,0l3.4,159.8l-9.8,21.7l11.1,35.4
			c0,0-5.1-53.6-32.4-22.9c-15.5,17.6-33.4,35.4-48.3,52.4c21.6,7.7,43.6,14.6,65.9,20.8c4.7,1.5,9.8,2.7,14.5,3.9
			c1,0.3,2,0.6,3,0.9c74,19.3,150.3,30.1,227.6,32.1c4.1,0,7.8,0.3,11.8,0.3c1.4,0,2.7,0,4.1,0c4.4,0,8.4,0,12.8,0
			c8.8,0,17.2,0,26-0.3c63.8-1.5,127.3-9.2,189.5-22.6c-0.3-22.6-1.7-48.8-3.4-77.1c-0.7-13.7-18.2-28.9-19.2-43.1
			c-0.7-11,14.9-21.1,13.8-32.1c-5.4-67.8-11.8-42-16.5-89.9c-0.3-4.8-1-9.2-1.4-13.7c-3-30.9-5.4-50.3-5.4-50.3l20.6-115.1
			L53.5,586l-2.4-3.6l-2.7-1.2l-171.6-75l-9.5-21.1c-5.4-12.5-19.2-20.5-34.1-20.5l-113.1-0.3c-11.8,0-23,5.1-30.1,13.4l-30.7,37.5
			L-542.5,629.5z"/>
		<path class="st1" d="M-420.6,858.3l-25.7,48.2l-17.6,33l-30.1,138.7l-15.2,14l-12.8-50l-135.1,26.5c-4.4-21.7-1.4,0.6-4.1-23.2
			c0.7-0.6,1.7-1.5,2.4-2.1c2-1.8,4.1-3.6,4.1-5.1c-1.7-82.1,3-221.7,41.5-306.5c6.1-13.7,14.2-26.8,23.6-39
			c0.7-0.9,1.4-1.8,2.4-2.7c17.9-22,29-43.4,44.9-58.9l0,0l0.3-0.3l0,0l109.4-51.2l4.7,116.3l3.4,83.6L-420.6,858.3z"/>
		<path class="st1" d="M-25.4,872l32.1,60.4l11.1,21.1l30.1,138.7l14.9,14l12.8-50l6.1-1.2l109.8-19.9l32.1,89.3
			c14.9-21.7,10.1-49.7-11.1-66.9c-2-1.8-4.1-3.6-4.1-5.1c1.7-96.4-4.7-272.8-65.5-345.4c-19.4-23-30.9-45.9-47.8-62l0,0l-40.9-58.9
			l-2.4-3.6l-2.7-1.2L-25.4,872z"/>
		<ellipse id="a657ec4b-47ce-4d2a-9c58-81a811696ca9" class="st4" cx="-219.3" cy="303.4" rx="150.6" ry="132.7"/>
		<path class="st3" d="M-16,210.9c-2.4-2.1-5.7-3.6-9.1-3.6l2.4-5.7c2.4-5.4-0.7-11.6-7.1-13.4c-2-0.6-4.4-0.9-6.4-0.6l-8.1,1.5
			l0.7-4.8c1-5.7-3.7-11-10.1-11.9c-2-0.3-4.1,0-5.7,0.6c-3.7,1.2-7.8,0.9-10.8-0.6c-3.4-1.5-5.7-4.5-6.4-7.7l-2.7-12.2l-0.3-0.6
			c-13.8-20.5-40.9-35.4-73.6-41.1c-29.4-4.8-59.4-2.4-88.1,0c-11.5,0.9-24.3,2.1-35.1,7.7c-9.1,5.1-16.9,14.9-15.2,25
			c-28.7-7.7-59.1,7.7-74.3,27.1c-17.9,23.2-20.9,52.1-21.3,74.7c-1.4,53.6,11.1,97.3,37.1,130c2,2.4,2.4,7.4,6.1,8.9l-0.7-1.2
			c4.1,1.8,8.4,4.8,6.8,8c-4.4,9.2,25.7,29.5,46.9,36c38.8,12.2,90.8,11.3,127,6.8l1.4-7.4c13.2-1.5,22.3-4.5,25-9.2
			c4.7-3.6,8.4-6.5,11.8-9.5l0,0c0,0,0.3,0,0.3-0.3c16.5-14,20.3-21.7,22-33.9c1.7-11.9-1.4-23.8-4.4-34.5
			c63.2,8.6-25-59.5,34.1-72.6c0.7-0.3,1.4-0.3,2-0.3c1.7-0.3,3.4-0.6,5.1-1.2c8.1-1.8,15.5-4.8,22.6-8.6
			c16.5-8.9,22-20.5,30.4-33.9C-11.9,218.9-12.6,214.2-16,210.9z"/>
	</g>
	<path class="st3" d="M312.9,881.3c0,5.4,0,12.5-0.3,21.4c0,1.2,0,2.4,0,3.9c-0.3,16.7-1,30.3-1.7,45.8c0,1.2,0,2.1,0,3.3
		c-1,21.4-2.4,46.7-5.1,86.3c-4.7,73.5-13.2,10.1-21.3,35.7c-0.3,1.2-1,2.7-1.4,4.5c-1.4,6.5-3.4,12.8-6.4,18.7
		c-4.4,2.4-9.1,4.5-13.5,6.8c-12.8,6.2-25.7,12.2-38.8,18.1c-7.4,3.3-14.9,6.2-22.3,9.5c-1,0.6-2.4,0.9-3.4,1.5
		c-38.2,15.5-77.3,28.6-117.5,39.6c-7.8,2.1-15.5,4.2-23.6,6c-8.1,2.1-16.5,3.9-24.7,5.7c-62.1,13.4-125.6,21.1-189.5,22.6
		c-8.4,0.3-17.2,0.3-26,0.3c-4.4,0-8.4,0-12.8,0c-1.4,0-2.7,0-4.1,0c-3.7,0-7.8,0-11.8-0.3c-77-2.1-153.7-13.1-227.3-32.1l-3-0.9
		c-4.7-1.2-9.8-2.7-14.5-3.9c-22.3-6.2-44.2-13.1-65.9-20.8c-16.5-6-32.8-12.2-49-18.7c0,0-0.3,0-0.3-0.3c-3.4-1.5-6.8-2.7-10.1-4.2
		c-0.3-0.3-1-0.3-1.4-0.6c-12.5-5.4-25-11-37.5-17c-10.5-21.1-25-25-34.1-43.4c-2.7-5.4-4.4-11.3-5.7-17c0,0,0,0,0-0.3
		c1,11-4.1-19.6,0,0c0-0.3,0-0.9,0-1.2c0-1.2-0.3-2.4-0.3-3.9c-11.5-99.7-10.8-213.6-15.9-307.7c-0.3-6-0.7-11.9-1-17.6
		c0-1.8-0.3-3.6-0.3-5.4c0.3-0.6,0.3-1.2,0.7-1.5c0-0.3,0-0.3,0.3-0.6c0-0.3,0.3-0.3,0.3-0.6c0,0,0-0.3,0.3-0.3v-0.3
		c0.3-0.3,0.7-0.9,1-1.2c0-0.3,0.3-0.3,0.3-0.6s0.3-0.3,0.3-0.3l0.3-0.3l0.3-0.3c0,0,0-0.3,0.3-0.3c0.3-0.3,0.7-0.6,1-0.9
		c1.4-0.9,2.4-1.8,3.7-2.7c0.3-0.3,1-0.6,1.4-0.9c3.4-1.8,7.1-3.3,10.8-4.5c1.4-0.3,2.7-0.9,4.1-1.2c0.3,0,1-0.3,1.4-0.3
		c0.7-0.3,1.4-0.3,2.4-0.6c3.7-0.9,8.1-1.8,12.5-2.7c0.7,0,1-0.3,1.7-0.3s1.7-0.3,2.4-0.3c1-0.3,2.4-0.3,3.4-0.6
		c10.1-1.5,21.3-2.4,34.1-3c1.4,0,2.4,0,3.4-0.3c1.4,0,2.7,0,4.1-0.3c1.4,0,2.4,0,3.7,0s2.4,0,3.7,0c3.4,0,6.8-0.3,10.5-0.3
		c10.1-0.3,20.9,0,32.1,0c5.1,0,10.5,0.3,16.2,0.6c0.3,0,0.7,0,1,0c4.7,0,9.5,0.3,14.5,0.6c3.4,0,6.8,0.3,10.5,0.6
		c3.4,0.3,6.4,0.3,9.8,0.6c2.7,0,5.1,0.3,7.8,0.6c2.4,0,4.4,0.3,6.8,0.3l3,0.3c1.7,0,3.4,0.3,5.1,0.3c3.7,0.3,7.4,0.6,11.1,0.9
		c3.7,0.3,7.4,0.6,11.5,0.9s7.8,0.6,11.5,0.9c0.3,0,0.7,0,1,0c3.4,0.3,7.1,0.6,10.5,0.9c0.7,0,1.7,0,2.4,0.3
		c3.4,0.3,6.8,0.6,10.1,0.9c1,0,2,0.3,3,0.3c2.7,0.3,5.4,0.6,8.1,0.9c3.4,0.3,7.1,0.6,10.8,1.2c2.7,0.3,5.4,0.6,8.1,0.9
		c4.4,0.6,8.8,0.9,12.8,1.5c1.7,0.3,3.4,0.3,5.1,0.6c12.5,1.5,25,3,37.8,4.5c19.2,2.4,38.8,5.1,58.8,7.7c19.9,3,39.9,6,59.8,8.9
		c5.1,0.9,10.1,1.5,15.2,2.4c2.4,0.3,4.7,0.9,6.8,1.2c4.1,0.6,7.8,1.2,11.8,2.1c4.1,0.6,7.8,1.2,11.8,2.1c4.7,0.9,9.5,1.5,14.2,2.4
		c30.7,5.4,61.1,11,91.2,17c5.1,0.9,9.8,2.1,14.5,3c9.8,2.1,19.2,3.9,29,6c2.7,0.6,5.1,1.2,7.8,1.8c6.4,1.5,12.8,3,19.2,4.5l1,0.3
		c4.7,0.9,9.5,2.1,13.8,3c10.8,2.4,21.6,5.1,32.1,7.4c7.1,1.8,13.8,3.3,20.6,5.1c10.1,2.7,20.3,5.4,29.7,7.7
		c2.4,0.6,4.7,1.2,7.1,2.1c7.1,2.1,14.2,3.9,20.9,6c5.4,1.5,10.8,3,15.9,4.8c5.1,1.5,10.1,3.3,15.2,4.8c3.4,0.9,6.4,2.1,9.5,3
		c4.4,1.5,9.1,3,13.5,4.5c1.4,0.6,2.7,0.9,4.1,1.5c1,0.3,1.7,0.6,2.4,0.9c1.7,0.6,3.4,1.2,4.7,1.8c1.7,0.6,3,1.2,4.7,1.8
		s3,1.2,4.4,1.8c1.7,0.6,3,1.2,4.4,1.8s2.4,0.9,3.7,1.5c2.4,0.9,4.7,1.8,7.1,2.7c1,0.6,2.4,0.9,3.4,1.5l2.7,1.2
		c0.3,0.3,0.7,0.3,1,0.6c1,0.3,1.7,0.9,2.7,1.2c2,0.9,4.1,1.8,5.7,2.4c2.7,1.2,5.1,2.4,7.4,3.3c2.4,1.2,4.7,2.4,7.1,3.3
		c0.3,0.3,0.7,0.3,1,0.6c0.7,0.3,1,0.6,1.7,0.9c1.7,0.9,3.4,1.8,5.1,2.7c3.4,1.8,6.4,3.6,9.1,5.4c0.7,0.3,1.4,0.9,2,1.2
		c2,1.5,4.1,2.7,6.1,3.9l0,0c0.7,0.3,1.4,0.9,1.7,1.2c0.7,0.3,1,0.9,1.7,1.2c1.7,1.5,3.4,2.7,4.7,3.9c0.3,0.3,1,0.9,1.4,1.2
		c0.3,0,0.3,0.3,0.7,0.6c0.7,0.6,1.4,1.2,1.7,1.8c0,0,0,0.3,0.3,0.3c0.7,0.9,1.7,1.8,2.4,2.4c0.3,0.3,0.7,0.9,1,1.2
		c0.3,0.6,0.7,0.9,1,1.5c0.3,0.3,0.7,0.9,1,1.2c0.7,1.2,1.4,2.1,1.7,3.3c0.3,0.9,0.7,1.5,1,2.4C312.6,879.8,312.9,880.7,312.9,881.3
		z"/>
	<path class="st5" d="M312.9,881.3c0,5.4,0,12.5-0.3,21.4c0,1.2,0,2.4,0,3.9c-0.3,12.8-1,28.3-1.7,45.8c0,1.2,0,2.1,0,3.3
		c-1,21.4-2.4,46.7-5.1,86.3c-4.7,73.5-13.2,10.1-21.3,35.7c-23.3-12.5-48.6-25.6-75.6-39.3c-4.7-2.4-9.8-4.8-14.9-7.4
		c-54.4-26.8-114.8-54.7-178.3-82.4c-2.4-1.2-5.1-2.1-7.4-3.3C-136.9,882.2-295,820.6-423.3,779.6c-24.7-8-48.3-15.2-70.6-21.4
		c-46.9-13.1-87.1-22.3-118.5-26.5c-32.4-4.2-54.7-2.7-63.8,6c-0.3-6-0.7-11.9-1-17.6c0-1.8-0.3-3.6-0.3-5.4
		c0.3-0.6,0.3-0.9,0.7-1.5c0,0,0,0,0-0.3s0-0.3,0.3-0.6c0-0.3,0.3-0.3,0.3-0.6s0.3-0.3,0.3-0.6c0.3-0.3,0.7-0.9,1-1.2s0.7-0.6,1-0.9
		l0.3-0.3l0.3-0.3c0,0,0-0.3,0.3-0.3c0.3-0.3,0.7-0.6,1-0.9c1.4-0.9,2.4-1.8,3.7-2.7c0.3-0.3,1-0.6,1.4-0.9
		c3.4-1.8,7.1-3.3,10.8-4.5c1.4-0.3,2.7-0.9,4.1-1.2c0.3,0,1-0.3,1.4-0.3c0.7-0.3,1.4-0.3,2.4-0.6c3.7-0.9,8.1-1.8,12.5-2.7
		c1.4-0.3,2.7-0.6,4.1-0.6c1-0.3,2.4-0.3,3.4-0.6c10.1-1.5,21.3-2.4,34.1-3c1.4,0,2.4,0,3.4-0.3c1.4,0,2.7,0,4.1-0.3
		c1.4,0,2.4,0,3.7,0c1.4,0,2.4,0,3.7,0c3.4,0,6.8-0.3,10.5-0.3c10.1,0,20.9,0,32.1,0c5.1,0,10.5,0.3,16.2,0.6c0.3,0,0.7,0,1,0
		c4.7,0,9.5,0.3,14.5,0.6c3.4,0,6.8,0.3,10.5,0.6c3.4,0.3,6.4,0.3,9.8,0.6c2.7,0,5.1,0.3,7.8,0.6c2.4,0,4.4,0.3,6.8,0.3
		c2.7,0.3,5.4,0.3,8.1,0.6c3.7,0.3,7.4,0.6,11.1,0.9c3.7,0.3,7.4,0.6,11.5,0.9c4.1,0.3,7.8,0.6,11.5,0.9c0.3,0,0.7,0,1,0
		c3.4,0.3,7.1,0.6,10.5,0.9c19.6,1.8,39.9,3.9,60.8,6.2c12.5,1.5,25,3,37.8,4.5c19.2,2.4,38.8,5.1,58.8,7.7c19.9,3,39.9,6,59.8,8.9
		c5.1,0.9,10.1,1.5,15.2,2.4c6.1,0.9,12.5,2.1,18.6,3c4.1,0.6,7.8,1.2,11.8,2.1c4.7,0.9,9.5,1.5,14.2,2.4c30.7,5.4,61.1,11,91.2,17
		c5.1,0.9,9.8,2.1,14.5,3c9.8,2.1,19.2,3.9,29,6c2.7,0.6,5.1,1.2,7.8,1.8c6.4,1.5,12.8,3,19.2,4.2l0,0c0.3,0,0.7,0,1,0.3
		c4.7,0.9,9.5,2.1,13.8,3.3c10.8,2.4,21.6,5.1,32.1,7.4c7.1,1.8,13.8,3.6,20.6,5.1c10.1,2.7,20.3,5.4,29.7,7.7
		c2.4,0.6,4.7,1.2,7.1,2.1c7.1,2.1,14.2,3.9,20.9,6c5.4,1.5,10.8,3,15.9,4.8c5.1,1.5,10.1,3.3,15.2,4.8c3.4,0.9,6.4,2.1,9.5,3
		c4.7,1.5,9.1,3,13.5,4.5c1.4,0.6,2.7,0.9,4.1,1.5c2.4,0.9,4.7,1.8,7.1,2.7c1.7,0.6,3,1.2,4.7,1.8s3,1.2,4.4,1.8
		c1.7,0.6,3,1.2,4.4,1.8s2.4,0.9,3.7,1.5c2.4,0.9,4.7,1.8,7.1,2.7c1,0.6,2.4,0.9,3.4,1.5l2.7,1.2c0.3,0.3,0.7,0.3,1,0.6
		c2.7,1.2,5.7,2.4,8.4,3.6c2.7,1.2,5.1,2.4,7.4,3.3c2.7,1.2,5.4,2.7,8.1,3.9c0.7,0.3,1,0.6,1.7,0.9c1.7,0.9,3.4,1.8,5.1,2.7
		c3.4,1.8,6.4,3.6,9.1,5.4c2.7,1.8,5.4,3.6,7.8,5.1l0,0c1,0.9,2.4,1.8,3.4,2.4c1.7,1.5,3.4,2.7,4.7,3.9c0.3,0.3,1,0.9,1.4,1.2
		c0.3,0,0.3,0.3,0.7,0.6c0.7,0.6,1.4,1.5,2,2.1c0.7,0.9,1.7,1.8,2.4,2.4c0.3,0.3,0.7,0.9,1,1.2c0.3,0.6,0.7,0.9,1,1.5
		c0.3,0.3,0.7,0.9,1,1.2c0.7,1.2,1.4,2.1,1.7,3.3c0.3,0.9,0.7,1.5,1,2.4C312.6,879.8,312.9,880.7,312.9,881.3z"/>
</g>
</svg>
