<?xml version="1.0" encoding="utf-8"?>
<!-- Generator: Adobe Illustrator 24.0.1, SVG Export Plug-In . SVG Version: 6.00 Build 0)  -->
<svg version="1.1" id="Layer_1" xmlns="http://www.w3.org/2000/svg" xmlns:xlink="http://www.w3.org/1999/xlink" x="0px" y="0px"
	 viewBox="0 0 786.8 572.3" style="enable-background:new 0 0 786.8 572.3;" xml:space="preserve">
<style type="text/css">
	.st0{fill:#F2F2F2;}
	.st1{fill:#3F3D56;}
	.st2{fill:#FFFFFF;}
	.st3{fill:#2F2E41;}
	.st4{fill:#FFB6B6;}
	.st5{opacity:0.2;enable-background:new    ;}
</style>
<ellipse class="st0" cx="373.1" cy="-50.8" rx="34.5" ry="36.1"/>
<path class="st0" d="M640.4,520.5c51.2-40.8,75.6-109.4,60.4-174.9c-0.4-1.6-0.8-3.2-1.2-4.9c-10.2-38.9-35.2-75.8-71.9-88.2
	c-30.7-10.4-64.3-2.4-96.4-6.6c-63-8.1-111.7-61.4-146.1-117.2S324.5,10.4,279-35.7c-75.2-76-197.9-92.4-291.1-42.9
	C-105.4-29.1-164.8,80.6-162.3,190c2.6,109.4,64.5,213.9,154.7,269.4c33.2,20.4,71.4,34.8,109.4,29.7c33-4.3,63.1-23,96-28.5
	c51.7-8.6,103.1,15.8,147.9,44.3c44.8,28.5,88,62.4,138.8,75.6C533.9,593.5,595.1,556.5,640.4,520.5z"/>
<path class="st1" d="M566.8-76.3c-1.2-0.8-2.3-1.5-3.4-2.3c-32.4-21.7-67.2-39.4-103.6-52.5L451.5-9.4H398V-149
	c-3.4-0.7-6.7-1.5-10.2-2V-9.4h-63.6c-72.9,0-132-61.9-132-138.2l0,0c-3.4,0.8-6.8,1.6-10.2,2.4V-9.5h-51.7l-8-116.1
	c-37.4,15-72.9,34.7-105.7,58.7c-0.5,0.4-1.2,0.8-1.7,1.2c-2.8,2.2-5.7,4.2-8.5,6.3v464.8H159l-2.7-39.2l-14.8-214.7h298.8
	l-14.8,214.7l-2.7,39.2h151v-477C571.3-73.2,569.1-74.7,566.8-76.3z M182.1,116.5H139L131,1.3h51.1V116.5z M387.7,116.5h-72.4v-2.3
	c0-4.6-3.6-8.4-8-8.4l0,0H276c-4.4,0-8,3.8-8,8.4l0,0v2.3h-75.7V1.3h195.5L387.7,116.5z M397.9,116.5V1.3h52.8l-8,115.2H397.9z"/>
<path class="st1" d="M590.9,435.4h-4.1c-0.4,0-0.6-0.3-0.6-0.7v-2c0-0.4,0.3-0.7,0.6-0.7h4.1c0.4,0,0.6,0.3,0.6,0.7v2
	C591.6,435.1,591.3,435.4,590.9,435.4z"/>
<path class="st2" d="M-120,448.3h3.6c1.2,0,2.1,0.9,2.1,2.2l0,0c0,1.2-0.9,2.2-2.1,2.2h-3.6c-1.2,0-2.1-0.9-2.1-2.2l0,0
	C-122,449.2-121.1,448.3-120,448.3z"/>
<path class="st2" d="M-78,448.3h3.6c1.2,0,2.1,0.9,2.1,2.2l0,0c0,1.2-0.9,2.2-2.1,2.2H-78c-1.2,0-2.1-0.9-2.1-2.2l0,0
	C-80,449.2-79.1,448.3-78,448.3z"/>
<path class="st2" d="M-66.1,448.3h3.6c1.2,0,2.1,0.9,2.1,2.2l0,0c0,1.2-0.9,2.2-2.1,2.2h-3.6c-1.2,0-2.1-0.9-2.1-2.2l0,0
	C-68.1,449.2-67.2,448.3-66.1,448.3z"/>
<path class="st2" d="M-108.6,448h22.8c1.2,0,2.1,0.9,2.1,2.2l0,0c0,1.2-0.9,2.2-2.1,2.2h-22.8c-1.2,0-2.1-0.9-2.1-2.2l0,0
	C-110.5,448.9-109.6,448-108.6,448z"/>
<path class="st2" d="M-108.7,457.9h3.6c1.2,0,2.1,0.9,2.1,2.2l0,0c0,1.2-0.9,2.2-2.1,2.2h-3.6c-1.2,0-2.1-0.9-2.1-2.2l0,0
	C-110.8,458.8-109.9,457.9-108.7,457.9z"/>
<path class="st2" d="M-66.8,457.9h3.6c1.2,0,2.1,0.9,2.1,2.2l0,0c0,1.2-0.9,2.2-2.1,2.2h-3.6c-1.2,0-2.1-0.9-2.1-2.2l0,0
	C-68.9,458.8-68,457.9-66.8,457.9z"/>
<path class="st2" d="M-54.9,457.9h3.6c1.2,0,2.1,0.9,2.1,2.2l0,0c0,1.2-0.9,2.2-2.1,2.2h-3.6c-1.2,0-2.1-0.9-2.1-2.2l0,0
	C-57,458.8-56.1,457.9-54.9,457.9z"/>
<path class="st2" d="M-97.4,457.5h22.8c1.2,0,2.1,0.9,2.1,2.2l0,0c0,1.2-0.9,2.2-2.1,2.2h-22.8c-1.2,0-2.1-0.9-2.1-2.2l0,0
	C-99.3,458.4-98.5,457.5-97.4,457.5z"/>
<path class="st2" d="M-97.6,467.3h3.6c1.2,0,2.1,0.9,2.1,2.2l0,0c0,1.2-0.9,2.2-2.1,2.2h-3.6c-1.2,0-2.1-0.9-2.1-2.2l0,0
	C-99.6,468.3-98.7,467.3-97.6,467.3z"/>
<path class="st2" d="M-86.4,476.9h3.6c1.2,0,2.1,0.9,2.1,2.2l0,0c0,1.2-0.9,2.2-2.1,2.2h-3.6c-1.2,0-2.1-0.9-2.1-2.2l0,0
	C-88.5,477.8-87.6,476.9-86.4,476.9z"/>
<path class="st2" d="M-44.5,476.9h3.6c1.2,0,2.1,0.9,2.1,2.2l0,0c0,1.2-0.9,2.2-2.1,2.2h-3.6c-1.2,0-2.1-0.9-2.1-2.2l0,0
	C-46.4,477.8-45.5,476.9-44.5,476.9z"/>
<path class="st2" d="M-32.6,476.9h3.6c1.2,0,2.1,0.9,2.1,2.2l0,0c0,1.2-0.9,2.2-2.1,2.2h-3.6c-1.2,0-2.1-0.9-2.1-2.2l0,0
	C-34.5,477.8-33.6,476.9-32.6,476.9z"/>
<path class="st2" d="M-74.9,476.5h22.8c1.2,0,2.1,0.9,2.1,2.2l0,0c0,1.2-0.9,2.2-2.1,2.2h-22.8c-1.2,0-2.1-0.9-2.1-2.2l0,0
	C-77,477.4-76.1,476.5-74.9,476.5z"/>
<path class="st1" d="M28.9,438.9v13.4c0,1.5,1.2,2.6,2.5,2.6h88.3c1.4,0,2.5-1.2,2.5-2.6v-13.4H28.9z"/>
<path class="st1" d="M673.9,363.3c1.2,6.8,13.7,11.5,28.9,10.5c13.9-0.7,25.3-5.8,27.4-11.9c-0.8-0.3-1.5-0.4-2.3-0.3l-52.6,1.5
	C674.8,363.1,674.3,363.1,673.9,363.3z"/>
<g>
	<path class="st3" d="M676.8,444.7c1.2,3.5,4.4,5.9,8,5.8l34.2-0.9c3.6-0.1,6.7-2.7,7.7-6.3l4.8-54c1.7,0.8,3.6,1.2,5.4,1.2
		c6.8-0.1,12.3-6.2,12.1-13.4c-0.1-7.2-5.9-12.8-12.8-12.7c-0.8,0-1.5,0.1-2.2,0.3c-1.7-1.9-3.9-2.8-6.3-2.8l-52.6,1.5
		c-0.4,0-0.9,0.1-1.3,0.1c-4.5,0.8-7.4,5.4-6.6,10c0.1,0.4,0.1,0.8,0.3,1.1L676.8,444.7z M732.5,385.5l3.5-13c0.4-1.5,0.4-3.1,0-4.6
		c0.1,0,0.3-0.1,0.5-0.1c4.9-0.1,9,4.1,9.2,9.2c0.1,5.1-3.7,9.5-8.6,9.6C735.3,386.6,733.8,386.3,732.5,385.5z"/>
	<path d="M705.5,415c0.1,0,0.1,0,0.3-0.1l7.5-5.1c0.3-0.3,0.4-0.7,0.1-0.9c0-0.1-0.1-0.1-0.1-0.1l-7.7-5.3c-0.3-0.3-0.6-0.1-0.9,0.1
		c-0.3,0.3-0.1,0.7,0.1,0.9l6.8,4.7l-6.6,4.5c-0.3,0.3-0.4,0.7-0.1,0.9C705,414.8,705.3,415,705.5,415L705.5,415z"/>
	<path d="M693.8,415.5c0.4-0.1,0.5-0.4,0.5-0.8c0-0.1-0.1-0.3-0.3-0.4l-6.8-4.1l6.6-5.1c0.3-0.3,0.4-0.7,0.1-0.9
		c-0.3-0.3-0.6-0.4-0.9-0.1l-7.4,5.8c-0.3,0.3-0.4,0.7-0.1,0.9c0,0.1,0.1,0.1,0.3,0.1l7.7,4.6C693.5,415.5,693.7,415.5,693.8,415.5z
		"/>
	<path d="M710.5,424.4c0,0,0.2,0,0.2-0.2c0.4-0.2,0.6-1,0.4-1.4l0,0l-15.9-27.3c-0.2-0.4-1-0.6-1.4-0.4s-0.6,1-0.4,1.4l15.9,27.3
		C709.8,424.2,710.1,424.4,710.5,424.4z"/>
</g>
<g>
	<path class="st3" d="M473.5,298.6V437h92.8V298.6c0-2-1.3-3.9-3.1-4.5c-0.4-0.1-0.9-0.3-1.3-0.3h-83.7
		C475.5,293.9,473.5,296.1,473.5,298.6L473.5,298.6z M509.7,346.2c0-5.7,4.5-10.3,9.9-10.3s9.8,4.6,9.8,10.3v16.1
		c0,5.7-4.5,10.4-9.9,10.3c-5.4,0-9.8-4.6-9.8-10.3V346.2z"/>
	<path class="st1" d="M327.7,90v253c0,6.8,5.2,12.2,11.6,12.2h358.1c6.5,0,11.6-5.4,11.6-12.2V90c0-6.8-5.2-12.2-11.6-12.2H339.3
		C332.9,77.8,327.7,83.2,327.7,90z"/>
	<path class="st2" d="M336.1,93.1v246.6c0,3.6,2.8,6.5,6.2,6.5h352.1c3.5,0,6.2-3,6.2-6.5V93.1c0-3.6-2.8-6.5-6.2-6.5H342.3
		C338.8,86.6,336.1,89.4,336.1,93.1z"/>
	<path class="st3" d="M401.4,447.7c0.8,0.9,1.8,1.5,3,1.5h209.4c2.1,0,3.9-1.8,3.9-4.1c0-0.3,0-0.5-0.1-0.8l-3.2-16.2
		c-0.3-1.4-1.2-2.4-2.5-3c-0.4-0.1-0.9-0.3-1.4-0.3H407.6c-0.5,0-0.9,0.1-1.4,0.3c-1.2,0.5-2.1,1.6-2.5,3l-3.2,16.2
		C400.4,445.6,400.6,446.8,401.4,447.7z"/>
</g>
<path class="st1" d="M-213.1,442.8c11.2,13.9,23.4,27,36.3,39.2l942.7,1.4c12.9-12.2,25-25.3,36.3-39.2L-213.1,442.8z"/>
<g>
	<path class="st1" d="M-28.8,318.7v115.7c0,3.1,2.3,5.5,5.3,5.5h163.9c3,0,5.3-2.4,5.3-5.5V318.7c0-3.1-2.3-5.5-5.3-5.5H-23.5
		C-26.4,313.2-28.8,315.6-28.8,318.7z"/>
	<path d="M-24.9,320.2v112.9c0,1.6,1.3,3,2.8,3h161.2c1.5,0,2.8-1.4,2.8-3V320.2c0-1.6-1.3-3-2.8-3H-22.1
		C-23.6,317.2-24.9,318.4-24.9,320.2z"/>
	<path class="st3" d="M-32.2,457c0.6,0.8,1.5,1.2,2.5,1.2h175.5c1.8,0,3.2-1.5,3.2-3.4c0-0.3,0-0.4-0.1-0.7l-2.7-13.5
		c-0.3-1.1-1-2-2.1-2.4c-0.4-0.1-0.8-0.3-1.2-0.3H-27c-0.4,0-0.8,0.1-1.2,0.3c-1,0.4-1.8,1.4-2.1,2.4l-2.7,13.5
		C-33.1,455.2-32.8,456.2-32.2,457z"/>
	<path class="st1" d="M130.4,443.7h-4.1c-0.4,0-0.6-0.3-0.6-0.7v-2c0-0.4,0.3-0.7,0.6-0.7h4.1c0.4,0,0.6,0.3,0.6,0.7v2
		C131.1,443.5,130.7,443.7,130.4,443.7z"/>
	<path class="st1" d="M119.6,443.7h-4.1c-0.4,0-0.6-0.3-0.6-0.7v-2c0-0.4,0.3-0.7,0.6-0.7h4.1c0.4,0,0.6,0.3,0.6,0.7v2
		C120.2,443.5,120,443.7,119.6,443.7z"/>
	<path class="st1" d="M108.7,443.7h-4.1c-0.4,0-0.6-0.3-0.6-0.7v-2c0-0.4,0.3-0.7,0.6-0.7h4.1c0.4,0,0.6,0.3,0.6,0.7v2
		C109.4,443.5,109.1,443.7,108.7,443.7z"/>
	<path class="st1" d="M97.9,443.7h-4.1c-0.4,0-0.6-0.3-0.6-0.7v-2c0-0.4,0.3-0.7,0.6-0.7h4.1c0.4,0,0.6,0.3,0.6,0.7v2
		C98.5,443.5,98.3,443.7,97.9,443.7z"/>
	<path class="st1" d="M87.2,443.7h-4.3c-0.4,0-0.6-0.3-0.6-0.7v-2c0-0.4,0.3-0.7,0.6-0.7H87c0.4,0,0.6,0.3,0.6,0.7v2
		C87.7,443.5,87.4,443.7,87.2,443.7z"/>
	<path class="st1" d="M76.3,443.7h-4.1c-0.4,0-0.6-0.3-0.6-0.7v-2c0-0.4,0.3-0.7,0.6-0.7h4.1c0.4,0,0.6,0.3,0.6,0.7v2
		C77,443.5,76.7,443.7,76.3,443.7z"/>
	<path class="st1" d="M65.5,443.7h-4.1c-0.4,0-0.6-0.3-0.6-0.7v-2c0-0.4,0.3-0.7,0.6-0.7h4.1c0.4,0,0.6,0.3,0.6,0.7v2
		C66.2,443.5,65.9,443.7,65.5,443.7z"/>
	<path class="st1" d="M54.7,443.7h-4.1c-0.4,0-0.6-0.3-0.6-0.7v-2c0-0.4,0.3-0.7,0.6-0.7h4.1c0.4,0,0.6,0.3,0.6,0.7v2
		C55.3,443.5,55.1,443.7,54.7,443.7z"/>
	<path class="st1" d="M44,443.7h-4.1c-0.4,0-0.6-0.3-0.6-0.7v-2c0-0.4,0.3-0.7,0.6-0.7H44c0.4,0,0.6,0.3,0.6,0.7v2
		C44.5,443.5,44.2,443.7,44,443.7z"/>
	<path class="st1" d="M33.1,443.7H29c-0.4,0-0.6-0.3-0.6-0.7v-2c0-0.4,0.3-0.7,0.6-0.7h4.1c0.4,0,0.6,0.3,0.6,0.7v2
		C33.8,443.5,33.4,443.7,33.1,443.7z"/>
	<path class="st1" d="M22.3,443.7h-4.1c-0.4,0-0.6-0.3-0.6-0.7v-2c0-0.4,0.3-0.7,0.6-0.7h4.1c0.4,0,0.6,0.3,0.6,0.7v2
		C22.9,443.5,22.7,443.7,22.3,443.7z"/>
	<path class="st1" d="M11.4,443.7H7.3c-0.4,0-0.6-0.3-0.6-0.7v-2c0-0.4,0.3-0.7,0.6-0.7h4.1c0.4,0,0.6,0.3,0.6,0.7v2
		C12.1,443.5,11.8,443.7,11.4,443.7z"/>
	<path class="st1" d="M0.6,443.7h-4.1c-0.4,0-0.6-0.3-0.6-0.7v-2c0-0.4,0.3-0.7,0.6-0.7h4.1c0.4,0,0.6,0.3,0.6,0.7v2
		C1.3,443.5,1,443.7,0.6,443.7z"/>
	<path class="st1" d="M-10.1,443.7h-4.1c-0.4,0-0.6-0.3-0.6-0.7v-2c0-0.4,0.3-0.7,0.6-0.7h4.1c0.4,0,0.6,0.3,0.6,0.7v2
		C-9.5,443.5-9.8,443.7-10.1,443.7z"/>
	<path class="st1" d="M-20.9,443.7H-25c-0.4,0-0.6-0.3-0.6-0.7v-2c0-0.4,0.3-0.7,0.6-0.7h4.1c0.4,0,0.6,0.3,0.6,0.7v2
		C-20.3,443.5-20.6,443.7-20.9,443.7z"/>
	<path class="st1" d="M141.3,449.4h-4.1c-0.4,0-0.6-0.3-0.6-0.7v-2c0-0.4,0.3-0.7,0.6-0.7h4.1c0.4,0,0.6,0.3,0.6,0.7v2
		C141.9,449.1,141.6,449.4,141.3,449.4z"/>
	<path class="st1" d="M130.5,449.4h-4.1c-0.4,0-0.6-0.3-0.6-0.7v-2c0-0.4,0.3-0.7,0.6-0.7h4.1c0.4,0,0.6,0.3,0.6,0.7v2
		C131.2,449.1,130.8,449.4,130.5,449.4z"/>
	<path class="st1" d="M119.7,449.4h-4.1c-0.4,0-0.6-0.3-0.6-0.7v-2c0-0.4,0.3-0.7,0.6-0.7h4.1c0.4,0,0.6,0.3,0.6,0.7v2
		C120.3,449.1,120.1,449.4,119.7,449.4z"/>
	<path class="st1" d="M108.9,449.4h-4.1c-0.4,0-0.6-0.3-0.6-0.7v-2c0-0.4,0.3-0.7,0.6-0.7h4.1c0.4,0,0.6,0.3,0.6,0.7v2
		C109.5,449.1,109.3,449.4,108.9,449.4z"/>
	<path class="st1" d="M98,449.4h-4.1c-0.4,0-0.6-0.3-0.6-0.7v-2c0-0.4,0.3-0.7,0.6-0.7H98c0.4,0,0.6,0.3,0.6,0.7v2
		C98.7,449.1,98.4,449.4,98,449.4z"/>
	<path class="st1" d="M87.3,449.4h-4.1c-0.4,0-0.6-0.3-0.6-0.7v-2c0-0.4,0.3-0.7,0.6-0.7h4.1c0.4,0,0.6,0.3,0.6,0.7v2
		C87.8,449.1,87.6,449.4,87.3,449.4z"/>
	<path class="st1" d="M76.5,449.4h-4.1c-0.4,0-0.6-0.3-0.6-0.7v-2c0-0.4,0.3-0.7,0.6-0.7h4.1c0.4,0,0.6,0.3,0.6,0.7v2
		C77.1,449.1,76.9,449.4,76.5,449.4z"/>
	<path class="st1" d="M65.6,449.4h-4.1c-0.4,0-0.6-0.3-0.6-0.7v-2c0-0.4,0.3-0.7,0.6-0.7h4.1c0.4,0,0.6,0.3,0.6,0.7v2
		C66.3,449.1,66,449.4,65.6,449.4z"/>
	<path class="st1" d="M54.8,449.4h-4.1c-0.4,0-0.6-0.3-0.6-0.7v-2c0-0.4,0.3-0.7,0.6-0.7h4.1c0.4,0,0.6,0.3,0.6,0.7v2
		C55.4,449.1,55.2,449.4,54.8,449.4z"/>
	<path class="st1" d="M44.1,449.4H40c-0.4,0-0.6-0.3-0.6-0.7v-2c0-0.4,0.3-0.7,0.6-0.7h4.1c0.4,0,0.6,0.3,0.6,0.7v2
		C44.6,449.1,44.3,449.4,44.1,449.4z"/>
	<path class="st1" d="M33.3,449.4h-4.1c-0.4,0-0.6-0.3-0.6-0.7v-2c0-0.4,0.3-0.7,0.6-0.7h4.1c0.4,0,0.6,0.3,0.6,0.7v2
		C33.9,449.1,33.5,449.4,33.3,449.4z"/>
	<path class="st1" d="M22.4,449.4h-4.1c-0.4,0-0.6-0.3-0.6-0.7v-2c0-0.4,0.3-0.7,0.6-0.7h4.1c0.4,0,0.6,0.3,0.6,0.7v2
		C23.1,449.1,22.8,449.4,22.4,449.4z"/>
	<path class="st1" d="M11.6,449.4H7.4c-0.4,0-0.6-0.3-0.6-0.7v-2c0-0.4,0.3-0.7,0.6-0.7h4.1c0.4,0,0.6,0.3,0.6,0.7v2
		C12.2,449.1,12,449.4,11.6,449.4z"/>
	<path class="st1" d="M0.7,449.4h-4.1c-0.4,0-0.6-0.3-0.6-0.7v-2c0-0.4,0.3-0.7,0.6-0.7h4.1c0.4,0,0.6,0.3,0.6,0.7v2
		C1.4,449.1,1.1,449.4,0.7,449.4z"/>
	<path class="st1" d="M-10,449.4h-4.1c-0.4,0-0.6-0.3-0.6-0.7v-2c0-0.4,0.3-0.7,0.6-0.7h4.1c0.4,0,0.6,0.3,0.6,0.7v2
		C-9.3,449.1-9.7,449.4-10,449.4z"/>
	<path class="st1" d="M-20.8,449.4h-4.1c-0.4,0-0.6-0.3-0.6-0.7v-2c0-0.4,0.3-0.7,0.6-0.7h4.1c0.4,0,0.6,0.3,0.6,0.7v2
		C-20.2,449.1-20.4,449.4-20.8,449.4z"/>
	<path class="st1" d="M89.4,456.2h-42c-0.4,0-0.6-0.3-0.6-0.7v-2c0-0.4,0.3-0.7,0.6-0.7h41.9c0.4,0,0.6,0.3,0.6,0.7v2
		C90,455.9,89.8,456.2,89.4,456.2z"/>
	<path class="st2" d="M-0.7,341.8h3.6c1.2,0,2.1,0.9,2.1,2.2l0,0c0,1.2-0.9,2.2-2.1,2.2h-3.6c-1.2,0-2.1-0.9-2.1-2.2l0,0
		C-2.7,342.7-1.8,341.8-0.7,341.8z"/>
	<path class="st2" d="M41.3,341.8h3.6c1.2,0,2.1,0.9,2.1,2.2l0,0c0,1.2-0.9,2.2-2.1,2.2h-3.6c-1.2,0-2.1-0.9-2.1-2.2l0,0
		C39.3,342.7,40.2,341.8,41.3,341.8z"/>
	<path class="st2" d="M53.1,341.8h3.6c1.2,0,2.1,0.9,2.1,2.2l0,0c0,1.2-0.9,2.2-2.1,2.2h-3.6c-1.2,0-2.1-0.9-2.1-2.2l0,0
		C51.2,342.7,52.1,341.8,53.1,341.8z"/>
	<path class="st2" d="M10.7,341.5h22.8c1.2,0,2.1,0.9,2.1,2.2l0,0c0,1.2-0.9,2.2-2.1,2.2H10.7c-1.2,0-2.1-0.9-2.1-2.2l0,0
		C8.7,342.5,9.6,341.5,10.7,341.5z"/>
	<path class="st2" d="M66.7,341.5h22.8c1.2,0,2.1,0.9,2.1,2.2l0,0c0,1.2-0.9,2.2-2.1,2.2H66.7c-1.2,0-2.1-0.9-2.1-2.2l0,0
		C64.6,342.5,65.5,341.5,66.7,341.5z"/>
	<path class="st2" d="M10.5,351.4h3.6c1.2,0,2.1,0.9,2.1,2.2l0,0c0,1.2-0.9,2.2-2.1,2.2h-3.6c-1.2,0-2.1-0.9-2.1-2.2l0,0
		C8.5,352.3,9.4,351.4,10.5,351.4z"/>
	<path class="st2" d="M52.5,351.4h3.6c1.2,0,2.1,0.9,2.1,2.2l0,0c0,1.2-0.9,2.2-2.1,2.2h-3.6c-1.2,0-2.1-0.9-2.1-2.2l0,0
		C50.4,352.3,51.3,351.4,52.5,351.4z"/>
	<path class="st2" d="M64.3,351.4H68c1.2,0,2.1,0.9,2.1,2.2l0,0c0,1.2-0.9,2.2-2.1,2.2h-3.6c-1.2,0-2.1-0.9-2.1-2.2l0,0
		C62.3,352.3,63.2,351.4,64.3,351.4z"/>
	<path class="st2" d="M21.9,351h22.8c1.2,0,2.1,0.9,2.1,2.2l0,0c0,1.2-0.9,2.2-2.1,2.2H21.9c-1.2,0-2.1-0.9-2.1-2.2l0,0
		C20,351.9,20.7,351,21.9,351z"/>
	<path class="st2" d="M77.9,351h22.8c1.2,0,2.1,0.9,2.1,2.2l0,0c0,1.2-0.9,2.2-2.1,2.2H77.9c-1.2,0-2.1-0.9-2.1-2.2l0,0
		C75.8,351.9,76.7,351,77.9,351z"/>
	<path class="st2" d="M21.6,360.8h3.6c1.2,0,2.1,0.9,2.1,2.2l0,0c0,1.2-0.9,2.2-2.1,2.2h-3.6c-1.2,0-2.1-0.9-2.1-2.2l0,0
		C19.7,361.8,20.6,360.8,21.6,360.8z"/>
	<path class="st2" d="M63.7,360.8h3.6c1.2,0,2.1,0.9,2.1,2.2l0,0c0,1.2-0.9,2.2-2.1,2.2h-3.6c-1.2,0-2.1-0.9-2.1-2.2l0,0
		C61.6,361.8,62.5,360.8,63.7,360.8z"/>
	<path class="st2" d="M75.6,360.8h3.6c1.2,0,2.1,0.9,2.1,2.2l0,0c0,1.2-0.9,2.2-2.1,2.2h-3.6c-1.2,0-2.1-0.9-2.1-2.2l0,0
		C73.5,361.8,74.4,360.8,75.6,360.8z"/>
	<path class="st2" d="M33.1,360.6H56c1.2,0,2.1,0.9,2.1,2.2l0,0c0,1.2-0.9,2.2-2.1,2.2H33.1c-1.2,0-2.1-0.9-2.1-2.2l0,0
		C31.1,361.5,32,360.6,33.1,360.6z"/>
	<path class="st2" d="M89,360.6h22.8c1.2,0,2.1,0.9,2.1,2.2l0,0c0,1.2-0.9,2.2-2.1,2.2H89c-1.2,0-2.1-0.9-2.1-2.2l0,0
		C87.1,361.5,88,360.6,89,360.6z"/>
	<path class="st2" d="M32.9,370.4h3.6c1.2,0,2.1,0.9,2.1,2.2l0,0c0,1.2-0.9,2.2-2.1,2.2h-3.6c-1.2,0-2.1-0.9-2.1-2.2l0,0
		C30.8,371.4,31.7,370.4,32.9,370.4z"/>
	<path class="st2" d="M74.8,370.4h3.6c1.2,0,2.1,0.9,2.1,2.2l0,0c0,1.2-0.9,2.2-2.1,2.2h-3.6c-1.2,0-2.1-0.9-2.1-2.2l0,0
		C72.9,371.4,73.8,370.4,74.8,370.4z"/>
	<path class="st2" d="M86.7,370.4h3.6c1.2,0,2.1,0.9,2.1,2.2l0,0c0,1.2-0.9,2.2-2.1,2.2h-3.6c-1.2,0-2.1-0.9-2.1-2.2l0,0
		C84.7,371.4,85.6,370.4,86.7,370.4z"/>
	<path class="st2" d="M44.3,370h22.8c1.2,0,2.1,0.9,2.1,2.2l0,0c0,1.2-0.9,2.2-2.1,2.2H44.3c-1.2,0-2.1-0.9-2.1-2.2l0,0
		C42.3,371,43.2,370,44.3,370z"/>
	<path class="st2" d="M41.3,408.2h3.6c1.2,0,2.1,0.9,2.1,2.2l0,0c0,1.2-0.9,2.2-2.1,2.2h-3.6c-1.2,0-2.1-0.9-2.1-2.2l0,0
		C39.3,409.2,40.2,408.2,41.3,408.2z"/>
	<path class="st2" d="M53.1,408.2h3.6c1.2,0,2.1,0.9,2.1,2.2l0,0c0,1.2-0.9,2.2-2.1,2.2h-3.6c-1.2,0-2.1-0.9-2.1-2.2l0,0
		C51.2,409.2,52.1,408.2,53.1,408.2z"/>
	<path class="st2" d="M66.7,408.6h22.8c1.2,0,2.1,0.9,2.1,2.2l0,0c0,1.2-0.9,2.2-2.1,2.2H66.7c-1.2,0-2.1-0.9-2.1-2.2l0,0
		C64.6,409.6,65.5,408.6,66.7,408.6z"/>
	<path class="st2" d="M-0.7,408.2h3.6c1.2,0,2.1,0.9,2.1,2.2l0,0c0,1.2-0.9,2.2-2.1,2.2h-3.6c-1.2,0-2.1-0.9-2.1-2.2l0,0
		C-2.7,409.2-1.8,408.2-0.7,408.2z"/>
	<path class="st2" d="M10.7,408.6h22.8c1.2,0,2.1,0.9,2.1,2.2l0,0c0,1.2-0.9,2.2-2.1,2.2H10.7c-1.2,0-2.1-0.9-2.1-2.2l0,0
		C8.7,409.6,9.6,408.6,10.7,408.6z"/>
	<path class="st2" d="M10.5,398.8h3.6c1.2,0,2.1,0.9,2.1,2.2l0,0c0,1.2-0.9,2.2-2.1,2.2h-3.6c-1.2,0-2.1-0.9-2.1-2.2l0,0
		C8.5,399.6,9.4,398.8,10.5,398.8z"/>
	<path class="st2" d="M52.5,398.8h3.6c1.2,0,2.1,0.9,2.1,2.2l0,0c0,1.2-0.9,2.2-2.1,2.2h-3.6c-1.2,0-2.1-0.9-2.1-2.2l0,0
		C50.4,399.6,51.3,398.8,52.5,398.8z"/>
	<path class="st2" d="M64.3,398.8H68c1.2,0,2.1,0.9,2.1,2.2l0,0c0,1.2-0.9,2.2-2.1,2.2h-3.6c-1.2,0-2.1-0.9-2.1-2.2l0,0
		C62.3,399.6,63.2,398.8,64.3,398.8z"/>
	<path class="st2" d="M21.9,399h22.8c1.2,0,2.1,0.9,2.1,2.2l0,0c0,1.2-0.9,2.2-2.1,2.2H21.9c-1.2,0-2.1-0.9-2.1-2.2l0,0
		C20,400,20.7,399,21.9,399z"/>
	<path class="st2" d="M21.6,389.2h3.6c1.2,0,2.1,0.9,2.1,2.2l0,0c0,1.2-0.9,2.2-2.1,2.2h-3.6c-1.2,0-2.1-0.9-2.1-2.2l0,0
		C19.7,390.1,20.6,389.2,21.6,389.2z"/>
	<path class="st2" d="M63.7,389.2h3.6c1.2,0,2.1,0.9,2.1,2.2l0,0c0,1.2-0.9,2.2-2.1,2.2h-3.6c-1.2,0-2.1-0.9-2.1-2.2l0,0
		C61.6,390.1,62.5,389.2,63.7,389.2z"/>
	<path class="st2" d="M75.6,389.2h3.6c1.2,0,2.1,0.9,2.1,2.2l0,0c0,1.2-0.9,2.2-2.1,2.2h-3.6c-1.2,0-2.1-0.9-2.1-2.2l0,0
		C73.5,390.1,74.4,389.2,75.6,389.2z"/>
	<path class="st2" d="M33.1,389.6H56c1.2,0,2.1,0.9,2.1,2.2l0,0c0,1.2-0.9,2.2-2.1,2.2H33.1c-1.2,0-2.1-0.9-2.1-2.2l0,0
		C31.1,390.5,32,389.6,33.1,389.6z"/>
	<path class="st2" d="M32.9,379.7h3.6c1.2,0,2.1,0.9,2.1,2.2l0,0c0,1.2-0.9,2.2-2.1,2.2h-3.6c-1.2,0-2.1-0.9-2.1-2.2l0,0
		C30.8,380.7,31.7,379.7,32.9,379.7z"/>
	<path class="st2" d="M74.8,379.7h3.6c1.2,0,2.1,0.9,2.1,2.2l0,0c0,1.2-0.9,2.2-2.1,2.2h-3.6c-1.2,0-2.1-0.9-2.1-2.2l0,0
		C72.9,380.7,73.8,379.7,74.8,379.7z"/>
	<path class="st2" d="M86.7,379.7h3.6c1.2,0,2.1,0.9,2.1,2.2l0,0c0,1.2-0.9,2.2-2.1,2.2h-3.6c-1.2,0-2.1-0.9-2.1-2.2l0,0
		C84.7,380.7,85.6,379.7,86.7,379.7z"/>
	<path class="st2" d="M44.3,380h22.8c1.2,0,2.1,0.9,2.1,2.2l0,0c0,1.2-0.9,2.2-2.1,2.2H44.3c-1.2,0-2.1-0.9-2.1-2.2l0,0
		C42.3,380.9,43.2,380,44.3,380z"/>
</g>
<g>
	<path class="st3" d="M438.9,467.9c0.6,1.1,1.5,1.6,2.5,1.6h175.5c1.8,0,3.2-2,3.2-4.4c0-0.4,0-0.5-0.1-0.9l-2.7-17.8
		c-0.3-1.4-1-2.7-2.1-3.2c-0.4-0.2-0.8-0.4-1.2-0.4H444.1c-0.4,0-0.8,0.2-1.2,0.4c-1,0.5-1.8,1.8-2.1,3.2l-2.7,17.8
		C438,465.6,438.3,466.8,438.9,467.9z"/>
	<path class="st1" d="M601.5,450.4h-4.1c-0.4,0-0.6-0.4-0.6-0.9v-2.7c0-0.5,0.3-0.9,0.6-0.9h4.1c0.4,0,0.6,0.4,0.6,0.9v2.7
		C602.1,450.1,601.7,450.4,601.5,450.4z"/>
	<path class="st1" d="M590.6,450.4h-4.1c-0.4,0-0.6-0.4-0.6-0.9v-2.7c0-0.5,0.3-0.9,0.6-0.9h4.1c0.4,0,0.6,0.4,0.6,0.9v2.7
		C591.3,450.1,591,450.4,590.6,450.4z"/>
	<path class="st1" d="M579.8,450.4h-4.1c-0.4,0-0.6-0.4-0.6-0.9v-2.7c0-0.5,0.3-0.9,0.6-0.9h4.1c0.4,0,0.6,0.4,0.6,0.9v2.7
		C580.4,450.1,580.2,450.4,579.8,450.4z"/>
	<path class="st1" d="M569,450.4h-4.1c-0.4,0-0.6-0.4-0.6-0.9v-2.7c0-0.5,0.3-0.9,0.6-0.9h4.1c0.4,0,0.6,0.4,0.6,0.9v2.7
		C569.6,450.1,569.3,450.4,569,450.4z"/>
	<path class="st1" d="M558.3,450.4H554c-0.4,0-0.6-0.4-0.6-0.9v-2.7c0-0.5,0.3-0.9,0.6-0.9h4.1c0.4,0,0.6,0.4,0.6,0.9v2.7
		C558.8,450.1,558.5,450.4,558.3,450.4z"/>
	<path class="st1" d="M547.4,450.4h-4.1c-0.4,0-0.6-0.4-0.6-0.9v-2.7c0-0.5,0.3-0.9,0.6-0.9h4.1c0.4,0,0.6,0.4,0.6,0.9v2.7
		C548.1,450.1,547.8,450.4,547.4,450.4z"/>
	<path class="st1" d="M536.6,450.4h-4.1c-0.4,0-0.6-0.4-0.6-0.9v-2.7c0-0.5,0.3-0.9,0.6-0.9h4.1c0.4,0,0.6,0.4,0.6,0.9v2.7
		C537.2,450.1,537,450.4,536.6,450.4z"/>
	<path class="st1" d="M525.7,450.4h-4.1c-0.4,0-0.6-0.4-0.6-0.9v-2.7c0-0.5,0.3-0.9,0.6-0.9h4.1c0.4,0,0.6,0.4,0.6,0.9v2.7
		C526.4,450.1,526.1,450.4,525.7,450.4z"/>
	<path class="st1" d="M515,450.4h-4.1c-0.4,0-0.6-0.4-0.6-0.9v-2.7c0-0.5,0.3-0.9,0.6-0.9h4.1c0.4,0,0.6,0.4,0.6,0.9v2.7
		C515.5,450.1,515.3,450.4,515,450.4z"/>
	<path class="st1" d="M504.2,450.4h-4.1c-0.4,0-0.6-0.4-0.6-0.9v-2.7c0-0.5,0.3-0.9,0.6-0.9h4.1c0.4,0,0.6,0.4,0.6,0.9v2.7
		C504.8,450.1,504.4,450.4,504.2,450.4z"/>
	<path class="st1" d="M493.4,450.4h-4.1c-0.4,0-0.6-0.4-0.6-0.9v-2.7c0-0.5,0.3-0.9,0.6-0.9h4.1c0.4,0,0.6,0.4,0.6,0.9v2.7
		C494,450.1,493.7,450.4,493.4,450.4z"/>
	<path class="st1" d="M482.5,450.4h-4.1c-0.4,0-0.6-0.4-0.6-0.9v-2.7c0-0.5,0.3-0.9,0.6-0.9h4.1c0.4,0,0.6,0.4,0.6,0.9v2.7
		C483.2,450.1,482.9,450.4,482.5,450.4z"/>
	<path class="st1" d="M471.7,450.4h-4.1c-0.4,0-0.6-0.4-0.6-0.9v-2.7c0-0.5,0.3-0.9,0.6-0.9h4.1c0.4,0,0.6,0.4,0.6,0.9v2.7
		C472.3,450.1,472.1,450.4,471.7,450.4z"/>
	<path class="st1" d="M461,450.4h-4.1c-0.4,0-0.6-0.4-0.6-0.9v-2.7c0-0.5,0.3-0.9,0.6-0.9h4.1c0.4,0,0.6,0.4,0.6,0.9v2.7
		C461.6,450.1,461.2,450.4,461,450.4z"/>
	<path class="st1" d="M450.1,450.4H446c-0.4,0-0.6-0.4-0.6-0.9v-2.7c0-0.5,0.3-0.9,0.6-0.9h4.1c0.4,0,0.6,0.4,0.6,0.9v2.7
		C450.8,450.1,450.5,450.4,450.1,450.4z"/>
	<path class="st1" d="M612.3,457.9h-4.1c-0.4,0-0.6-0.4-0.6-0.9v-2.7c0-0.5,0.3-0.9,0.6-0.9h4.1c0.4,0,0.6,0.4,0.6,0.9v2.7
		C613,457.6,612.7,457.9,612.3,457.9z"/>
	<path class="st1" d="M601.6,457.9h-4.1c-0.4,0-0.6-0.4-0.6-0.9v-2.7c0-0.5,0.3-0.9,0.6-0.9h4.1c0.4,0,0.6,0.4,0.6,0.9v2.7
		C602.3,457.6,601.9,457.9,601.6,457.9z"/>
	<path class="st1" d="M590.8,457.9h-4.1c-0.4,0-0.6-0.4-0.6-0.9v-2.7c0-0.5,0.3-0.9,0.6-0.9h4.1c0.4,0,0.6,0.4,0.6,0.9v2.7
		C591.4,457.6,591.2,457.9,590.8,457.9z"/>
	<path class="st1" d="M579.9,457.9h-4.1c-0.4,0-0.6-0.4-0.6-0.9v-2.7c0-0.5,0.3-0.9,0.6-0.9h4.1c0.4,0,0.6,0.4,0.6,0.9v2.7
		C580.6,457.6,580.3,457.9,579.9,457.9z"/>
	<path class="st1" d="M569.1,457.9H565c-0.4,0-0.6-0.4-0.6-0.9v-2.7c0-0.5,0.3-0.9,0.6-0.9h4.1c0.4,0,0.6,0.4,0.6,0.9v2.7
		C569.7,457.6,569.5,457.9,569.1,457.9z"/>
	<path class="st1" d="M558.4,457.9h-4.1c-0.4,0-0.6-0.4-0.6-0.9v-2.7c0-0.5,0.3-0.9,0.6-0.9h4.1c0.4,0,0.6,0.4,0.6,0.9v2.7
		C558.9,457.6,558.6,457.9,558.4,457.9z"/>
	<path class="st1" d="M547.5,457.9h-4.1c-0.4,0-0.6-0.4-0.6-0.9v-2.7c0-0.5,0.3-0.9,0.6-0.9h4.1c0.4,0,0.6,0.4,0.6,0.9v2.7
		C548.2,457.6,547.9,457.9,547.5,457.9z"/>
	<path class="st1" d="M536.7,457.9h-4.1c-0.4,0-0.6-0.4-0.6-0.9v-2.7c0-0.5,0.3-0.9,0.6-0.9h4.1c0.4,0,0.6,0.4,0.6,0.9v2.7
		C537.4,457.6,537.1,457.9,536.7,457.9z"/>
	<path class="st1" d="M525.9,457.9h-4.1c-0.4,0-0.6-0.4-0.6-0.9v-2.7c0-0.5,0.3-0.9,0.6-0.9h4.1c0.4,0,0.6,0.4,0.6,0.9v2.7
		C526.5,457.6,526.3,457.9,525.9,457.9z"/>
	<path class="st1" d="M515.2,457.9H511c-0.4,0-0.6-0.4-0.6-0.9v-2.7c0-0.5,0.3-0.9,0.6-0.9h4.1c0.4,0,0.6,0.4,0.6,0.9v2.7
		C515.7,457.6,515.4,457.9,515.2,457.9z"/>
	<path class="st1" d="M504.3,457.9h-4.1c-0.4,0-0.6-0.4-0.6-0.9v-2.7c0-0.5,0.3-0.9,0.6-0.9h4.1c0.4,0,0.6,0.4,0.6,0.9v2.7
		C505,457.6,504.6,457.9,504.3,457.9z"/>
	<path class="st1" d="M493.5,457.9h-4.1c-0.4,0-0.6-0.4-0.6-0.9v-2.7c0-0.5,0.3-0.9,0.6-0.9h4.1c0.4,0,0.6,0.4,0.6,0.9v2.7
		C494.1,457.6,493.9,457.9,493.5,457.9z"/>
	<path class="st1" d="M482.6,457.9h-4.1c-0.4,0-0.6-0.4-0.6-0.9v-2.7c0-0.5,0.3-0.9,0.6-0.9h4.1c0.4,0,0.6,0.4,0.6,0.9v2.7
		C483.3,457.6,483,457.9,482.6,457.9z"/>
	<path class="st1" d="M471.8,457.9h-4.1c-0.4,0-0.6-0.4-0.6-0.9v-2.7c0-0.5,0.3-0.9,0.6-0.9h4.1c0.4,0,0.6,0.4,0.6,0.9v2.7
		C472.4,457.6,472.2,457.9,471.8,457.9z"/>
	<path class="st1" d="M461.1,457.9H457c-0.4,0-0.6-0.4-0.6-0.9v-2.7c0-0.5,0.3-0.9,0.6-0.9h4.1c0.4,0,0.6,0.4,0.6,0.9v2.7
		C461.7,457.6,461.4,457.9,461.1,457.9z"/>
	<path class="st1" d="M450.3,457.9h-4.1c-0.4,0-0.6-0.4-0.6-0.9v-2.7c0-0.5,0.3-0.9,0.6-0.9h4.1c0.4,0,0.6,0.4,0.6,0.9v2.7
		C450.9,457.6,450.6,457.9,450.3,457.9z"/>
	<path class="st1" d="M560.4,466.8h-41.9c-0.4,0-0.6-0.4-0.6-0.9v-2.7c0-0.5,0.3-0.9,0.6-0.9h41.9c0.4,0,0.6,0.4,0.6,0.9v2.7
		C561.1,466.4,560.8,466.8,560.4,466.8z"/>
</g>
<g>
	<g>
		<path class="st4" d="M433.3,511.4l-17.2-28.5l54.1-45.1l22.3-25.9c9.2-10.7,24.8-11.5,35-1.9c3.2,3,5.5,6.9,7,11.1l0,0
			c4.1,13.2-2.5,27.6-15,32.4l-35.2,13.6L433.3,511.4z"/>
		<path class="st1" d="M156.9,357.9l0.3,0.9l0,0l8.4,26.7l9.7,30.9l18.2,58.1l0.1,9l0,0l1.3,72.5l-3.7,9.9l4.3,16.1
			c0,0-1.9-24.3-12.4-10.4c-5.9,8-12.8,16.1-18.5,23.8c8.3,3.5,16.6,6.6,25.2,9.5c1.8,0.7,3.7,1.2,5.5,1.8c0.4,0.1,0.8,0.3,1.2,0.4
			c28.3,8.8,57.4,13.6,87,14.6c1.5,0,3,0.1,4.5,0.1c0.5,0,1,0,1.5,0c1.7,0,3.2,0,4.9,0c3.4,0,6.6,0,9.9-0.1
			c24.4-0.7,48.6-4.2,72.4-10.3c-0.1-10.3-0.6-22.1-1.3-35c-0.3-6.2-7-13.1-7.4-19.6c-0.3-5,5.7-9.6,5.3-14.6
			c-2.1-30.8-4.5-19-6.3-40.8c-0.1-2.2-0.4-4.2-0.5-6.2c-1.2-14-2.1-22.8-2.1-22.8l7.9-52.3l12.4-82l-0.9-1.6l-1-0.5l-65.5-34
			l-3.6-9.6c-2.1-5.7-7.4-9.3-13-9.3l-43.2-0.1c-4.5,0-8.8,2.3-11.5,6.1L234,306L156.9,357.9z"/>
		<path class="st1" d="M203.5,461.7l-9.8,21.9l-6.7,15l-11.5,62.9l-5.8,6.3l-4.9-22.7l-51.6,12c-1.7-9.9-0.5,0.3-1.5-10.5
			c0.3-0.3,0.6-0.7,0.9-0.9c0.8-0.8,1.5-1.6,1.5-2.3c-0.6-37.3,1.2-100.6,15.9-139.1c2.3-6.2,5.4-12.2,9-17.7
			c0.3-0.4,0.5-0.8,0.9-1.2c6.8-10,11.1-19.7,17.2-26.7l0,0l0.1-0.1l0,0l41.8-23.2l1.8,52.8l1.3,37.9L203.5,461.7z"/>
		<path class="st1" d="M354.4,467.9l12.3,27.4l4.3,9.6l11.5,62.9l5.7,6.3l4.9-22.7l2.3-0.5l41.9-9l12.3,40.5
			c5.7-9.9,3.9-22.6-4.3-30.4c-0.8-0.8-1.5-1.6-1.5-2.3c0.6-43.8-1.8-123.8-25-156.8c-7.4-10.4-11.7-20.8-18.2-28.1l0,0L385,338.1
			l-0.9-1.6l-1-0.5L354.4,467.9z"/>
		<ellipse id="a657ec4b-47ce-4d2a-9c58-81a811696ca9" class="st4" cx="280.4" cy="209.8" rx="57.5" ry="60.2"/>
		<path class="st3" d="M358,167.8c-0.9-0.9-2.2-1.6-3.5-1.6l0.9-2.6c0.9-2.4-0.3-5.3-2.7-6.1c-0.8-0.3-1.7-0.4-2.5-0.3l-3.1,0.7
			l0.3-2.2c0.4-2.6-1.4-5-3.9-5.4c-0.8-0.1-1.5,0-2.2,0.3c-1.4,0.5-3,0.4-4.1-0.3c-1.3-0.7-2.2-2-2.5-3.5l-1-5.5l-0.1-0.3
			c-5.3-9.3-15.6-16.1-28.1-18.6c-11.2-2.2-22.7-1.1-33.7,0c-4.4,0.4-9.3,0.9-13.4,3.5c-3.5,2.3-6.5,6.8-5.8,11.3
			c-11-3.5-22.6,3.5-28.4,12.3c-6.8,10.5-8,23.6-8.1,33.9c-0.5,24.3,4.3,44.2,14.2,59c0.8,1.1,0.9,3.4,2.3,4.1l-0.3-0.5
			c1.5,0.8,3.2,2.2,2.6,3.6c-1.7,4.2,9.8,13.4,17.9,16.3c14.8,5.5,34.7,5.1,48.5,3.1l0.5-3.4c5-0.7,8.5-2,9.5-4.2
			c1.8-1.6,3.2-3,4.5-4.3l0,0c0,0,0.1,0,0.1-0.1c6.3-6.3,7.7-9.9,8.4-15.4c0.6-5.4-0.5-10.8-1.7-15.7c24.1,3.9-9.5-27,13-33
			c0.3-0.1,0.5-0.1,0.8-0.1c0.6-0.1,1.3-0.3,1.9-0.5c3.1-0.8,5.9-2.2,8.6-3.9c6.3-4.1,8.4-9.3,11.6-15.4
			C359.6,171.5,359.3,169.3,358,167.8z"/>
	</g>
	<path class="st3" d="M483.7,472.1c0,2.4,0,5.7-0.1,9.7c0,0.5,0,1.1,0,1.8c-0.1,7.6-0.4,13.8-0.6,20.8c0,0.5,0,0.9,0,1.5
		c-0.4,9.7-0.9,21.2-1.9,39.2c-1.8,33.4-5,4.6-8.1,16.2c-0.1,0.5-0.4,1.2-0.5,2c-0.5,3-1.3,5.8-2.5,8.5c-1.7,1.1-3.5,2-5.2,3.1
		c-4.9,2.8-9.8,5.5-14.8,8.2c-2.8,1.5-5.7,2.8-8.5,4.3c-0.4,0.3-0.9,0.4-1.3,0.7c-14.6,7-29.5,13-44.9,18c-3,0.9-5.9,1.9-9,2.7
		c-3.1,0.9-6.3,1.8-9.4,2.6c-23.7,6.1-48,9.6-72.4,10.3c-3.2,0.1-6.6,0.1-9.9,0.1c-1.7,0-3.2,0-4.9,0c-0.5,0-1,0-1.5,0
		c-1.4,0-3,0-4.5-0.1c-29.4-0.9-58.7-5.9-86.8-14.6l-1.2-0.4c-1.8-0.5-3.7-1.2-5.5-1.8c-8.5-2.8-16.9-5.9-25.2-9.5
		c-6.3-2.7-12.5-5.5-18.7-8.5c0,0-0.1,0-0.1-0.1c-1.3-0.7-2.6-1.2-3.9-1.9c-0.1-0.1-0.4-0.1-0.5-0.3c-4.8-2.4-9.5-5-14.3-7.7
		c-4-9.6-9.5-11.3-13-19.7c-1-2.4-1.7-5.1-2.2-7.7c0,0,0,0,0-0.1c0.4,5-1.5-8.9,0,0c0-0.1,0-0.4,0-0.5c0-0.5-0.1-1.1-0.1-1.8
		c-4.4-45.2-4.1-97-6.1-139.6c-0.1-2.7-0.3-5.4-0.4-8c0-0.8-0.1-1.6-0.1-2.4c0.1-0.3,0.1-0.5,0.3-0.7c0-0.1,0-0.1,0.1-0.3
		c0-0.1,0.1-0.1,0.1-0.3c0,0,0-0.1,0.1-0.1v-0.1c0.1-0.1,0.3-0.4,0.4-0.5c0-0.1,0.1-0.1,0.1-0.3s0.1-0.1,0.1-0.1l0.1-0.1l0.1-0.1
		c0,0,0-0.1,0.1-0.1c0.1-0.1,0.3-0.3,0.4-0.4c0.5-0.4,0.9-0.8,1.4-1.2c0.1-0.1,0.4-0.3,0.5-0.4c1.3-0.8,2.7-1.5,4.1-2
		c0.5-0.1,1-0.4,1.5-0.5c0.1,0,0.4-0.1,0.5-0.1c0.3-0.1,0.5-0.1,0.9-0.3c1.4-0.4,3.1-0.8,4.8-1.2c0.3,0,0.4-0.1,0.6-0.1
		c0.3,0,0.6-0.1,0.9-0.1c0.4-0.1,0.9-0.1,1.3-0.3c3.9-0.7,8.1-1.1,13-1.4c0.5,0,0.9,0,1.3-0.1c0.5,0,1,0,1.5-0.1c0.5,0,0.9,0,1.4,0
		s0.9,0,1.4,0c1.3,0,2.6-0.1,4-0.1c3.9-0.1,8,0,12.3,0c1.9,0,4,0.1,6.2,0.3c0.1,0,0.3,0,0.4,0c1.8,0,3.6,0.1,5.5,0.3
		c1.3,0,2.6,0.1,4,0.3c1.3,0.1,2.5,0.1,3.7,0.3c1,0,1.9,0.1,3,0.3c0.9,0,1.7,0.1,2.6,0.1l1.2,0.1c0.6,0,1.3,0.1,1.9,0.1
		c1.4,0.1,2.8,0.3,4.3,0.4c1.4,0.1,2.8,0.3,4.4,0.4c1.5,0.1,3,0.3,4.4,0.4c0.1,0,0.3,0,0.4,0c1.3,0.1,2.7,0.3,4,0.4
		c0.3,0,0.6,0,0.9,0.1c1.3,0.1,2.6,0.3,3.9,0.4c0.4,0,0.8,0.1,1.2,0.1c1,0.1,2.1,0.3,3.1,0.4c1.3,0.1,2.7,0.3,4.1,0.5
		c1,0.1,2.1,0.3,3.1,0.4c1.7,0.3,3.4,0.4,4.9,0.7c0.6,0.1,1.3,0.1,1.9,0.3c4.8,0.7,9.5,1.4,14.5,2c7.4,1.1,14.8,2.3,22.5,3.5
		c7.6,1.4,15.2,2.7,22.8,4.1c1.9,0.4,3.9,0.7,5.8,1.1c0.9,0.1,1.8,0.4,2.6,0.5c1.5,0.3,3,0.5,4.5,0.9c1.5,0.3,3,0.5,4.5,0.9
		c1.8,0.4,3.6,0.7,5.4,1.1c11.7,2.4,23.4,5,34.8,7.7c1.9,0.4,3.7,0.9,5.5,1.4c3.7,0.9,7.4,1.8,11.1,2.7c1,0.3,1.9,0.5,3,0.8
		c2.5,0.7,4.9,1.4,7.4,2l0.4,0.1c1.8,0.4,3.6,0.9,5.3,1.4c4.1,1.1,8.3,2.3,12.3,3.4c2.7,0.8,5.3,1.5,7.9,2.3
		c3.9,1.2,7.7,2.4,11.4,3.5c0.9,0.3,1.8,0.5,2.7,0.9c2.7,0.9,5.4,1.8,8,2.7c2.1,0.7,4.1,1.4,6.1,2.2c1.9,0.7,3.9,1.5,5.8,2.2
		c1.3,0.4,2.5,0.9,3.6,1.4c1.7,0.7,3.5,1.4,5.2,2c0.5,0.3,1,0.4,1.5,0.7c0.4,0.1,0.6,0.3,0.9,0.4c0.6,0.3,1.3,0.5,1.8,0.8
		c0.6,0.3,1.2,0.5,1.8,0.8c0.6,0.3,1.2,0.5,1.7,0.8c0.6,0.3,1.2,0.5,1.7,0.8s0.9,0.4,1.4,0.7c0.9,0.4,1.8,0.8,2.7,1.2
		c0.4,0.3,0.9,0.4,1.3,0.7l1,0.5c0.1,0.1,0.3,0.1,0.4,0.3c0.4,0.1,0.6,0.4,1,0.5c0.8,0.4,1.5,0.8,2.2,1.1c1,0.5,1.9,1.1,2.8,1.5
		c0.9,0.5,1.8,1.1,2.7,1.5c0.1,0.1,0.3,0.1,0.4,0.3c0.3,0.1,0.4,0.3,0.6,0.4c0.6,0.4,1.3,0.8,1.9,1.2c1.3,0.8,2.5,1.6,3.5,2.4
		c0.3,0.1,0.5,0.4,0.8,0.5c0.8,0.7,1.5,1.2,2.3,1.8l0,0c0.3,0.1,0.5,0.4,0.6,0.5c0.3,0.1,0.4,0.4,0.6,0.5c0.6,0.7,1.3,1.2,1.8,1.8
		c0.1,0.1,0.4,0.4,0.5,0.5c0.1,0,0.1,0.1,0.3,0.3c0.3,0.3,0.5,0.5,0.6,0.8c0,0,0,0.1,0.1,0.1c0.3,0.4,0.6,0.8,0.9,1.1
		c0.1,0.1,0.3,0.4,0.4,0.5c0.1,0.3,0.3,0.4,0.4,0.7c0.1,0.1,0.3,0.4,0.4,0.5c0.3,0.5,0.5,0.9,0.6,1.5c0.1,0.4,0.3,0.7,0.4,1.1
		C483.6,471.4,483.7,471.8,483.7,472.1z"/>
	<path class="st5" d="M483.7,472.1c0,2.4,0,5.7-0.1,9.7c0,0.5,0,1.1,0,1.8c-0.1,5.8-0.4,12.8-0.6,20.8c0,0.5,0,0.9,0,1.5
		c-0.4,9.7-0.9,21.2-1.9,39.2c-1.8,33.4-5,4.6-8.1,16.2c-8.9-5.7-18.6-11.6-28.9-17.8c-1.8-1.1-3.7-2.2-5.7-3.4
		c-20.8-12.2-43.9-24.8-68.1-37.4c-0.9-0.5-1.9-0.9-2.8-1.5C312,472.6,251.6,444.6,202.6,426c-9.4-3.6-18.5-6.9-27-9.7
		c-17.9-5.9-33.3-10.1-45.3-12c-12.4-1.9-20.9-1.2-24.4,2.7c-0.1-2.7-0.3-5.4-0.4-8c0-0.8-0.1-1.6-0.1-2.4c0.1-0.3,0.1-0.4,0.3-0.7
		c0,0,0,0,0-0.1s0-0.1,0.1-0.3c0-0.1,0.1-0.1,0.1-0.3c0-0.1,0.1-0.1,0.1-0.3c0.1-0.1,0.3-0.4,0.4-0.5s0.3-0.3,0.4-0.4l0.1-0.1
		l0.1-0.1c0,0,0-0.1,0.1-0.1c0.1-0.1,0.3-0.3,0.4-0.4c0.5-0.4,0.9-0.8,1.4-1.2c0.1-0.1,0.4-0.3,0.5-0.4c1.3-0.8,2.7-1.5,4.1-2
		c0.5-0.1,1-0.4,1.5-0.5c0.1,0,0.4-0.1,0.5-0.1c0.3-0.1,0.5-0.1,0.9-0.3c1.4-0.4,3.1-0.8,4.8-1.2c0.5-0.1,1-0.3,1.5-0.3
		c0.4-0.1,0.9-0.1,1.3-0.3c3.9-0.7,8.1-1.1,13-1.4c0.5,0,0.9,0,1.3-0.1c0.5,0,1,0,1.5-0.1c0.5,0,0.9,0,1.4,0s0.9,0,1.4,0
		c1.3,0,2.6-0.1,4-0.1c3.9,0,8,0,12.3,0c1.9,0,4,0.1,6.2,0.3c0.1,0,0.3,0,0.4,0c1.8,0,3.6,0.1,5.5,0.3c1.3,0,2.6,0.1,4,0.3
		c1.3,0.1,2.5,0.1,3.7,0.3c1,0,1.9,0.1,3,0.3c0.9,0,1.7,0.1,2.6,0.1c1,0.1,2.1,0.1,3.1,0.3c1.4,0.1,2.8,0.3,4.3,0.4
		c1.4,0.1,2.8,0.3,4.4,0.4c1.5,0.1,3,0.3,4.4,0.4c0.1,0,0.3,0,0.4,0c1.3,0.1,2.7,0.3,4,0.4c7.5,0.8,15.2,1.8,23.2,2.8
		c4.8,0.7,9.5,1.4,14.5,2c7.4,1.1,14.8,2.3,22.5,3.5c7.6,1.4,15.2,2.7,22.8,4.1c1.9,0.4,3.9,0.7,5.8,1.1c2.3,0.4,4.8,0.9,7.1,1.4
		c1.5,0.3,3,0.5,4.5,0.9c1.8,0.4,3.6,0.7,5.4,1.1c11.7,2.4,23.4,5,34.8,7.7c1.9,0.4,3.7,0.9,5.5,1.4c3.7,0.9,7.4,1.8,11.1,2.7
		c1,0.3,1.9,0.5,3,0.8c2.5,0.7,4.9,1.4,7.4,1.9l0,0c0.1,0,0.3,0,0.4,0.1c1.8,0.4,3.6,0.9,5.3,1.5c4.1,1.1,8.3,2.3,12.3,3.4
		c2.7,0.8,5.3,1.6,7.9,2.3c3.9,1.2,7.7,2.4,11.4,3.5c0.9,0.3,1.8,0.5,2.7,0.9c2.7,0.9,5.4,1.8,8,2.7c2.1,0.7,4.1,1.4,6.1,2.2
		c1.9,0.7,3.9,1.5,5.8,2.2c1.3,0.4,2.5,0.9,3.6,1.4c1.8,0.7,3.5,1.4,5.2,2c0.5,0.3,1,0.4,1.5,0.7c0.9,0.4,1.8,0.8,2.7,1.2
		c0.6,0.3,1.2,0.5,1.8,0.8c0.6,0.3,1.2,0.5,1.7,0.8c0.6,0.3,1.2,0.5,1.7,0.8s0.9,0.4,1.4,0.7c0.9,0.4,1.8,0.8,2.7,1.2
		c0.4,0.3,0.9,0.4,1.3,0.7l1,0.5c0.1,0.1,0.3,0.1,0.4,0.3c1,0.5,2.2,1.1,3.2,1.6s1.9,1.1,2.8,1.5c1,0.5,2.1,1.2,3.1,1.8
		c0.3,0.1,0.4,0.3,0.6,0.4c0.6,0.4,1.3,0.8,1.9,1.2c1.3,0.8,2.5,1.6,3.5,2.4s2.1,1.6,3,2.3l0,0c0.4,0.4,0.9,0.8,1.3,1.1
		c0.6,0.7,1.3,1.2,1.8,1.8c0.1,0.1,0.4,0.4,0.5,0.5c0.1,0,0.1,0.1,0.3,0.3c0.3,0.3,0.5,0.7,0.8,0.9c0.3,0.4,0.6,0.8,0.9,1.1
		c0.1,0.1,0.3,0.4,0.4,0.5c0.1,0.3,0.3,0.4,0.4,0.7c0.1,0.1,0.3,0.4,0.4,0.5c0.3,0.5,0.5,0.9,0.6,1.5c0.1,0.4,0.3,0.7,0.4,1.1
		C483.6,471.4,483.7,471.8,483.7,472.1z"/>
</g>
</svg>
