<?xml version="1.0" encoding="utf-8"?>
<!-- Generator: Adobe Illustrator 24.0.1, SVG Export Plug-In . SVG Version: 6.00 Build 0)  -->
<svg version="1.1" id="Layer_1" xmlns="http://www.w3.org/2000/svg" xmlns:xlink="http://www.w3.org/1999/xlink" x="0px" y="0px"
	 viewBox="0 0 786.8 572.3" style="enable-background:new 0 0 786.8 572.3;" xml:space="preserve">
<style type="text/css">
	.st0{fill:#F2F2F2;}
	.st1{fill:#3F3D56;}
	.st2{fill:#FFFFFF;}
	.st3{fill:#2F2E41;}
	.st4{fill:#FFB6B6;}
	.st5{opacity:0.2;enable-background:new    ;}
</style>
<ellipse class="st0" cx="427.6" cy="-5.4" rx="29.4" ry="31.1"/>
<path class="st0" d="M655.9,487.8c43.8-35.2,64.6-94.4,51.6-151c-0.3-1.4-0.7-2.8-1-4.2c-8.7-33.6-30.1-65.4-61.4-76.1
	c-26.2-9-54.9-2.1-82.4-5.7c-53.8-7-95.5-53.1-124.8-101.2S386,47.4,347.1,7.7C282.8-58,178-72.1,98.4-29.4
	C18.7,13.4-32.1,108-30,202.5c2.2,94.4,55.1,184.7,132.2,232.6c28.3,17.6,61,30.1,93.5,25.7c28.2-3.7,53.9-19.8,82-24.6
	c44.2-7.5,88.1,13.6,126.4,38.2s75.2,53.9,118.6,65.3C565,550.9,617.2,518.9,655.9,487.8z"/>
<path class="st1" d="M593.1-27.4c-1-0.7-2-1.3-2.9-2c-27.7-18.8-57.4-34-88.5-45.4l-7.2,105.2h-45.8V-90.2c-2.9-0.6-5.7-1.3-8.7-1.7
	V30.4h-54.4c-62.3,0-112.8-53.4-112.8-119.3l0,0c-2.9,0.7-5.8,1.4-8.7,2.1V30.3H220L213.1-70c-32,12.9-62.3,30-90.3,50.7
	c-0.4,0.3-1,0.7-1.4,1c-2.4,1.9-4.9,3.6-7.3,5.5v401.3h130.4l-2.3-33.8l-12.7-185.4h255.3l-12.7,185.4l-2.3,33.8h129V-23.4
	C596.9-24.8,595.1-26,593.1-27.4z M264.3,139.1h-36.8l-6.8-99.5h43.7v99.5H264.3z M440.1,139.1h-61.9v-2c0-4-3.1-7.2-6.8-7.2l0,0
	h-26.8c-3.7,0-6.8,3.3-6.8,7.2l0,0v2H273V39.6h167L440.1,139.1z M448.8,139.1V39.6h45.1l-6.8,99.5H448.8z"/>
<path class="st1" d="M613.7,414.4h-3.5c-0.3,0-0.6-0.2-0.6-0.6V412c0-0.3,0.2-0.6,0.6-0.6h3.5c0.3,0,0.6,0.2,0.6,0.6v1.7
	C614.2,414.1,614,414.4,613.7,414.4z"/>
<path class="st2" d="M6.3,425.5h3.1c1,0,1.8,0.8,1.8,1.9l0,0c0,1-0.8,1.9-1.8,1.9H6.3c-1,0-1.8-0.8-1.8-1.9l0,0
	C4.5,426.3,5.3,425.5,6.3,425.5z"/>
<path class="st2" d="M42.1,425.5h3.1c1,0,1.8,0.8,1.8,1.9l0,0c0,1-0.8,1.9-1.8,1.9h-3.1c-1,0-1.8-0.8-1.8-1.9l0,0
	C40.4,426.3,41.2,425.5,42.1,425.5z"/>
<path class="st2" d="M52.2,425.5h3.1c1,0,1.8,0.8,1.8,1.9l0,0c0,1-0.8,1.9-1.8,1.9h-3.1c-1,0-1.8-0.8-1.8-1.9l0,0
	C50.6,426.3,51.3,425.5,52.2,425.5z"/>
<path class="st2" d="M16,425.3h19.5c1,0,1.8,0.8,1.8,1.9l0,0c0,1-0.8,1.9-1.8,1.9H16c-1,0-1.8-0.8-1.8-1.9l0,0
	C14.3,426.1,15.1,425.3,16,425.3z"/>
<path class="st2" d="M15.8,433.8h3.1c1,0,1.8,0.8,1.8,1.9l0,0c0,1-0.8,1.9-1.8,1.9h-3.1c-1,0-1.8-0.8-1.8-1.9l0,0
	C14.1,434.6,14.9,433.8,15.8,433.8z"/>
<path class="st2" d="M51.7,433.8h3.1c1,0,1.8,0.8,1.8,1.9l0,0c0,1-0.8,1.9-1.8,1.9h-3.1c-1,0-1.8-0.8-1.8-1.9l0,0
	C49.9,434.6,50.7,433.8,51.7,433.8z"/>
<path class="st2" d="M61.8,433.8h3.1c1,0,1.8,0.8,1.8,1.9l0,0c0,1-0.8,1.9-1.8,1.9h-3.1c-1,0-1.8-0.8-1.8-1.9l0,0
	C60.1,434.6,60.8,433.8,61.8,433.8z"/>
<path class="st2" d="M25.5,433.4H45c1,0,1.8,0.8,1.8,1.9l0,0c0,1-0.8,1.9-1.8,1.9H25.5c-1,0-1.8-0.8-1.8-1.9l0,0
	C23.9,434.2,24.6,433.4,25.5,433.4z"/>
<path class="st2" d="M25.3,441.9h3.1c1,0,1.8,0.8,1.8,1.9l0,0c0,1-0.8,1.9-1.8,1.9h-3.1c-1,0-1.8-0.8-1.8-1.9l0,0
	C23.7,442.7,24.4,441.9,25.3,441.9z"/>
<path class="st2" d="M34.9,450.2H38c1,0,1.8,0.8,1.8,1.9l0,0c0,1-0.8,1.9-1.8,1.9h-3.1c-1,0-1.8-0.8-1.8-1.9l0,0
	C33.2,451,33.9,450.2,34.9,450.2z"/>
<path class="st2" d="M70.7,450.2h3.1c1,0,1.8,0.8,1.8,1.9l0,0c0,1-0.8,1.9-1.8,1.9h-3.1c-1,0-1.8-0.8-1.8-1.9l0,0
	C69.1,451,69.9,450.2,70.7,450.2z"/>
<path class="st2" d="M80.9,450.2H84c1,0,1.8,0.8,1.8,1.9l0,0c0,1-0.8,1.9-1.8,1.9h-3.1c-1,0-1.8-0.8-1.8-1.9l0,0
	C79.2,451,80,450.2,80.9,450.2z"/>
<path class="st2" d="M44.7,449.9h19.5c1,0,1.8,0.8,1.8,1.9l0,0c0,1-0.8,1.9-1.8,1.9H44.7c-1,0-1.8-0.8-1.8-1.9l0,0
	C43,450.7,43.7,449.9,44.7,449.9z"/>
<path class="st1" d="M133.4,417.4v11.5c0,1.3,1,2.2,2.1,2.2h75.4c1.2,0,2.1-1,2.1-2.2v-11.5H133.4z"/>
<path class="st1" d="M684.6,352.1c1,5.8,11.7,9.9,24.7,9.1c11.9-0.6,21.6-5,23.4-10.3c-0.7-0.2-1.3-0.3-2-0.2l-45,1.3
	C685.4,352,684.9,352,684.6,352.1z"/>
<g>
	<path class="st3" d="M687,422.4c1,3,3.7,5.1,6.8,5l29.2-0.8c3.1-0.1,5.7-2.3,6.6-5.5l4.1-46.6c1.4,0.7,3.1,1,4.6,1
		c5.8-0.1,10.5-5.4,10.4-11.5s-5.1-11.1-10.9-11c-0.7,0-1.3,0.1-1.9,0.2c-1.4-1.6-3.3-2.4-5.4-2.4l-45,1.3c-0.3,0-0.8,0.1-1.1,0.1
		c-3.9,0.7-6.3,4.7-5.6,8.6c0.1,0.3,0.1,0.7,0.2,0.9L687,422.4z M734.6,371.3l3-11.2c0.3-1.3,0.3-2.7,0-4c0.1,0,0.2-0.1,0.4-0.1
		c4.2-0.1,7.7,3.5,7.8,7.9s-3.2,8.2-7.4,8.3C737.1,372.3,735.7,372,734.6,371.3z"/>
	<path d="M711.6,396.7c0.1,0,0.1,0,0.2-0.1l6.4-4.4c0.2-0.2,0.3-0.6,0.1-0.8c0-0.1-0.1-0.1-0.1-0.1l-6.6-4.5
		c-0.2-0.2-0.6-0.1-0.8,0.1s-0.1,0.6,0.1,0.8l5.8,4.1l-5.6,3.8c-0.2,0.2-0.3,0.6-0.1,0.8C711.2,396.6,711.4,396.7,711.6,396.7
		L711.6,396.7z"/>
	<path d="M701.6,397.2c0.3-0.1,0.4-0.3,0.4-0.7c0-0.1-0.1-0.2-0.2-0.3l-5.8-3.5l5.6-4.4c0.2-0.2,0.3-0.6,0.1-0.8s-0.6-0.3-0.8-0.1
		l-6.3,5c-0.2,0.2-0.3,0.6-0.1,0.8c0,0.1,0.1,0.1,0.2,0.1l6.6,4C701.3,397.2,701.5,397.2,701.6,397.2z"/>
	<path d="M715.9,404.9c0,0,0.2,0,0.2-0.2c0.3-0.2,0.5-0.9,0.3-1.2l0,0L702.8,380c-0.2-0.4-0.8-0.5-1.2-0.4c-0.3,0.2-0.5,0.9-0.3,1.2
		l13.6,23.5C715.2,404.7,715.6,404.9,715.9,404.9z"/>
</g>
<g>
	<path class="st3" d="M513.4,296.3v119.5h79.3V296.3c0-1.7-1.1-3.4-2.6-3.8c-0.3-0.1-0.8-0.2-1.1-0.2h-71.6
		C515,292.2,513.4,294.1,513.4,296.3L513.4,296.3z M544.2,337.3c0-4.9,3.9-8.9,8.5-8.9s8.4,4,8.4,8.9v13.9c0,4.9-3.9,9-8.5,8.9
		c-4.6,0-8.4-4-8.4-8.9V337.3z"/>
	<path class="st1" d="M388.8,116.1v218.4c0,5.8,4.4,10.5,9.9,10.5h306c5.5,0,9.9-4.7,9.9-10.5V116.1c0-5.8-4.4-10.5-9.9-10.5h-306
		C393.2,105.7,388.8,110.3,388.8,116.1z"/>
	<path class="st2" d="M395.9,118.8v212.9c0,3.1,2.4,5.6,5.3,5.6h300.9c3,0,5.3-2.6,5.3-5.6V118.8c0-3.1-2.4-5.6-5.3-5.6H401.2
		C398.3,113.2,395.9,115.7,395.9,118.8z"/>
	<path class="st3" d="M451.7,425c0.7,0.8,1.5,1.3,2.5,1.3h178.9c1.8,0,3.3-1.5,3.3-3.5c0-0.2,0-0.5-0.1-0.7l-2.8-14
		c-0.2-1.2-1-2.1-2.1-2.6c-0.3-0.1-0.8-0.2-1.2-0.2H457c-0.4,0-0.8,0.1-1.2,0.2c-1,0.5-1.8,1.4-2.1,2.6l-2.8,14
		C450.9,423.2,451.1,424.2,451.7,425z"/>
</g>
<path class="st1" d="M-73.3,420.8c9.6,12,20,23.3,31,33.8l805.5,1.2c11-10.5,21.4-21.8,31-33.8L-73.3,420.8z"/>
<g>
	<path class="st1" d="M84.1,313.6v99.9c0,2.7,2,4.8,4.5,4.8h140c2.5,0,4.5-2.1,4.5-4.8v-99.9c0-2.7-2-4.8-4.5-4.8h-140
		C86.2,308.8,84.1,310.9,84.1,313.6z"/>
	<path d="M87.4,314.9v97.5c0,1.4,1.1,2.6,2.4,2.6h137.7c1.3,0,2.4-1.2,2.4-2.6v-97.5c0-1.4-1.1-2.6-2.4-2.6H89.9
		C88.5,312.3,87.4,313.4,87.4,314.9z"/>
	<path class="st3" d="M81.3,433c0.6,0.7,1.3,1,2.1,1h149.9c1.5,0,2.8-1.3,2.8-2.9c0-0.2,0-0.3-0.1-0.6l-2.3-11.7
		c-0.2-0.9-0.9-1.7-1.8-2.1c-0.3-0.1-0.7-0.2-1-0.2H85.7c-0.3,0-0.7,0.1-1,0.2c-0.9,0.3-1.5,1.2-1.8,2.1l-2.3,11.7
		C80.5,431.5,80.7,432.3,81.3,433z"/>
	<path class="st1" d="M220.2,421.6h-3.5c-0.3,0-0.6-0.2-0.6-0.6v-1.7c0-0.3,0.2-0.6,0.6-0.6h3.5c0.3,0,0.6,0.2,0.6,0.6v1.7
		C220.7,421.3,220.4,421.6,220.2,421.6z"/>
	<path class="st1" d="M210.9,421.6h-3.5c-0.3,0-0.6-0.2-0.6-0.6v-1.7c0-0.3,0.2-0.6,0.6-0.6h3.5c0.3,0,0.6,0.2,0.6,0.6v1.7
		C211.5,421.3,211.3,421.6,210.9,421.6z"/>
	<path class="st1" d="M201.7,421.6h-3.5c-0.3,0-0.6-0.2-0.6-0.6v-1.7c0-0.3,0.2-0.6,0.6-0.6h3.5c0.3,0,0.6,0.2,0.6,0.6v1.7
		C202.2,421.3,202,421.6,201.7,421.6z"/>
	<path class="st1" d="M192.4,421.6h-3.5c-0.3,0-0.6-0.2-0.6-0.6v-1.7c0-0.3,0.2-0.6,0.6-0.6h3.5c0.3,0,0.6,0.2,0.6,0.6v1.7
		C193,421.3,192.7,421.6,192.4,421.6z"/>
	<path class="st1" d="M183.2,421.6h-3.6c-0.3,0-0.6-0.2-0.6-0.6v-1.7c0-0.3,0.2-0.6,0.6-0.6h3.5c0.3,0,0.6,0.2,0.6,0.6v1.7
		C183.7,421.3,183.5,421.6,183.2,421.6z"/>
	<path class="st1" d="M174,421.6h-3.5c-0.3,0-0.6-0.2-0.6-0.6v-1.7c0-0.3,0.2-0.6,0.6-0.6h3.5c0.3,0,0.6,0.2,0.6,0.6v1.7
		C174.5,421.3,174.3,421.6,174,421.6z"/>
	<path class="st1" d="M164.7,421.6h-3.5c-0.3,0-0.6-0.2-0.6-0.6v-1.7c0-0.3,0.2-0.6,0.6-0.6h3.5c0.3,0,0.6,0.2,0.6,0.6v1.7
		C165.3,421.3,165.1,421.6,164.7,421.6z"/>
	<path class="st1" d="M155.5,421.6H152c-0.3,0-0.6-0.2-0.6-0.6v-1.7c0-0.3,0.2-0.6,0.6-0.6h3.5c0.3,0,0.6,0.2,0.6,0.6v1.7
		C156,421.3,155.8,421.6,155.5,421.6z"/>
	<path class="st1" d="M146.3,421.6h-3.5c-0.3,0-0.6-0.2-0.6-0.6v-1.7c0-0.3,0.2-0.6,0.6-0.6h3.5c0.3,0,0.6,0.2,0.6,0.6v1.7
		C146.8,421.3,146.5,421.6,146.3,421.6z"/>
	<path class="st1" d="M137.1,421.6h-3.5c-0.3,0-0.6-0.2-0.6-0.6v-1.7c0-0.3,0.2-0.6,0.6-0.6h3.5c0.3,0,0.6,0.2,0.6,0.6v1.7
		C137.6,421.3,137.3,421.6,137.1,421.6z"/>
	<path class="st1" d="M127.8,421.6h-3.5c-0.3,0-0.6-0.2-0.6-0.6v-1.7c0-0.3,0.2-0.6,0.6-0.6h3.5c0.3,0,0.6,0.2,0.6,0.6v1.7
		C128.3,421.3,128.1,421.6,127.8,421.6z"/>
	<path class="st1" d="M118.5,421.6H115c-0.3,0-0.6-0.2-0.6-0.6v-1.7c0-0.3,0.2-0.6,0.6-0.6h3.5c0.3,0,0.6,0.2,0.6,0.6v1.7
		C119.1,421.3,118.9,421.6,118.5,421.6z"/>
	<path class="st1" d="M109.3,421.6h-3.5c-0.3,0-0.6-0.2-0.6-0.6v-1.7c0-0.3,0.2-0.6,0.6-0.6h3.5c0.3,0,0.6,0.2,0.6,0.6v1.7
		C109.8,421.3,109.6,421.6,109.3,421.6z"/>
	<path class="st1" d="M100.1,421.6h-3.5c-0.3,0-0.6-0.2-0.6-0.6v-1.7c0-0.3,0.2-0.6,0.6-0.6h3.5c0.3,0,0.6,0.2,0.6,0.6v1.7
		C100.7,421.3,100.3,421.6,100.1,421.6z"/>
	<path class="st1" d="M90.9,421.6h-3.5c-0.3,0-0.6-0.2-0.6-0.6v-1.7c0-0.3,0.2-0.6,0.6-0.6h3.5c0.3,0,0.6,0.2,0.6,0.6v1.7
		C91.4,421.3,91.2,421.6,90.9,421.6z"/>
	<path class="st1" d="M229.4,426.5h-3.5c-0.3,0-0.6-0.2-0.6-0.6v-1.7c0-0.3,0.2-0.6,0.6-0.6h3.5c0.3,0,0.6,0.2,0.6,0.6v1.7
		C230,426.2,229.8,426.5,229.4,426.5z"/>
	<path class="st1" d="M220.3,426.5h-3.5c-0.3,0-0.6-0.2-0.6-0.6v-1.7c0-0.3,0.2-0.6,0.6-0.6h3.5c0.3,0,0.6,0.2,0.6,0.6v1.7
		C220.8,426.2,220.5,426.5,220.3,426.5z"/>
	<path class="st1" d="M211,426.5h-3.5c-0.3,0-0.6-0.2-0.6-0.6v-1.7c0-0.3,0.2-0.6,0.6-0.6h3.5c0.3,0,0.6,0.2,0.6,0.6v1.7
		C211.6,426.2,211.4,426.5,211,426.5z"/>
	<path class="st1" d="M201.8,426.5h-3.5c-0.3,0-0.6-0.2-0.6-0.6v-1.7c0-0.3,0.2-0.6,0.6-0.6h3.5c0.3,0,0.6,0.2,0.6,0.6v1.7
		C202.3,426.2,202.1,426.5,201.8,426.5z"/>
	<path class="st1" d="M192.5,426.5H189c-0.3,0-0.6-0.2-0.6-0.6v-1.7c0-0.3,0.2-0.6,0.6-0.6h3.5c0.3,0,0.6,0.2,0.6,0.6v1.7
		C193.1,426.2,192.8,426.5,192.5,426.5z"/>
	<path class="st1" d="M183.4,426.5h-3.5c-0.3,0-0.6-0.2-0.6-0.6v-1.7c0-0.3,0.2-0.6,0.6-0.6h3.5c0.3,0,0.6,0.2,0.6,0.6v1.7
		C183.8,426.2,183.6,426.5,183.4,426.5z"/>
	<path class="st1" d="M174.1,426.5h-3.5c-0.3,0-0.6-0.2-0.6-0.6v-1.7c0-0.3,0.2-0.6,0.6-0.6h3.5c0.3,0,0.6,0.2,0.6,0.6v1.7
		C174.6,426.2,174.4,426.5,174.1,426.5z"/>
	<path class="st1" d="M164.8,426.5h-3.5c-0.3,0-0.6-0.2-0.6-0.6v-1.7c0-0.3,0.2-0.6,0.6-0.6h3.5c0.3,0,0.6,0.2,0.6,0.6v1.7
		C165.4,426.2,165.2,426.5,164.8,426.5z"/>
	<path class="st1" d="M155.6,426.5H152c-0.3,0-0.6-0.2-0.6-0.6v-1.7c0-0.3,0.2-0.6,0.6-0.6h3.5c0.3,0,0.6,0.2,0.6,0.6v1.7
		C156.1,426.2,155.9,426.5,155.6,426.5z"/>
	<path class="st1" d="M146.4,426.5h-3.5c-0.3,0-0.6-0.2-0.6-0.6v-1.7c0-0.3,0.2-0.6,0.6-0.6h3.5c0.3,0,0.6,0.2,0.6,0.6v1.7
		C146.9,426.2,146.6,426.5,146.4,426.5z"/>
	<path class="st1" d="M137.2,426.5h-3.5c-0.3,0-0.6-0.2-0.6-0.6v-1.7c0-0.3,0.2-0.6,0.6-0.6h3.5c0.3,0,0.6,0.2,0.6,0.6v1.7
		C137.7,426.2,137.4,426.5,137.2,426.5z"/>
	<path class="st1" d="M127.9,426.5h-3.5c-0.3,0-0.6-0.2-0.6-0.6v-1.7c0-0.3,0.2-0.6,0.6-0.6h3.5c0.3,0,0.6,0.2,0.6,0.6v1.7
		C128.5,426.2,128.2,426.5,127.9,426.5z"/>
	<path class="st1" d="M118.6,426.5h-3.5c-0.3,0-0.6-0.2-0.6-0.6v-1.7c0-0.3,0.2-0.6,0.6-0.6h3.5c0.3,0,0.6,0.2,0.6,0.6v1.7
		C119.2,426.2,119,426.5,118.6,426.5z"/>
	<path class="st1" d="M109.4,426.5h-3.5c-0.3,0-0.6-0.2-0.6-0.6v-1.7c0-0.3,0.2-0.6,0.6-0.6h3.5c0.3,0,0.6,0.2,0.6,0.6v1.7
		C109.9,426.2,109.7,426.5,109.4,426.5z"/>
	<path class="st1" d="M100.2,426.5h-3.5c-0.3,0-0.6-0.2-0.6-0.6v-1.7c0-0.3,0.2-0.6,0.6-0.6h3.5c0.3,0,0.6,0.2,0.6,0.6v1.7
		C100.8,426.2,100.4,426.5,100.2,426.5z"/>
	<path class="st1" d="M91,426.5h-3.5c-0.3,0-0.6-0.2-0.6-0.6v-1.7c0-0.3,0.2-0.6,0.6-0.6H91c0.3,0,0.6,0.2,0.6,0.6v1.7
		C91.5,426.2,91.3,426.5,91,426.5z"/>
	<path class="st1" d="M185.1,432.3h-35.8c-0.3,0-0.6-0.2-0.6-0.6V430c0-0.3,0.2-0.6,0.6-0.6h35.8c0.3,0,0.6,0.2,0.6,0.6v1.7
		C185.7,432.1,185.5,432.3,185.1,432.3z"/>
	<path class="st2" d="M108.2,333.5h3.1c1,0,1.8,0.8,1.8,1.9l0,0c0,1-0.8,1.9-1.8,1.9h-3.1c-1,0-1.8-0.8-1.8-1.9l0,0
		C106.4,334.4,107.2,333.5,108.2,333.5z"/>
	<path class="st2" d="M144,333.5h3.1c1,0,1.8,0.8,1.8,1.9l0,0c0,1-0.8,1.9-1.8,1.9H144c-1,0-1.8-0.8-1.8-1.9l0,0
		C142.3,334.4,143.1,333.5,144,333.5z"/>
	<path class="st2" d="M154.1,333.5h3.1c1,0,1.8,0.8,1.8,1.9l0,0c0,1-0.8,1.9-1.8,1.9h-3.1c-1,0-1.8-0.8-1.8-1.9l0,0
		C152.5,334.4,153.3,333.5,154.1,333.5z"/>
	<path class="st2" d="M117.9,333.3h19.5c1,0,1.8,0.8,1.8,1.9l0,0c0,1-0.8,1.9-1.8,1.9h-19.5c-1,0-1.8-0.8-1.8-1.9l0,0
		C116.2,334.1,117,333.3,117.9,333.3z"/>
	<path class="st2" d="M165.7,333.3h19.5c1,0,1.8,0.8,1.8,1.9l0,0c0,1-0.8,1.9-1.8,1.9h-19.5c-1,0-1.8-0.8-1.8-1.9l0,0
		C164,334.1,164.7,333.3,165.7,333.3z"/>
	<path class="st2" d="M117.8,341.8h3.1c1,0,1.8,0.8,1.8,1.9l0,0c0,1-0.8,1.9-1.8,1.9h-3.1c-1,0-1.8-0.8-1.8-1.9l0,0
		C116,342.6,116.8,341.8,117.8,341.8z"/>
	<path class="st2" d="M153.6,341.8h3.1c1,0,1.8,0.8,1.8,1.9l0,0c0,1-0.8,1.9-1.8,1.9h-3.1c-1,0-1.8-0.8-1.8-1.9l0,0
		C151.8,342.6,152.6,341.8,153.6,341.8z"/>
	<path class="st2" d="M163.7,341.8h3.1c1,0,1.8,0.8,1.8,1.9l0,0c0,1-0.8,1.9-1.8,1.9h-3.1c-1,0-1.8-0.8-1.8-1.9l0,0
		C162,342.6,162.7,341.8,163.7,341.8z"/>
	<path class="st2" d="M127.5,341.5H147c1,0,1.8,0.8,1.8,1.9l0,0c0,1-0.8,1.9-1.8,1.9h-19.5c-1,0-1.8-0.8-1.8-1.9l0,0
		C125.8,342.3,126.5,341.5,127.5,341.5z"/>
	<path class="st2" d="M175.3,341.5h19.5c1,0,1.8,0.8,1.8,1.9l0,0c0,1-0.8,1.9-1.8,1.9h-19.5c-1,0-1.8-0.8-1.8-1.9l0,0
		C173.5,342.3,174.3,341.5,175.3,341.5z"/>
	<path class="st2" d="M127.2,350h3.1c1,0,1.8,0.8,1.8,1.9l0,0c0,1-0.8,1.9-1.8,1.9h-3.1c-1,0-1.8-0.8-1.8-1.9l0,0
		C125.6,350.8,126.4,350,127.2,350z"/>
	<path class="st2" d="M163.2,350h3.1c1,0,1.8,0.8,1.8,1.9l0,0c0,1-0.8,1.9-1.8,1.9h-3.1c-1,0-1.8-0.8-1.8-1.9l0,0
		C161.4,350.8,162.2,350,163.2,350z"/>
	<path class="st2" d="M173.3,350h3.1c1,0,1.8,0.8,1.8,1.9l0,0c0,1-0.8,1.9-1.8,1.9h-3.1c-1,0-1.8-0.8-1.8-1.9l0,0
		C171.6,350.8,172.3,350,173.3,350z"/>
	<path class="st2" d="M137.1,349.8h19.5c1,0,1.8,0.8,1.8,1.9l0,0c0,1-0.8,1.9-1.8,1.9h-19.5c-1,0-1.8-0.8-1.8-1.9l0,0
		C135.3,350.6,136.1,349.8,137.1,349.8z"/>
	<path class="st2" d="M184.8,349.8h19.5c1,0,1.8,0.8,1.8,1.9l0,0c0,1-0.8,1.9-1.8,1.9h-19.5c-1,0-1.8-0.8-1.8-1.9l0,0
		C183.1,350.6,183.9,349.8,184.8,349.8z"/>
	<path class="st2" d="M136.8,358.3h3.1c1,0,1.8,0.8,1.8,1.9l0,0c0,1-0.8,1.9-1.8,1.9h-3.1c-1,0-1.8-0.8-1.8-1.9l0,0
		C135.1,359.1,135.8,358.3,136.8,358.3z"/>
	<path class="st2" d="M172.7,358.3h3.1c1,0,1.8,0.8,1.8,1.9l0,0c0,1-0.8,1.9-1.8,1.9h-3.1c-1,0-1.8-0.8-1.8-1.9l0,0
		C171,359.1,171.8,358.3,172.7,358.3z"/>
	<path class="st2" d="M182.8,358.3h3.1c1,0,1.8,0.8,1.8,1.9l0,0c0,1-0.8,1.9-1.8,1.9h-3.1c-1,0-1.8-0.8-1.8-1.9l0,0
		C181.2,359.1,181.9,358.3,182.8,358.3z"/>
	<path class="st2" d="M146.6,357.9h19.5c1,0,1.8,0.8,1.8,1.9l0,0c0,1-0.8,1.9-1.8,1.9h-19.5c-1,0-1.8-0.8-1.8-1.9l0,0
		C144.9,358.7,145.7,357.9,146.6,357.9z"/>
	<path class="st2" d="M144,390.9h3.1c1,0,1.8,0.8,1.8,1.9l0,0c0,1-0.8,1.9-1.8,1.9H144c-1,0-1.8-0.8-1.8-1.9l0,0
		C142.3,391.7,143.1,390.9,144,390.9z"/>
	<path class="st2" d="M154.1,390.9h3.1c1,0,1.8,0.8,1.8,1.9l0,0c0,1-0.8,1.9-1.8,1.9h-3.1c-1,0-1.8-0.8-1.8-1.9l0,0
		C152.5,391.7,153.3,390.9,154.1,390.9z"/>
	<path class="st2" d="M165.7,391.3h19.5c1,0,1.8,0.8,1.8,1.9l0,0c0,1-0.8,1.9-1.8,1.9h-19.5c-1,0-1.8-0.8-1.8-1.9l0,0
		C164,392.1,164.7,391.3,165.7,391.3z"/>
	<path class="st2" d="M108.2,390.9h3.1c1,0,1.8,0.8,1.8,1.9l0,0c0,1-0.8,1.9-1.8,1.9h-3.1c-1,0-1.8-0.8-1.8-1.9l0,0
		C106.4,391.7,107.2,390.9,108.2,390.9z"/>
	<path class="st2" d="M117.9,391.3h19.5c1,0,1.8,0.8,1.8,1.9l0,0c0,1-0.8,1.9-1.8,1.9h-19.5c-1,0-1.8-0.8-1.8-1.9l0,0
		C116.2,392.1,117,391.3,117.9,391.3z"/>
	<path class="st2" d="M117.8,382.8h3.1c1,0,1.8,0.8,1.8,1.9l0,0c0,1-0.8,1.9-1.8,1.9h-3.1c-1,0-1.8-0.8-1.8-1.9l0,0
		C116,383.5,116.8,382.8,117.8,382.8z"/>
	<path class="st2" d="M153.6,382.8h3.1c1,0,1.8,0.8,1.8,1.9l0,0c0,1-0.8,1.9-1.8,1.9h-3.1c-1,0-1.8-0.8-1.8-1.9l0,0
		C151.8,383.5,152.6,382.8,153.6,382.8z"/>
	<path class="st2" d="M163.7,382.8h3.1c1,0,1.8,0.8,1.8,1.9l0,0c0,1-0.8,1.9-1.8,1.9h-3.1c-1,0-1.8-0.8-1.8-1.9l0,0
		C162,383.5,162.7,382.8,163.7,382.8z"/>
	<path class="st2" d="M127.5,383H147c1,0,1.8,0.8,1.8,1.9l0,0c0,1-0.8,1.9-1.8,1.9h-19.5c-1,0-1.8-0.8-1.8-1.9l0,0
		C125.8,383.8,126.5,383,127.5,383z"/>
	<path class="st2" d="M127.2,374.5h3.1c1,0,1.8,0.8,1.8,1.9l0,0c0,1-0.8,1.9-1.8,1.9h-3.1c-1,0-1.8-0.8-1.8-1.9l0,0
		C125.6,375.3,126.4,374.5,127.2,374.5z"/>
	<path class="st2" d="M163.2,374.5h3.1c1,0,1.8,0.8,1.8,1.9l0,0c0,1-0.8,1.9-1.8,1.9h-3.1c-1,0-1.8-0.8-1.8-1.9l0,0
		C161.4,375.3,162.2,374.5,163.2,374.5z"/>
	<path class="st2" d="M173.3,374.5h3.1c1,0,1.8,0.8,1.8,1.9l0,0c0,1-0.8,1.9-1.8,1.9h-3.1c-1,0-1.8-0.8-1.8-1.9l0,0
		C171.6,375.3,172.3,374.5,173.3,374.5z"/>
	<path class="st2" d="M137.1,374.8h19.5c1,0,1.8,0.8,1.8,1.9l0,0c0,1-0.8,1.9-1.8,1.9h-19.5c-1,0-1.8-0.8-1.8-1.9l0,0
		C135.3,375.6,136.1,374.8,137.1,374.8z"/>
	<path class="st2" d="M136.8,366.3h3.1c1,0,1.8,0.8,1.8,1.9l0,0c0,1-0.8,1.9-1.8,1.9h-3.1c-1,0-1.8-0.8-1.8-1.9l0,0
		C135.1,367.1,135.8,366.3,136.8,366.3z"/>
	<path class="st2" d="M172.7,366.3h3.1c1,0,1.8,0.8,1.8,1.9l0,0c0,1-0.8,1.9-1.8,1.9h-3.1c-1,0-1.8-0.8-1.8-1.9l0,0
		C171,367.1,171.8,366.3,172.7,366.3z"/>
	<path class="st2" d="M182.8,366.3h3.1c1,0,1.8,0.8,1.8,1.9l0,0c0,1-0.8,1.9-1.8,1.9h-3.1c-1,0-1.8-0.8-1.8-1.9l0,0
		C181.2,367.1,181.9,366.3,182.8,366.3z"/>
	<path class="st2" d="M146.6,366.5h19.5c1,0,1.8,0.8,1.8,1.9l0,0c0,1-0.8,1.9-1.8,1.9h-19.5c-1,0-1.8-0.8-1.8-1.9l0,0
		C144.9,367.4,145.7,366.5,146.6,366.5z"/>
</g>
<g>
	<path class="st3" d="M483.8,442.4c0.6,0.9,1.3,1.4,2.1,1.4h149.9c1.5,0,2.8-1.7,2.8-3.8c0-0.3,0-0.5-0.1-0.8l-2.3-15.4
		c-0.2-1.2-0.9-2.3-1.8-2.8c-0.3-0.2-0.7-0.3-1-0.3H488.2c-0.3,0-0.7,0.2-1,0.3c-0.9,0.5-1.5,1.5-1.8,2.8l-2.3,15.4
		C483,440.4,483.2,441.5,483.8,442.4z"/>
	<path class="st1" d="M622.7,427.4h-3.5c-0.3,0-0.6-0.3-0.6-0.8v-2.3c0-0.5,0.2-0.8,0.6-0.8h3.5c0.3,0,0.6,0.3,0.6,0.8v2.3
		C623.2,427.1,622.9,427.4,622.7,427.4z"/>
	<path class="st1" d="M613.4,427.4h-3.5c-0.3,0-0.6-0.3-0.6-0.8v-2.3c0-0.5,0.2-0.8,0.6-0.8h3.5c0.3,0,0.6,0.3,0.6,0.8v2.3
		C614,427.1,613.8,427.4,613.4,427.4z"/>
	<path class="st1" d="M604.2,427.4h-3.5c-0.3,0-0.6-0.3-0.6-0.8v-2.3c0-0.5,0.2-0.8,0.6-0.8h3.5c0.3,0,0.6,0.3,0.6,0.8v2.3
		C604.7,427.1,604.5,427.4,604.2,427.4z"/>
	<path class="st1" d="M594.9,427.4h-3.5c-0.3,0-0.6-0.3-0.6-0.8v-2.3c0-0.5,0.2-0.8,0.6-0.8h3.5c0.3,0,0.6,0.3,0.6,0.8v2.3
		C595.5,427.1,595.2,427.4,594.9,427.4z"/>
	<path class="st1" d="M585.8,427.4h-3.6c-0.3,0-0.6-0.3-0.6-0.8v-2.3c0-0.5,0.2-0.8,0.6-0.8h3.5c0.3,0,0.6,0.3,0.6,0.8v2.3
		C586.2,427.1,586,427.4,585.8,427.4z"/>
	<path class="st1" d="M576.5,427.4H573c-0.3,0-0.6-0.3-0.6-0.8v-2.3c0-0.5,0.2-0.8,0.6-0.8h3.5c0.3,0,0.6,0.3,0.6,0.8v2.3
		C577.1,427.1,576.8,427.4,576.5,427.4z"/>
	<path class="st1" d="M567.2,427.4h-3.5c-0.3,0-0.6-0.3-0.6-0.8v-2.3c0-0.5,0.2-0.8,0.6-0.8h3.5c0.3,0,0.6,0.3,0.6,0.8v2.3
		C567.8,427.1,567.6,427.4,567.2,427.4z"/>
	<path class="st1" d="M558,427.4h-3.5c-0.3,0-0.6-0.3-0.6-0.8v-2.3c0-0.5,0.2-0.8,0.6-0.8h3.5c0.3,0,0.6,0.3,0.6,0.8v2.3
		C558.5,427.1,558.3,427.4,558,427.4z"/>
	<path class="st1" d="M548.8,427.4h-3.5c-0.3,0-0.6-0.3-0.6-0.8v-2.3c0-0.5,0.2-0.8,0.6-0.8h3.5c0.3,0,0.6,0.3,0.6,0.8v2.3
		C549.3,427.1,549,427.4,548.8,427.4z"/>
	<path class="st1" d="M539.6,427.4H536c-0.3,0-0.6-0.3-0.6-0.8v-2.3c0-0.5,0.2-0.8,0.6-0.8h3.5c0.3,0,0.6,0.3,0.6,0.8v2.3
		C540.1,427.1,539.8,427.4,539.6,427.4z"/>
	<path class="st1" d="M530.3,427.4h-3.5c-0.3,0-0.6-0.3-0.6-0.8v-2.3c0-0.5,0.2-0.8,0.6-0.8h3.5c0.3,0,0.6,0.3,0.6,0.8v2.3
		C530.9,427.1,530.6,427.4,530.3,427.4z"/>
	<path class="st1" d="M521,427.4h-3.5c-0.3,0-0.6-0.3-0.6-0.8v-2.3c0-0.5,0.2-0.8,0.6-0.8h3.5c0.3,0,0.6,0.3,0.6,0.8v2.3
		C521.6,427.1,521.4,427.4,521,427.4z"/>
	<path class="st1" d="M511.8,427.4h-3.5c-0.3,0-0.6-0.3-0.6-0.8v-2.3c0-0.5,0.2-0.8,0.6-0.8h3.5c0.3,0,0.6,0.3,0.6,0.8v2.3
		C512.3,427.1,512.1,427.4,511.8,427.4z"/>
	<path class="st1" d="M502.6,427.4h-3.5c-0.3,0-0.6-0.3-0.6-0.8v-2.3c0-0.5,0.2-0.8,0.6-0.8h3.5c0.3,0,0.6,0.3,0.6,0.8v2.3
		C503.2,427.1,502.9,427.4,502.6,427.4z"/>
	<path class="st1" d="M493.4,427.4h-3.5c-0.3,0-0.6-0.3-0.6-0.8v-2.3c0-0.5,0.2-0.8,0.6-0.8h3.5c0.3,0,0.6,0.3,0.6,0.8v2.3
		C493.9,427.1,493.7,427.4,493.4,427.4z"/>
	<path class="st1" d="M632,433.8h-3.5c-0.3,0-0.6-0.3-0.6-0.8v-2.3c0-0.5,0.2-0.8,0.6-0.8h3.5c0.3,0,0.6,0.3,0.6,0.8v2.3
		C632.5,433.5,632.3,433.8,632,433.8z"/>
	<path class="st1" d="M622.8,433.8h-3.5c-0.3,0-0.6-0.3-0.6-0.8v-2.3c0-0.5,0.2-0.8,0.6-0.8h3.5c0.3,0,0.6,0.3,0.6,0.8v2.3
		C623.4,433.5,623,433.8,622.8,433.8z"/>
	<path class="st1" d="M613.5,433.8H610c-0.3,0-0.6-0.3-0.6-0.8v-2.3c0-0.5,0.2-0.8,0.6-0.8h3.5c0.3,0,0.6,0.3,0.6,0.8v2.3
		C614.1,433.5,613.9,433.8,613.5,433.8z"/>
	<path class="st1" d="M604.3,433.8h-3.5c-0.3,0-0.6-0.3-0.6-0.8v-2.3c0-0.5,0.2-0.8,0.6-0.8h3.5c0.3,0,0.6,0.3,0.6,0.8v2.3
		C604.8,433.5,604.6,433.8,604.3,433.8z"/>
	<path class="st1" d="M595,433.8h-3.5c-0.3,0-0.6-0.3-0.6-0.8v-2.3c0-0.5,0.2-0.8,0.6-0.8h3.5c0.3,0,0.6,0.3,0.6,0.8v2.3
		C595.6,433.5,595.4,433.8,595,433.8z"/>
	<path class="st1" d="M585.9,433.8h-3.5c-0.3,0-0.6-0.3-0.6-0.8v-2.3c0-0.5,0.2-0.8,0.6-0.8h3.5c0.3,0,0.6,0.3,0.6,0.8v2.3
		C586.3,433.5,586.1,433.8,585.9,433.8z"/>
	<path class="st1" d="M576.6,433.8h-3.5c-0.3,0-0.6-0.3-0.6-0.8v-2.3c0-0.5,0.2-0.8,0.6-0.8h3.5c0.3,0,0.6,0.3,0.6,0.8v2.3
		C577.2,433.5,576.9,433.8,576.6,433.8z"/>
	<path class="st1" d="M567.4,433.8h-3.5c-0.3,0-0.6-0.3-0.6-0.8v-2.3c0-0.5,0.2-0.8,0.6-0.8h3.5c0.3,0,0.6,0.3,0.6,0.8v2.3
		C567.9,433.5,567.7,433.8,567.4,433.8z"/>
	<path class="st1" d="M558.1,433.8h-3.5c-0.3,0-0.6-0.3-0.6-0.8v-2.3c0-0.5,0.2-0.8,0.6-0.8h3.5c0.3,0,0.6,0.3,0.6,0.8v2.3
		C558.6,433.5,558.4,433.8,558.1,433.8z"/>
	<path class="st1" d="M548.9,433.8h-3.5c-0.3,0-0.6-0.3-0.6-0.8v-2.3c0-0.5,0.2-0.8,0.6-0.8h3.5c0.3,0,0.6,0.3,0.6,0.8v2.3
		C549.4,433.5,549.2,433.8,548.9,433.8z"/>
	<path class="st1" d="M539.7,433.8h-3.5c-0.3,0-0.6-0.3-0.6-0.8v-2.3c0-0.5,0.2-0.8,0.6-0.8h3.5c0.3,0,0.6,0.3,0.6,0.8v2.3
		C540.2,433.5,539.9,433.8,539.7,433.8z"/>
	<path class="st1" d="M530.4,433.8h-3.5c-0.3,0-0.6-0.3-0.6-0.8v-2.3c0-0.5,0.2-0.8,0.6-0.8h3.5c0.3,0,0.6,0.3,0.6,0.8v2.3
		C531,433.5,530.7,433.8,530.4,433.8z"/>
	<path class="st1" d="M521.2,433.8h-3.5c-0.3,0-0.6-0.3-0.6-0.8v-2.3c0-0.5,0.2-0.8,0.6-0.8h3.5c0.3,0,0.6,0.3,0.6,0.8v2.3
		C521.7,433.5,521.5,433.8,521.2,433.8z"/>
	<path class="st1" d="M511.9,433.8h-3.5c-0.3,0-0.6-0.3-0.6-0.8v-2.3c0-0.5,0.2-0.8,0.6-0.8h3.5c0.3,0,0.6,0.3,0.6,0.8v2.3
		C512.4,433.5,512.2,433.8,511.9,433.8z"/>
	<path class="st1" d="M502.7,433.8h-3.5c-0.3,0-0.6-0.3-0.6-0.8v-2.3c0-0.5,0.2-0.8,0.6-0.8h3.5c0.3,0,0.6,0.3,0.6,0.8v2.3
		C503.3,433.5,503,433.8,502.7,433.8z"/>
	<path class="st1" d="M493.5,433.8H490c-0.3,0-0.6-0.3-0.6-0.8v-2.3c0-0.5,0.2-0.8,0.6-0.8h3.5c0.3,0,0.6,0.3,0.6,0.8v2.3
		C494,433.5,493.8,433.8,493.5,433.8z"/>
	<path class="st1" d="M587.6,441.5h-35.8c-0.3,0-0.6-0.3-0.6-0.8v-2.3c0-0.5,0.2-0.8,0.6-0.8h35.8c0.3,0,0.6,0.3,0.6,0.8v2.3
		C588.2,441.2,588,441.5,587.6,441.5z"/>
</g>
<g>
	<g>
		<path class="st4" d="M479,480l-14.7-24.6l46.2-38.9l19.1-22.4c7.8-9.2,21.2-9.9,29.9-1.6c2.8,2.6,4.7,5.9,6,9.6l0,0
			c3.5,11.4-2.1,23.8-12.8,28l-30.1,11.8L479,480z"/>
		<path class="st1" d="M242.8,347.4l0.2,0.8l0,0l7.2,23.1l8.3,26.7l15.5,50.1l0.1,7.8l0,0l1.1,62.6L272,527l3.6,13.9
			c0,0-1.7-21-10.6-9c-5.1,6.9-10.9,13.9-15.8,20.5c7.1,3,14.2,5.7,21.5,8.2c1.5,0.6,3.2,1,4.7,1.5c0.3,0.1,0.7,0.2,1,0.3
			c24.1,7.6,49.1,11.8,74.3,12.6c1.3,0,2.5,0.1,3.9,0.1c0.4,0,0.9,0,1.3,0c1.4,0,2.8,0,4.2,0c2.9,0,5.6,0,8.5-0.1
			c20.8-0.6,41.6-3.6,61.9-8.9c-0.1-8.9-0.6-19.1-1.1-30.2c-0.2-5.4-6-11.3-6.3-16.9c-0.2-4.3,4.9-8.3,4.5-12.6
			c-1.8-26.6-3.9-16.4-5.4-35.2c-0.1-1.9-0.3-3.6-0.4-5.4c-1-12.1-1.8-19.7-1.8-19.7l6.7-45.1l10.6-70.8l-0.8-1.4l-0.9-0.5l-56-29.4
			l-3.1-8.3c-1.8-4.9-6.3-8-11.1-8l-36.9-0.1c-3.9,0-7.5,2-9.8,5.2l-10,14.7L242.8,347.4z"/>
		<path class="st1" d="M282.6,437.1l-8.4,18.9l-5.7,12.9l-9.8,54.3l-5,5.5l-4.2-19.6l-44.1,10.4c-1.4-8.5-0.4,0.2-1.3-9.1
			c0.2-0.2,0.6-0.6,0.8-0.8c0.7-0.7,1.3-1.4,1.3-2c-0.6-32.2,1-86.9,13.6-120.1c2-5.4,4.6-10.5,7.7-15.3c0.2-0.3,0.4-0.7,0.8-1
			c5.8-8.6,9.5-17,14.7-23.1l0,0l0.1-0.1l0,0l35.7-20.1l1.5,45.6l1.1,32.8L282.6,437.1z"/>
		<path class="st1" d="M411.6,442.5l10.5,23.7l3.6,8.3l9.8,54.3l4.9,5.5l4.2-19.6l2-0.5l35.8-7.8l10.5,35c4.9-8.5,3.3-19.5-3.6-26.2
			c-0.7-0.7-1.3-1.4-1.3-2c0.6-37.8-1.5-106.9-21.4-135.4c-6.3-9-10-18-15.5-24.3l0,0l-13.3-23.1L437,329l-0.9-0.5L411.6,442.5z"/>
		<ellipse id="a657ec4b-47ce-4d2a-9c58-81a811696ca9" class="st4" cx="348.3" cy="219.6" rx="49.2" ry="52"/>
		<path class="st3" d="M414.7,183.4c-0.8-0.8-1.9-1.4-3-1.4l0.8-2.2c0.8-2.1-0.2-4.5-2.3-5.2c-0.7-0.2-1.4-0.3-2.1-0.2l-2.6,0.6
			l0.2-1.9c0.3-2.2-1.2-4.3-3.3-4.7c-0.7-0.1-1.3,0-1.9,0.2c-1.2,0.5-2.5,0.3-3.5-0.2c-1.1-0.6-1.9-1.7-2.1-3l-0.9-4.8l-0.1-0.2
			c-4.5-8-13.3-13.9-24-16.1c-9.6-1.9-19.4-0.9-28.8,0c-3.7,0.3-7.9,0.8-11.5,3c-3,2-5.5,5.8-5,9.8c-9.4-3-19.3,3-24.3,10.6
			c-5.8,9.1-6.8,20.4-6.9,29.3c-0.4,21,3.6,38.1,12.1,51c0.7,0.9,0.8,2.9,2,3.5l-0.2-0.5c1.3,0.7,2.8,1.9,2.2,3.1
			c-1.4,3.6,8.4,11.5,15.3,14.1c12.7,4.8,29.7,4.4,41.5,2.7l0.4-2.9c4.3-0.6,7.3-1.7,8.2-3.6c1.5-1.4,2.8-2.6,3.9-3.7l0,0
			c0,0,0.1,0,0.1-0.1c5.4-5.5,6.6-8.5,7.2-13.3c0.6-4.7-0.4-9.3-1.4-13.5c20.6,3.4-8.2-23.3,11.1-28.5c0.2-0.1,0.4-0.1,0.7-0.1
			c0.6-0.1,1.1-0.2,1.7-0.5c2.6-0.7,5.1-1.9,7.4-3.4c5.4-3.5,7.2-8,9.9-13.3C416,186.5,415.8,184.7,414.7,183.4z"/>
	</g>
	<path class="st3" d="M522.1,446.1c0,2.1,0,4.9-0.1,8.4c0,0.5,0,0.9,0,1.5c-0.1,6.5-0.3,11.9-0.6,18c0,0.5,0,0.8,0,1.3
		c-0.3,8.4-0.8,18.3-1.7,33.8c-1.5,28.8-4.3,4-6.9,14c-0.1,0.5-0.3,1-0.4,1.7c-0.4,2.6-1.1,5-2.1,7.3c-1.4,0.9-3,1.7-4.4,2.7
		c-4.2,2.4-8.4,4.8-12.7,7.1c-2.4,1.3-4.9,2.4-7.3,3.7c-0.3,0.2-0.8,0.3-1.1,0.6c-12.5,6.1-25.2,11.2-38.4,15.5
		c-2.5,0.8-5.1,1.6-7.7,2.3c-2.6,0.8-5.4,1.5-8,2.2c-20.3,5.2-41,8.3-61.9,8.9c-2.8,0.1-5.6,0.1-8.5,0.1c-1.4,0-2.8,0-4.2,0
		c-0.4,0-0.9,0-1.3,0c-1.2,0-2.5,0-3.9-0.1c-25.1-0.8-50.2-5.1-74.2-12.6l-1-0.3c-1.5-0.5-3.2-1-4.7-1.5c-7.3-2.4-14.4-5.1-21.5-8.2
		c-5.4-2.3-10.7-4.8-16-7.3c0,0-0.1,0-0.1-0.1c-1.1-0.6-2.2-1-3.3-1.6c-0.1-0.1-0.3-0.1-0.4-0.2c-4.1-2.1-8.2-4.3-12.2-6.6
		c-3.4-8.3-8.2-9.8-11.1-17c-0.9-2.1-1.4-4.4-1.9-6.6c0,0,0,0,0-0.1c0.3,4.3-1.3-7.7,0,0c0-0.1,0-0.3,0-0.5c0-0.5-0.1-0.9-0.1-1.5
		c-3.7-39.1-3.5-83.7-5.2-120.6c-0.1-2.3-0.2-4.7-0.3-6.9c0-0.7-0.1-1.4-0.1-2.1c0.1-0.2,0.1-0.5,0.2-0.6c0-0.1,0-0.1,0.1-0.2
		c0-0.1,0.1-0.1,0.1-0.2c0,0,0-0.1,0.1-0.1V380c0.1-0.1,0.2-0.3,0.3-0.5c0-0.1,0.1-0.1,0.1-0.2s0.1-0.1,0.1-0.1l0.1-0.1l0.1-0.1
		c0,0,0-0.1,0.1-0.1c0.1-0.1,0.2-0.2,0.3-0.3c0.4-0.3,0.8-0.7,1.2-1c0.1-0.1,0.3-0.2,0.4-0.3c1.1-0.7,2.3-1.3,3.5-1.7
		c0.4-0.1,0.9-0.3,1.3-0.5c0.1,0,0.3-0.1,0.4-0.1c0.2-0.1,0.4-0.1,0.8-0.2c1.2-0.3,2.6-0.7,4.1-1c0.2,0,0.3-0.1,0.6-0.1
		s0.6-0.1,0.8-0.1c0.3-0.1,0.8-0.1,1.1-0.2c3.3-0.6,6.9-0.9,11.1-1.2c0.4,0,0.8,0,1.1-0.1c0.4,0,0.9,0,1.3-0.1c0.4,0,0.8,0,1.2,0
		s0.8,0,1.2,0c1.1,0,2.2-0.1,3.4-0.1c3.3-0.1,6.8,0,10.5,0c1.7,0,3.4,0.1,5.3,0.2c0.1,0,0.2,0,0.3,0c1.5,0,3.1,0.1,4.7,0.2
		c1.1,0,2.2,0.1,3.4,0.2c1.1,0.1,2.1,0.1,3.2,0.2c0.9,0,1.7,0.1,2.5,0.2c0.8,0,1.4,0.1,2.2,0.1l1,0.1c0.6,0,1.1,0.1,1.7,0.1
		c1.2,0.1,2.4,0.2,3.6,0.3c1.2,0.1,2.4,0.2,3.7,0.3c1.3,0.1,2.5,0.2,3.7,0.3c0.1,0,0.2,0,0.3,0c1.1,0.1,2.3,0.2,3.4,0.3
		c0.2,0,0.6,0,0.8,0.1c1.1,0.1,2.2,0.2,3.3,0.3c0.3,0,0.7,0.1,1,0.1c0.9,0.1,1.8,0.2,2.6,0.3c1.1,0.1,2.3,0.2,3.5,0.5
		c0.9,0.1,1.8,0.2,2.6,0.3c1.4,0.2,2.9,0.3,4.2,0.6c0.6,0.1,1.1,0.1,1.7,0.2c4.1,0.6,8.2,1.2,12.3,1.7c6.3,0.9,12.7,2,19.2,3
		c6.5,1.2,13,2.3,19.5,3.5c1.7,0.3,3.3,0.6,5,0.9c0.8,0.1,1.5,0.3,2.2,0.5c1.3,0.2,2.5,0.5,3.9,0.8c1.3,0.2,2.5,0.5,3.9,0.8
		c1.5,0.3,3.1,0.6,4.6,0.9c10,2.1,20,4.3,29.8,6.6c1.7,0.3,3.2,0.8,4.7,1.2c3.2,0.8,6.3,1.5,9.5,2.3c0.9,0.2,1.7,0.5,2.5,0.7
		c2.1,0.6,4.2,1.2,6.3,1.7l0.3,0.1c1.5,0.3,3.1,0.8,4.5,1.2c3.5,0.9,7.1,2,10.5,2.9c2.3,0.7,4.5,1.3,6.7,2c3.3,1,6.6,2.1,9.7,3
		c0.8,0.2,1.5,0.5,2.3,0.8c2.3,0.8,4.6,1.5,6.8,2.3c1.8,0.6,3.5,1.2,5.2,1.9c1.7,0.6,3.3,1.3,5,1.9c1.1,0.3,2.1,0.8,3.1,1.2
		c1.4,0.6,3,1.2,4.4,1.7c0.4,0.2,0.9,0.3,1.3,0.6c0.3,0.1,0.6,0.2,0.8,0.3c0.6,0.2,1.1,0.5,1.5,0.7c0.6,0.2,1,0.5,1.5,0.7
		s1,0.5,1.4,0.7c0.6,0.2,1,0.5,1.4,0.7s0.8,0.3,1.2,0.6c0.8,0.3,1.5,0.7,2.3,1c0.3,0.2,0.8,0.3,1.1,0.6l0.9,0.5
		c0.1,0.1,0.2,0.1,0.3,0.2c0.3,0.1,0.6,0.3,0.9,0.5c0.7,0.3,1.3,0.7,1.9,0.9c0.9,0.5,1.7,0.9,2.4,1.3c0.8,0.5,1.5,0.9,2.3,1.3
		c0.1,0.1,0.2,0.1,0.3,0.2c0.2,0.1,0.3,0.2,0.6,0.3c0.6,0.3,1.1,0.7,1.7,1c1.1,0.7,2.1,1.4,3,2.1c0.2,0.1,0.4,0.3,0.7,0.5
		c0.7,0.6,1.3,1,2,1.5l0,0c0.2,0.1,0.4,0.3,0.6,0.5c0.2,0.1,0.3,0.3,0.6,0.5c0.6,0.6,1.1,1,1.5,1.5c0.1,0.1,0.3,0.3,0.4,0.5
		c0.1,0,0.1,0.1,0.2,0.2c0.2,0.2,0.4,0.5,0.6,0.7c0,0,0,0.1,0.1,0.1c0.2,0.3,0.6,0.7,0.8,0.9c0.1,0.1,0.2,0.3,0.3,0.5
		s0.2,0.3,0.3,0.6c0.1,0.1,0.2,0.3,0.3,0.5c0.2,0.5,0.4,0.8,0.6,1.3c0.1,0.3,0.2,0.6,0.3,0.9C522,445.5,522.1,445.8,522.1,446.1z"/>
	<path class="st5" d="M522.1,446.1c0,2.1,0,4.9-0.1,8.4c0,0.5,0,0.9,0,1.5c-0.1,5-0.3,11.1-0.6,18c0,0.5,0,0.8,0,1.3
		c-0.3,8.4-0.8,18.3-1.7,33.8c-1.5,28.8-4.3,4-6.9,14c-7.6-4.9-15.9-10-24.7-15.4c-1.5-0.9-3.2-1.9-4.9-2.9
		c-17.8-10.5-37.5-21.5-58.2-32.3c-0.8-0.5-1.7-0.8-2.4-1.3c-47.4-24.7-99-48.9-140.9-64.9c-8-3.1-15.8-5.9-23-8.4
		c-15.3-5.1-28.4-8.7-38.7-10.4c-10.6-1.6-17.9-1-20.8,2.3c-0.1-2.3-0.2-4.7-0.3-6.9c0-0.7-0.1-1.4-0.1-2.1c0.1-0.2,0.1-0.3,0.2-0.6
		c0,0,0,0,0-0.1s0-0.1,0.1-0.2c0-0.1,0.1-0.1,0.1-0.2s0.1-0.1,0.1-0.2c0.1-0.1,0.2-0.3,0.3-0.5c0.1-0.1,0.2-0.2,0.3-0.3l0.1-0.1
		l0.1-0.1c0,0,0-0.1,0.1-0.1c0.1-0.1,0.2-0.2,0.3-0.3c0.4-0.3,0.8-0.7,1.2-1c0.1-0.1,0.3-0.2,0.4-0.3c1.1-0.7,2.3-1.3,3.5-1.7
		c0.4-0.1,0.9-0.3,1.3-0.5c0.1,0,0.3-0.1,0.4-0.1c0.2-0.1,0.4-0.1,0.8-0.2c1.2-0.3,2.6-0.7,4.1-1c0.4-0.1,0.9-0.2,1.3-0.2
		c0.3-0.1,0.8-0.1,1.1-0.2c3.3-0.6,6.9-0.9,11.1-1.2c0.4,0,0.8,0,1.1-0.1c0.4,0,0.9,0,1.3-0.1c0.4,0,0.8,0,1.2,0s0.8,0,1.2,0
		c1.1,0,2.2-0.1,3.4-0.1c3.3,0,6.8,0,10.5,0c1.7,0,3.4,0.1,5.3,0.2c0.1,0,0.2,0,0.3,0c1.5,0,3.1,0.1,4.7,0.2c1.1,0,2.2,0.1,3.4,0.2
		c1.1,0.1,2.1,0.1,3.2,0.2c0.9,0,1.7,0.1,2.5,0.2c0.8,0,1.4,0.1,2.2,0.1c0.9,0.1,1.8,0.1,2.6,0.2c1.2,0.1,2.4,0.2,3.6,0.3
		c1.2,0.1,2.4,0.2,3.7,0.3c1.3,0.1,2.5,0.2,3.7,0.3c0.1,0,0.2,0,0.3,0c1.1,0.1,2.3,0.2,3.4,0.3c6.4,0.7,13,1.5,19.8,2.4
		c4.1,0.6,8.2,1.2,12.3,1.7c6.3,0.9,12.7,2,19.2,3c6.5,1.2,13,2.3,19.5,3.5c1.7,0.3,3.3,0.6,5,0.9c2,0.3,4.1,0.8,6.1,1.2
		c1.3,0.2,2.5,0.5,3.9,0.8c1.5,0.3,3.1,0.6,4.6,0.9c10,2.1,20,4.3,29.8,6.6c1.7,0.3,3.2,0.8,4.7,1.2c3.2,0.8,6.3,1.5,9.5,2.3
		c0.9,0.2,1.7,0.5,2.5,0.7c2.1,0.6,4.2,1.2,6.3,1.6l0,0c0.1,0,0.2,0,0.3,0.1c1.5,0.3,3.1,0.8,4.5,1.3c3.5,0.9,7.1,2,10.5,2.9
		c2.3,0.7,4.5,1.4,6.7,2c3.3,1,6.6,2.1,9.7,3c0.8,0.2,1.5,0.5,2.3,0.8c2.3,0.8,4.6,1.5,6.8,2.3c1.8,0.6,3.5,1.2,5.2,1.9
		c1.7,0.6,3.3,1.3,5,1.9c1.1,0.3,2.1,0.8,3.1,1.2c1.5,0.6,3,1.2,4.4,1.7c0.4,0.2,0.9,0.3,1.3,0.6c0.8,0.3,1.5,0.7,2.3,1
		c0.6,0.2,1,0.5,1.5,0.7s1,0.5,1.4,0.7c0.6,0.2,1,0.5,1.4,0.7s0.8,0.3,1.2,0.6c0.8,0.3,1.5,0.7,2.3,1c0.3,0.2,0.8,0.3,1.1,0.6
		l0.9,0.5c0.1,0.1,0.2,0.1,0.3,0.2c0.9,0.5,1.9,0.9,2.8,1.4s1.7,0.9,2.4,1.3c0.9,0.5,1.8,1,2.6,1.5c0.2,0.1,0.3,0.2,0.6,0.3
		c0.6,0.3,1.1,0.7,1.7,1c1.1,0.7,2.1,1.4,3,2.1s1.8,1.4,2.5,2l0,0c0.3,0.3,0.8,0.7,1.1,0.9c0.6,0.6,1.1,1,1.5,1.5
		c0.1,0.1,0.3,0.3,0.4,0.5c0.1,0,0.1,0.1,0.2,0.2c0.2,0.2,0.4,0.6,0.7,0.8c0.2,0.3,0.6,0.7,0.8,0.9c0.1,0.1,0.2,0.3,0.3,0.5
		s0.2,0.3,0.3,0.6c0.1,0.1,0.2,0.3,0.3,0.5c0.2,0.5,0.4,0.8,0.6,1.3c0.1,0.3,0.2,0.6,0.3,0.9C522,445.5,522.1,445.8,522.1,446.1z"/>
</g>
</svg>
