<?xml version="1.0" encoding="utf-8"?>
<!-- Generator: Adobe Illustrator 24.0.1, SVG Export Plug-In . SVG Version: 6.00 Build 0)  -->
<svg version="1.1" id="Layer_1" xmlns="http://www.w3.org/2000/svg" xmlns:xlink="http://www.w3.org/1999/xlink" x="0px" y="0px"
	 viewBox="0 0 786.8 572.3" style="enable-background:new 0 0 786.8 572.3;" xml:space="preserve">
<style type="text/css">
	.st0{fill:#F2F2F2;}
	.st1{fill:#3F3D56;}
	.st2{fill:#FFFFFF;}
	.st3{fill:#2F2E41;}
	.st4{fill:#FFB6B6;}
	.st5{opacity:0.2;enable-background:new    ;}
</style>
<ellipse class="st0" cx="69.7" cy="-234.1" rx="77.3" ry="69"/>
<path class="st0" d="M669.1,859.6C784,781.5,838.7,650.2,804.5,524.8c-0.9-3.1-1.7-6.2-2.6-9.3c-22.9-74.5-79-145-161.2-168.8
	c-68.9-19.9-144.1-4.7-216.2-12.7C283.3,318.5,173.9,216.3,96.9,109.6S-39.5-116.9-141.6-205.1c-168.7-145.6-444-176.8-653-82.2
	c-209.3,94.9-342.4,304.8-336.9,514.2c5.8,209.4,144.7,409.5,347,515.8c74.4,39,160.1,66.7,245.4,56.9c74.1-8.3,141.5-44,215.3-54.6
	C-207.6,728.5-92.4,775.3,8,829.9c100.4,54.6,197.4,119.4,311.4,144.8C430.3,999.5,567.5,928.6,669.1,859.6z"/>
<path class="st1" d="M504.1-282.9c-2.6-1.6-5.2-2.8-7.5-4.4c-72.6-41.6-150.8-75.5-232.4-100.6l-18.8,233.2H125.2V-422
	c-7.5-1.3-15.1-2.8-22.9-3.9v271.2H-40.3c-163.5,0-296.1-118.4-296.1-264.5l0,0c-7.5,1.6-15.3,3.1-22.9,4.7v259.6h-116.1
	l-17.9-222.3c-83.9,28.7-163.5,66.4-237,112.5c-1.2,0.8-2.6,1.6-3.8,2.3c-6.4,4.1-12.7,8-19.1,12.2v889.9h342.4l-6.1-75l-33.3-411.1
	h670.3l-33.3,411.1l-6.1,75h338.6v-913.4C514.2-277,509.3-279.8,504.1-282.9z M-359,86.3h-96.7l-17.9-220.5H-359V86.3z M102.4,86.3
	H-60v-4.4c0-8.8-8.1-16-17.9-16l0,0h-70.3c-9.8,0-17.9,7.2-17.9,16l0,0v4.4H-336v-220.5h438.5L102.4,86.3z M125.2,86.3v-220.5h118.4
	L225.7,86.3H125.2z"/>
<path class="st1" d="M558.2,696.7H549c-0.9,0-1.4-0.5-1.4-1.3v-3.9c0-0.8,0.6-1.3,1.4-1.3h9.3c0.9,0,1.4,0.5,1.4,1.3v3.9
	C559.7,696.2,559.1,696.7,558.2,696.7z"/>
<path class="st2" d="M-668,628h6.1c2,0,3.5,1.5,3.5,3.4l0,0c0,1.9-1.5,3.4-3.5,3.4h-6.1c-2,0-3.5-1.5-3.5-3.4l0,0
	C-671.5,629.5-669.9,628-668,628z"/>
<path class="st2" d="M-596.8,628h6.1c2,0,3.5,1.5,3.5,3.4l0,0c0,1.9-1.5,3.4-3.5,3.4h-6.1c-2,0-3.5-1.5-3.5-3.4l0,0
	C-600.1,629.5-598.6,628-596.8,628z"/>
<path class="st2" d="M-576.7,628h6.1c2,0,3.5,1.5,3.5,3.4l0,0c0,1.9-1.5,3.4-3.5,3.4h-6.1c-2,0-3.5-1.5-3.5-3.4l0,0
	C-580,629.5-578.4,628-576.7,628z"/>
<path class="st2" d="M-648.7,627.6h38.7c2,0,3.5,1.5,3.5,3.4l0,0c0,1.9-1.5,3.4-3.5,3.4h-38.7c-2,0-3.5-1.5-3.5-3.4l0,0
	C-652,629.1-650.5,627.6-648.7,627.6z"/>
<path class="st2" d="M-648.9,643.2h6.1c2,0,3.5,1.5,3.5,3.4l0,0c0,1.9-1.5,3.4-3.5,3.4h-6.1c-2,0-3.5-1.5-3.5-3.4l0,0
	C-652.4,644.7-650.9,643.2-648.9,643.2z"/>
<path class="st2" d="M-577.8,643.2h6.1c2,0,3.5,1.5,3.5,3.4l0,0c0,1.9-1.5,3.4-3.5,3.4h-6.1c-2,0-3.5-1.5-3.5-3.4l0,0
	C-581.3,644.7-579.8,643.2-577.8,643.2z"/>
<path class="st2" d="M-557.7,643.2h6.1c2,0,3.5,1.5,3.5,3.4l0,0c0,1.9-1.5,3.4-3.5,3.4h-6.1c-2,0-3.5-1.5-3.5-3.4l0,0
	C-561.2,644.7-559.6,643.2-557.7,643.2z"/>
<path class="st2" d="M-629.7,642.6h38.7c2,0,3.5,1.5,3.5,3.4l0,0c0,1.9-1.5,3.4-3.5,3.4h-38.7c-2,0-3.5-1.5-3.5-3.4l0,0
	C-633,644.1-631.6,642.6-629.7,642.6z"/>
<path class="st2" d="M-630.1,658.2h6.1c2,0,3.5,1.5,3.5,3.4l0,0c0,1.9-1.5,3.4-3.5,3.4h-6.1c-2,0-3.5-1.5-3.5-3.4l0,0
	C-633.4,659.7-631.9,658.2-630.1,658.2z"/>
<path class="st2" d="M-611.1,673.4h6.1c2,0,3.5,1.5,3.5,3.4l0,0c0,1.9-1.5,3.4-3.5,3.4h-6.1c-2,0-3.5-1.5-3.5-3.4l0,0
	C-614.6,674.9-613,673.4-611.1,673.4z"/>
<path class="st2" d="M-539.9,673.4h6.1c2,0,3.5,1.5,3.5,3.4l0,0c0,1.9-1.5,3.4-3.5,3.4h-6.1c-2,0-3.5-1.5-3.5-3.4l0,0
	C-543.2,674.9-541.7,673.4-539.9,673.4z"/>
<path class="st2" d="M-519.8,673.4h6.1c2,0,3.5,1.5,3.5,3.4l0,0c0,1.9-1.5,3.4-3.5,3.4h-6.1c-2,0-3.5-1.5-3.5-3.4l0,0
	C-523.1,674.9-521.5,673.4-519.8,673.4z"/>
<path class="st2" d="M-591.6,672.8h38.7c2,0,3.5,1.5,3.5,3.4l0,0c0,1.9-1.5,3.4-3.5,3.4h-38.7c-2,0-3.5-1.5-3.5-3.4l0,0
	C-595.1,674.3-593.6,672.8-591.6,672.8z"/>
<path class="st1" d="M-702.5,703.4V729c0,2.8,2.6,4.9,5.5,4.9h198c3.2,0,5.5-2.3,5.5-4.9v-25.6H-702.5z"/>
<path class="st1" d="M744.3,558.6c2.6,12.9,30.7,22,64.8,20.2c31.3-1.3,56.7-11.1,61.4-22.8c-1.7-0.5-3.5-0.8-5.2-0.5l-118.1,2.8
	C746.3,558.4,745.2,558.4,744.3,558.6z"/>
<g>
	<path class="st3" d="M750.7,714.5c2.6,6.7,9.8,11.4,17.9,11.1l76.7-1.8c8.1-0.3,15.1-5.2,17.4-12.2l10.7-103.4
		c3.8,1.6,8.1,2.3,12.2,2.3c15.3-0.3,27.5-11.9,27.2-25.6c-0.3-13.7-13.3-24.6-28.7-24.3c-1.7,0-3.5,0.3-4.9,0.5
		c-3.8-3.6-8.7-5.4-14.2-5.4l-118.1,2.8c-0.9,0-2,0.3-2.9,0.3c-10.1,1.6-16.5,10.3-14.8,19.1c0.3,0.8,0.3,1.6,0.6,2.1L750.7,714.5z
		 M875.7,601.3l7.8-24.8c0.9-2.8,0.9-5.9,0-8.8c0.3,0,0.6-0.3,1.2-0.3c11-0.3,20.3,7.8,20.5,17.6c0.3,9.8-8.4,18.1-19.4,18.4
		C882.1,603.4,878.6,602.9,875.7,601.3z"/>
	<path d="M815.2,657.7c0.3,0,0.3,0,0.6-0.3l16.8-9.8c0.6-0.5,0.9-1.3,0.3-1.8c0-0.3-0.3-0.3-0.3-0.3l-17.4-10.1
		c-0.6-0.5-1.4-0.3-2,0.3c-0.6,0.5-0.3,1.3,0.3,1.8l15.3,9L814,655c-0.6,0.5-0.9,1.3-0.3,1.8C814.1,657.4,814.7,657.7,815.2,657.7
		L815.2,657.7z"/>
	<path d="M788.9,658.7c0.9-0.3,1.2-0.8,1.2-1.6c0-0.3-0.3-0.5-0.6-0.8l-15.3-7.8l14.8-9.8c0.6-0.5,0.9-1.3,0.3-1.8
		c-0.6-0.5-1.4-0.8-2-0.3l-16.5,11.1c-0.6,0.5-0.9,1.3-0.3,1.8c0,0.3,0.3,0.3,0.6,0.3l17.4,8.8C788.3,658.7,788.6,658.7,788.9,658.7
		z"/>
	<path d="M826.5,675.7c0,0,0.4,0,0.4-0.4c0.9-0.4,1.3-1.9,0.9-2.7l0,0L792,620.3c-0.4-0.8-2.2-1.2-3.1-0.8c-0.9,0.4-1.3,1.9-0.9,2.7
		l35.8,52.2C824.7,675.3,825.6,675.7,826.5,675.7z"/>
</g>
<g>
	<path class="st3" d="M294.8,434.9v265h208.1v-265c0-3.9-2.9-7.5-6.9-8.5c-0.9-0.3-2-0.5-2.9-0.5H305.3
		C299.2,425.9,294.8,430,294.8,434.9L294.8,434.9z M375.9,525.9c0-10.9,10.1-19.6,22.3-19.6c12.2,0,22,8.8,22,19.6v30.8
		c0,10.9-10.1,19.9-22.3,19.6c-12.2,0-22-8.8-22-19.6V525.9z"/>
	<path class="st1" d="M-32.2,35.5v484.3c0,12.9,11.6,23.3,26,23.3H797c14.5,0,26-10.3,26-23.3V35.5c0-12.9-11.6-23.3-26-23.3H-6.2
		C-20.6,12.2-32.2,22.6-32.2,35.5z"/>
	<path class="st2" d="M-13.4,41.4v472.1c0,7,6.4,12.4,13.9,12.4h789.9c7.8,0,13.9-5.7,13.9-12.4V41.4c0-7-6.4-12.4-13.9-12.4H0.5
		C-7.3,29-13.4,34.4-13.4,41.4z"/>
	<path class="st3" d="M133,720.4c1.7,1.8,4.1,2.8,6.7,2.8h469.7c4.6,0,8.7-3.4,8.7-7.8c0-0.5,0-1-0.3-1.6l-7.2-31
		c-0.6-2.6-2.6-4.7-5.5-5.7c-0.9-0.3-2-0.5-3.2-0.5h-455c-1.2,0-2,0.3-3.2,0.5c-2.6,1-4.6,3.1-5.5,5.7l-7.2,31
		C130.7,716.2,131.3,718.6,133,720.4z"/>
</g>
<path class="st1" d="M-1245.4,710.9c25.2,26.6,52.4,51.7,81.3,75l2114.6,2.6c28.9-23.3,56.1-48.3,81.3-75L-1245.4,710.9z"/>
<g>
	<path class="st1" d="M-832,473.3v221.6c0,5.9,5.2,10.6,11.9,10.6h367.6c6.7,0,11.9-4.7,11.9-10.6V473.3c0-5.9-5.2-10.6-11.9-10.6
		h-367.6C-826.5,462.7-832,467.4-832,473.3z"/>
	<path d="M-823.3,476.2v216.1c0,3.1,2.9,5.7,6.4,5.7h361.5c3.5,0,6.4-2.6,6.4-5.7V476.2c0-3.1-2.9-5.7-6.4-5.7h-361.5
		C-820.4,470.5-823.3,472.8-823.3,476.2z"/>
	<path class="st3" d="M-839.5,738.1c1.4,1.6,3.5,2.3,5.5,2.3h393.6c4.1,0,7.2-2.8,7.2-6.5c0-0.5,0-0.8-0.3-1.3l-6.1-25.9
		c-0.6-2.1-2.3-3.9-4.6-4.7c-0.9-0.3-1.7-0.5-2.6-0.5H-828c-0.9,0-1.7,0.3-2.6,0.5c-2.3,0.8-4.1,2.6-4.6,4.7l-6.1,25.9
		C-841.5,734.7-840.9,736.5-839.5,738.1z"/>
	<path class="st1" d="M-474.8,712.7h-9.3c-0.9,0-1.4-0.5-1.4-1.3v-3.9c0-0.8,0.6-1.3,1.4-1.3h9.3c0.9,0,1.4,0.5,1.4,1.3v3.9
		C-473.4,712.2-474.2,712.7-474.8,712.7z"/>
	<path class="st1" d="M-499.1,712.7h-9.3c-0.9,0-1.4-0.5-1.4-1.3v-3.9c0-0.8,0.6-1.3,1.4-1.3h9.3c0.9,0,1.4,0.5,1.4,1.3v3.9
		C-497.7,712.2-498.3,712.7-499.1,712.7z"/>
	<path class="st1" d="M-523.4,712.7h-9.3c-0.9,0-1.4-0.5-1.4-1.3v-3.9c0-0.8,0.6-1.3,1.4-1.3h9.3c0.9,0,1.4,0.5,1.4,1.3v3.9
		C-522,712.2-522.6,712.7-523.4,712.7z"/>
	<path class="st1" d="M-547.8,712.7h-9.3c-0.9,0-1.4-0.5-1.4-1.3v-3.9c0-0.8,0.6-1.3,1.4-1.3h9.3c0.9,0,1.4,0.5,1.4,1.3v3.9
		C-546.3,712.2-546.9,712.7-547.8,712.7z"/>
	<path class="st1" d="M-571.8,712.7h-9.6c-0.9,0-1.4-0.5-1.4-1.3v-3.9c0-0.8,0.6-1.3,1.4-1.3h9.3c0.9,0,1.4,0.5,1.4,1.3v3.9
		C-570.6,712.2-571.2,712.7-571.8,712.7z"/>
	<path class="st1" d="M-596.1,712.7h-9.3c-0.9,0-1.4-0.5-1.4-1.3v-3.9c0-0.8,0.6-1.3,1.4-1.3h9.3c0.9,0,1.4,0.5,1.4,1.3v3.9
		C-594.6,712.2-595.2,712.7-596.1,712.7z"/>
	<path class="st1" d="M-620.4,712.7h-9.3c-0.9,0-1.4-0.5-1.4-1.3v-3.9c0-0.8,0.6-1.3,1.4-1.3h9.3c0.9,0,1.4,0.5,1.4,1.3v3.9
		C-619,712.2-619.5,712.7-620.4,712.7z"/>
	<path class="st1" d="M-644.7,712.7h-9.3c-0.9,0-1.4-0.5-1.4-1.3v-3.9c0-0.8,0.6-1.3,1.4-1.3h9.3c0.9,0,1.4,0.5,1.4,1.3v3.9
		C-643.3,712.2-643.8,712.7-644.7,712.7z"/>
	<path class="st1" d="M-668.7,712.7h-9.3c-0.9,0-1.4-0.5-1.4-1.3v-3.9c0-0.8,0.6-1.3,1.4-1.3h9.3c0.9,0,1.4,0.5,1.4,1.3v3.9
		C-667.6,712.2-668.2,712.7-668.7,712.7z"/>
	<path class="st1" d="M-693,712.7h-9.3c-0.9,0-1.4-0.5-1.4-1.3v-3.9c0-0.8,0.6-1.3,1.4-1.3h9.3c0.9,0,1.4,0.5,1.4,1.3v3.9
		C-691.6,712.2-692.5,712.7-693,712.7z"/>
	<path class="st1" d="M-717.4,712.7h-9.3c-0.9,0-1.4-0.5-1.4-1.3v-3.9c0-0.8,0.6-1.3,1.4-1.3h9.3c0.9,0,1.4,0.5,1.4,1.3v3.9
		C-715.9,712.2-716.5,712.7-717.4,712.7z"/>
	<path class="st1" d="M-741.7,712.7h-9.3c-0.9,0-1.4-0.5-1.4-1.3v-3.9c0-0.8,0.6-1.3,1.4-1.3h9.3c0.9,0,1.4,0.5,1.4,1.3v3.9
		C-740.2,712.2-740.8,712.7-741.7,712.7z"/>
	<path class="st1" d="M-766,712.7h-9.3c-0.9,0-1.4-0.5-1.4-1.3v-3.9c0-0.8,0.6-1.3,1.4-1.3h9.3c0.9,0,1.4,0.5,1.4,1.3v3.9
		C-764.5,712.2-765.1,712.7-766,712.7z"/>
	<path class="st1" d="M-790,712.7h-9.3c-0.9,0-1.4-0.5-1.4-1.3v-3.9c0-0.8,0.6-1.3,1.4-1.3h9.3c0.9,0,1.4,0.5,1.4,1.3v3.9
		C-788.6,712.2-789.4,712.7-790,712.7z"/>
	<path class="st1" d="M-814.3,712.7h-9.3c-0.9,0-1.4-0.5-1.4-1.3v-3.9c0-0.8,0.6-1.3,1.4-1.3h9.3c0.9,0,1.4,0.5,1.4,1.3v3.9
		C-812.9,712.2-813.4,712.7-814.3,712.7z"/>
	<path class="st1" d="M-450.5,723.6h-9.3c-0.9,0-1.4-0.5-1.4-1.3v-3.9c0-0.8,0.6-1.3,1.4-1.3h9.3c0.9,0,1.4,0.5,1.4,1.3v3.9
		C-449.1,723.1-449.6,723.6-450.5,723.6z"/>
	<path class="st1" d="M-474.5,723.6h-9.3c-0.9,0-1.4-0.5-1.4-1.3v-3.9c0-0.8,0.6-1.3,1.4-1.3h9.3c0.9,0,1.4,0.5,1.4,1.3v3.9
		C-473.1,723.1-473.9,723.6-474.5,723.6z"/>
	<path class="st1" d="M-498.8,723.6h-9.3c-0.9,0-1.4-0.5-1.4-1.3v-3.9c0-0.8,0.6-1.3,1.4-1.3h9.3c0.9,0,1.4,0.5,1.4,1.3v3.9
		C-497.4,723.1-498,723.6-498.8,723.6z"/>
	<path class="st1" d="M-523.1,723.6h-9.3c-0.9,0-1.4-0.5-1.4-1.3v-3.9c0-0.8,0.6-1.3,1.4-1.3h9.3c0.9,0,1.4,0.5,1.4,1.3v3.9
		C-521.7,723.1-522.3,723.6-523.1,723.6z"/>
	<path class="st1" d="M-547.5,723.6h-9.3c-0.9,0-1.4-0.5-1.4-1.3v-3.9c0-0.8,0.6-1.3,1.4-1.3h9.3c0.9,0,1.4,0.5,1.4,1.3v3.9
		C-546,723.1-546.6,723.6-547.5,723.6z"/>
	<path class="st1" d="M-571.5,723.6h-9.3c-0.9,0-1.4-0.5-1.4-1.3v-3.9c0-0.8,0.6-1.3,1.4-1.3h9.3c0.9,0,1.4,0.5,1.4,1.3v3.9
		C-570.3,723.1-570.9,723.6-571.5,723.6z"/>
	<path class="st1" d="M-595.8,723.6h-9.3c-0.9,0-1.4-0.5-1.4-1.3v-3.9c0-0.8,0.6-1.3,1.4-1.3h9.3c0.9,0,1.4,0.5,1.4,1.3v3.9
		C-594.3,723.1-594.9,723.6-595.8,723.6z"/>
	<path class="st1" d="M-620.1,723.6h-9.3c-0.9,0-1.4-0.5-1.4-1.3v-3.9c0-0.8,0.6-1.3,1.4-1.3h9.3c0.9,0,1.4,0.5,1.4,1.3v3.9
		C-618.7,723.1-619.2,723.6-620.1,723.6z"/>
	<path class="st1" d="M-644.4,723.6h-9.3c-0.9,0-1.4-0.5-1.4-1.3v-3.9c0-0.8,0.6-1.3,1.4-1.3h9.3c0.9,0,1.4,0.5,1.4,1.3v3.9
		C-643,723.1-643.6,723.6-644.4,723.6z"/>
	<path class="st1" d="M-668.4,723.6h-9.3c-0.9,0-1.4-0.5-1.4-1.3v-3.9c0-0.8,0.6-1.3,1.4-1.3h9.3c0.9,0,1.4,0.5,1.4,1.3v3.9
		C-667.3,723.1-667.9,723.6-668.4,723.6z"/>
	<path class="st1" d="M-692.8,723.6h-9.3c-0.9,0-1.4-0.5-1.4-1.3v-3.9c0-0.8,0.6-1.3,1.4-1.3h9.3c0.9,0,1.4,0.5,1.4,1.3v3.9
		C-691.3,723.1-692.2,723.6-692.8,723.6z"/>
	<path class="st1" d="M-717.1,723.6h-9.3c-0.9,0-1.4-0.5-1.4-1.3v-3.9c0-0.8,0.6-1.3,1.4-1.3h9.3c0.9,0,1.4,0.5,1.4,1.3v3.9
		C-715.6,723.1-716.2,723.6-717.1,723.6z"/>
	<path class="st1" d="M-741.4,723.6h-9.3c-0.9,0-1.4-0.5-1.4-1.3v-3.9c0-0.8,0.6-1.3,1.4-1.3h9.3c0.9,0,1.4,0.5,1.4,1.3v3.9
		C-739.9,723.1-740.5,723.6-741.4,723.6z"/>
	<path class="st1" d="M-765.7,723.6h-9.3c-0.9,0-1.4-0.5-1.4-1.3v-3.9c0-0.8,0.6-1.3,1.4-1.3h9.3c0.9,0,1.4,0.5,1.4,1.3v3.9
		C-764.2,723.1-764.8,723.6-765.7,723.6z"/>
	<path class="st1" d="M-789.7,723.6h-9.3c-0.9,0-1.4-0.5-1.4-1.3v-3.9c0-0.8,0.6-1.3,1.4-1.3h9.3c0.9,0,1.4,0.5,1.4,1.3v3.9
		C-788.3,723.1-789.1,723.6-789.7,723.6z"/>
	<path class="st1" d="M-814,723.6h-9.3c-0.9,0-1.4-0.5-1.4-1.3v-3.9c0-0.8,0.6-1.3,1.4-1.3h9.3c0.9,0,1.4,0.5,1.4,1.3v3.9
		C-812.6,723.1-813.2,723.6-814,723.6z"/>
	<path class="st1" d="M-566.9,736.5H-661c-0.9,0-1.4-0.5-1.4-1.3v-3.9c0-0.8,0.6-1.3,1.4-1.3h94.1c0.9,0,1.4,0.5,1.4,1.3v3.9
		C-565.4,736-566,736.5-566.9,736.5z"/>
	<path class="st2" d="M-768.9,517.5h8.1c2.6,0,4.6,1.8,4.6,4.1l0,0c0,2.3-2,4.1-4.6,4.1h-8.1c-2.6,0-4.6-1.8-4.6-4.1l0,0
		C-773.5,519.3-771.5,517.5-768.9,517.5z"/>
	<path class="st2" d="M-674.8,517.5h8.1c2.6,0,4.6,1.8,4.6,4.1l0,0c0,2.3-2,4.1-4.6,4.1h-8.1c-2.6,0-4.6-1.8-4.6-4.1l0,0
		C-679.2,519.3-677.1,517.5-674.8,517.5z"/>
	<path class="st2" d="M-648.2,517.5h8.1c2.6,0,4.6,1.8,4.6,4.1l0,0c0,2.3-2,4.1-4.6,4.1h-8.1c-2.6,0-4.6-1.8-4.6-4.1l0,0
		C-652.5,519.3-650.5,517.5-648.2,517.5z"/>
	<path class="st2" d="M-743.4,517h51.2c2.6,0,4.6,1.8,4.6,4.1l0,0c0,2.3-2,4.1-4.6,4.1h-51.2c-2.6,0-4.6-1.8-4.6-4.1l0,0
		C-747.7,518.8-745.7,517-743.4,517z"/>
	<path class="st2" d="M-617.8,517h51.2c2.6,0,4.6,1.8,4.6,4.1l0,0c0,2.3-2,4.1-4.6,4.1h-51.2c-2.6,0-4.6-1.8-4.6-4.1l0,0
		C-622.4,518.8-620.4,517-617.8,517z"/>
	<path class="st2" d="M-743.7,535.9h8.1c2.6,0,4.6,1.8,4.6,4.1l0,0c0,2.3-2,4.1-4.6,4.1h-8.1c-2.6,0-4.6-1.8-4.6-4.1l0,0
		C-748.3,537.7-746.3,535.9-743.7,535.9z"/>
	<path class="st2" d="M-649.6,535.9h8.1c2.6,0,4.6,1.8,4.6,4.1l0,0c0,2.3-2,4.1-4.6,4.1h-8.1c-2.6,0-4.6-1.8-4.6-4.1l0,0
		C-654.3,537.7-652.2,535.9-649.6,535.9z"/>
	<path class="st2" d="M-623,535.9h8.1c2.6,0,4.6,1.8,4.6,4.1l0,0c0,2.3-2,4.1-4.6,4.1h-8.1c-2.6,0-4.6-1.8-4.6-4.1l0,0
		C-627.6,537.7-625.6,535.9-623,535.9z"/>
	<path class="st2" d="M-718.2,535.1h51.2c2.6,0,4.6,1.8,4.6,4.1l0,0c0,2.3-2,4.1-4.6,4.1h-51.2c-2.6,0-4.6-1.8-4.6-4.1l0,0
		C-722.6,536.9-720.8,535.1-718.2,535.1z"/>
	<path class="st2" d="M-592.6,535.1h51.2c2.6,0,4.6,1.8,4.6,4.1l0,0c0,2.3-2,4.1-4.6,4.1h-51.2c-2.6,0-4.6-1.8-4.6-4.1l0,0
		C-597.2,536.9-595.2,535.1-592.6,535.1z"/>
	<path class="st2" d="M-718.8,554h8.1c2.6,0,4.6,1.8,4.6,4.1l0,0c0,2.3-2,4.1-4.6,4.1h-8.1c-2.6,0-4.6-1.8-4.6-4.1l0,0
		C-723.1,555.8-721.1,554-718.8,554z"/>
	<path class="st2" d="M-624.4,554h8.1c2.6,0,4.6,1.8,4.6,4.1l0,0c0,2.3-2,4.1-4.6,4.1h-8.1c-2.6,0-4.6-1.8-4.6-4.1l0,0
		C-629.1,555.8-627.1,554-624.4,554z"/>
	<path class="st2" d="M-597.8,554h8.1c2.6,0,4.6,1.8,4.6,4.1l0,0c0,2.3-2,4.1-4.6,4.1h-8.1c-2.6,0-4.6-1.8-4.6-4.1l0,0
		C-602.5,555.8-600.4,554-597.8,554z"/>
	<path class="st2" d="M-693,553.5h51.2c2.6,0,4.6,1.8,4.6,4.1l0,0c0,2.3-2,4.1-4.6,4.1H-693c-2.6,0-4.6-1.8-4.6-4.1l0,0
		C-697.7,555.3-695.6,553.5-693,553.5z"/>
	<path class="st2" d="M-567.7,553.5h51.2c2.6,0,4.6,1.8,4.6,4.1l0,0c0,2.3-2,4.1-4.6,4.1h-51.2c-2.6,0-4.6-1.8-4.6-4.1l0,0
		C-572.1,555.3-570,553.5-567.7,553.5z"/>
	<path class="st2" d="M-693.6,572.3h8.1c2.6,0,4.6,1.8,4.6,4.1l0,0c0,2.3-2,4.1-4.6,4.1h-8.1c-2.6,0-4.6-1.8-4.6-4.1l0,0
		C-698.3,574.2-696.2,572.3-693.6,572.3z"/>
	<path class="st2" d="M-599.6,572.3h8.1c2.6,0,4.6,1.8,4.6,4.1l0,0c0,2.3-2,4.1-4.6,4.1h-8.1c-2.6,0-4.6-1.8-4.6-4.1l0,0
		C-603.9,574.2-601.9,572.3-599.6,572.3z"/>
	<path class="st2" d="M-572.9,572.3h8.1c2.6,0,4.6,1.8,4.6,4.1l0,0c0,2.3-2,4.1-4.6,4.1h-8.1c-2.6,0-4.6-1.8-4.6-4.1l0,0
		C-577.3,574.2-575.2,572.3-572.9,572.3z"/>
	<path class="st2" d="M-667.9,571.6h51.2c2.6,0,4.6,1.8,4.6,4.1l0,0c0,2.3-2,4.1-4.6,4.1h-51.2c-2.6,0-4.6-1.8-4.6-4.1l0,0
		C-672.5,573.4-670.5,571.6-667.9,571.6z"/>
	<path class="st2" d="M-674.8,644.7h8.1c2.6,0,4.6,1.8,4.6,4.1l0,0c0,2.3-2,4.1-4.6,4.1h-8.1c-2.6,0-4.6-1.8-4.6-4.1l0,0
		C-679.2,646.5-677.1,644.7-674.8,644.7z"/>
	<path class="st2" d="M-648.2,644.7h8.1c2.6,0,4.6,1.8,4.6,4.1l0,0c0,2.3-2,4.1-4.6,4.1h-8.1c-2.6,0-4.6-1.8-4.6-4.1l0,0
		C-652.5,646.5-650.5,644.7-648.2,644.7z"/>
	<path class="st2" d="M-617.8,645.5h51.2c2.6,0,4.6,1.8,4.6,4.1l0,0c0,2.3-2,4.1-4.6,4.1h-51.2c-2.6,0-4.6-1.8-4.6-4.1l0,0
		C-622.4,647.3-620.4,645.5-617.8,645.5z"/>
	<path class="st2" d="M-768.9,644.7h8.1c2.6,0,4.6,1.8,4.6,4.1l0,0c0,2.3-2,4.1-4.6,4.1h-8.1c-2.6,0-4.6-1.8-4.6-4.1l0,0
		C-773.5,646.5-771.5,644.7-768.9,644.7z"/>
	<path class="st2" d="M-743.4,645.5h51.2c2.6,0,4.6,1.8,4.6,4.1l0,0c0,2.3-2,4.1-4.6,4.1h-51.2c-2.6,0-4.6-1.8-4.6-4.1l0,0
		C-747.7,647.3-745.7,645.5-743.4,645.5z"/>
	<path class="st2" d="M-743.7,626.6h8.1c2.6,0,4.6,1.8,4.6,4.1l0,0c0,2.3-2,4.1-4.6,4.1h-8.1c-2.6,0-4.6-1.8-4.6-4.1l0,0
		C-748.3,628.2-746.3,626.6-743.7,626.6z"/>
	<path class="st2" d="M-649.6,626.6h8.1c2.6,0,4.6,1.8,4.6,4.1l0,0c0,2.3-2,4.1-4.6,4.1h-8.1c-2.6,0-4.6-1.8-4.6-4.1l0,0
		C-654.3,628.2-652.2,626.6-649.6,626.6z"/>
	<path class="st2" d="M-623,626.6h8.1c2.6,0,4.6,1.8,4.6,4.1l0,0c0,2.3-2,4.1-4.6,4.1h-8.1c-2.6,0-4.6-1.8-4.6-4.1l0,0
		C-627.6,628.2-625.6,626.6-623,626.6z"/>
	<path class="st2" d="M-718.2,627.2h51.2c2.6,0,4.6,1.8,4.6,4.1l0,0c0,2.3-2,4.1-4.6,4.1h-51.2c-2.6,0-4.6-1.8-4.6-4.1l0,0
		C-722.6,629-720.8,627.2-718.2,627.2z"/>
	<path class="st2" d="M-718.8,608.3h8.1c2.6,0,4.6,1.8,4.6,4.1l0,0c0,2.3-2,4.1-4.6,4.1h-8.1c-2.6,0-4.6-1.8-4.6-4.1l0,0
		C-723.1,610.1-721.1,608.3-718.8,608.3z"/>
	<path class="st2" d="M-624.4,608.3h8.1c2.6,0,4.6,1.8,4.6,4.1l0,0c0,2.3-2,4.1-4.6,4.1h-8.1c-2.6,0-4.6-1.8-4.6-4.1l0,0
		C-629.1,610.1-627.1,608.3-624.4,608.3z"/>
	<path class="st2" d="M-597.8,608.3h8.1c2.6,0,4.6,1.8,4.6,4.1l0,0c0,2.3-2,4.1-4.6,4.1h-8.1c-2.6,0-4.6-1.8-4.6-4.1l0,0
		C-602.5,610.1-600.4,608.3-597.8,608.3z"/>
	<path class="st2" d="M-693,609.1h51.2c2.6,0,4.6,1.8,4.6,4.1l0,0c0,2.3-2,4.1-4.6,4.1H-693c-2.6,0-4.6-1.8-4.6-4.1l0,0
		C-697.7,610.9-695.6,609.1-693,609.1z"/>
	<path class="st2" d="M-693.6,590.2h8.1c2.6,0,4.6,1.8,4.6,4.1l0,0c0,2.3-2,4.1-4.6,4.1h-8.1c-2.6,0-4.6-1.8-4.6-4.1l0,0
		C-698.3,592-696.2,590.2-693.6,590.2z"/>
	<path class="st2" d="M-599.6,590.2h8.1c2.6,0,4.6,1.8,4.6,4.1l0,0c0,2.3-2,4.1-4.6,4.1h-8.1c-2.6,0-4.6-1.8-4.6-4.1l0,0
		C-603.9,592-601.9,590.2-599.6,590.2z"/>
	<path class="st2" d="M-572.9,590.2h8.1c2.6,0,4.6,1.8,4.6,4.1l0,0c0,2.3-2,4.1-4.6,4.1h-8.1c-2.6,0-4.6-1.8-4.6-4.1l0,0
		C-577.3,592-575.2,590.2-572.9,590.2z"/>
	<path class="st2" d="M-667.9,590.7h51.2c2.6,0,4.6,1.8,4.6,4.1l0,0c0,2.3-2,4.1-4.6,4.1h-51.2c-2.6,0-4.6-1.8-4.6-4.1l0,0
		C-672.5,592.5-670.5,590.7-667.9,590.7z"/>
</g>
<g>
	<path class="st3" d="M217.2,758.9c1.4,2,3.5,3.1,5.5,3.1h393.6c4.1,0,7.2-3.7,7.2-8.5c0-0.7,0-1-0.3-1.7l-6.1-34
		c-0.6-2.7-2.3-5.1-4.6-6.1c-0.9-0.3-1.7-0.7-2.6-0.7H228.7c-0.9,0-1.7,0.3-2.6,0.7c-2.3,1-4.1,3.4-4.6,6.1l-6.1,34
		C215.1,754.5,215.7,756.9,217.2,758.9z"/>
	<path class="st1" d="M581.8,725.6h-9.3c-0.9,0-1.4-0.7-1.4-1.7v-5.1c0-1,0.6-1.7,1.4-1.7h9.3c0.9,0,1.4,0.7,1.4,1.7v5.1
		C583.3,724.9,582.4,725.6,581.8,725.6z"/>
	<path class="st1" d="M557.5,725.6h-9.3c-0.9,0-1.4-0.7-1.4-1.7v-5.1c0-1,0.6-1.7,1.4-1.7h9.3c0.9,0,1.4,0.7,1.4,1.7v5.1
		C559,724.9,558.4,725.6,557.5,725.6z"/>
	<path class="st1" d="M533.2,725.6H524c-0.9,0-1.4-0.7-1.4-1.7v-5.1c0-1,0.6-1.7,1.4-1.7h9.3c0.9,0,1.4,0.7,1.4,1.7v5.1
		C534.7,724.9,534.1,725.6,533.2,725.6z"/>
	<path class="st1" d="M508.9,725.6h-9.3c-0.9,0-1.4-0.7-1.4-1.7v-5.1c0-1,0.6-1.7,1.4-1.7h9.3c0.9,0,1.4,0.7,1.4,1.7v5.1
		C510.4,724.9,509.8,725.6,508.9,725.6z"/>
	<path class="st1" d="M484.9,725.6h-9.6c-0.9,0-1.4-0.7-1.4-1.7v-5.1c0-1,0.6-1.7,1.4-1.7h9.3c0.9,0,1.4,0.7,1.4,1.7v5.1
		C486,724.9,485.5,725.6,484.9,725.6z"/>
	<path class="st1" d="M460.6,725.6h-9.3c-0.9,0-1.4-0.7-1.4-1.7v-5.1c0-1,0.6-1.7,1.4-1.7h9.3c0.9,0,1.4,0.7,1.4,1.7v5.1
		C462,724.9,461.4,725.6,460.6,725.6z"/>
	<path class="st1" d="M436.3,725.6H427c-0.9,0-1.4-0.7-1.4-1.7v-5.1c0-1,0.6-1.7,1.4-1.7h9.3c0.9,0,1.4,0.7,1.4,1.7v5.1
		C437.7,724.9,437.1,725.6,436.3,725.6z"/>
	<path class="st1" d="M411.9,725.6h-9.3c-0.9,0-1.4-0.7-1.4-1.7v-5.1c0-1,0.6-1.7,1.4-1.7h9.3c0.9,0,1.4,0.7,1.4,1.7v5.1
		C413.4,724.9,412.8,725.6,411.9,725.6z"/>
	<path class="st1" d="M387.9,725.6h-9.3c-0.9,0-1.4-0.7-1.4-1.7v-5.1c0-1,0.6-1.7,1.4-1.7h9.3c0.9,0,1.4,0.7,1.4,1.7v5.1
		C389.1,724.9,388.5,725.6,387.9,725.6z"/>
	<path class="st1" d="M363.6,725.6h-9.3c-0.9,0-1.4-0.7-1.4-1.7v-5.1c0-1,0.6-1.7,1.4-1.7h9.3c0.9,0,1.4,0.7,1.4,1.7v5.1
		C365.1,724.9,364.2,725.6,363.6,725.6z"/>
	<path class="st1" d="M339.3,725.6H330c-0.9,0-1.4-0.7-1.4-1.7v-5.1c0-1,0.6-1.7,1.4-1.7h9.3c0.9,0,1.4,0.7,1.4,1.7v5.1
		C340.7,724.9,340.2,725.6,339.3,725.6z"/>
	<path class="st1" d="M315,725.6h-9.3c-0.9,0-1.4-0.7-1.4-1.7v-5.1c0-1,0.6-1.7,1.4-1.7h9.3c0.9,0,1.4,0.7,1.4,1.7v5.1
		C316.4,724.9,315.9,725.6,315,725.6z"/>
	<path class="st1" d="M290.7,725.6h-9.3c-0.9,0-1.4-0.7-1.4-1.7v-5.1c0-1,0.6-1.7,1.4-1.7h9.3c0.9,0,1.4,0.7,1.4,1.7v5.1
		C292.1,724.9,291.5,725.6,290.7,725.6z"/>
	<path class="st1" d="M266.7,725.6h-9.3c-0.9,0-1.4-0.7-1.4-1.7v-5.1c0-1,0.6-1.7,1.4-1.7h9.3c0.9,0,1.4,0.7,1.4,1.7v5.1
		C268.1,724.9,267.2,725.6,266.7,725.6z"/>
	<path class="st1" d="M242.3,725.6H233c-0.9,0-1.4-0.7-1.4-1.7v-5.1c0-1,0.6-1.7,1.4-1.7h9.3c0.9,0,1.4,0.7,1.4,1.7v5.1
		C243.8,724.9,243.2,725.6,242.3,725.6z"/>
	<path class="st1" d="M606.2,739.9h-9.3c-0.9,0-1.4-0.7-1.4-1.7v-5.1c0-1,0.6-1.7,1.4-1.7h9.3c0.9,0,1.4,0.7,1.4,1.7v5.1
		C607.6,739.2,607,739.9,606.2,739.9z"/>
	<path class="st1" d="M582.1,739.9h-9.3c-0.9,0-1.4-0.7-1.4-1.7v-5.1c0-1,0.6-1.7,1.4-1.7h9.3c0.9,0,1.4,0.7,1.4,1.7v5.1
		C583.6,739.2,582.7,739.9,582.1,739.9z"/>
	<path class="st1" d="M557.8,739.9h-9.3c-0.9,0-1.4-0.7-1.4-1.7v-5.1c0-1,0.6-1.7,1.4-1.7h9.3c0.9,0,1.4,0.7,1.4,1.7v5.1
		C559.3,739.2,558.7,739.9,557.8,739.9z"/>
	<path class="st1" d="M533.5,739.9h-9.3c-0.9,0-1.4-0.7-1.4-1.7v-5.1c0-1,0.6-1.7,1.4-1.7h9.3c0.9,0,1.4,0.7,1.4,1.7v5.1
		C535,739.2,534.4,739.9,533.5,739.9z"/>
	<path class="st1" d="M509.2,739.9h-9.3c-0.9,0-1.4-0.7-1.4-1.7v-5.1c0-1,0.6-1.7,1.4-1.7h9.3c0.9,0,1.4,0.7,1.4,1.7v5.1
		C510.6,739.2,510.1,739.9,509.2,739.9z"/>
	<path class="st1" d="M485.2,739.9h-9.3c-0.9,0-1.4-0.7-1.4-1.7v-5.1c0-1,0.6-1.7,1.4-1.7h9.3c0.9,0,1.4,0.7,1.4,1.7v5.1
		C486.3,739.2,485.8,739.9,485.2,739.9z"/>
	<path class="st1" d="M460.9,739.9h-9.3c-0.9,0-1.4-0.7-1.4-1.7v-5.1c0-1,0.6-1.7,1.4-1.7h9.3c0.9,0,1.4,0.7,1.4,1.7v5.1
		C462.3,739.2,461.7,739.9,460.9,739.9z"/>
	<path class="st1" d="M436.5,739.9h-9.3c-0.9,0-1.4-0.7-1.4-1.7v-5.1c0-1,0.6-1.7,1.4-1.7h9.3c0.9,0,1.4,0.7,1.4,1.7v5.1
		C438,739.2,437.4,739.9,436.5,739.9z"/>
	<path class="st1" d="M412.2,739.9H403c-0.9,0-1.4-0.7-1.4-1.7v-5.1c0-1,0.6-1.7,1.4-1.7h9.3c0.9,0,1.4,0.7,1.4,1.7v5.1
		C413.7,739.2,413.1,739.9,412.2,739.9z"/>
	<path class="st1" d="M388.2,739.9H379c-0.9,0-1.4-0.7-1.4-1.7v-5.1c0-1,0.6-1.7,1.4-1.7h9.3c0.9,0,1.4,0.7,1.4,1.7v5.1
		C389.4,739.2,388.8,739.9,388.2,739.9z"/>
	<path class="st1" d="M363.9,739.9h-9.3c-0.9,0-1.4-0.7-1.4-1.7v-5.1c0-1,0.6-1.7,1.4-1.7h9.3c0.9,0,1.4,0.7,1.4,1.7v5.1
		C365.4,739.2,364.5,739.9,363.9,739.9z"/>
	<path class="st1" d="M339.6,739.9h-9.3c-0.9,0-1.4-0.7-1.4-1.7v-5.1c0-1,0.6-1.7,1.4-1.7h9.3c0.9,0,1.4,0.7,1.4,1.7v5.1
		C341,739.2,340.5,739.9,339.6,739.9z"/>
	<path class="st1" d="M315.3,739.9H306c-0.9,0-1.4-0.7-1.4-1.7v-5.1c0-1,0.6-1.7,1.4-1.7h9.3c0.9,0,1.4,0.7,1.4,1.7v5.1
		C316.7,739.2,316.1,739.9,315.3,739.9z"/>
	<path class="st1" d="M291,739.9h-9.3c-0.9,0-1.4-0.7-1.4-1.7v-5.1c0-1,0.6-1.7,1.4-1.7h9.3c0.9,0,1.4,0.7,1.4,1.7v5.1
		C292.4,739.2,291.8,739.9,291,739.9z"/>
	<path class="st1" d="M266.9,739.9h-9.3c-0.9,0-1.4-0.7-1.4-1.7v-5.1c0-1,0.6-1.7,1.4-1.7h9.3c0.9,0,1.4,0.7,1.4,1.7v5.1
		C268.4,739.2,267.5,739.9,266.9,739.9z"/>
	<path class="st1" d="M242.6,739.9h-9.3c-0.9,0-1.4-0.7-1.4-1.7v-5.1c0-1,0.6-1.7,1.4-1.7h9.3c0.9,0,1.4,0.7,1.4,1.7v5.1
		C244.1,739.2,243.5,739.9,242.6,739.9z"/>
	<path class="st1" d="M489.8,756.9h-94.1c-0.9,0-1.4-0.7-1.4-1.7v-5.1c0-1,0.6-1.7,1.4-1.7h94.1c0.9,0,1.4,0.7,1.4,1.7v5.1
		C491.3,756.2,490.7,756.9,489.8,756.9z"/>
</g>
<g>
	<g>
		<path class="st4" d="M204.5,842.3L166,787.7l121.3-86.4l50.1-49.6c20.5-20.4,55.6-22,78.4-3.6c7.2,5.7,12.4,13.2,15.6,21.2l0,0
			c9.3,25.3-5.5,52.7-33.6,62.1l-79,26.1L204.5,842.3z"/>
		<path class="st1" d="M-415.4,548.3l0.6,1.8l0,0l18.8,51.2l21.7,59.2l40.8,111.2l0.3,17.3l0,0l2.9,138.8l-8.4,18.9l9.6,30.8
			c0,0-4.3-46.5-27.8-19.9c-13.3,15.3-28.7,30.8-41.4,45.5c18.5,6.7,37.3,12.7,56.4,18.1c4.1,1.3,8.4,2.3,12.4,3.4
			c0.9,0.3,1.7,0.5,2.6,0.8c63.4,16.8,128.8,26.1,195.1,27.9c3.5,0,6.7,0.3,10.1,0.3c1.2,0,2.3,0,3.5,0c3.8,0,7.2,0,11,0
			c7.5,0,14.8,0,22.3-0.3c54.7-1.3,109.1-8,162.4-19.6c-0.3-19.6-1.4-42.4-2.9-67c-0.6-12-15.6-25.2-16.5-37.6
			c-0.6-9.6,12.7-18.4,11.9-27.9c-4.6-58.9-10.1-36.5-14.2-78.1c-0.3-4.1-0.9-8-1.2-11.9C52,784.4,50,767.5,50,767.5l17.7-100.1
			l27.8-156.9l-2-3.1l-2.3-1l-147-65.2l-8.1-18.4c-4.6-10.9-16.5-17.8-29.2-17.8l-97-0.3c-10.1,0-19.7,4.4-25.8,11.6l-26.3,32.6
			L-415.4,548.3z"/>
		<path class="st1" d="M-310.9,747.1l-22,41.9l-15.1,28.7l-25.8,120.5l-13,12.2l-11-43.4l-115.8,23c-3.8-18.9-1.2,0.5-3.5-20.2
			c0.6-0.5,1.4-1.3,2-1.8c1.7-1.6,3.5-3.1,3.5-4.4C-513,832.2-509,711-476,637.3c5.2-11.9,12.2-23.3,20.3-33.9
			c0.6-0.8,1.2-1.6,2-2.3c15.3-19.1,24.9-37.7,38.5-51.2l0,0l0.3-0.3l0,0l93.8-44.5l4.1,101.1l2.9,72.7L-310.9,747.1z"/>
		<path class="st1" d="M27.7,759l27.5,52.5l9.6,18.4l25.8,120.5l12.7,12.2l11-43.4l5.2-1l94.1-17.3l27.5,77.6
			c12.7-18.9,8.7-43.2-9.6-58.2c-1.7-1.6-3.5-3.1-3.5-4.4c1.4-83.8-4.1-237.1-56.1-300.2c-16.5-19.9-26.3-39.8-40.8-53.8l0,0
			l-35-51.2l-2-3.1l-2.3-1L27.7,759z"/>
		<ellipse id="a657ec4b-47ce-4d2a-9c58-81a811696ca9" class="st4" cx="-138.4" cy="264.9" rx="129.1" ry="115.3"/>
		<path class="st3" d="M35.8,184.5c-2-1.8-4.9-3.1-7.8-3.1l2-4.9c2-4.7-0.6-10.1-6.1-11.6c-1.7-0.5-3.8-0.8-5.5-0.5l-6.9,1.3
			l0.6-4.1c0.9-4.9-3.2-9.6-8.7-10.3c-1.7-0.3-3.5,0-4.9,0.5c-3.2,1-6.7,0.8-9.3-0.5c-2.9-1.3-4.9-3.9-5.5-6.7l-2.3-10.6l-0.3-0.5
			c-11.9-17.8-35-30.8-63.1-35.7c-25.2-4.1-50.9-2.1-75.5,0c-9.8,0.8-20.8,1.8-30.1,6.7c-7.8,4.4-14.5,12.9-13,21.7
			c-24.6-6.7-50.7,6.7-63.7,23.5c-15.3,20.2-17.9,45.2-18.2,64.9c-1.2,46.5,9.6,84.5,31.8,113c1.7,2.1,2,6.5,5.2,7.8l-0.6-1
			c3.5,1.6,7.2,4.1,5.8,7c-3.8,8,22,25.6,40.2,31.3c33.3,10.6,77.9,9.8,108.8,5.9l1.2-6.5c11.3-1.3,19.1-3.9,21.4-8
			c4.1-3.1,7.2-5.7,10.1-8.3l0,0c0,0,0.3,0,0.3-0.3c14.2-12.2,17.4-18.9,18.8-29.5c1.4-10.3-1.2-20.7-3.8-30
			c54.1,7.5-21.4-51.7,29.2-63.1c0.6-0.3,1.2-0.3,1.7-0.3c1.4-0.3,2.9-0.5,4.3-1c6.9-1.6,13.3-4.1,19.4-7.5
			c14.2-7.8,18.8-17.8,26-29.5C39.3,191.5,38.7,187.4,35.8,184.5z"/>
	</g>
	<path class="st3" d="M317.7,767c0,4.7,0,10.9-0.3,18.6c0,1,0,2.1,0,3.4c-0.3,14.5-0.9,26.4-1.4,39.8c0,1,0,1.8,0,2.8
		c-0.9,18.6-2,40.6-4.3,75c-4.1,63.9-11.3,8.8-18.2,31c-0.3,1-0.9,2.3-1.2,3.9c-1.2,5.7-2.9,11.1-5.5,16.3
		c-3.8,2.1-7.8,3.9-11.6,5.9c-11,5.4-22,10.6-33.3,15.8c-6.4,2.8-12.7,5.4-19.1,8.3c-0.9,0.5-2,0.8-2.9,1.3
		c-32.7,13.4-66.3,24.8-100.7,34.4c-6.7,1.8-13.3,3.6-20.3,5.2c-6.9,1.8-14.2,3.4-21.1,4.9c-53.3,11.6-107.7,18.4-162.4,19.6
		c-7.2,0.3-14.8,0.3-22.3,0.3c-3.8,0-7.2,0-11,0c-1.2,0-2.3,0-3.5,0c-3.2,0-6.7,0-10.1-0.3c-66-1.8-131.7-11.4-194.8-27.9l-2.6-0.8
		c-4.1-1-8.4-2.3-12.4-3.4c-19.1-5.4-37.9-11.4-56.4-18.1c-14.2-5.2-28.1-10.6-42-16.3c0,0-0.3,0-0.3-0.3c-2.9-1.3-5.8-2.3-8.7-3.6
		c-0.3-0.3-0.9-0.3-1.2-0.5c-10.7-4.7-21.4-9.6-32.1-14.7c-9-18.4-21.4-21.7-29.2-37.7c-2.3-4.7-3.8-9.8-4.9-14.7c0,0,0,0,0-0.3
		c0.9,9.6-3.5-17.1,0,0c0-0.3,0-0.8,0-1c0-1-0.3-2.1-0.3-3.4c-9.8-86.6-9.3-185.6-13.6-267.3c-0.3-5.2-0.6-10.3-0.9-15.3
		c0-1.6-0.3-3.1-0.3-4.7c0.3-0.5,0.3-1,0.6-1.3c0-0.3,0-0.3,0.3-0.5c0-0.3,0.3-0.3,0.3-0.5c0,0,0-0.3,0.3-0.3v-0.3
		c0.3-0.3,0.6-0.8,0.9-1c0-0.3,0.3-0.3,0.3-0.5s0.3-0.3,0.3-0.3l0.3-0.3l0.3-0.3c0,0,0-0.3,0.3-0.3c0.3-0.3,0.6-0.5,0.9-0.8
		c1.2-0.8,2-1.6,3.2-2.3c0.3-0.3,0.9-0.5,1.2-0.8c2.9-1.6,6.1-2.8,9.3-3.9c1.2-0.3,2.3-0.8,3.5-1c0.3,0,0.9-0.3,1.2-0.3
		c0.6-0.3,1.2-0.3,2-0.5c3.2-0.8,6.9-1.6,10.7-2.3c0.6,0,0.9-0.3,1.4-0.3c0.6,0,1.4-0.3,2-0.3c0.9-0.3,2-0.3,2.9-0.5
		c8.7-1.3,18.2-2.1,29.2-2.6c1.2,0,2,0,2.9-0.3c1.2,0,2.3,0,3.5-0.3c1.2,0,2,0,3.2,0s2,0,3.2,0c2.9,0,5.8-0.3,9-0.3
		c8.7-0.3,17.9,0,27.5,0c4.3,0,9,0.3,13.9,0.5c0.3,0,0.6,0,0.9,0c4.1,0,8.1,0.3,12.4,0.5c2.9,0,5.8,0.3,9,0.5
		c2.9,0.3,5.5,0.3,8.4,0.5c2.3,0,4.3,0.3,6.7,0.5c2,0,3.8,0.3,5.8,0.3l2.6,0.3c1.4,0,2.9,0.3,4.3,0.3c3.2,0.3,6.4,0.5,9.6,0.8
		s6.4,0.5,9.8,0.8c3.5,0.3,6.7,0.5,9.8,0.8c0.3,0,0.6,0,0.9,0c2.9,0.3,6.1,0.5,9,0.8c0.6,0,1.4,0,2,0.3c2.9,0.3,5.8,0.5,8.7,0.8
		c0.9,0,1.7,0.3,2.6,0.3c2.3,0.3,4.6,0.5,6.9,0.8c2.9,0.3,6.1,0.5,9.3,1c2.3,0.3,4.6,0.5,6.9,0.8c3.8,0.5,7.5,0.8,11,1.3
		c1.4,0.3,2.9,0.3,4.3,0.5c10.7,1.3,21.4,2.6,32.4,3.9c16.5,2.1,33.3,4.4,50.4,6.7c17.1,2.6,34.2,5.2,51.2,7.8
		c4.3,0.8,8.7,1.3,13,2.1c2,0.3,4.1,0.8,5.8,1c3.5,0.5,6.7,1,10.1,1.8c3.5,0.5,6.7,1,10.1,1.8c4.1,0.8,8.1,1.3,12.2,2.1
		c26.3,4.7,52.4,9.6,78.1,14.7c4.3,0.8,8.4,1.8,12.4,2.6c8.4,1.8,16.5,3.4,24.9,5.2c2.3,0.5,4.3,1,6.7,1.6c5.5,1.3,11,2.6,16.5,3.9
		L69,669c4.1,0.8,8.1,1.8,11.9,2.6c9.3,2.1,18.5,4.4,27.5,6.5c6.1,1.6,11.9,2.8,17.7,4.4c8.7,2.3,17.4,4.7,25.5,6.7
		c2,0.5,4.1,1,6.1,1.8c6.1,1.8,12.2,3.4,17.9,5.2c4.6,1.3,9.3,2.6,13.6,4.1c4.3,1.3,8.7,2.8,13,4.1c2.9,0.8,5.5,1.8,8.1,2.6
		c3.8,1.3,7.8,2.6,11.6,3.9c1.2,0.5,2.3,0.8,3.5,1.3c0.9,0.3,1.4,0.5,2,0.8c1.4,0.5,2.9,1,4.1,1.6c1.4,0.5,2.6,1,4.1,1.6
		c1.4,0.5,2.6,1,3.8,1.6c1.4,0.5,2.6,1,3.8,1.6c1.2,0.5,2,0.8,3.2,1.3c2,0.8,4.1,1.6,6.1,2.3c0.9,0.5,2,0.8,2.9,1.3l2.3,1
		c0.3,0.3,0.6,0.3,0.9,0.5c0.9,0.3,1.4,0.8,2.3,1c1.7,0.8,3.5,1.6,4.9,2.1c2.3,1,4.3,2.1,6.4,2.8c2,1,4.1,2.1,6.1,2.8
		c0.3,0.3,0.6,0.3,0.9,0.5c0.6,0.3,0.9,0.5,1.4,0.8c1.4,0.8,2.9,1.6,4.3,2.3c2.9,1.6,5.5,3.1,7.8,4.7c0.6,0.3,1.2,0.8,1.7,1
		c1.7,1.3,3.5,2.3,5.2,3.4l0,0c0.6,0.3,1.2,0.8,1.4,1c0.6,0.3,0.9,0.8,1.4,1c1.4,1.3,2.9,2.3,4.1,3.4c0.3,0.3,0.9,0.8,1.2,1
		c0.3,0,0.3,0.3,0.6,0.5c0.6,0.5,1.2,1,1.4,1.6c0,0,0,0.3,0.3,0.3c0.6,0.8,1.4,1.6,2,2.1c0.3,0.3,0.6,0.8,0.9,1
		c0.3,0.5,0.6,0.8,0.9,1.3c0.3,0.3,0.6,0.8,0.9,1c0.6,1,1.2,1.8,1.4,2.8c0.3,0.8,0.6,1.3,0.9,2.1C317.4,765.7,317.7,766.5,317.7,767
		z"/>
	<path class="st5" d="M317.7,767c0,4.7,0,10.9-0.3,18.6c0,1,0,2.1,0,3.4c-0.3,11.1-0.9,24.6-1.4,39.8c0,1,0,1.8,0,2.8
		c-0.9,18.6-2,40.6-4.3,75c-4.1,63.9-11.3,8.8-18.2,31c-20-10.9-41.7-22.2-64.8-34.1c-4.1-2.1-8.4-4.1-12.7-6.5
		c-46.6-23.3-98.4-47.6-152.8-71.6c-2-1-4.3-1.8-6.4-2.8c-124.5-54.8-259.9-108.3-369.9-144c-21.1-7-41.4-13.2-60.5-18.6
		c-40.2-11.4-74.7-19.4-101.6-23c-27.8-3.6-46.9-2.3-54.7,5.2c-0.3-5.2-0.6-10.3-0.9-15.3c0-1.6-0.3-3.1-0.3-4.7
		c0.3-0.5,0.3-0.8,0.6-1.3c0,0,0,0,0-0.3s0-0.3,0.3-0.5c0-0.3,0.3-0.3,0.3-0.5s0.3-0.3,0.3-0.5c0.3-0.3,0.6-0.8,0.9-1
		s0.6-0.5,0.9-0.8l0.3-0.3l0.3-0.3c0,0,0-0.3,0.3-0.3c0.3-0.3,0.6-0.5,0.9-0.8c1.2-0.8,2-1.6,3.2-2.3c0.3-0.3,0.9-0.5,1.2-0.8
		c2.9-1.6,6.1-2.8,9.3-3.9c1.2-0.3,2.3-0.8,3.5-1c0.3,0,0.9-0.3,1.2-0.3c0.6-0.3,1.2-0.3,2-0.5c3.2-0.8,6.9-1.6,10.7-2.3
		c1.2-0.3,2.3-0.5,3.5-0.5c0.9-0.3,2-0.3,2.9-0.5c8.7-1.3,18.2-2.1,29.2-2.6c1.2,0,2,0,2.9-0.3c1.2,0,2.3,0,3.5-0.3c1.2,0,2,0,3.2,0
		s2,0,3.2,0c2.9,0,5.8-0.3,9-0.3c8.7,0,17.9,0,27.5,0c4.3,0,9,0.3,13.9,0.5c0.3,0,0.6,0,0.9,0c4.1,0,8.1,0.3,12.4,0.5
		c2.9,0,5.8,0.3,9,0.5c2.9,0.3,5.5,0.3,8.4,0.5c2.3,0,4.3,0.3,6.7,0.5c2,0,3.8,0.3,5.8,0.3c2.3,0.3,4.6,0.3,6.9,0.5
		c3.2,0.3,6.4,0.5,9.6,0.8s6.4,0.5,9.8,0.8c3.5,0.3,6.7,0.5,9.8,0.8c0.3,0,0.6,0,0.9,0c2.9,0.3,6.1,0.5,9,0.8
		c16.8,1.6,34.2,3.4,52.1,5.4c10.7,1.3,21.4,2.6,32.4,3.9c16.5,2.1,33.3,4.4,50.4,6.7c17.1,2.6,34.2,5.2,51.2,7.8
		c4.3,0.8,8.7,1.3,13,2.1c5.2,0.8,10.7,1.8,15.9,2.6c3.5,0.5,6.7,1,10.1,1.8c4.1,0.8,8.1,1.3,12.2,2.1c26.3,4.7,52.4,9.6,78.1,14.7
		c4.3,0.8,8.4,1.8,12.4,2.6c8.4,1.8,16.5,3.4,24.9,5.2c2.3,0.5,4.3,1,6.7,1.6c5.5,1.3,11,2.6,16.5,3.6l0,0c0.3,0,0.6,0,0.9,0.3
		c4.1,0.8,8.1,1.8,11.9,2.8c9.3,2.1,18.5,4.4,27.5,6.5c6.1,1.6,11.9,3.1,17.7,4.4c8.7,2.3,17.4,4.7,25.5,6.7c2,0.5,4.1,1,6.1,1.8
		c6.1,1.8,12.2,3.4,17.9,5.2c4.6,1.3,9.3,2.6,13.6,4.1c4.3,1.3,8.7,2.8,13,4.1c2.9,0.8,5.5,1.8,8.1,2.6c4.1,1.3,7.8,2.6,11.6,3.9
		c1.2,0.5,2.3,0.8,3.5,1.3c2,0.8,4.1,1.6,6.1,2.3c1.4,0.5,2.6,1,4.1,1.6c1.4,0.5,2.6,1,3.8,1.6c1.4,0.5,2.6,1,3.8,1.6
		c1.2,0.5,2,0.8,3.2,1.3c2,0.8,4.1,1.6,6.1,2.3c0.9,0.5,2,0.8,2.9,1.3l2.3,1c0.3,0.3,0.6,0.3,0.9,0.5c2.3,1,4.9,2.1,7.2,3.1
		c2.3,1,4.3,2.1,6.4,2.8c2.3,1,4.6,2.3,6.9,3.4c0.6,0.3,0.9,0.5,1.4,0.8c1.4,0.8,2.9,1.6,4.3,2.3c2.9,1.6,5.5,3.1,7.8,4.7
		c2.3,1.6,4.6,3.1,6.7,4.4l0,0c0.9,0.8,2,1.6,2.9,2.1c1.4,1.3,2.9,2.3,4.1,3.4c0.3,0.3,0.9,0.8,1.2,1c0.3,0,0.3,0.3,0.6,0.5
		c0.6,0.5,1.2,1.3,1.7,1.8c0.6,0.8,1.4,1.6,2,2.1c0.3,0.3,0.6,0.8,0.9,1c0.3,0.5,0.6,0.8,0.9,1.3c0.3,0.3,0.6,0.8,0.9,1
		c0.6,1,1.2,1.8,1.4,2.8c0.3,0.8,0.6,1.3,0.9,2.1C317.4,765.7,317.7,766.5,317.7,767z"/>
</g>
</svg>
